M48
;GenerationSoftware,Autodesk,EAGLE,9.3.0*%
;CreationDate,2020-01-01T11:12:43Z*%
FMAT,2
ICI,OFF
METRIC,TZ,000.000
T2C0.350
T1C1.100
%
G90
M71
T1
X38171Y23141
X36548Y46074
X33048Y46074
X31171Y23141
X34671Y23141
T2
X42164Y22098
X26670Y22098
X28321Y20828
X35179Y26670
X37846Y26670
X38862Y36576
X44323Y38481
X44704Y35179
X36830Y37338
X43974Y22025
X50148Y32881
X50165Y36449
X43942Y47117
X40853Y49022
X28387Y49022
X25394Y47192
X19095Y36356
X19050Y32766
X25198Y22002
X29718Y38608
X38735Y38608
X30099Y28956
X24511Y25377
X22606Y38862
X24638Y39116
X30290Y37647
X39243Y32337
X45720Y31877
X44450Y43838
X40513Y42291
X41275Y44958
X45720Y37358
X24892Y33909
X27051Y33909
X26416Y28702
X41275Y29337
X32893Y24384
X36449Y24384
X44704Y32512
X28448Y45720
X30226Y45720
X28448Y43434
X42799Y29337
X37719Y28829
X34290Y28956
X31115Y41656
X43053Y40005
X39624Y47371
X40386Y33020
X22098Y31369
X26238Y41783
X27305Y45009
X39497Y30607
X41148Y41336
X41481Y37592
X34129Y39536
X26924Y35384
X28321Y31115
X44196Y28321
X29210Y33274
X29210Y32258
X36497Y42293
X40259Y40386
X41910Y47371
X27432Y47371
X19939Y34544
X40767Y20828
X29845Y31511
M30