G04 EAGLE Gerber RS-274X export*
G75*
%MOMM*%
%FSLAX34Y34*%
%LPD*%
%INEAGLE Copper Layer 15*%
%IPPOS*%
%AMOC8*
5,1,8,0,0,1.08239X$1,22.5*%
G01*
%ADD10C,1.650000*%
%ADD11C,0.756400*%
%ADD12C,0.609600*%

G36*
X430826Y199257D02*
X430826Y199257D01*
X430900Y199264D01*
X430924Y199277D01*
X430950Y199282D01*
X431011Y199324D01*
X431076Y199359D01*
X431095Y199381D01*
X431116Y199395D01*
X431145Y199440D01*
X431193Y199496D01*
X439086Y213167D01*
X439097Y213203D01*
X439118Y213234D01*
X439129Y213297D01*
X439150Y213357D01*
X439147Y213395D01*
X439153Y213431D01*
X439140Y213494D01*
X439135Y213557D01*
X439118Y213590D01*
X439110Y213627D01*
X439073Y213679D01*
X439044Y213736D01*
X439015Y213760D01*
X438994Y213790D01*
X438940Y213824D01*
X438891Y213865D01*
X438855Y213877D01*
X438824Y213896D01*
X438751Y213909D01*
X438700Y213925D01*
X438675Y213923D01*
X438646Y213928D01*
X438486Y213928D01*
X436162Y214891D01*
X434383Y216669D01*
X433421Y218993D01*
X433421Y221509D01*
X434383Y223832D01*
X436162Y225611D01*
X436278Y225659D01*
X437503Y226167D01*
X438486Y226574D01*
X441001Y226574D01*
X443325Y225611D01*
X444724Y224212D01*
X444784Y224172D01*
X444838Y224126D01*
X444867Y224117D01*
X444891Y224101D01*
X444962Y224087D01*
X445030Y224066D01*
X445059Y224069D01*
X445088Y224063D01*
X445158Y224078D01*
X445229Y224084D01*
X445255Y224098D01*
X445284Y224105D01*
X445343Y224145D01*
X445406Y224179D01*
X445427Y224203D01*
X445449Y224219D01*
X445477Y224263D01*
X445522Y224317D01*
X501757Y321721D01*
X501769Y321757D01*
X501790Y321788D01*
X501801Y321851D01*
X501821Y321911D01*
X501819Y321949D01*
X501825Y321985D01*
X501811Y322048D01*
X501807Y322111D01*
X501790Y322144D01*
X501782Y322181D01*
X501745Y322233D01*
X501716Y322290D01*
X501687Y322314D01*
X501666Y322344D01*
X501611Y322378D01*
X501563Y322419D01*
X501527Y322431D01*
X501495Y322450D01*
X501423Y322463D01*
X501372Y322479D01*
X501347Y322477D01*
X501318Y322482D01*
X500226Y322482D01*
X497902Y323445D01*
X496123Y325223D01*
X495161Y327547D01*
X495161Y330063D01*
X496123Y332387D01*
X497902Y334165D01*
X498012Y334211D01*
X498013Y334211D01*
X499237Y334718D01*
X500226Y335128D01*
X502741Y335128D01*
X505065Y334165D01*
X506844Y332387D01*
X506898Y332257D01*
X506937Y332198D01*
X506969Y332136D01*
X506992Y332116D01*
X507009Y332090D01*
X507068Y332052D01*
X507122Y332006D01*
X507151Y331997D01*
X507177Y331980D01*
X507246Y331967D01*
X507313Y331946D01*
X507344Y331949D01*
X507374Y331944D01*
X507443Y331959D01*
X507512Y331965D01*
X507540Y331980D01*
X507570Y331986D01*
X507627Y332027D01*
X507689Y332060D01*
X507711Y332085D01*
X507734Y332101D01*
X507761Y332145D01*
X507805Y332197D01*
X515744Y345948D01*
X515768Y346018D01*
X515799Y346086D01*
X515800Y346113D01*
X515808Y346138D01*
X515803Y346212D01*
X515805Y346286D01*
X515796Y346313D01*
X515794Y346338D01*
X515770Y346386D01*
X515744Y346456D01*
X507588Y360583D01*
X507541Y360637D01*
X507500Y360696D01*
X507475Y360712D01*
X507456Y360734D01*
X507391Y360765D01*
X507331Y360803D01*
X507302Y360808D01*
X507275Y360821D01*
X507204Y360825D01*
X507133Y360837D01*
X507104Y360830D01*
X507075Y360832D01*
X507008Y360807D01*
X506938Y360791D01*
X506912Y360773D01*
X506886Y360764D01*
X506848Y360729D01*
X506790Y360688D01*
X505232Y359130D01*
X504886Y358987D01*
X503662Y358480D01*
X502908Y358167D01*
X500392Y358167D01*
X498068Y359130D01*
X496290Y360908D01*
X495327Y363232D01*
X495327Y365748D01*
X496290Y368072D01*
X498068Y369850D01*
X498975Y370226D01*
X500199Y370733D01*
X500200Y370733D01*
X500392Y370813D01*
X500804Y370813D01*
X500840Y370820D01*
X500878Y370818D01*
X500938Y370840D01*
X501000Y370852D01*
X501031Y370873D01*
X501066Y370886D01*
X501113Y370929D01*
X501166Y370965D01*
X501186Y370996D01*
X501214Y371022D01*
X501241Y371080D01*
X501275Y371133D01*
X501282Y371170D01*
X501297Y371204D01*
X501300Y371268D01*
X501311Y371330D01*
X501303Y371367D01*
X501304Y371404D01*
X501279Y371474D01*
X501267Y371526D01*
X501253Y371546D01*
X501243Y371574D01*
X445725Y467737D01*
X445678Y467789D01*
X445639Y467847D01*
X445613Y467864D01*
X445592Y467887D01*
X445529Y467918D01*
X445470Y467956D01*
X445440Y467961D01*
X445412Y467974D01*
X445342Y467978D01*
X445273Y467990D01*
X445242Y467983D01*
X445212Y467985D01*
X445146Y467961D01*
X445077Y467946D01*
X445052Y467928D01*
X445023Y467917D01*
X444971Y467870D01*
X444914Y467829D01*
X444896Y467801D01*
X444875Y467782D01*
X444854Y467735D01*
X444817Y467677D01*
X444780Y467588D01*
X443002Y465810D01*
X442276Y465509D01*
X441052Y465002D01*
X441051Y465002D01*
X440678Y464847D01*
X438162Y464847D01*
X435838Y465810D01*
X434060Y467588D01*
X433097Y469912D01*
X433097Y472428D01*
X434060Y474752D01*
X435838Y476530D01*
X436364Y476748D01*
X436365Y476748D01*
X437589Y477255D01*
X438162Y477493D01*
X439214Y477493D01*
X439250Y477500D01*
X439288Y477498D01*
X439348Y477520D01*
X439410Y477532D01*
X439441Y477553D01*
X439476Y477566D01*
X439523Y477609D01*
X439576Y477645D01*
X439596Y477676D01*
X439624Y477702D01*
X439651Y477760D01*
X439685Y477813D01*
X439692Y477850D01*
X439708Y477884D01*
X439710Y477948D01*
X439721Y478010D01*
X439713Y478047D01*
X439714Y478084D01*
X439689Y478154D01*
X439677Y478206D01*
X439663Y478226D01*
X439653Y478254D01*
X431193Y492908D01*
X431144Y492963D01*
X431101Y493023D01*
X431078Y493038D01*
X431060Y493058D01*
X430994Y493090D01*
X430931Y493129D01*
X430902Y493134D01*
X430880Y493145D01*
X430826Y493148D01*
X430754Y493161D01*
X414916Y493161D01*
X414912Y493160D01*
X414908Y493161D01*
X414814Y493141D01*
X414719Y493122D01*
X414716Y493119D01*
X414712Y493119D01*
X414633Y493063D01*
X414553Y493009D01*
X414551Y493006D01*
X414548Y493003D01*
X414496Y492921D01*
X414444Y492841D01*
X414444Y492837D01*
X414441Y492834D01*
X414426Y492738D01*
X414409Y492644D01*
X414409Y492640D01*
X414409Y492636D01*
X414447Y492460D01*
X414852Y491482D01*
X414852Y488967D01*
X413890Y486643D01*
X412111Y484864D01*
X411920Y484785D01*
X410695Y484278D01*
X409787Y483901D01*
X407272Y483901D01*
X404948Y484864D01*
X403169Y486643D01*
X402207Y488967D01*
X402207Y491482D01*
X402612Y492460D01*
X402613Y492464D01*
X402615Y492467D01*
X402632Y492562D01*
X402651Y492657D01*
X402650Y492660D01*
X402650Y492664D01*
X402629Y492758D01*
X402610Y492853D01*
X402608Y492856D01*
X402607Y492860D01*
X402551Y492938D01*
X402496Y493018D01*
X402493Y493020D01*
X402491Y493023D01*
X402409Y493074D01*
X402328Y493127D01*
X402324Y493127D01*
X402321Y493129D01*
X402143Y493161D01*
X290261Y493161D01*
X290257Y493160D01*
X290253Y493161D01*
X290159Y493141D01*
X290064Y493122D01*
X290061Y493119D01*
X290057Y493119D01*
X289978Y493063D01*
X289898Y493009D01*
X289896Y493006D01*
X289893Y493003D01*
X289841Y492921D01*
X289789Y492841D01*
X289789Y492837D01*
X289786Y492834D01*
X289771Y492738D01*
X289754Y492644D01*
X289754Y492640D01*
X289754Y492636D01*
X289792Y492460D01*
X290197Y491482D01*
X290197Y488966D01*
X289235Y486643D01*
X287456Y484864D01*
X287265Y484785D01*
X286040Y484278D01*
X285132Y483901D01*
X282617Y483901D01*
X280293Y484864D01*
X278514Y486643D01*
X277552Y488966D01*
X277552Y491482D01*
X277957Y492460D01*
X277958Y492464D01*
X277960Y492467D01*
X277977Y492562D01*
X277996Y492657D01*
X277995Y492660D01*
X277995Y492664D01*
X277974Y492758D01*
X277955Y492853D01*
X277953Y492856D01*
X277952Y492860D01*
X277896Y492939D01*
X277841Y493018D01*
X277838Y493020D01*
X277836Y493023D01*
X277754Y493074D01*
X277673Y493127D01*
X277669Y493127D01*
X277666Y493129D01*
X277488Y493161D01*
X261650Y493161D01*
X261578Y493147D01*
X261504Y493140D01*
X261480Y493127D01*
X261454Y493122D01*
X261393Y493080D01*
X261328Y493045D01*
X261309Y493023D01*
X261288Y493009D01*
X261259Y492964D01*
X261211Y492908D01*
X253185Y479006D01*
X253174Y478971D01*
X253153Y478940D01*
X253142Y478877D01*
X253122Y478816D01*
X253124Y478779D01*
X253118Y478742D01*
X253132Y478680D01*
X253136Y478616D01*
X253153Y478583D01*
X253161Y478547D01*
X253198Y478495D01*
X253227Y478438D01*
X253256Y478414D01*
X253277Y478383D01*
X253331Y478350D01*
X253380Y478308D01*
X253416Y478297D01*
X253447Y478277D01*
X253520Y478264D01*
X253571Y478248D01*
X253596Y478251D01*
X253625Y478245D01*
X255196Y478245D01*
X257519Y477283D01*
X259298Y475504D01*
X260261Y473180D01*
X260261Y470665D01*
X259298Y468341D01*
X257519Y466563D01*
X257426Y466524D01*
X256201Y466017D01*
X255196Y465600D01*
X252680Y465600D01*
X250356Y466563D01*
X248578Y468341D01*
X248324Y468954D01*
X248285Y469012D01*
X248253Y469074D01*
X248229Y469094D01*
X248212Y469120D01*
X248154Y469159D01*
X248100Y469204D01*
X248071Y469213D01*
X248045Y469230D01*
X247976Y469243D01*
X247909Y469264D01*
X247878Y469261D01*
X247848Y469267D01*
X247779Y469252D01*
X247709Y469245D01*
X247682Y469231D01*
X247652Y469224D01*
X247594Y469184D01*
X247532Y469151D01*
X247511Y469125D01*
X247488Y469109D01*
X247460Y469066D01*
X247416Y469013D01*
X190623Y370642D01*
X190611Y370607D01*
X190591Y370576D01*
X190580Y370513D01*
X190559Y370452D01*
X190562Y370415D01*
X190555Y370378D01*
X190569Y370316D01*
X190574Y370252D01*
X190591Y370219D01*
X190599Y370183D01*
X190636Y370131D01*
X190665Y370074D01*
X190693Y370050D01*
X190715Y370019D01*
X190769Y369986D01*
X190818Y369944D01*
X190854Y369933D01*
X190885Y369913D01*
X190958Y369900D01*
X191009Y369884D01*
X191034Y369887D01*
X191063Y369881D01*
X192208Y369881D01*
X194532Y368919D01*
X196311Y367140D01*
X197273Y364816D01*
X197273Y362301D01*
X196311Y359977D01*
X194532Y358199D01*
X193986Y357972D01*
X192762Y357465D01*
X192208Y357236D01*
X189693Y357236D01*
X187369Y358199D01*
X185591Y359977D01*
X185514Y360161D01*
X185475Y360219D01*
X185443Y360282D01*
X185420Y360302D01*
X185403Y360327D01*
X185344Y360366D01*
X185290Y360411D01*
X185261Y360421D01*
X185235Y360438D01*
X185166Y360450D01*
X185099Y360471D01*
X185068Y360468D01*
X185038Y360474D01*
X184969Y360459D01*
X184900Y360453D01*
X184872Y360438D01*
X184842Y360432D01*
X184785Y360391D01*
X184723Y360358D01*
X184701Y360333D01*
X184678Y360316D01*
X184651Y360273D01*
X184606Y360221D01*
X176660Y346456D01*
X176636Y346386D01*
X176605Y346318D01*
X176604Y346291D01*
X176596Y346266D01*
X176601Y346192D01*
X176599Y346118D01*
X176608Y346091D01*
X176610Y346066D01*
X176634Y346018D01*
X176660Y345948D01*
X184816Y331821D01*
X184863Y331767D01*
X184904Y331708D01*
X184929Y331692D01*
X184948Y331670D01*
X185013Y331639D01*
X185073Y331601D01*
X185102Y331596D01*
X185129Y331583D01*
X185200Y331579D01*
X185271Y331567D01*
X185300Y331574D01*
X185329Y331572D01*
X185396Y331597D01*
X185466Y331613D01*
X185492Y331631D01*
X185518Y331640D01*
X185556Y331675D01*
X185614Y331716D01*
X186918Y333020D01*
X187344Y333196D01*
X188568Y333704D01*
X188569Y333704D01*
X189242Y333983D01*
X191758Y333983D01*
X194082Y333020D01*
X195860Y331242D01*
X196823Y328918D01*
X196823Y326402D01*
X195860Y324078D01*
X194082Y322300D01*
X193255Y321958D01*
X192031Y321450D01*
X191758Y321337D01*
X191747Y321337D01*
X191710Y321330D01*
X191673Y321332D01*
X191613Y321310D01*
X191550Y321298D01*
X191519Y321277D01*
X191484Y321264D01*
X191437Y321221D01*
X191385Y321185D01*
X191364Y321154D01*
X191337Y321128D01*
X191310Y321070D01*
X191275Y321017D01*
X191269Y320980D01*
X191253Y320946D01*
X191251Y320882D01*
X191240Y320820D01*
X191248Y320783D01*
X191247Y320746D01*
X191272Y320676D01*
X191283Y320624D01*
X191298Y320604D01*
X191308Y320576D01*
X246720Y224596D01*
X246768Y224542D01*
X246808Y224484D01*
X246833Y224468D01*
X246853Y224445D01*
X246917Y224414D01*
X246978Y224376D01*
X247007Y224371D01*
X247033Y224358D01*
X247105Y224354D01*
X247175Y224342D01*
X247204Y224349D01*
X247234Y224348D01*
X247301Y224372D01*
X247370Y224388D01*
X247397Y224406D01*
X247422Y224415D01*
X247460Y224451D01*
X247518Y224491D01*
X248403Y225376D01*
X249088Y225659D01*
X250313Y226167D01*
X250727Y226338D01*
X253242Y226338D01*
X255566Y225376D01*
X257345Y223597D01*
X258307Y221273D01*
X258307Y218758D01*
X257345Y216434D01*
X255566Y214655D01*
X255000Y214421D01*
X253775Y213913D01*
X253593Y213838D01*
X253561Y213817D01*
X253525Y213803D01*
X253479Y213761D01*
X253427Y213726D01*
X253406Y213694D01*
X253377Y213668D01*
X253351Y213611D01*
X253317Y213559D01*
X253310Y213521D01*
X253294Y213486D01*
X253292Y213423D01*
X253280Y213362D01*
X253288Y213324D01*
X253287Y213285D01*
X253312Y213217D01*
X253323Y213166D01*
X253338Y213144D01*
X253348Y213116D01*
X261211Y199496D01*
X261260Y199441D01*
X261303Y199381D01*
X261326Y199366D01*
X261344Y199346D01*
X261410Y199314D01*
X261473Y199275D01*
X261502Y199270D01*
X261524Y199259D01*
X261578Y199256D01*
X261650Y199243D01*
X430754Y199243D01*
X430826Y199257D01*
G37*
%LPC*%
G36*
X391172Y317047D02*
X391172Y317047D01*
X388848Y318010D01*
X387070Y319788D01*
X386107Y322112D01*
X386107Y324628D01*
X386775Y326239D01*
X386776Y326245D01*
X386779Y326251D01*
X386795Y326343D01*
X386813Y326436D01*
X386812Y326442D01*
X386813Y326448D01*
X386792Y326540D01*
X386773Y326632D01*
X386769Y326637D01*
X386767Y326644D01*
X386665Y326792D01*
X342724Y370732D01*
X342718Y370736D01*
X342713Y370743D01*
X342635Y370792D01*
X342558Y370843D01*
X342550Y370844D01*
X342543Y370848D01*
X342366Y370880D01*
X306027Y370880D01*
X306018Y370879D01*
X306008Y370880D01*
X305832Y370842D01*
X305830Y370841D01*
X305378Y370654D01*
X304154Y370146D01*
X301638Y370146D01*
X299314Y371109D01*
X297536Y372888D01*
X296573Y375211D01*
X296573Y377727D01*
X297124Y379056D01*
X297124Y379060D01*
X297127Y379063D01*
X297144Y379158D01*
X297162Y379253D01*
X297162Y379256D01*
X297162Y379260D01*
X297141Y379354D01*
X297122Y379449D01*
X297120Y379452D01*
X297119Y379456D01*
X297063Y379535D01*
X297008Y379614D01*
X297005Y379616D01*
X297003Y379619D01*
X296921Y379670D01*
X296840Y379723D01*
X296836Y379723D01*
X296832Y379725D01*
X296655Y379757D01*
X295922Y379757D01*
X293598Y380720D01*
X291820Y382498D01*
X290857Y384822D01*
X290857Y387338D01*
X291820Y389662D01*
X293598Y391440D01*
X293815Y391530D01*
X293816Y391530D01*
X295040Y392037D01*
X295922Y392403D01*
X298438Y392403D01*
X300762Y391440D01*
X302540Y389662D01*
X303503Y387338D01*
X303503Y384822D01*
X302952Y383493D01*
X302951Y383489D01*
X302949Y383486D01*
X302932Y383391D01*
X302914Y383297D01*
X302914Y383293D01*
X302914Y383289D01*
X302935Y383195D01*
X302954Y383100D01*
X302956Y383097D01*
X302957Y383093D01*
X303013Y383014D01*
X303068Y382935D01*
X303071Y382933D01*
X303073Y382930D01*
X303155Y382879D01*
X303236Y382827D01*
X303240Y382826D01*
X303244Y382824D01*
X303421Y382792D01*
X304154Y382792D01*
X305832Y382097D01*
X305841Y382095D01*
X305849Y382090D01*
X306027Y382058D01*
X346003Y382058D01*
X348057Y381207D01*
X397079Y332184D01*
X397082Y332182D01*
X397085Y332179D01*
X397166Y332127D01*
X397246Y332074D01*
X397250Y332073D01*
X397253Y332071D01*
X397349Y332054D01*
X397443Y332036D01*
X397447Y332037D01*
X397451Y332036D01*
X397545Y332058D01*
X397639Y332078D01*
X397642Y332080D01*
X397646Y332081D01*
X397725Y332137D01*
X397804Y332192D01*
X397806Y332195D01*
X397809Y332197D01*
X397906Y332349D01*
X398500Y333782D01*
X400278Y335560D01*
X400695Y335733D01*
X401919Y336240D01*
X402602Y336523D01*
X405118Y336523D01*
X407442Y335560D01*
X409220Y333782D01*
X410183Y331458D01*
X410183Y328942D01*
X409220Y326618D01*
X407442Y324840D01*
X406606Y324494D01*
X405382Y323987D01*
X405118Y323877D01*
X402602Y323877D01*
X400278Y324840D01*
X399327Y325791D01*
X399326Y325792D01*
X399325Y325793D01*
X399244Y325846D01*
X399160Y325902D01*
X399159Y325902D01*
X399158Y325903D01*
X399061Y325921D01*
X398963Y325940D01*
X398962Y325940D01*
X398961Y325940D01*
X398863Y325919D01*
X398767Y325898D01*
X398766Y325897D01*
X398765Y325897D01*
X398684Y325841D01*
X398602Y325784D01*
X398602Y325783D01*
X398601Y325782D01*
X398548Y325699D01*
X398495Y325615D01*
X398495Y325613D01*
X398494Y325612D01*
X398477Y325512D01*
X398461Y325417D01*
X398462Y325416D01*
X398461Y325415D01*
X398500Y325238D01*
X398753Y324628D01*
X398753Y322112D01*
X397790Y319788D01*
X396012Y318010D01*
X395746Y317900D01*
X395745Y317900D01*
X394521Y317392D01*
X393688Y317047D01*
X391172Y317047D01*
G37*
%LPD*%
%LPC*%
G36*
X401332Y397537D02*
X401332Y397537D01*
X399008Y398500D01*
X397230Y400278D01*
X396267Y402602D01*
X396267Y405118D01*
X397230Y407442D01*
X399008Y409220D01*
X399162Y409284D01*
X400387Y409791D01*
X401332Y410183D01*
X403848Y410183D01*
X405257Y409599D01*
X405259Y409599D01*
X405262Y409597D01*
X405358Y409579D01*
X405454Y409560D01*
X405456Y409561D01*
X405459Y409560D01*
X405555Y409581D01*
X405650Y409601D01*
X405652Y409602D01*
X405655Y409603D01*
X405735Y409660D01*
X405815Y409714D01*
X405817Y409717D01*
X405819Y409718D01*
X405870Y409800D01*
X405924Y409883D01*
X405924Y409886D01*
X405925Y409888D01*
X405941Y409984D01*
X405958Y410081D01*
X405958Y410083D01*
X405958Y410086D01*
X405920Y410262D01*
X405157Y412102D01*
X405157Y414618D01*
X405683Y415886D01*
X405683Y415890D01*
X405685Y415893D01*
X405703Y415988D01*
X405721Y416083D01*
X405720Y416086D01*
X405721Y416090D01*
X405700Y416185D01*
X405681Y416279D01*
X405678Y416282D01*
X405678Y416286D01*
X405621Y416365D01*
X405567Y416444D01*
X405564Y416446D01*
X405562Y416449D01*
X405480Y416500D01*
X405398Y416553D01*
X405395Y416553D01*
X405391Y416555D01*
X405214Y416587D01*
X403872Y416587D01*
X401548Y417550D01*
X399770Y419328D01*
X398807Y421652D01*
X398807Y424168D01*
X399770Y426492D01*
X401548Y428270D01*
X402247Y428559D01*
X403471Y429067D01*
X403872Y429233D01*
X406388Y429233D01*
X408712Y428270D01*
X410490Y426492D01*
X411453Y424168D01*
X411453Y421652D01*
X410927Y420384D01*
X410927Y420380D01*
X410925Y420377D01*
X410907Y420282D01*
X410889Y420187D01*
X410890Y420184D01*
X410889Y420180D01*
X410910Y420083D01*
X410929Y419991D01*
X410932Y419988D01*
X410932Y419984D01*
X410989Y419905D01*
X411043Y419826D01*
X411046Y419824D01*
X411048Y419821D01*
X411130Y419770D01*
X411212Y419717D01*
X411215Y419717D01*
X411219Y419715D01*
X411396Y419683D01*
X412738Y419683D01*
X415062Y418720D01*
X416840Y416942D01*
X417803Y414618D01*
X417803Y412102D01*
X416840Y409778D01*
X415062Y408000D01*
X414296Y407683D01*
X413072Y407176D01*
X412738Y407037D01*
X410222Y407037D01*
X408813Y407621D01*
X408811Y407621D01*
X408808Y407623D01*
X408712Y407641D01*
X408616Y407660D01*
X408614Y407659D01*
X408611Y407660D01*
X408515Y407639D01*
X408420Y407619D01*
X408418Y407618D01*
X408415Y407617D01*
X408335Y407560D01*
X408255Y407506D01*
X408253Y407503D01*
X408251Y407502D01*
X408200Y407420D01*
X408146Y407337D01*
X408146Y407334D01*
X408145Y407332D01*
X408129Y407235D01*
X408112Y407139D01*
X408112Y407137D01*
X408112Y407134D01*
X408150Y406958D01*
X408913Y405118D01*
X408913Y402602D01*
X407950Y400278D01*
X406172Y398500D01*
X405074Y398045D01*
X403849Y397538D01*
X403848Y397537D01*
X401332Y397537D01*
G37*
%LPD*%
%LPC*%
G36*
X379564Y220619D02*
X379564Y220619D01*
X375598Y222262D01*
X372562Y225298D01*
X370919Y229264D01*
X370919Y233556D01*
X372562Y237522D01*
X375598Y240558D01*
X376367Y240877D01*
X377592Y241384D01*
X378817Y241891D01*
X379564Y242201D01*
X383856Y242201D01*
X387822Y240558D01*
X390858Y237522D01*
X392501Y233556D01*
X392501Y229264D01*
X390858Y225298D01*
X387822Y222262D01*
X387261Y222029D01*
X386036Y221522D01*
X384812Y221015D01*
X384811Y221015D01*
X383856Y220619D01*
X379564Y220619D01*
G37*
%LPD*%
%LPC*%
G36*
X344564Y220619D02*
X344564Y220619D01*
X340598Y222262D01*
X337562Y225298D01*
X335919Y229264D01*
X335919Y233556D01*
X337562Y237522D01*
X340598Y240558D01*
X341367Y240877D01*
X342592Y241384D01*
X343817Y241891D01*
X344564Y242201D01*
X348856Y242201D01*
X352822Y240558D01*
X355858Y237522D01*
X357501Y233556D01*
X357501Y229264D01*
X355858Y225298D01*
X352822Y222262D01*
X352261Y222029D01*
X351036Y221522D01*
X349812Y221015D01*
X349811Y221015D01*
X348856Y220619D01*
X344564Y220619D01*
G37*
%LPD*%
%LPC*%
G36*
X309564Y220619D02*
X309564Y220619D01*
X305598Y222262D01*
X302562Y225298D01*
X300919Y229264D01*
X300919Y233556D01*
X302562Y237522D01*
X305598Y240558D01*
X306367Y240877D01*
X307592Y241384D01*
X308817Y241891D01*
X309564Y242201D01*
X313856Y242201D01*
X317822Y240558D01*
X320858Y237522D01*
X322501Y233556D01*
X322501Y229264D01*
X320858Y225298D01*
X317822Y222262D01*
X317261Y222029D01*
X316036Y221522D01*
X314812Y221015D01*
X314811Y221015D01*
X313856Y220619D01*
X309564Y220619D01*
G37*
%LPD*%
%LPC*%
G36*
X328334Y449949D02*
X328334Y449949D01*
X324368Y451592D01*
X321332Y454628D01*
X319689Y458594D01*
X319689Y462886D01*
X321332Y466852D01*
X324368Y469888D01*
X325009Y470154D01*
X326234Y470661D01*
X327459Y471168D01*
X328334Y471531D01*
X332626Y471531D01*
X336592Y469888D01*
X339628Y466852D01*
X341271Y462886D01*
X341271Y458594D01*
X339628Y454628D01*
X336592Y451592D01*
X335903Y451306D01*
X334678Y450799D01*
X333454Y450292D01*
X332626Y449949D01*
X328334Y449949D01*
G37*
%LPD*%
%LPC*%
G36*
X363334Y449949D02*
X363334Y449949D01*
X359368Y451592D01*
X356332Y454628D01*
X354689Y458594D01*
X354689Y462886D01*
X356332Y466852D01*
X359368Y469888D01*
X360009Y470154D01*
X361234Y470661D01*
X362459Y471168D01*
X363334Y471531D01*
X367626Y471531D01*
X371592Y469888D01*
X374628Y466852D01*
X376271Y462886D01*
X376271Y458594D01*
X374628Y454628D01*
X371592Y451592D01*
X370903Y451306D01*
X369678Y450799D01*
X368454Y450292D01*
X367626Y449949D01*
X363334Y449949D01*
G37*
%LPD*%
%LPC*%
G36*
X297192Y308783D02*
X297192Y308783D01*
X294868Y309746D01*
X293090Y311524D01*
X292127Y313848D01*
X292127Y315750D01*
X292126Y315755D01*
X292127Y315760D01*
X292106Y315853D01*
X292088Y315947D01*
X292085Y315951D01*
X292084Y315956D01*
X292028Y316034D01*
X291975Y316112D01*
X291971Y316115D01*
X291968Y316119D01*
X291886Y316170D01*
X291807Y316222D01*
X291802Y316222D01*
X291797Y316225D01*
X291620Y316257D01*
X290842Y316257D01*
X288518Y317220D01*
X286740Y318998D01*
X285777Y321322D01*
X285777Y323838D01*
X286740Y326162D01*
X287880Y327301D01*
X287883Y327306D01*
X287887Y327309D01*
X287938Y327389D01*
X287991Y327468D01*
X287992Y327473D01*
X287994Y327478D01*
X288010Y327572D01*
X288028Y327665D01*
X288027Y327670D01*
X288028Y327676D01*
X288006Y327768D01*
X287987Y327861D01*
X287984Y327866D01*
X287982Y327871D01*
X287880Y328019D01*
X286740Y329158D01*
X285777Y331482D01*
X285777Y333998D01*
X286740Y336322D01*
X288518Y338100D01*
X288926Y338269D01*
X290150Y338776D01*
X290842Y339063D01*
X293358Y339063D01*
X295682Y338100D01*
X297460Y336322D01*
X298423Y333998D01*
X298423Y331482D01*
X297460Y329158D01*
X296320Y328019D01*
X296317Y328014D01*
X296313Y328011D01*
X296262Y327931D01*
X296209Y327852D01*
X296208Y327847D01*
X296206Y327842D01*
X296190Y327748D01*
X296172Y327655D01*
X296173Y327650D01*
X296172Y327645D01*
X296194Y327552D01*
X296213Y327459D01*
X296216Y327454D01*
X296218Y327449D01*
X296320Y327301D01*
X297460Y326162D01*
X298423Y323838D01*
X298423Y321936D01*
X298424Y321931D01*
X298423Y321926D01*
X298444Y321833D01*
X298462Y321739D01*
X298465Y321735D01*
X298466Y321730D01*
X298522Y321652D01*
X298575Y321574D01*
X298579Y321571D01*
X298582Y321567D01*
X298664Y321516D01*
X298743Y321464D01*
X298748Y321464D01*
X298753Y321461D01*
X298930Y321429D01*
X299708Y321429D01*
X302032Y320466D01*
X303810Y318688D01*
X304773Y316364D01*
X304773Y313848D01*
X303810Y311524D01*
X302032Y309746D01*
X300898Y309276D01*
X299708Y308783D01*
X297192Y308783D01*
G37*
%LPD*%
%LPC*%
G36*
X271792Y443765D02*
X271792Y443765D01*
X269468Y444728D01*
X267690Y446506D01*
X266727Y448830D01*
X266727Y451346D01*
X267690Y453670D01*
X269468Y455448D01*
X270682Y455951D01*
X271792Y456411D01*
X274308Y456411D01*
X276632Y455448D01*
X277782Y454297D01*
X277784Y454297D01*
X277784Y454295D01*
X277865Y454242D01*
X277949Y454186D01*
X277951Y454186D01*
X277952Y454185D01*
X278049Y454167D01*
X278146Y454149D01*
X278148Y454149D01*
X278149Y454149D01*
X278246Y454170D01*
X278342Y454190D01*
X278343Y454191D01*
X278345Y454191D01*
X278425Y454248D01*
X278507Y454305D01*
X278508Y454306D01*
X278509Y454307D01*
X278561Y454389D01*
X278615Y454474D01*
X278615Y454475D01*
X278615Y454476D01*
X278632Y454575D01*
X278648Y454671D01*
X278648Y454673D01*
X278648Y454674D01*
X278610Y454850D01*
X278157Y455942D01*
X278157Y458458D01*
X279120Y460782D01*
X280898Y462560D01*
X282087Y463052D01*
X283222Y463523D01*
X285738Y463523D01*
X288062Y462560D01*
X289840Y460782D01*
X290803Y458458D01*
X290803Y455942D01*
X289840Y453618D01*
X288062Y451840D01*
X287998Y451814D01*
X286774Y451306D01*
X285738Y450877D01*
X283222Y450877D01*
X280898Y451840D01*
X279748Y452991D01*
X279746Y452991D01*
X279746Y452993D01*
X279665Y453046D01*
X279581Y453102D01*
X279579Y453102D01*
X279578Y453103D01*
X279482Y453120D01*
X279384Y453139D01*
X279382Y453139D01*
X279381Y453139D01*
X279284Y453118D01*
X279188Y453098D01*
X279187Y453097D01*
X279185Y453097D01*
X279105Y453040D01*
X279023Y452983D01*
X279022Y452982D01*
X279021Y452981D01*
X278969Y452899D01*
X278915Y452814D01*
X278915Y452813D01*
X278915Y452812D01*
X278898Y452713D01*
X278882Y452617D01*
X278882Y452615D01*
X278882Y452614D01*
X278920Y452438D01*
X279373Y451346D01*
X279373Y448830D01*
X278410Y446506D01*
X276632Y444728D01*
X276594Y444712D01*
X276593Y444712D01*
X275369Y444205D01*
X274308Y443765D01*
X271792Y443765D01*
G37*
%LPD*%
%LPC*%
G36*
X455942Y312447D02*
X455942Y312447D01*
X453618Y313410D01*
X451840Y315188D01*
X450877Y317512D01*
X450877Y319107D01*
X450876Y319111D01*
X450877Y319114D01*
X450857Y319208D01*
X450838Y319303D01*
X450835Y319306D01*
X450835Y319310D01*
X450779Y319389D01*
X450725Y319469D01*
X450722Y319471D01*
X450719Y319474D01*
X450637Y319526D01*
X450557Y319578D01*
X450553Y319579D01*
X450550Y319581D01*
X450454Y319597D01*
X450360Y319614D01*
X450356Y319613D01*
X450352Y319614D01*
X450176Y319575D01*
X449804Y319421D01*
X448580Y318914D01*
X448298Y318797D01*
X445782Y318797D01*
X443458Y319760D01*
X441680Y321538D01*
X440717Y323862D01*
X440717Y326378D01*
X441680Y328702D01*
X443458Y330480D01*
X443893Y330660D01*
X445117Y331167D01*
X445118Y331167D01*
X445782Y331443D01*
X448298Y331443D01*
X450622Y330480D01*
X452400Y328702D01*
X453363Y326378D01*
X453363Y324783D01*
X453364Y324779D01*
X453363Y324776D01*
X453383Y324682D01*
X453402Y324587D01*
X453405Y324584D01*
X453405Y324580D01*
X453461Y324501D01*
X453515Y324421D01*
X453518Y324419D01*
X453521Y324416D01*
X453603Y324364D01*
X453683Y324312D01*
X453687Y324311D01*
X453690Y324309D01*
X453786Y324293D01*
X453880Y324276D01*
X453884Y324277D01*
X453888Y324276D01*
X454064Y324315D01*
X454688Y324573D01*
X455912Y325080D01*
X455942Y325093D01*
X458458Y325093D01*
X460782Y324130D01*
X462560Y322352D01*
X463523Y320028D01*
X463523Y317512D01*
X462560Y315188D01*
X460782Y313410D01*
X460599Y313334D01*
X459375Y312827D01*
X458458Y312447D01*
X455942Y312447D01*
G37*
%LPD*%
%LPC*%
G36*
X243852Y247451D02*
X243852Y247451D01*
X241528Y248414D01*
X239750Y250192D01*
X238787Y252516D01*
X238787Y255032D01*
X239750Y257356D01*
X241528Y259134D01*
X241537Y259138D01*
X242762Y259645D01*
X243852Y260097D01*
X246368Y260097D01*
X248692Y259134D01*
X250470Y257356D01*
X251433Y255032D01*
X251433Y252516D01*
X250470Y250192D01*
X248692Y248414D01*
X248674Y248406D01*
X248673Y248406D01*
X247449Y247899D01*
X246368Y247451D01*
X243852Y247451D01*
G37*
%LPD*%
%LPC*%
G36*
X283222Y428017D02*
X283222Y428017D01*
X280898Y428980D01*
X279120Y430758D01*
X278157Y433082D01*
X278157Y435598D01*
X279120Y437922D01*
X280898Y439700D01*
X280943Y439719D01*
X280944Y439719D01*
X282168Y440226D01*
X283222Y440663D01*
X285738Y440663D01*
X288062Y439700D01*
X289840Y437922D01*
X290803Y435598D01*
X290803Y433082D01*
X289840Y430758D01*
X288062Y428980D01*
X286855Y428480D01*
X285738Y428017D01*
X283222Y428017D01*
G37*
%LPD*%
%LPC*%
G36*
X393712Y299747D02*
X393712Y299747D01*
X391388Y300710D01*
X389610Y302488D01*
X388647Y304812D01*
X388647Y307328D01*
X389610Y309652D01*
X391388Y311430D01*
X392503Y311892D01*
X393712Y312393D01*
X396228Y312393D01*
X398552Y311430D01*
X400330Y309652D01*
X401293Y307328D01*
X401293Y304812D01*
X400330Y302488D01*
X398552Y300710D01*
X398415Y300653D01*
X397190Y300146D01*
X396228Y299747D01*
X393712Y299747D01*
G37*
%LPD*%
%LPC*%
G36*
X309892Y410237D02*
X309892Y410237D01*
X307568Y411200D01*
X305790Y412978D01*
X304827Y415302D01*
X304827Y417818D01*
X305790Y420142D01*
X307568Y421920D01*
X307677Y421965D01*
X308901Y422472D01*
X308902Y422472D01*
X309892Y422883D01*
X312408Y422883D01*
X314732Y421920D01*
X316510Y420142D01*
X317473Y417818D01*
X317473Y415302D01*
X316510Y412978D01*
X314732Y411200D01*
X313589Y410726D01*
X313588Y410726D01*
X312408Y410237D01*
X309892Y410237D01*
G37*
%LPD*%
%LPC*%
G36*
X413552Y369597D02*
X413552Y369597D01*
X411228Y370560D01*
X409450Y372338D01*
X408487Y374662D01*
X408487Y377178D01*
X409450Y379502D01*
X411228Y381280D01*
X411482Y381385D01*
X412706Y381892D01*
X413552Y382243D01*
X416068Y382243D01*
X418392Y381280D01*
X420170Y379502D01*
X421133Y377178D01*
X421133Y374662D01*
X420170Y372338D01*
X418392Y370560D01*
X417393Y370146D01*
X416169Y369639D01*
X416068Y369597D01*
X413552Y369597D01*
G37*
%LPD*%
%LPC*%
G36*
X269252Y332767D02*
X269252Y332767D01*
X266928Y333730D01*
X265150Y335508D01*
X264187Y337832D01*
X264187Y340348D01*
X265150Y342672D01*
X266928Y344450D01*
X267925Y344863D01*
X269150Y345370D01*
X269252Y345413D01*
X271768Y345413D01*
X274092Y344450D01*
X275870Y342672D01*
X276833Y340348D01*
X276833Y337832D01*
X275870Y335508D01*
X274092Y333730D01*
X273837Y333624D01*
X272612Y333117D01*
X271768Y332767D01*
X269252Y332767D01*
G37*
%LPD*%
%LPC*%
G36*
X247662Y332767D02*
X247662Y332767D01*
X245338Y333730D01*
X243560Y335508D01*
X242597Y337832D01*
X242597Y340348D01*
X243560Y342672D01*
X245338Y344450D01*
X246335Y344863D01*
X247560Y345370D01*
X247662Y345413D01*
X250178Y345413D01*
X252502Y344450D01*
X254280Y342672D01*
X255243Y340348D01*
X255243Y337832D01*
X254280Y335508D01*
X252502Y333730D01*
X252247Y333624D01*
X251022Y333117D01*
X250178Y332767D01*
X247662Y332767D01*
G37*
%LPD*%
%LPC*%
G36*
X411492Y287047D02*
X411492Y287047D01*
X409168Y288010D01*
X407390Y289788D01*
X406427Y292112D01*
X406427Y294628D01*
X407390Y296952D01*
X409168Y298730D01*
X410328Y299211D01*
X411492Y299693D01*
X414008Y299693D01*
X416332Y298730D01*
X418110Y296952D01*
X419073Y294628D01*
X419073Y292112D01*
X418110Y289788D01*
X416332Y288010D01*
X416240Y287972D01*
X415015Y287465D01*
X414008Y287047D01*
X411492Y287047D01*
G37*
%LPD*%
%LPC*%
G36*
X426732Y287047D02*
X426732Y287047D01*
X424408Y288010D01*
X422630Y289788D01*
X421667Y292112D01*
X421667Y294628D01*
X422630Y296952D01*
X424408Y298730D01*
X425568Y299211D01*
X426732Y299693D01*
X429248Y299693D01*
X431572Y298730D01*
X433350Y296952D01*
X434313Y294628D01*
X434313Y292112D01*
X433350Y289788D01*
X431572Y288010D01*
X431480Y287972D01*
X430255Y287465D01*
X429248Y287047D01*
X426732Y287047D01*
G37*
%LPD*%
%LPC*%
G36*
X394982Y467387D02*
X394982Y467387D01*
X392658Y468350D01*
X390880Y470128D01*
X389917Y472452D01*
X389917Y474968D01*
X390880Y477292D01*
X392658Y479070D01*
X393175Y479284D01*
X393176Y479284D01*
X394400Y479792D01*
X394982Y480033D01*
X397498Y480033D01*
X399822Y479070D01*
X401600Y477292D01*
X402563Y474968D01*
X402563Y472452D01*
X401600Y470128D01*
X399822Y468350D01*
X399087Y468046D01*
X397863Y467538D01*
X397862Y467538D01*
X397498Y467387D01*
X394982Y467387D01*
G37*
%LPD*%
%LPC*%
G36*
X267982Y347517D02*
X267982Y347517D01*
X265658Y348480D01*
X263880Y350258D01*
X262917Y352582D01*
X262917Y355098D01*
X263880Y357422D01*
X265658Y359200D01*
X266559Y359573D01*
X266560Y359573D01*
X267784Y360081D01*
X267982Y360163D01*
X270498Y360163D01*
X272822Y359200D01*
X274600Y357422D01*
X275563Y355098D01*
X275563Y352582D01*
X274600Y350258D01*
X272822Y348480D01*
X272471Y348335D01*
X271246Y347827D01*
X270498Y347517D01*
X267982Y347517D01*
G37*
%LPD*%
%LPC*%
G36*
X363713Y416607D02*
X363713Y416607D01*
X361390Y417570D01*
X359611Y419348D01*
X358648Y421672D01*
X358648Y424187D01*
X359611Y426511D01*
X361390Y428290D01*
X362040Y428559D01*
X363265Y429067D01*
X363713Y429252D01*
X366229Y429252D01*
X368553Y428290D01*
X370331Y426511D01*
X371294Y424187D01*
X371294Y421672D01*
X370331Y419348D01*
X368553Y417570D01*
X367952Y417321D01*
X366727Y416813D01*
X366229Y416607D01*
X363713Y416607D01*
G37*
%LPD*%
%LPC*%
G36*
X375932Y281967D02*
X375932Y281967D01*
X373608Y282930D01*
X371830Y284708D01*
X370867Y287032D01*
X370867Y289548D01*
X371830Y291872D01*
X373608Y293650D01*
X374786Y294138D01*
X375932Y294613D01*
X378448Y294613D01*
X380772Y293650D01*
X382550Y291872D01*
X383513Y289548D01*
X383513Y287032D01*
X382550Y284708D01*
X380772Y282930D01*
X380698Y282899D01*
X379473Y282392D01*
X378448Y281967D01*
X375932Y281967D01*
G37*
%LPD*%
%LPC*%
G36*
X301002Y450877D02*
X301002Y450877D01*
X298678Y451840D01*
X296900Y453618D01*
X295937Y455942D01*
X295937Y458458D01*
X296900Y460782D01*
X298678Y462560D01*
X299867Y463052D01*
X301002Y463523D01*
X303518Y463523D01*
X305842Y462560D01*
X307620Y460782D01*
X308583Y458458D01*
X308583Y455942D01*
X307620Y453618D01*
X305842Y451840D01*
X305778Y451814D01*
X304554Y451306D01*
X303518Y450877D01*
X301002Y450877D01*
G37*
%LPD*%
%LPC*%
G36*
X261124Y411507D02*
X261124Y411507D01*
X258800Y412470D01*
X257022Y414248D01*
X256059Y416572D01*
X256059Y419088D01*
X257022Y421412D01*
X258800Y423190D01*
X259517Y423487D01*
X260741Y423994D01*
X261124Y424153D01*
X263640Y424153D01*
X265964Y423190D01*
X267742Y421412D01*
X268705Y419088D01*
X268705Y416572D01*
X267742Y414248D01*
X265964Y412470D01*
X265428Y412248D01*
X264204Y411741D01*
X263640Y411507D01*
X261124Y411507D01*
G37*
%LPD*%
%LPC*%
G36*
X341642Y283237D02*
X341642Y283237D01*
X339318Y284200D01*
X337540Y285978D01*
X336577Y288302D01*
X336577Y290818D01*
X337540Y293142D01*
X339318Y294920D01*
X339880Y295153D01*
X341104Y295660D01*
X341642Y295883D01*
X344158Y295883D01*
X346482Y294920D01*
X348260Y293142D01*
X349223Y290818D01*
X349223Y288302D01*
X348260Y285978D01*
X346482Y284200D01*
X345791Y283914D01*
X344567Y283407D01*
X344566Y283407D01*
X344158Y283237D01*
X341642Y283237D01*
G37*
%LPD*%
%LPC*%
G36*
X299732Y283237D02*
X299732Y283237D01*
X297408Y284200D01*
X295630Y285978D01*
X294667Y288302D01*
X294667Y290818D01*
X295630Y293142D01*
X297408Y294920D01*
X297970Y295153D01*
X299194Y295660D01*
X299732Y295883D01*
X302248Y295883D01*
X304572Y294920D01*
X306350Y293142D01*
X307313Y290818D01*
X307313Y288302D01*
X306350Y285978D01*
X304572Y284200D01*
X303881Y283914D01*
X302657Y283407D01*
X302656Y283407D01*
X302248Y283237D01*
X299732Y283237D01*
G37*
%LPD*%
%LPC*%
G36*
X245122Y384837D02*
X245122Y384837D01*
X242798Y385800D01*
X241020Y387578D01*
X240057Y389902D01*
X240057Y392418D01*
X241020Y394742D01*
X242798Y396520D01*
X242997Y396603D01*
X242998Y396603D01*
X244222Y397110D01*
X245122Y397483D01*
X247638Y397483D01*
X249962Y396520D01*
X251740Y394742D01*
X252703Y392418D01*
X252703Y389902D01*
X251740Y387578D01*
X249962Y385800D01*
X248909Y385364D01*
X247685Y384857D01*
X247684Y384857D01*
X247638Y384837D01*
X245122Y384837D01*
G37*
%LPD*%
%LPC*%
G36*
X443242Y432053D02*
X443242Y432053D01*
X440918Y433016D01*
X439140Y434794D01*
X438177Y437118D01*
X438177Y439634D01*
X439140Y441958D01*
X440918Y443736D01*
X441017Y443777D01*
X442241Y444284D01*
X443242Y444699D01*
X445758Y444699D01*
X448082Y443736D01*
X449860Y441958D01*
X450823Y439634D01*
X450823Y437118D01*
X449860Y434794D01*
X448082Y433016D01*
X446928Y432538D01*
X445758Y432053D01*
X443242Y432053D01*
G37*
%LPD*%
%LPC*%
G36*
X363232Y237517D02*
X363232Y237517D01*
X360908Y238480D01*
X359130Y240258D01*
X358167Y242582D01*
X358167Y245098D01*
X359130Y247422D01*
X360908Y249200D01*
X361632Y249500D01*
X361633Y249500D01*
X362857Y250007D01*
X363232Y250163D01*
X365748Y250163D01*
X368072Y249200D01*
X369850Y247422D01*
X370813Y245098D01*
X370813Y242582D01*
X369850Y240258D01*
X368072Y238480D01*
X367544Y238261D01*
X366320Y237754D01*
X366319Y237754D01*
X365748Y237517D01*
X363232Y237517D01*
G37*
%LPD*%
%LPC*%
G36*
X327672Y237517D02*
X327672Y237517D01*
X325348Y238480D01*
X323570Y240258D01*
X322607Y242582D01*
X322607Y245098D01*
X323570Y247422D01*
X325348Y249200D01*
X326072Y249500D01*
X326073Y249500D01*
X327297Y250007D01*
X327672Y250163D01*
X330188Y250163D01*
X332512Y249200D01*
X334290Y247422D01*
X335253Y245098D01*
X335253Y242582D01*
X334290Y240258D01*
X332512Y238480D01*
X331984Y238261D01*
X330760Y237754D01*
X330759Y237754D01*
X330188Y237517D01*
X327672Y237517D01*
G37*
%LPD*%
%LPC*%
G36*
X455942Y367260D02*
X455942Y367260D01*
X453618Y368223D01*
X451840Y370002D01*
X450877Y372325D01*
X450877Y374841D01*
X451840Y377165D01*
X453618Y378943D01*
X454615Y379356D01*
X455839Y379863D01*
X455840Y379863D01*
X455942Y379906D01*
X458458Y379906D01*
X460782Y378943D01*
X462560Y377165D01*
X463523Y374841D01*
X463523Y372325D01*
X462560Y370002D01*
X460782Y368223D01*
X460527Y368117D01*
X460526Y368117D01*
X459302Y367610D01*
X458458Y367260D01*
X455942Y367260D01*
G37*
%LPD*%
%LPC*%
G36*
X224802Y382297D02*
X224802Y382297D01*
X222478Y383260D01*
X220700Y385038D01*
X219737Y387362D01*
X219737Y389878D01*
X220700Y392202D01*
X222478Y393980D01*
X222686Y394066D01*
X222687Y394066D01*
X223911Y394574D01*
X224802Y394943D01*
X227318Y394943D01*
X229642Y393980D01*
X231420Y392202D01*
X232383Y389878D01*
X232383Y387362D01*
X231420Y385038D01*
X229642Y383260D01*
X228598Y382828D01*
X227374Y382320D01*
X227373Y382320D01*
X227318Y382297D01*
X224802Y382297D01*
G37*
%LPD*%
%LPC*%
G36*
X340036Y389037D02*
X340036Y389037D01*
X337712Y390000D01*
X335934Y391778D01*
X334971Y394102D01*
X334971Y396618D01*
X335934Y398942D01*
X337712Y400720D01*
X338793Y401168D01*
X340018Y401675D01*
X340036Y401683D01*
X342552Y401683D01*
X344875Y400720D01*
X346654Y398942D01*
X347617Y396618D01*
X347617Y394102D01*
X346654Y391778D01*
X344875Y390000D01*
X344705Y389929D01*
X343480Y389422D01*
X342552Y389037D01*
X340036Y389037D01*
G37*
%LPD*%
%LPC*%
G36*
X440702Y276887D02*
X440702Y276887D01*
X438378Y277850D01*
X436600Y279628D01*
X435637Y281952D01*
X435637Y284468D01*
X436600Y286792D01*
X438378Y288570D01*
X439574Y289066D01*
X439575Y289066D01*
X440702Y289533D01*
X443218Y289533D01*
X445542Y288570D01*
X447320Y286792D01*
X448283Y284468D01*
X448283Y281952D01*
X447320Y279628D01*
X445542Y277850D01*
X445486Y277827D01*
X444262Y277320D01*
X444261Y277320D01*
X443218Y276887D01*
X440702Y276887D01*
G37*
%LPD*%
%LPC*%
G36*
X262902Y280697D02*
X262902Y280697D01*
X260578Y281660D01*
X258800Y283438D01*
X257837Y285762D01*
X257837Y288278D01*
X258800Y290602D01*
X260578Y292380D01*
X261149Y292616D01*
X262373Y293124D01*
X262902Y293343D01*
X265418Y293343D01*
X267742Y292380D01*
X269520Y290602D01*
X270483Y288278D01*
X270483Y285762D01*
X269520Y283438D01*
X267742Y281660D01*
X267060Y281378D01*
X265836Y280870D01*
X265418Y280697D01*
X262902Y280697D01*
G37*
%LPD*%
%LPC*%
G36*
X429272Y393727D02*
X429272Y393727D01*
X426948Y394690D01*
X425170Y396468D01*
X424207Y398792D01*
X424207Y401308D01*
X425170Y403632D01*
X426948Y405410D01*
X427728Y405733D01*
X428953Y406240D01*
X429272Y406373D01*
X431788Y406373D01*
X434112Y405410D01*
X435890Y403632D01*
X436853Y401308D01*
X436853Y398792D01*
X435890Y396468D01*
X434112Y394690D01*
X433640Y394494D01*
X432415Y393987D01*
X431788Y393727D01*
X429272Y393727D01*
G37*
%LPD*%
%LPC*%
G36*
X281952Y304827D02*
X281952Y304827D01*
X279628Y305790D01*
X277850Y307568D01*
X276887Y309892D01*
X276887Y312408D01*
X277850Y314732D01*
X279628Y316510D01*
X280725Y316964D01*
X281949Y317472D01*
X281950Y317472D01*
X281952Y317473D01*
X284468Y317473D01*
X286792Y316510D01*
X288570Y314732D01*
X289533Y312408D01*
X289533Y309892D01*
X288570Y307568D01*
X286792Y305790D01*
X286637Y305726D01*
X286636Y305726D01*
X285412Y305218D01*
X284468Y304827D01*
X281952Y304827D01*
G37*
%LPD*%
%LPC*%
G36*
X386092Y379757D02*
X386092Y379757D01*
X383768Y380720D01*
X381990Y382498D01*
X381027Y384822D01*
X381027Y387338D01*
X381990Y389662D01*
X383768Y391440D01*
X383985Y391530D01*
X383986Y391530D01*
X385210Y392037D01*
X386092Y392403D01*
X388608Y392403D01*
X390932Y391440D01*
X392710Y389662D01*
X393673Y387338D01*
X393673Y384822D01*
X392710Y382498D01*
X390932Y380720D01*
X389897Y380291D01*
X388673Y379784D01*
X388672Y379784D01*
X388608Y379757D01*
X386092Y379757D01*
G37*
%LPD*%
%LPC*%
G36*
X411492Y443257D02*
X411492Y443257D01*
X409168Y444220D01*
X407390Y445998D01*
X406427Y448322D01*
X406427Y450838D01*
X407390Y453162D01*
X409168Y454940D01*
X410384Y455444D01*
X411492Y455903D01*
X414008Y455903D01*
X416332Y454940D01*
X418110Y453162D01*
X419073Y450838D01*
X419073Y448322D01*
X418110Y445998D01*
X416332Y444220D01*
X416296Y444205D01*
X416295Y444205D01*
X415071Y443698D01*
X414008Y443257D01*
X411492Y443257D01*
G37*
%LPD*%
D10*
X365480Y460740D03*
X330480Y460740D03*
X311710Y231410D03*
X346710Y231410D03*
X381710Y231410D03*
D11*
X220980Y313690D03*
X419100Y473710D03*
X274320Y473710D03*
X199390Y345440D03*
X407670Y208280D03*
X421640Y220980D03*
X266700Y220980D03*
X283210Y208280D03*
X351790Y266700D03*
X378460Y266700D03*
X388620Y365760D03*
X443230Y384810D03*
X447040Y351790D03*
X368300Y373380D03*
X323850Y358140D03*
X347980Y358140D03*
X350520Y327660D03*
X323850Y327660D03*
X336550Y342900D03*
X439743Y220251D03*
X501484Y328805D03*
X501650Y364490D03*
X439420Y471170D03*
X408530Y490224D03*
X283875Y490224D03*
X253938Y471923D03*
X190951Y363559D03*
X190500Y327660D03*
X251985Y220015D03*
X297180Y386080D03*
X387350Y386080D03*
X300990Y289560D03*
X245110Y253774D03*
X226060Y388620D03*
X246380Y391160D03*
X302896Y376469D03*
D12*
X344891Y376469D01*
X392430Y328930D02*
X392430Y323370D01*
D11*
X392430Y323370D03*
D12*
X392430Y328930D02*
X344891Y376469D01*
D11*
X457200Y318770D03*
X444500Y438376D03*
X405130Y422910D03*
X412750Y449580D03*
X457200Y373583D03*
X248920Y339090D03*
X270510Y339090D03*
X264160Y287020D03*
X412750Y293370D03*
X328930Y243840D03*
X364490Y243840D03*
X447040Y325120D03*
X284480Y457200D03*
X302260Y457200D03*
X284480Y434340D03*
X427990Y293370D03*
X377190Y288290D03*
X342900Y289560D03*
X311150Y416560D03*
X430530Y400050D03*
X396240Y473710D03*
X403860Y330200D03*
X441960Y283210D03*
X262382Y417830D03*
X273050Y450088D03*
X394970Y306070D03*
X411480Y413360D03*
X414810Y375920D03*
X341294Y395360D03*
X269240Y353840D03*
X283210Y311150D03*
X298450Y315106D03*
X292100Y332740D03*
X292100Y322580D03*
X364971Y422930D03*
X402590Y403860D03*
M02*
