G04 EAGLE Gerber RS-274X export*
G75*
%MOMM*%
%FSLAX34Y34*%
%LPD*%
%INBottom Copper*%
%IPPOS*%
%AMOC8*
5,1,8,0,0,1.08239X$1,22.5*%
G01*
%ADD10R,1.000000X1.100000*%
%ADD11R,1.500000X1.300000*%
%ADD12C,0.124994*%
%ADD13R,5.699988X5.699988*%
%ADD14R,1.399997X0.400000*%
%ADD15R,1.300000X1.500000*%
%ADD16R,1.100000X1.000000*%
%ADD17C,0.499997*%
%ADD18C,1.000000*%
%ADD19C,1.700000*%
%ADD20C,0.756400*%
%ADD21C,0.254000*%
%ADD22C,0.609600*%
%ADD23C,0.304800*%
%ADD24C,0.406400*%

G36*
X278630Y195708D02*
X278630Y195708D01*
X278658Y195706D01*
X278726Y195728D01*
X278797Y195742D01*
X278820Y195758D01*
X278847Y195767D01*
X278902Y195814D01*
X278961Y195855D01*
X278976Y195879D01*
X278998Y195897D01*
X279029Y195962D01*
X279068Y196022D01*
X279073Y196050D01*
X279085Y196076D01*
X279094Y196177D01*
X279101Y196219D01*
X279099Y196229D01*
X279100Y196242D01*
X278861Y199243D01*
X413543Y199243D01*
X413304Y196242D01*
X413308Y196213D01*
X413303Y196185D01*
X413320Y196116D01*
X413328Y196044D01*
X413343Y196020D01*
X413349Y195992D01*
X413392Y195934D01*
X413428Y195872D01*
X413450Y195855D01*
X413467Y195832D01*
X413529Y195795D01*
X413586Y195752D01*
X413614Y195745D01*
X413638Y195730D01*
X413738Y195714D01*
X413779Y195703D01*
X413789Y195705D01*
X413802Y195703D01*
X432802Y195703D01*
X432878Y195718D01*
X432956Y195727D01*
X432975Y195738D01*
X432997Y195742D01*
X433061Y195786D01*
X433129Y195825D01*
X433145Y195844D01*
X433161Y195855D01*
X433185Y195893D01*
X433235Y195953D01*
X442735Y212453D01*
X442744Y212480D01*
X442760Y212504D01*
X442775Y212574D01*
X442798Y212642D01*
X442795Y212670D01*
X442801Y212698D01*
X442788Y212769D01*
X442782Y212840D01*
X442769Y212865D01*
X442763Y212893D01*
X442723Y212953D01*
X442690Y213016D01*
X442668Y213034D01*
X442652Y213058D01*
X442569Y213116D01*
X442537Y213143D01*
X442526Y213146D01*
X442516Y213153D01*
X439750Y214462D01*
X439717Y214470D01*
X439674Y214490D01*
X436734Y215338D01*
X436700Y215341D01*
X436656Y215354D01*
X435568Y215485D01*
X434383Y216669D01*
X433421Y218993D01*
X433421Y221509D01*
X434383Y223832D01*
X436162Y225611D01*
X436278Y225659D01*
X437503Y226167D01*
X438486Y226574D01*
X441001Y226574D01*
X443325Y225611D01*
X444724Y224212D01*
X444784Y224172D01*
X444838Y224126D01*
X444867Y224117D01*
X444891Y224101D01*
X444962Y224087D01*
X445030Y224066D01*
X445059Y224069D01*
X445088Y224063D01*
X445158Y224078D01*
X445229Y224084D01*
X445255Y224098D01*
X445284Y224105D01*
X445343Y224145D01*
X445406Y224179D01*
X445427Y224203D01*
X445449Y224219D01*
X445477Y224263D01*
X445522Y224317D01*
X458239Y246342D01*
X458254Y246389D01*
X458279Y246432D01*
X458286Y246483D01*
X458303Y246532D01*
X458299Y246582D01*
X458305Y246631D01*
X458292Y246681D01*
X458288Y246732D01*
X458266Y246776D01*
X458253Y246824D01*
X458218Y246870D01*
X458197Y246911D01*
X458170Y246934D01*
X458144Y246968D01*
X457393Y247665D01*
X457363Y247683D01*
X457333Y247712D01*
X456512Y248272D01*
X456495Y248362D01*
X456469Y248427D01*
X456450Y248496D01*
X456430Y248522D01*
X456420Y248548D01*
X456383Y248584D01*
X456342Y248640D01*
X455093Y249797D01*
X455033Y249834D01*
X454977Y249878D01*
X454946Y249887D01*
X454922Y249902D01*
X454871Y249910D01*
X454805Y249929D01*
X454713Y249940D01*
X454094Y250716D01*
X454067Y250739D01*
X454042Y250772D01*
X453313Y251448D01*
X453310Y251539D01*
X453293Y251608D01*
X453285Y251678D01*
X453270Y251707D01*
X453263Y251734D01*
X453232Y251776D01*
X453200Y251837D01*
X452137Y253168D01*
X452083Y253213D01*
X452035Y253264D01*
X452005Y253278D01*
X451984Y253296D01*
X451935Y253312D01*
X451872Y253341D01*
X451783Y253365D01*
X451286Y254225D01*
X451263Y254251D01*
X451243Y254288D01*
X450624Y255065D01*
X450634Y255156D01*
X450628Y255226D01*
X450630Y255297D01*
X450619Y255328D01*
X450617Y255356D01*
X450593Y255401D01*
X450569Y255466D01*
X449717Y256941D01*
X449671Y256994D01*
X449631Y257052D01*
X449603Y257070D01*
X449585Y257091D01*
X449538Y257113D01*
X449481Y257152D01*
X449396Y257189D01*
X449033Y258114D01*
X449014Y258143D01*
X449000Y258182D01*
X448503Y259042D01*
X448527Y259131D01*
X448531Y259201D01*
X448544Y259271D01*
X448538Y259303D01*
X448539Y259331D01*
X448522Y259380D01*
X448509Y259448D01*
X447886Y261032D01*
X447848Y261092D01*
X447817Y261155D01*
X447793Y261177D01*
X447778Y261201D01*
X447735Y261230D01*
X447684Y261277D01*
X447606Y261325D01*
X447385Y262294D01*
X447370Y262326D01*
X447362Y262366D01*
X446999Y263291D01*
X447036Y263376D01*
X447051Y263445D01*
X447074Y263512D01*
X447072Y263544D01*
X447078Y263572D01*
X447069Y263622D01*
X447065Y263691D01*
X446686Y265351D01*
X446657Y265416D01*
X446636Y265483D01*
X446615Y265509D01*
X446604Y265534D01*
X446566Y265569D01*
X446522Y265623D01*
X446452Y265683D01*
X446378Y266674D01*
X446368Y266707D01*
X446367Y266749D01*
X446145Y267717D01*
X446194Y267795D01*
X446219Y267861D01*
X446252Y267924D01*
X446255Y267956D01*
X446265Y267983D01*
X446263Y268034D01*
X446270Y268103D01*
X446142Y269801D01*
X446123Y269869D01*
X446112Y269939D01*
X446096Y269967D01*
X446088Y269994D01*
X446056Y270034D01*
X446021Y270094D01*
X445841Y270303D01*
X445822Y270336D01*
X445802Y270351D01*
X445788Y270371D01*
X445723Y270412D01*
X445663Y270458D01*
X445639Y270464D01*
X445618Y270477D01*
X445523Y270494D01*
X445469Y270508D01*
X445455Y270507D01*
X445440Y270509D01*
X401012Y270509D01*
X398631Y272890D01*
X384335Y287186D01*
X384332Y287188D01*
X384330Y287191D01*
X384249Y287243D01*
X384168Y287296D01*
X384164Y287297D01*
X384161Y287299D01*
X384066Y287316D01*
X383971Y287334D01*
X383968Y287333D01*
X383964Y287334D01*
X383869Y287312D01*
X383775Y287292D01*
X383772Y287290D01*
X383768Y287289D01*
X383690Y287233D01*
X383611Y287178D01*
X383609Y287175D01*
X383605Y287173D01*
X383508Y287021D01*
X382550Y284708D01*
X380772Y282930D01*
X380698Y282899D01*
X379473Y282392D01*
X378448Y281967D01*
X375932Y281967D01*
X373608Y282930D01*
X371830Y284708D01*
X370867Y287032D01*
X370867Y289548D01*
X371830Y291872D01*
X373608Y293650D01*
X374786Y294138D01*
X374787Y294138D01*
X375921Y294608D01*
X375924Y294610D01*
X375928Y294611D01*
X376008Y294666D01*
X376087Y294720D01*
X376089Y294723D01*
X376093Y294725D01*
X376145Y294807D01*
X376197Y294887D01*
X376198Y294891D01*
X376200Y294895D01*
X376216Y294989D01*
X376234Y295084D01*
X376233Y295088D01*
X376234Y295092D01*
X376212Y295186D01*
X376191Y295280D01*
X376189Y295283D01*
X376188Y295287D01*
X376086Y295435D01*
X369891Y301630D01*
X369891Y305154D01*
X369890Y305159D01*
X369891Y305164D01*
X369870Y305257D01*
X369852Y305350D01*
X369849Y305355D01*
X369848Y305360D01*
X369792Y305438D01*
X369739Y305516D01*
X369735Y305519D01*
X369732Y305523D01*
X369650Y305574D01*
X369571Y305625D01*
X369566Y305626D01*
X369561Y305629D01*
X369384Y305661D01*
X366766Y305661D01*
X366561Y305866D01*
X366556Y305869D01*
X366553Y305874D01*
X366473Y305925D01*
X366394Y305977D01*
X366389Y305978D01*
X366384Y305981D01*
X366291Y305997D01*
X366197Y306015D01*
X366192Y306014D01*
X366187Y306015D01*
X366094Y305993D01*
X366001Y305973D01*
X365997Y305970D01*
X365991Y305969D01*
X365843Y305866D01*
X365638Y305661D01*
X361766Y305661D01*
X359911Y307516D01*
X359911Y315888D01*
X361766Y317743D01*
X365638Y317743D01*
X365843Y317538D01*
X365848Y317535D01*
X365851Y317530D01*
X365931Y317480D01*
X366010Y317427D01*
X366015Y317426D01*
X366020Y317423D01*
X366114Y317407D01*
X366207Y317389D01*
X366212Y317390D01*
X366218Y317389D01*
X366309Y317411D01*
X366403Y317431D01*
X366408Y317434D01*
X366413Y317435D01*
X366561Y317538D01*
X366766Y317743D01*
X370638Y317743D01*
X370843Y317538D01*
X370848Y317535D01*
X370851Y317530D01*
X370931Y317480D01*
X371010Y317427D01*
X371015Y317426D01*
X371020Y317423D01*
X371114Y317407D01*
X371207Y317389D01*
X371212Y317390D01*
X371218Y317389D01*
X371309Y317411D01*
X371403Y317431D01*
X371408Y317434D01*
X371413Y317435D01*
X371561Y317538D01*
X371766Y317743D01*
X374154Y317743D01*
X374159Y317744D01*
X374164Y317743D01*
X374257Y317764D01*
X374351Y317782D01*
X374355Y317785D01*
X374360Y317786D01*
X374438Y317842D01*
X374516Y317895D01*
X374519Y317899D01*
X374524Y317902D01*
X374574Y317984D01*
X374626Y318063D01*
X374627Y318068D01*
X374629Y318073D01*
X374661Y318250D01*
X374661Y320638D01*
X374866Y320843D01*
X374869Y320848D01*
X374874Y320851D01*
X374924Y320931D01*
X374977Y321010D01*
X374978Y321015D01*
X374981Y321020D01*
X374997Y321114D01*
X375015Y321207D01*
X375014Y321212D01*
X375015Y321218D01*
X374993Y321309D01*
X374973Y321403D01*
X374970Y321408D01*
X374969Y321413D01*
X374866Y321561D01*
X374661Y321766D01*
X374661Y325638D01*
X374866Y325843D01*
X374869Y325848D01*
X374874Y325851D01*
X374924Y325931D01*
X374977Y326010D01*
X374978Y326015D01*
X374981Y326020D01*
X374997Y326114D01*
X375015Y326207D01*
X375014Y326212D01*
X375015Y326218D01*
X374993Y326309D01*
X374973Y326403D01*
X374970Y326408D01*
X374969Y326413D01*
X374866Y326561D01*
X374661Y326766D01*
X374661Y330638D01*
X374866Y330843D01*
X374869Y330848D01*
X374874Y330851D01*
X374924Y330931D01*
X374977Y331010D01*
X374978Y331015D01*
X374981Y331020D01*
X374997Y331114D01*
X375015Y331207D01*
X375014Y331212D01*
X375015Y331218D01*
X374993Y331309D01*
X374973Y331403D01*
X374970Y331408D01*
X374969Y331413D01*
X374866Y331561D01*
X374661Y331766D01*
X374661Y335638D01*
X374866Y335843D01*
X374867Y335845D01*
X374868Y335845D01*
X374870Y335848D01*
X374874Y335851D01*
X374924Y335931D01*
X374977Y336010D01*
X374978Y336015D01*
X374981Y336020D01*
X374997Y336114D01*
X375015Y336207D01*
X375014Y336212D01*
X375015Y336218D01*
X374993Y336309D01*
X374973Y336403D01*
X374970Y336408D01*
X374969Y336413D01*
X374866Y336561D01*
X374661Y336766D01*
X374661Y340638D01*
X374866Y340843D01*
X374869Y340848D01*
X374874Y340851D01*
X374924Y340931D01*
X374977Y341010D01*
X374978Y341015D01*
X374981Y341020D01*
X374997Y341114D01*
X375015Y341207D01*
X375014Y341212D01*
X375015Y341218D01*
X374993Y341309D01*
X374973Y341403D01*
X374970Y341408D01*
X374969Y341413D01*
X374866Y341561D01*
X374661Y341766D01*
X374661Y345638D01*
X374866Y345843D01*
X374869Y345848D01*
X374874Y345851D01*
X374924Y345930D01*
X374977Y346010D01*
X374978Y346015D01*
X374981Y346020D01*
X374997Y346114D01*
X375015Y346207D01*
X375014Y346212D01*
X375015Y346218D01*
X374993Y346309D01*
X374973Y346403D01*
X374970Y346408D01*
X374969Y346413D01*
X374866Y346561D01*
X374661Y346766D01*
X374661Y350638D01*
X374866Y350843D01*
X374869Y350848D01*
X374874Y350851D01*
X374924Y350931D01*
X374977Y351010D01*
X374978Y351015D01*
X374981Y351020D01*
X374997Y351114D01*
X375015Y351207D01*
X375014Y351212D01*
X375015Y351218D01*
X374993Y351309D01*
X374973Y351403D01*
X374970Y351408D01*
X374969Y351413D01*
X374866Y351561D01*
X374661Y351766D01*
X374661Y355638D01*
X376516Y357493D01*
X378893Y357493D01*
X378901Y357494D01*
X378909Y357493D01*
X378994Y357513D01*
X386203Y357513D01*
X386211Y357514D01*
X386219Y357513D01*
X386309Y357534D01*
X386400Y357552D01*
X386406Y357557D01*
X386414Y357559D01*
X386562Y357661D01*
X394646Y365745D01*
X394650Y365752D01*
X394657Y365756D01*
X394706Y365835D01*
X394757Y365912D01*
X394758Y365920D01*
X394763Y365927D01*
X394795Y366104D01*
X394795Y369873D01*
X396283Y371361D01*
X409203Y371361D01*
X409205Y371361D01*
X409208Y371361D01*
X409302Y371381D01*
X409399Y371401D01*
X409402Y371402D01*
X409404Y371403D01*
X409484Y371458D01*
X409565Y371513D01*
X409567Y371515D01*
X409569Y371517D01*
X409622Y371600D01*
X409674Y371681D01*
X409675Y371684D01*
X409676Y371686D01*
X409692Y371782D01*
X409710Y371878D01*
X409709Y371881D01*
X409710Y371884D01*
X409688Y371977D01*
X409666Y372074D01*
X409665Y372076D01*
X409664Y372079D01*
X409561Y372227D01*
X409450Y372339D01*
X408487Y374662D01*
X408487Y377178D01*
X409450Y379502D01*
X411228Y381280D01*
X411482Y381385D01*
X412706Y381892D01*
X413552Y382243D01*
X416068Y382243D01*
X418392Y381280D01*
X420170Y379502D01*
X421133Y377178D01*
X421133Y374662D01*
X420170Y372338D01*
X418392Y370560D01*
X417393Y370146D01*
X416169Y369639D01*
X416068Y369597D01*
X414383Y369597D01*
X414378Y369596D01*
X414373Y369597D01*
X414280Y369576D01*
X414187Y369558D01*
X414182Y369555D01*
X414177Y369554D01*
X414099Y369498D01*
X414021Y369445D01*
X414018Y369441D01*
X414014Y369438D01*
X413963Y369356D01*
X413912Y369277D01*
X413911Y369272D01*
X413908Y369267D01*
X413876Y369090D01*
X413876Y363768D01*
X412388Y362279D01*
X402169Y362279D01*
X402161Y362278D01*
X402153Y362279D01*
X402063Y362258D01*
X401972Y362240D01*
X401966Y362235D01*
X401958Y362234D01*
X401810Y362131D01*
X393058Y353379D01*
X393056Y353376D01*
X393054Y353375D01*
X393002Y353294D01*
X392947Y353212D01*
X392946Y353209D01*
X392945Y353207D01*
X392928Y353111D01*
X392909Y353015D01*
X392910Y353012D01*
X392909Y353010D01*
X392931Y352913D01*
X392951Y352819D01*
X392952Y352817D01*
X392953Y352814D01*
X393009Y352734D01*
X393065Y352654D01*
X393067Y352653D01*
X393069Y352651D01*
X393152Y352599D01*
X393234Y352547D01*
X393237Y352546D01*
X393239Y352545D01*
X393417Y352513D01*
X394556Y352513D01*
X399560Y347510D01*
X399566Y347505D01*
X399571Y347499D01*
X399649Y347450D01*
X399727Y347399D01*
X399734Y347397D01*
X399741Y347393D01*
X399918Y347361D01*
X412388Y347361D01*
X413876Y345873D01*
X413876Y343020D01*
X413876Y343017D01*
X413876Y343015D01*
X413896Y342920D01*
X413916Y342823D01*
X413917Y342821D01*
X413918Y342818D01*
X413974Y342738D01*
X414028Y342657D01*
X414030Y342656D01*
X414032Y342654D01*
X414116Y342601D01*
X414196Y342548D01*
X414199Y342548D01*
X414201Y342546D01*
X414298Y342530D01*
X414394Y342513D01*
X414396Y342513D01*
X414399Y342513D01*
X414492Y342535D01*
X414589Y342556D01*
X414591Y342558D01*
X414594Y342558D01*
X414742Y342661D01*
X428131Y356050D01*
X428135Y356057D01*
X428142Y356061D01*
X428190Y356140D01*
X428242Y356217D01*
X428243Y356225D01*
X428247Y356231D01*
X428279Y356409D01*
X428279Y360973D01*
X428278Y360978D01*
X428279Y360983D01*
X428259Y361076D01*
X428240Y361169D01*
X428237Y361173D01*
X428236Y361179D01*
X428180Y361256D01*
X428127Y361335D01*
X428123Y361338D01*
X428120Y361342D01*
X428038Y361393D01*
X427959Y361444D01*
X427954Y361445D01*
X427949Y361448D01*
X427772Y361480D01*
X426038Y361480D01*
X424549Y362968D01*
X424549Y376073D01*
X426038Y377561D01*
X433454Y377561D01*
X433462Y377563D01*
X433469Y377562D01*
X433559Y377583D01*
X433650Y377601D01*
X433657Y377605D01*
X433665Y377607D01*
X433813Y377710D01*
X434259Y378156D01*
X452621Y378156D01*
X452629Y378157D01*
X452636Y378156D01*
X452726Y378177D01*
X452817Y378196D01*
X452824Y378200D01*
X452832Y378202D01*
X452980Y378304D01*
X453618Y378943D01*
X454615Y379356D01*
X455839Y379863D01*
X455840Y379863D01*
X455942Y379906D01*
X458458Y379906D01*
X458504Y379887D01*
X458510Y379886D01*
X458516Y379882D01*
X458608Y379866D01*
X458700Y379848D01*
X458707Y379850D01*
X458713Y379848D01*
X458804Y379870D01*
X458897Y379889D01*
X458902Y379893D01*
X458909Y379894D01*
X459057Y379997D01*
X460184Y381124D01*
X475359Y381124D01*
X478312Y378171D01*
X478312Y368995D01*
X475359Y366042D01*
X460184Y366042D01*
X459057Y367170D01*
X459051Y367173D01*
X459047Y367179D01*
X458968Y367228D01*
X458890Y367281D01*
X458883Y367282D01*
X458878Y367285D01*
X458785Y367300D01*
X458693Y367318D01*
X458686Y367317D01*
X458680Y367318D01*
X458504Y367280D01*
X458458Y367260D01*
X455942Y367260D01*
X453618Y368223D01*
X452980Y368862D01*
X452973Y368866D01*
X452968Y368873D01*
X452890Y368922D01*
X452813Y368973D01*
X452805Y368974D01*
X452798Y368978D01*
X452621Y369010D01*
X440138Y369010D01*
X440133Y369009D01*
X440128Y369010D01*
X440035Y368990D01*
X439942Y368971D01*
X439937Y368968D01*
X439932Y368967D01*
X439854Y368912D01*
X439776Y368858D01*
X439773Y368854D01*
X439769Y368851D01*
X439718Y368769D01*
X439667Y368690D01*
X439666Y368685D01*
X439663Y368681D01*
X439631Y368503D01*
X439631Y362968D01*
X438142Y361480D01*
X436408Y361480D01*
X436403Y361479D01*
X436398Y361480D01*
X436305Y361459D01*
X436212Y361440D01*
X436207Y361437D01*
X436202Y361436D01*
X436124Y361381D01*
X436046Y361328D01*
X436043Y361323D01*
X436039Y361320D01*
X435988Y361239D01*
X435937Y361160D01*
X435936Y361154D01*
X435933Y361150D01*
X435901Y360973D01*
X435901Y353042D01*
X416868Y334009D01*
X409885Y334009D01*
X409881Y334008D01*
X409877Y334009D01*
X409783Y333989D01*
X409688Y333970D01*
X409685Y333967D01*
X409681Y333967D01*
X409602Y333911D01*
X409523Y333857D01*
X409521Y333854D01*
X409517Y333851D01*
X409466Y333769D01*
X409413Y333689D01*
X409413Y333685D01*
X409411Y333682D01*
X409395Y333586D01*
X409378Y333492D01*
X409379Y333488D01*
X409378Y333484D01*
X409416Y333308D01*
X410159Y331514D01*
X410164Y331507D01*
X410166Y331498D01*
X410269Y331350D01*
X412086Y329533D01*
X412093Y329529D01*
X412097Y329522D01*
X412176Y329473D01*
X412253Y329422D01*
X412261Y329421D01*
X412267Y329416D01*
X412445Y329384D01*
X420938Y329384D01*
X422427Y327896D01*
X422427Y327440D01*
X422428Y327435D01*
X422427Y327429D01*
X422448Y327336D01*
X422466Y327243D01*
X422469Y327239D01*
X422471Y327234D01*
X422526Y327156D01*
X422579Y327077D01*
X422583Y327075D01*
X422587Y327070D01*
X422668Y327020D01*
X422747Y326968D01*
X422752Y326967D01*
X422757Y326964D01*
X422934Y326932D01*
X425579Y326932D01*
X425585Y326933D01*
X425590Y326933D01*
X425683Y326953D01*
X425776Y326972D01*
X425780Y326975D01*
X425785Y326976D01*
X425863Y327031D01*
X425942Y327085D01*
X425945Y327089D01*
X425949Y327092D01*
X425999Y327173D01*
X426051Y327253D01*
X426052Y327258D01*
X426055Y327262D01*
X426087Y327440D01*
X426087Y332610D01*
X427575Y334099D01*
X444680Y334099D01*
X446168Y332610D01*
X446168Y331950D01*
X446169Y331945D01*
X446168Y331940D01*
X446189Y331847D01*
X446208Y331753D01*
X446211Y331749D01*
X446212Y331744D01*
X446267Y331666D01*
X446320Y331588D01*
X446325Y331585D01*
X446328Y331581D01*
X446409Y331530D01*
X446488Y331478D01*
X446494Y331478D01*
X446498Y331475D01*
X446675Y331443D01*
X448298Y331443D01*
X450622Y330480D01*
X452400Y328702D01*
X453363Y326378D01*
X453363Y324783D01*
X453364Y324779D01*
X453363Y324776D01*
X453383Y324682D01*
X453402Y324587D01*
X453405Y324584D01*
X453405Y324580D01*
X453461Y324501D01*
X453515Y324421D01*
X453518Y324419D01*
X453521Y324416D01*
X453603Y324364D01*
X453683Y324312D01*
X453687Y324311D01*
X453690Y324309D01*
X453786Y324293D01*
X453880Y324276D01*
X453884Y324277D01*
X453888Y324276D01*
X454064Y324315D01*
X454688Y324573D01*
X455912Y325080D01*
X455942Y325093D01*
X458458Y325093D01*
X460782Y324130D01*
X462560Y322352D01*
X463523Y320028D01*
X463523Y317512D01*
X462560Y315188D01*
X460782Y313410D01*
X460599Y313334D01*
X459375Y312827D01*
X459103Y312714D01*
X459095Y312709D01*
X459086Y312707D01*
X458938Y312605D01*
X447654Y301320D01*
X447268Y301160D01*
X446481Y300834D01*
X446476Y300831D01*
X446469Y300829D01*
X446392Y300775D01*
X446315Y300723D01*
X446311Y300717D01*
X446306Y300713D01*
X446256Y300634D01*
X446205Y300555D01*
X446204Y300549D01*
X446200Y300543D01*
X446168Y300366D01*
X446168Y298506D01*
X444680Y297017D01*
X434082Y297017D01*
X434078Y297016D01*
X434074Y297017D01*
X433980Y296997D01*
X433886Y296978D01*
X433882Y296975D01*
X433878Y296975D01*
X433799Y296919D01*
X433720Y296865D01*
X433718Y296862D01*
X433714Y296859D01*
X433663Y296777D01*
X433611Y296697D01*
X433610Y296693D01*
X433608Y296690D01*
X433592Y296594D01*
X433575Y296500D01*
X433576Y296496D01*
X433575Y296492D01*
X433613Y296316D01*
X434313Y294628D01*
X434313Y292112D01*
X433350Y289788D01*
X431572Y288010D01*
X431540Y287997D01*
X431539Y287996D01*
X431537Y287996D01*
X431453Y287939D01*
X431373Y287885D01*
X431372Y287884D01*
X431371Y287883D01*
X431318Y287801D01*
X431263Y287717D01*
X431263Y287716D01*
X431262Y287715D01*
X431245Y287618D01*
X431226Y287520D01*
X431227Y287519D01*
X431227Y287518D01*
X431249Y287418D01*
X431269Y287324D01*
X431270Y287323D01*
X431270Y287322D01*
X431328Y287240D01*
X431384Y287160D01*
X431385Y287160D01*
X431386Y287159D01*
X431471Y287106D01*
X431554Y287054D01*
X431555Y287053D01*
X431556Y287053D01*
X431734Y287021D01*
X436619Y287021D01*
X436627Y287022D01*
X436634Y287021D01*
X436724Y287042D01*
X436815Y287060D01*
X436822Y287065D01*
X436830Y287067D01*
X436978Y287169D01*
X438378Y288570D01*
X439574Y289066D01*
X439575Y289066D01*
X440702Y289533D01*
X443218Y289533D01*
X445542Y288570D01*
X447320Y286792D01*
X448222Y284615D01*
X448226Y284609D01*
X448227Y284602D01*
X448282Y284526D01*
X448333Y284449D01*
X448340Y284445D01*
X448344Y284439D01*
X448423Y284390D01*
X448501Y284339D01*
X448508Y284337D01*
X448515Y284334D01*
X448606Y284319D01*
X448698Y284302D01*
X448705Y284304D01*
X448713Y284303D01*
X448803Y284325D01*
X448894Y284345D01*
X448900Y284349D01*
X448907Y284351D01*
X448982Y284407D01*
X449058Y284460D01*
X449062Y284466D01*
X449068Y284471D01*
X449162Y284624D01*
X449387Y285198D01*
X449472Y285235D01*
X449530Y285275D01*
X449592Y285309D01*
X449613Y285334D01*
X449636Y285350D01*
X449663Y285393D01*
X449708Y285446D01*
X450559Y286921D01*
X450582Y286988D01*
X450612Y287052D01*
X450614Y287085D01*
X450623Y287111D01*
X450619Y287163D01*
X450624Y287232D01*
X450613Y287323D01*
X451233Y288100D01*
X451248Y288131D01*
X451275Y288163D01*
X451772Y289023D01*
X451861Y289047D01*
X451888Y289061D01*
X451911Y289066D01*
X451937Y289083D01*
X451990Y289102D01*
X452015Y289124D01*
X452040Y289136D01*
X452074Y289176D01*
X452126Y289221D01*
X453187Y290553D01*
X453219Y290615D01*
X453259Y290674D01*
X453266Y290706D01*
X453279Y290731D01*
X453283Y290782D01*
X453297Y290850D01*
X453301Y290942D01*
X454029Y291618D01*
X454049Y291646D01*
X454081Y291674D01*
X454700Y292451D01*
X454791Y292461D01*
X454858Y292483D01*
X454928Y292496D01*
X454955Y292514D01*
X454982Y292522D01*
X455021Y292556D01*
X455079Y292593D01*
X456327Y293752D01*
X456368Y293809D01*
X456416Y293861D01*
X456428Y293892D01*
X456444Y293914D01*
X456456Y293965D01*
X456480Y294029D01*
X456498Y294120D01*
X457318Y294680D01*
X457343Y294705D01*
X457378Y294727D01*
X458106Y295403D01*
X458198Y295400D01*
X458267Y295411D01*
X458338Y295414D01*
X458368Y295427D01*
X458395Y295432D01*
X458439Y295459D01*
X458502Y295488D01*
X459909Y296447D01*
X459958Y296498D01*
X460013Y296542D01*
X460029Y296571D01*
X460049Y296591D01*
X460068Y296639D01*
X460102Y296699D01*
X460132Y296786D01*
X461027Y297217D01*
X461055Y297238D01*
X461093Y297255D01*
X461914Y297815D01*
X462004Y297798D01*
X462075Y297799D01*
X462145Y297791D01*
X462176Y297800D01*
X462205Y297800D01*
X462252Y297821D01*
X462319Y297839D01*
X463852Y298579D01*
X463909Y298621D01*
X463970Y298657D01*
X463990Y298683D01*
X464012Y298700D01*
X464038Y298744D01*
X464081Y298799D01*
X464124Y298880D01*
X465073Y299173D01*
X465103Y299190D01*
X465144Y299201D01*
X466039Y299632D01*
X466126Y299602D01*
X466195Y299592D01*
X466264Y299574D01*
X466296Y299578D01*
X466324Y299575D01*
X466374Y299588D01*
X466443Y299596D01*
X468069Y300099D01*
X468131Y300132D01*
X468197Y300158D01*
X468221Y300181D01*
X468245Y300194D01*
X468278Y300235D01*
X468328Y300282D01*
X468383Y300356D01*
X469365Y300505D01*
X469398Y300517D01*
X469439Y300522D01*
X470388Y300815D01*
X470470Y300772D01*
X470537Y300752D01*
X470602Y300724D01*
X470635Y300723D01*
X470662Y300715D01*
X470713Y300721D01*
X470782Y300719D01*
X472466Y300973D01*
X472532Y300997D01*
X472601Y301013D01*
X472628Y301032D01*
X472654Y301042D01*
X472692Y301077D01*
X472749Y301116D01*
X472814Y301181D01*
X473808Y301181D01*
X473842Y301188D01*
X473883Y301187D01*
X474866Y301336D01*
X474940Y301281D01*
X475004Y301251D01*
X475064Y301214D01*
X475096Y301208D01*
X475121Y301196D01*
X475173Y301194D01*
X475241Y301182D01*
X476944Y301182D01*
X477013Y301196D01*
X477083Y301202D01*
X477113Y301217D01*
X477140Y301222D01*
X477183Y301251D01*
X477245Y301282D01*
X477319Y301336D01*
X478301Y301189D01*
X478336Y301190D01*
X478377Y301183D01*
X479371Y301183D01*
X479436Y301118D01*
X479495Y301079D01*
X479548Y301033D01*
X479579Y301023D01*
X479603Y301007D01*
X479653Y300998D01*
X479719Y300975D01*
X481403Y300722D01*
X481473Y300726D01*
X481544Y300721D01*
X481575Y300731D01*
X481603Y300732D01*
X481649Y300754D01*
X481715Y300775D01*
X481797Y300818D01*
X482746Y300526D01*
X482781Y300522D01*
X482820Y300509D01*
X483803Y300361D01*
X483857Y300287D01*
X483910Y300240D01*
X483956Y300187D01*
X483985Y300172D01*
X484006Y300153D01*
X484055Y300135D01*
X484116Y300104D01*
X485743Y299602D01*
X485813Y299595D01*
X485882Y299580D01*
X485915Y299585D01*
X485943Y299582D01*
X485992Y299598D01*
X486060Y299608D01*
X486147Y299639D01*
X487042Y299208D01*
X487055Y299205D01*
X487058Y299203D01*
X487073Y299200D01*
X487076Y299199D01*
X487113Y299180D01*
X488111Y298873D01*
X488160Y298868D01*
X488207Y298853D01*
X488259Y298858D01*
X488310Y298853D01*
X488358Y298867D01*
X488407Y298872D01*
X488452Y298896D01*
X488502Y298912D01*
X488540Y298943D01*
X488583Y298966D01*
X488621Y299011D01*
X488656Y299040D01*
X488672Y299072D01*
X488700Y299104D01*
X501757Y321721D01*
X501769Y321757D01*
X501790Y321788D01*
X501801Y321851D01*
X501821Y321911D01*
X501819Y321949D01*
X501825Y321985D01*
X501811Y322048D01*
X501807Y322111D01*
X501790Y322144D01*
X501782Y322181D01*
X501745Y322233D01*
X501716Y322290D01*
X501687Y322314D01*
X501666Y322344D01*
X501611Y322378D01*
X501563Y322419D01*
X501527Y322431D01*
X501495Y322450D01*
X501423Y322463D01*
X501372Y322479D01*
X501347Y322477D01*
X501318Y322482D01*
X500226Y322482D01*
X497902Y323445D01*
X496123Y325223D01*
X495161Y327547D01*
X495161Y330063D01*
X496123Y332387D01*
X497902Y334165D01*
X498012Y334211D01*
X498013Y334211D01*
X499237Y334718D01*
X500226Y335128D01*
X502741Y335128D01*
X503655Y334749D01*
X504768Y333268D01*
X504793Y333245D01*
X504821Y333208D01*
X507033Y331084D01*
X507061Y331066D01*
X507095Y331033D01*
X509618Y329291D01*
X509645Y329280D01*
X509667Y329261D01*
X509736Y329241D01*
X509801Y329213D01*
X509830Y329213D01*
X509858Y329205D01*
X509929Y329213D01*
X510000Y329213D01*
X510027Y329224D01*
X510056Y329227D01*
X510118Y329262D01*
X510183Y329290D01*
X510204Y329310D01*
X510229Y329325D01*
X510292Y329402D01*
X510322Y329432D01*
X510326Y329442D01*
X510335Y329453D01*
X519835Y345953D01*
X519845Y345985D01*
X519854Y345998D01*
X519858Y346022D01*
X519859Y346026D01*
X519890Y346096D01*
X519890Y346120D01*
X519898Y346142D01*
X519892Y346218D01*
X519893Y346295D01*
X519883Y346319D01*
X519882Y346340D01*
X519861Y346379D01*
X519835Y346451D01*
X510335Y362951D01*
X510316Y362973D01*
X510303Y362999D01*
X510250Y363047D01*
X510203Y363100D01*
X510177Y363113D01*
X510156Y363132D01*
X510088Y363155D01*
X510024Y363186D01*
X509995Y363188D01*
X509968Y363197D01*
X509896Y363192D01*
X509825Y363195D01*
X509798Y363185D01*
X509769Y363183D01*
X509679Y363141D01*
X509639Y363126D01*
X509631Y363119D01*
X509618Y363113D01*
X507095Y361371D01*
X507071Y361347D01*
X507033Y361320D01*
X504821Y359196D01*
X504802Y359168D01*
X504768Y359136D01*
X504552Y358848D01*
X503662Y358480D01*
X502908Y358167D01*
X500392Y358167D01*
X498068Y359130D01*
X496290Y360908D01*
X495327Y363232D01*
X495327Y365748D01*
X496290Y368072D01*
X498068Y369850D01*
X498975Y370226D01*
X500199Y370733D01*
X500200Y370733D01*
X500392Y370813D01*
X500804Y370813D01*
X500840Y370820D01*
X500878Y370818D01*
X500938Y370840D01*
X501000Y370852D01*
X501031Y370873D01*
X501066Y370886D01*
X501113Y370929D01*
X501166Y370965D01*
X501186Y370996D01*
X501214Y371022D01*
X501241Y371080D01*
X501275Y371133D01*
X501282Y371170D01*
X501297Y371204D01*
X501300Y371268D01*
X501311Y371330D01*
X501303Y371367D01*
X501304Y371404D01*
X501279Y371474D01*
X501267Y371526D01*
X501253Y371546D01*
X501243Y371574D01*
X488700Y393300D01*
X488667Y393337D01*
X488643Y393380D01*
X488601Y393411D01*
X488567Y393450D01*
X488523Y393472D01*
X488484Y393502D01*
X488433Y393515D01*
X488387Y393538D01*
X488338Y393540D01*
X488290Y393553D01*
X488232Y393546D01*
X488186Y393548D01*
X488153Y393536D01*
X488111Y393531D01*
X487113Y393224D01*
X487082Y393207D01*
X487042Y393196D01*
X486147Y392765D01*
X486060Y392796D01*
X485990Y392805D01*
X485922Y392823D01*
X485890Y392819D01*
X485862Y392823D01*
X485812Y392810D01*
X485743Y392802D01*
X484116Y392300D01*
X484054Y392267D01*
X483988Y392240D01*
X483965Y392218D01*
X483940Y392205D01*
X483908Y392164D01*
X483857Y392117D01*
X483803Y392043D01*
X482820Y391895D01*
X482787Y391883D01*
X482746Y391878D01*
X481797Y391586D01*
X481715Y391629D01*
X481648Y391649D01*
X481583Y391677D01*
X481550Y391678D01*
X481523Y391686D01*
X481472Y391680D01*
X481403Y391682D01*
X479719Y391429D01*
X479653Y391405D01*
X479584Y391389D01*
X479557Y391370D01*
X479531Y391360D01*
X479493Y391325D01*
X479436Y391286D01*
X479371Y391221D01*
X478377Y391221D01*
X478343Y391214D01*
X478301Y391215D01*
X477319Y391068D01*
X477245Y391122D01*
X477181Y391152D01*
X477121Y391189D01*
X477089Y391195D01*
X477063Y391207D01*
X477012Y391209D01*
X476944Y391222D01*
X475241Y391222D01*
X475172Y391208D01*
X475102Y391203D01*
X475072Y391188D01*
X475045Y391183D01*
X475002Y391154D01*
X474940Y391123D01*
X474866Y391068D01*
X473883Y391217D01*
X473848Y391215D01*
X473808Y391223D01*
X472814Y391223D01*
X472749Y391288D01*
X472690Y391327D01*
X472637Y391373D01*
X472605Y391383D01*
X472582Y391399D01*
X472531Y391409D01*
X472466Y391431D01*
X470782Y391685D01*
X470712Y391682D01*
X470641Y391687D01*
X470610Y391677D01*
X470582Y391675D01*
X470536Y391653D01*
X470470Y391632D01*
X470388Y391589D01*
X469439Y391882D01*
X469404Y391886D01*
X469365Y391899D01*
X468383Y392048D01*
X468328Y392122D01*
X468276Y392169D01*
X468229Y392223D01*
X468200Y392238D01*
X468180Y392256D01*
X468131Y392274D01*
X468069Y392305D01*
X466443Y392808D01*
X466372Y392815D01*
X466303Y392830D01*
X466271Y392825D01*
X466243Y392828D01*
X466194Y392813D01*
X466126Y392802D01*
X466039Y392772D01*
X465144Y393203D01*
X465110Y393212D01*
X465073Y393231D01*
X464124Y393524D01*
X464081Y393605D01*
X464036Y393660D01*
X463998Y393720D01*
X463972Y393739D01*
X463954Y393761D01*
X463908Y393785D01*
X463852Y393825D01*
X462319Y394565D01*
X462250Y394582D01*
X462184Y394608D01*
X462152Y394607D01*
X462124Y394614D01*
X462073Y394607D01*
X462004Y394606D01*
X461914Y394589D01*
X461093Y395149D01*
X461061Y395162D01*
X461027Y395187D01*
X460132Y395618D01*
X460102Y395705D01*
X460066Y395766D01*
X460037Y395830D01*
X460014Y395853D01*
X460000Y395878D01*
X459966Y395903D01*
X459955Y395918D01*
X459937Y395929D01*
X459909Y395957D01*
X458502Y396916D01*
X458437Y396944D01*
X458376Y396979D01*
X458344Y396984D01*
X458318Y396994D01*
X458266Y396995D01*
X458198Y397004D01*
X458106Y397001D01*
X457378Y397677D01*
X457348Y397695D01*
X457318Y397724D01*
X456498Y398284D01*
X456480Y398375D01*
X456454Y398440D01*
X456435Y398508D01*
X456416Y398534D01*
X456405Y398560D01*
X456369Y398597D01*
X456327Y398652D01*
X455079Y399811D01*
X455019Y399848D01*
X454964Y399891D01*
X454932Y399901D01*
X454908Y399915D01*
X454857Y399923D01*
X454791Y399943D01*
X454700Y399953D01*
X454081Y400730D01*
X454054Y400753D01*
X454029Y400786D01*
X453301Y401462D01*
X453297Y401554D01*
X453281Y401623D01*
X453273Y401693D01*
X453257Y401722D01*
X453251Y401749D01*
X453220Y401791D01*
X453187Y401851D01*
X452126Y403183D01*
X452072Y403228D01*
X452024Y403280D01*
X451994Y403294D01*
X451973Y403312D01*
X451923Y403327D01*
X451861Y403357D01*
X451772Y403381D01*
X451275Y404241D01*
X451252Y404267D01*
X451233Y404304D01*
X450613Y405081D01*
X450624Y405172D01*
X450622Y405195D01*
X450622Y405197D01*
X450621Y405199D01*
X450618Y405243D01*
X450620Y405313D01*
X450609Y405344D01*
X450606Y405372D01*
X450582Y405418D01*
X450559Y405483D01*
X449708Y406958D01*
X449661Y407011D01*
X449621Y407069D01*
X449594Y407087D01*
X449576Y407108D01*
X449529Y407131D01*
X449472Y407169D01*
X449387Y407206D01*
X449025Y408131D01*
X449006Y408160D01*
X448992Y408199D01*
X448495Y409060D01*
X448519Y409149D01*
X448524Y409219D01*
X448536Y409289D01*
X448530Y409321D01*
X448532Y409349D01*
X448515Y409398D01*
X448501Y409465D01*
X447880Y411051D01*
X447842Y411110D01*
X447811Y411173D01*
X447787Y411195D01*
X447771Y411219D01*
X447729Y411248D01*
X447678Y411295D01*
X447600Y411344D01*
X447379Y412313D01*
X447365Y412344D01*
X447357Y412385D01*
X446994Y413310D01*
X447031Y413394D01*
X447046Y413463D01*
X447069Y413530D01*
X447067Y413563D01*
X447073Y413590D01*
X447064Y413641D01*
X447061Y413710D01*
X446682Y415370D01*
X446653Y415435D01*
X446632Y415502D01*
X446611Y415527D01*
X446600Y415553D01*
X446562Y415588D01*
X446519Y415642D01*
X446449Y415702D01*
X446375Y416693D01*
X446366Y416726D01*
X446364Y416768D01*
X446143Y417737D01*
X446192Y417814D01*
X446217Y417880D01*
X446250Y417943D01*
X446253Y417976D01*
X446263Y418002D01*
X446261Y418053D01*
X446268Y418122D01*
X446142Y419820D01*
X446122Y419888D01*
X446112Y419958D01*
X446095Y419986D01*
X446087Y420013D01*
X446055Y420053D01*
X446020Y420113D01*
X445960Y420183D01*
X446035Y421174D01*
X446031Y421208D01*
X446035Y421249D01*
X445961Y422240D01*
X446021Y422310D01*
X446056Y422372D01*
X446097Y422429D01*
X446105Y422460D01*
X446119Y422485D01*
X446125Y422536D01*
X446142Y422603D01*
X446270Y424301D01*
X446262Y424371D01*
X446261Y424442D01*
X446249Y424472D01*
X446246Y424500D01*
X446220Y424545D01*
X446194Y424609D01*
X446145Y424687D01*
X446367Y425655D01*
X446367Y425690D01*
X446378Y425730D01*
X446452Y426721D01*
X446522Y426781D01*
X446566Y426837D01*
X446615Y426887D01*
X446628Y426917D01*
X446645Y426939D01*
X446659Y426989D01*
X446686Y427053D01*
X446758Y427369D01*
X446760Y427431D01*
X446771Y427492D01*
X446762Y427530D01*
X446763Y427569D01*
X446741Y427627D01*
X446727Y427688D01*
X446705Y427720D01*
X446691Y427756D01*
X446647Y427801D01*
X446611Y427851D01*
X446578Y427872D01*
X446551Y427900D01*
X446494Y427924D01*
X446441Y427957D01*
X446399Y427965D01*
X446367Y427979D01*
X446321Y427979D01*
X446264Y427989D01*
X410217Y427989D01*
X410214Y427989D01*
X410212Y427989D01*
X410117Y427969D01*
X410021Y427950D01*
X410018Y427948D01*
X410016Y427948D01*
X409935Y427892D01*
X409855Y427837D01*
X409853Y427835D01*
X409851Y427833D01*
X409798Y427750D01*
X409745Y427669D01*
X409745Y427666D01*
X409744Y427664D01*
X409727Y427568D01*
X409710Y427472D01*
X409710Y427469D01*
X409710Y427467D01*
X409732Y427372D01*
X409753Y427276D01*
X409755Y427274D01*
X409756Y427271D01*
X409858Y427123D01*
X410490Y426492D01*
X411453Y424168D01*
X411453Y421652D01*
X410927Y420384D01*
X410927Y420380D01*
X410925Y420377D01*
X410907Y420282D01*
X410889Y420187D01*
X410890Y420184D01*
X410889Y420180D01*
X410910Y420083D01*
X410929Y419991D01*
X410932Y419988D01*
X410932Y419984D01*
X410989Y419905D01*
X411043Y419826D01*
X411046Y419824D01*
X411048Y419821D01*
X411130Y419770D01*
X411212Y419717D01*
X411215Y419717D01*
X411219Y419715D01*
X411396Y419683D01*
X412738Y419683D01*
X415062Y418720D01*
X416840Y416942D01*
X417803Y414618D01*
X417803Y412102D01*
X416840Y409778D01*
X415062Y408000D01*
X414296Y407683D01*
X413072Y407176D01*
X412738Y407037D01*
X410222Y407037D01*
X408813Y407621D01*
X408811Y407622D01*
X408808Y407623D01*
X408712Y407641D01*
X408616Y407660D01*
X408614Y407659D01*
X408611Y407660D01*
X408517Y407639D01*
X408420Y407619D01*
X408418Y407618D01*
X408415Y407617D01*
X408335Y407561D01*
X408255Y407506D01*
X408253Y407503D01*
X408251Y407502D01*
X408199Y407419D01*
X408146Y407337D01*
X408146Y407334D01*
X408145Y407332D01*
X408129Y407236D01*
X408112Y407139D01*
X408112Y407137D01*
X408112Y407134D01*
X408150Y406958D01*
X408913Y405118D01*
X408913Y402602D01*
X407950Y400278D01*
X406172Y398500D01*
X405074Y398045D01*
X403849Y397538D01*
X403848Y397537D01*
X401332Y397537D01*
X399008Y398500D01*
X397230Y400278D01*
X396267Y402602D01*
X396267Y405118D01*
X397230Y407442D01*
X399008Y409220D01*
X399162Y409284D01*
X400387Y409791D01*
X401332Y410183D01*
X403848Y410183D01*
X405257Y409599D01*
X405259Y409598D01*
X405262Y409597D01*
X405358Y409579D01*
X405454Y409560D01*
X405456Y409561D01*
X405459Y409560D01*
X405553Y409581D01*
X405650Y409601D01*
X405652Y409602D01*
X405655Y409603D01*
X405735Y409659D01*
X405815Y409714D01*
X405817Y409717D01*
X405819Y409718D01*
X405871Y409801D01*
X405924Y409883D01*
X405924Y409886D01*
X405925Y409888D01*
X405941Y409984D01*
X405958Y410081D01*
X405958Y410083D01*
X405958Y410086D01*
X405920Y410262D01*
X405157Y412102D01*
X405157Y414618D01*
X405683Y415886D01*
X405683Y415890D01*
X405685Y415893D01*
X405703Y415988D01*
X405721Y416083D01*
X405720Y416086D01*
X405721Y416090D01*
X405700Y416185D01*
X405681Y416279D01*
X405678Y416282D01*
X405678Y416286D01*
X405621Y416365D01*
X405567Y416444D01*
X405564Y416446D01*
X405562Y416449D01*
X405480Y416500D01*
X405398Y416553D01*
X405395Y416553D01*
X405391Y416555D01*
X405214Y416587D01*
X404766Y416587D01*
X404758Y416586D01*
X404750Y416587D01*
X404660Y416566D01*
X404569Y416548D01*
X404563Y416543D01*
X404555Y416541D01*
X404407Y416439D01*
X401734Y413765D01*
X373692Y413765D01*
X373685Y413764D01*
X373677Y413765D01*
X373587Y413744D01*
X373496Y413726D01*
X373489Y413721D01*
X373482Y413719D01*
X373334Y413617D01*
X368368Y408651D01*
X368363Y408644D01*
X368357Y408640D01*
X368308Y408561D01*
X368257Y408484D01*
X368255Y408476D01*
X368251Y408469D01*
X368219Y408292D01*
X368219Y403967D01*
X366731Y402479D01*
X358237Y402479D01*
X358229Y402478D01*
X358222Y402479D01*
X358132Y402458D01*
X358041Y402440D01*
X358034Y402435D01*
X358026Y402433D01*
X357878Y402331D01*
X357661Y402113D01*
X357657Y402107D01*
X357651Y402102D01*
X357602Y402024D01*
X357550Y401947D01*
X357549Y401939D01*
X357545Y401932D01*
X357513Y401755D01*
X357513Y387250D01*
X357514Y387245D01*
X357513Y387240D01*
X357534Y387147D01*
X357552Y387054D01*
X357555Y387049D01*
X357556Y387044D01*
X357612Y386966D01*
X357665Y386888D01*
X357669Y386885D01*
X357672Y386881D01*
X357754Y386830D01*
X357833Y386779D01*
X357838Y386778D01*
X357843Y386775D01*
X358020Y386743D01*
X360638Y386743D01*
X360843Y386538D01*
X360848Y386535D01*
X360851Y386530D01*
X360931Y386479D01*
X361010Y386427D01*
X361015Y386426D01*
X361020Y386423D01*
X361113Y386407D01*
X361207Y386389D01*
X361212Y386390D01*
X361217Y386389D01*
X361310Y386411D01*
X361403Y386431D01*
X361407Y386434D01*
X361413Y386435D01*
X361561Y386538D01*
X361766Y386743D01*
X365638Y386743D01*
X367493Y384888D01*
X367493Y376516D01*
X365638Y374661D01*
X361766Y374661D01*
X361561Y374866D01*
X361556Y374869D01*
X361553Y374874D01*
X361473Y374924D01*
X361394Y374977D01*
X361389Y374978D01*
X361384Y374981D01*
X361290Y374997D01*
X361197Y375015D01*
X361192Y375014D01*
X361186Y375015D01*
X361095Y374993D01*
X361001Y374973D01*
X360996Y374970D01*
X360991Y374969D01*
X360843Y374866D01*
X360638Y374661D01*
X356766Y374661D01*
X356561Y374866D01*
X356556Y374869D01*
X356553Y374874D01*
X356473Y374924D01*
X356394Y374977D01*
X356389Y374978D01*
X356384Y374981D01*
X356290Y374997D01*
X356197Y375015D01*
X356192Y375014D01*
X356186Y375015D01*
X356095Y374993D01*
X356001Y374973D01*
X355996Y374970D01*
X355991Y374969D01*
X355843Y374866D01*
X355638Y374661D01*
X351766Y374661D01*
X349911Y376516D01*
X349911Y378893D01*
X349910Y378901D01*
X349911Y378909D01*
X349891Y378994D01*
X349891Y405122D01*
X352989Y408220D01*
X352994Y408226D01*
X353000Y408231D01*
X353049Y408310D01*
X353100Y408387D01*
X353102Y408394D01*
X353106Y408401D01*
X353138Y408578D01*
X353138Y417072D01*
X354626Y418561D01*
X359178Y418561D01*
X359182Y418561D01*
X359186Y418561D01*
X359280Y418581D01*
X359375Y418600D01*
X359378Y418602D01*
X359382Y418603D01*
X359461Y418659D01*
X359540Y418713D01*
X359543Y418716D01*
X359546Y418718D01*
X359597Y418801D01*
X359650Y418881D01*
X359650Y418885D01*
X359652Y418888D01*
X359668Y418984D01*
X359685Y419078D01*
X359684Y419082D01*
X359685Y419086D01*
X359647Y419262D01*
X358648Y421672D01*
X358648Y424187D01*
X359611Y426511D01*
X360223Y427123D01*
X360224Y427126D01*
X360227Y427127D01*
X360279Y427208D01*
X360334Y427290D01*
X360334Y427293D01*
X360336Y427295D01*
X360353Y427391D01*
X360372Y427487D01*
X360371Y427490D01*
X360372Y427492D01*
X360350Y427589D01*
X360330Y427683D01*
X360328Y427685D01*
X360328Y427688D01*
X360271Y427768D01*
X360216Y427848D01*
X360213Y427849D01*
X360212Y427851D01*
X360129Y427903D01*
X360047Y427955D01*
X360044Y427956D01*
X360042Y427957D01*
X359864Y427989D01*
X351039Y427989D01*
X351031Y427988D01*
X351023Y427989D01*
X350933Y427968D01*
X350842Y427950D01*
X350836Y427945D01*
X350828Y427943D01*
X350680Y427841D01*
X337661Y414822D01*
X337657Y414816D01*
X337651Y414811D01*
X337602Y414732D01*
X337550Y414655D01*
X337549Y414647D01*
X337545Y414641D01*
X337513Y414463D01*
X337513Y401397D01*
X337514Y401393D01*
X337513Y401389D01*
X337533Y401295D01*
X337552Y401200D01*
X337555Y401197D01*
X337555Y401193D01*
X337611Y401114D01*
X337665Y401034D01*
X337668Y401032D01*
X337671Y401029D01*
X337753Y400977D01*
X337833Y400925D01*
X337837Y400924D01*
X337840Y400922D01*
X337936Y400907D01*
X338030Y400889D01*
X338034Y400890D01*
X338038Y400890D01*
X338214Y400928D01*
X338793Y401168D01*
X340018Y401675D01*
X340036Y401683D01*
X342552Y401683D01*
X344875Y400720D01*
X346654Y398942D01*
X347617Y396618D01*
X347617Y394102D01*
X346654Y391778D01*
X344875Y390000D01*
X344705Y389929D01*
X343480Y389422D01*
X342552Y389037D01*
X340036Y389037D01*
X338214Y389792D01*
X338210Y389793D01*
X338207Y389795D01*
X338112Y389812D01*
X338017Y389831D01*
X338014Y389830D01*
X338010Y389831D01*
X337916Y389810D01*
X337821Y389790D01*
X337818Y389788D01*
X337814Y389787D01*
X337735Y389731D01*
X337656Y389677D01*
X337654Y389673D01*
X337651Y389671D01*
X337599Y389588D01*
X337547Y389508D01*
X337547Y389504D01*
X337545Y389501D01*
X337513Y389323D01*
X337513Y379005D01*
X337493Y378893D01*
X337493Y376516D01*
X335638Y374661D01*
X331766Y374661D01*
X331561Y374866D01*
X331556Y374869D01*
X331553Y374874D01*
X331473Y374924D01*
X331394Y374977D01*
X331389Y374978D01*
X331384Y374981D01*
X331290Y374997D01*
X331197Y375015D01*
X331192Y375014D01*
X331186Y375015D01*
X331095Y374993D01*
X331001Y374973D01*
X330996Y374970D01*
X330991Y374969D01*
X330843Y374866D01*
X330638Y374661D01*
X326766Y374661D01*
X324911Y376516D01*
X324911Y378893D01*
X324910Y378901D01*
X324911Y378909D01*
X324891Y378994D01*
X324891Y420450D01*
X346402Y441961D01*
X415192Y441961D01*
X415195Y441961D01*
X415197Y441961D01*
X415292Y441981D01*
X415389Y442000D01*
X415391Y442002D01*
X415393Y442002D01*
X415474Y442058D01*
X415554Y442113D01*
X415556Y442115D01*
X415558Y442117D01*
X415611Y442200D01*
X415664Y442281D01*
X415664Y442284D01*
X415665Y442286D01*
X415682Y442382D01*
X415699Y442478D01*
X415699Y442481D01*
X415699Y442483D01*
X415677Y442577D01*
X415656Y442674D01*
X415654Y442676D01*
X415653Y442679D01*
X415551Y442827D01*
X415034Y443343D01*
X415028Y443347D01*
X415025Y443352D01*
X414945Y443402D01*
X414867Y443454D01*
X414861Y443456D01*
X414855Y443459D01*
X414762Y443474D01*
X414670Y443492D01*
X414664Y443491D01*
X414657Y443492D01*
X414481Y443453D01*
X414008Y443257D01*
X411492Y443257D01*
X409168Y444220D01*
X407390Y445998D01*
X406427Y448322D01*
X406427Y450838D01*
X407390Y453162D01*
X409168Y454940D01*
X410384Y455444D01*
X411492Y455903D01*
X414008Y455903D01*
X414481Y455707D01*
X414488Y455705D01*
X414493Y455702D01*
X414586Y455686D01*
X414678Y455668D01*
X414684Y455669D01*
X414691Y455668D01*
X414782Y455689D01*
X414874Y455709D01*
X414880Y455712D01*
X414886Y455714D01*
X415034Y455817D01*
X416338Y457121D01*
X431514Y457121D01*
X434467Y454168D01*
X434467Y444992D01*
X432301Y442827D01*
X432300Y442824D01*
X432298Y442823D01*
X432245Y442742D01*
X432190Y442660D01*
X432190Y442657D01*
X432188Y442655D01*
X432171Y442559D01*
X432153Y442463D01*
X432153Y442460D01*
X432153Y442458D01*
X432174Y442361D01*
X432194Y442267D01*
X432196Y442265D01*
X432196Y442262D01*
X432253Y442182D01*
X432309Y442102D01*
X432311Y442101D01*
X432312Y442099D01*
X432395Y442047D01*
X432478Y441995D01*
X432480Y441994D01*
X432483Y441993D01*
X432660Y441961D01*
X438933Y441961D01*
X438941Y441962D01*
X438948Y441961D01*
X439038Y441982D01*
X439129Y442000D01*
X439136Y442005D01*
X439144Y442007D01*
X439292Y442109D01*
X440918Y443736D01*
X441017Y443777D01*
X442241Y444284D01*
X443242Y444699D01*
X445758Y444699D01*
X448082Y443736D01*
X449860Y441958D01*
X450823Y439634D01*
X450823Y439268D01*
X450836Y439201D01*
X450841Y439132D01*
X450856Y439104D01*
X450862Y439072D01*
X450901Y439015D01*
X450932Y438954D01*
X450957Y438933D01*
X450975Y438906D01*
X451033Y438869D01*
X451085Y438824D01*
X451116Y438814D01*
X451143Y438797D01*
X451211Y438785D01*
X451276Y438764D01*
X451308Y438767D01*
X451340Y438761D01*
X451408Y438776D01*
X451476Y438783D01*
X451504Y438798D01*
X451536Y438805D01*
X451592Y438845D01*
X451653Y438877D01*
X451675Y438904D01*
X451699Y438921D01*
X451726Y438964D01*
X451769Y439015D01*
X451783Y439039D01*
X451872Y439063D01*
X451935Y439094D01*
X452002Y439118D01*
X452027Y439139D01*
X452052Y439152D01*
X452085Y439191D01*
X452137Y439236D01*
X453200Y440567D01*
X453232Y440630D01*
X453271Y440689D01*
X453278Y440721D01*
X453291Y440746D01*
X453295Y440797D01*
X453310Y440865D01*
X453313Y440956D01*
X454042Y441632D01*
X454062Y441660D01*
X454094Y441688D01*
X454713Y442464D01*
X454805Y442475D01*
X454872Y442496D01*
X454941Y442510D01*
X454969Y442527D01*
X454996Y442536D01*
X455035Y442569D01*
X455093Y442607D01*
X456342Y443764D01*
X456383Y443822D01*
X456431Y443874D01*
X456442Y443904D01*
X456459Y443927D01*
X456470Y443977D01*
X456495Y444042D01*
X456512Y444132D01*
X457333Y444692D01*
X457357Y444716D01*
X457393Y444739D01*
X458144Y445436D01*
X458173Y445476D01*
X458210Y445509D01*
X458231Y445557D01*
X458261Y445599D01*
X458273Y445647D01*
X458293Y445692D01*
X458295Y445743D01*
X458306Y445794D01*
X458298Y445843D01*
X458300Y445892D01*
X458280Y445946D01*
X458272Y445991D01*
X458253Y446021D01*
X458239Y446062D01*
X445725Y467737D01*
X445678Y467789D01*
X445639Y467847D01*
X445613Y467864D01*
X445592Y467887D01*
X445529Y467918D01*
X445470Y467956D01*
X445440Y467961D01*
X445412Y467974D01*
X445342Y467978D01*
X445273Y467990D01*
X445242Y467983D01*
X445212Y467985D01*
X445146Y467961D01*
X445077Y467946D01*
X445052Y467928D01*
X445023Y467917D01*
X444971Y467870D01*
X444914Y467829D01*
X444896Y467801D01*
X444875Y467782D01*
X444854Y467735D01*
X444817Y467677D01*
X444780Y467588D01*
X443002Y465810D01*
X442276Y465509D01*
X441052Y465002D01*
X441051Y465002D01*
X440678Y464847D01*
X438162Y464847D01*
X435838Y465810D01*
X434060Y467588D01*
X433097Y469912D01*
X433097Y472428D01*
X434060Y474752D01*
X435838Y476530D01*
X436364Y476748D01*
X436365Y476748D01*
X437589Y477255D01*
X438044Y477444D01*
X438214Y477493D01*
X439214Y477493D01*
X439250Y477500D01*
X439288Y477498D01*
X439348Y477520D01*
X439410Y477532D01*
X439441Y477553D01*
X439476Y477566D01*
X439523Y477609D01*
X439576Y477645D01*
X439596Y477676D01*
X439624Y477702D01*
X439651Y477760D01*
X439685Y477813D01*
X439692Y477850D01*
X439708Y477884D01*
X439709Y477931D01*
X439750Y477942D01*
X442516Y479251D01*
X442538Y479268D01*
X442565Y479278D01*
X442617Y479327D01*
X442675Y479370D01*
X442689Y479395D01*
X442710Y479414D01*
X442739Y479480D01*
X442775Y479542D01*
X442778Y479570D01*
X442790Y479596D01*
X442791Y479668D01*
X442800Y479739D01*
X442792Y479766D01*
X442793Y479795D01*
X442757Y479890D01*
X442746Y479930D01*
X442739Y479939D01*
X442735Y479951D01*
X433235Y496451D01*
X433183Y496510D01*
X433137Y496572D01*
X433118Y496583D01*
X433103Y496600D01*
X433033Y496634D01*
X432966Y496674D01*
X432942Y496678D01*
X432924Y496686D01*
X432879Y496688D01*
X432802Y496701D01*
X413802Y496701D01*
X413774Y496696D01*
X413746Y496698D01*
X413678Y496676D01*
X413607Y496662D01*
X413584Y496646D01*
X413557Y496637D01*
X413502Y496590D01*
X413443Y496549D01*
X413428Y496525D01*
X413407Y496507D01*
X413375Y496442D01*
X413336Y496382D01*
X413331Y496354D01*
X413319Y496328D01*
X413310Y496227D01*
X413303Y496185D01*
X413305Y496175D01*
X413304Y496162D01*
X413547Y493112D01*
X413556Y493080D01*
X413560Y493033D01*
X414288Y490061D01*
X414303Y490030D01*
X414314Y489985D01*
X414800Y488840D01*
X413890Y486643D01*
X412111Y484864D01*
X411920Y484785D01*
X410695Y484278D01*
X409787Y483901D01*
X407272Y483901D01*
X404948Y484864D01*
X403169Y486643D01*
X402207Y488967D01*
X402207Y491482D01*
X402612Y492460D01*
X402613Y492464D01*
X402615Y492467D01*
X402632Y492562D01*
X402651Y492657D01*
X402650Y492660D01*
X402650Y492664D01*
X402629Y492759D01*
X402610Y492853D01*
X402608Y492856D01*
X402607Y492860D01*
X402551Y492939D01*
X402496Y493018D01*
X402493Y493020D01*
X402491Y493023D01*
X402409Y493074D01*
X402328Y493127D01*
X402324Y493127D01*
X402321Y493129D01*
X402143Y493161D01*
X290261Y493161D01*
X290257Y493160D01*
X290253Y493161D01*
X290159Y493141D01*
X290064Y493122D01*
X290061Y493119D01*
X290057Y493119D01*
X289978Y493063D01*
X289898Y493009D01*
X289896Y493006D01*
X289893Y493003D01*
X289841Y492921D01*
X289789Y492841D01*
X289789Y492837D01*
X289786Y492834D01*
X289771Y492738D01*
X289754Y492644D01*
X289754Y492640D01*
X289754Y492636D01*
X289792Y492460D01*
X290197Y491482D01*
X290197Y488966D01*
X289235Y486643D01*
X287456Y484864D01*
X287265Y484785D01*
X286040Y484278D01*
X285132Y483901D01*
X282617Y483901D01*
X280293Y484864D01*
X278514Y486643D01*
X277604Y488840D01*
X278090Y489985D01*
X278097Y490018D01*
X278116Y490061D01*
X278844Y493033D01*
X278846Y493067D01*
X278857Y493112D01*
X279100Y496162D01*
X279096Y496191D01*
X279101Y496219D01*
X279084Y496288D01*
X279076Y496360D01*
X279062Y496384D01*
X279055Y496412D01*
X279012Y496470D01*
X278977Y496532D01*
X278954Y496549D01*
X278937Y496572D01*
X278875Y496609D01*
X278818Y496652D01*
X278790Y496659D01*
X278766Y496674D01*
X278666Y496690D01*
X278625Y496701D01*
X278615Y496699D01*
X278602Y496701D01*
X259602Y496701D01*
X259526Y496686D01*
X259448Y496677D01*
X259429Y496666D01*
X259407Y496662D01*
X259343Y496618D01*
X259275Y496579D01*
X259259Y496560D01*
X259243Y496549D01*
X259219Y496511D01*
X259169Y496451D01*
X249669Y479951D01*
X249660Y479924D01*
X249644Y479900D01*
X249629Y479830D01*
X249606Y479762D01*
X249609Y479734D01*
X249603Y479706D01*
X249617Y479636D01*
X249622Y479564D01*
X249635Y479539D01*
X249641Y479511D01*
X249681Y479451D01*
X249714Y479388D01*
X249736Y479370D01*
X249752Y479346D01*
X249835Y479288D01*
X249867Y479261D01*
X249878Y479258D01*
X249889Y479251D01*
X252655Y477942D01*
X252688Y477934D01*
X252730Y477914D01*
X255670Y477066D01*
X255704Y477063D01*
X255748Y477050D01*
X258026Y476776D01*
X259298Y475504D01*
X260261Y473180D01*
X260261Y470665D01*
X259298Y468341D01*
X257519Y466563D01*
X257426Y466524D01*
X256201Y466017D01*
X255196Y465600D01*
X252680Y465600D01*
X250356Y466563D01*
X248578Y468341D01*
X248324Y468954D01*
X248285Y469012D01*
X248253Y469074D01*
X248229Y469094D01*
X248212Y469120D01*
X248154Y469159D01*
X248100Y469204D01*
X248071Y469213D01*
X248045Y469230D01*
X247976Y469243D01*
X247909Y469264D01*
X247878Y469261D01*
X247848Y469267D01*
X247779Y469252D01*
X247709Y469245D01*
X247682Y469231D01*
X247652Y469224D01*
X247594Y469184D01*
X247532Y469151D01*
X247511Y469125D01*
X247488Y469109D01*
X247460Y469066D01*
X247416Y469013D01*
X234165Y446062D01*
X234150Y446015D01*
X234125Y445972D01*
X234118Y445921D01*
X234101Y445872D01*
X234105Y445822D01*
X234099Y445773D01*
X234112Y445723D01*
X234116Y445672D01*
X234138Y445628D01*
X234151Y445580D01*
X234186Y445534D01*
X234207Y445493D01*
X234234Y445470D01*
X234260Y445436D01*
X235011Y444739D01*
X235041Y444721D01*
X235071Y444692D01*
X235892Y444132D01*
X235909Y444042D01*
X235935Y443977D01*
X235954Y443908D01*
X235974Y443882D01*
X235984Y443856D01*
X236021Y443820D01*
X236062Y443764D01*
X237311Y442607D01*
X237371Y442570D01*
X237427Y442526D01*
X237458Y442517D01*
X237482Y442502D01*
X237533Y442494D01*
X237599Y442475D01*
X237691Y442464D01*
X238310Y441688D01*
X238337Y441665D01*
X238362Y441632D01*
X239091Y440956D01*
X239094Y440865D01*
X239111Y440796D01*
X239119Y440726D01*
X239134Y440697D01*
X239141Y440670D01*
X239172Y440628D01*
X239204Y440567D01*
X240267Y439236D01*
X240321Y439191D01*
X240369Y439140D01*
X240399Y439126D01*
X240420Y439108D01*
X240469Y439092D01*
X240532Y439063D01*
X240621Y439039D01*
X241118Y438179D01*
X241141Y438153D01*
X241161Y438116D01*
X241780Y437339D01*
X241770Y437248D01*
X241776Y437178D01*
X241774Y437107D01*
X241785Y437076D01*
X241787Y437048D01*
X241811Y437003D01*
X241835Y436938D01*
X242687Y435463D01*
X242733Y435410D01*
X242773Y435352D01*
X242801Y435334D01*
X242819Y435313D01*
X242866Y435291D01*
X242923Y435252D01*
X243008Y435215D01*
X243371Y434290D01*
X243390Y434261D01*
X243404Y434222D01*
X243901Y433362D01*
X243877Y433273D01*
X243873Y433203D01*
X243860Y433133D01*
X243866Y433101D01*
X243865Y433073D01*
X243882Y433024D01*
X243895Y432956D01*
X244518Y431372D01*
X244522Y431365D01*
X244524Y431357D01*
X244556Y431311D01*
X244587Y431249D01*
X244611Y431227D01*
X244626Y431203D01*
X244639Y431194D01*
X244640Y431194D01*
X244643Y431192D01*
X244669Y431174D01*
X244720Y431127D01*
X244798Y431079D01*
X245019Y430110D01*
X245034Y430078D01*
X245042Y430038D01*
X245405Y429113D01*
X245368Y429028D01*
X245353Y428959D01*
X245330Y428892D01*
X245332Y428860D01*
X245326Y428832D01*
X245335Y428782D01*
X245339Y428713D01*
X245718Y427053D01*
X245747Y426988D01*
X245768Y426921D01*
X245789Y426895D01*
X245800Y426870D01*
X245838Y426835D01*
X245882Y426781D01*
X245952Y426721D01*
X246026Y425730D01*
X246036Y425697D01*
X246037Y425655D01*
X246259Y424687D01*
X246210Y424609D01*
X246185Y424543D01*
X246152Y424480D01*
X246149Y424448D01*
X246139Y424421D01*
X246141Y424370D01*
X246134Y424301D01*
X246262Y422603D01*
X246281Y422535D01*
X246292Y422465D01*
X246308Y422437D01*
X246316Y422410D01*
X246348Y422370D01*
X246383Y422310D01*
X246443Y422240D01*
X246369Y421249D01*
X246373Y421215D01*
X246369Y421174D01*
X246444Y420183D01*
X246384Y420113D01*
X246349Y420052D01*
X246308Y419995D01*
X246299Y419963D01*
X246286Y419938D01*
X246280Y419887D01*
X246262Y419820D01*
X246136Y418122D01*
X246144Y418052D01*
X246145Y417982D01*
X246157Y417951D01*
X246161Y417923D01*
X246186Y417879D01*
X246212Y417814D01*
X246261Y417737D01*
X246040Y416768D01*
X246039Y416733D01*
X246029Y416693D01*
X245955Y415702D01*
X245885Y415642D01*
X245842Y415586D01*
X245792Y415536D01*
X245780Y415506D01*
X245762Y415484D01*
X245749Y415434D01*
X245722Y415370D01*
X245343Y413710D01*
X245342Y413640D01*
X245332Y413570D01*
X245339Y413538D01*
X245338Y413510D01*
X245357Y413462D01*
X245373Y413394D01*
X245410Y413310D01*
X245047Y412385D01*
X245041Y412351D01*
X245025Y412313D01*
X244804Y411344D01*
X244726Y411295D01*
X244675Y411246D01*
X244619Y411204D01*
X244601Y411176D01*
X244581Y411157D01*
X244560Y411109D01*
X244524Y411051D01*
X243903Y409465D01*
X243890Y409396D01*
X243870Y409328D01*
X243873Y409296D01*
X243868Y409268D01*
X243879Y409218D01*
X243885Y409149D01*
X243909Y409060D01*
X243412Y408199D01*
X243401Y408166D01*
X243379Y408131D01*
X243017Y407206D01*
X242932Y407169D01*
X242874Y407129D01*
X242812Y407095D01*
X242791Y407070D01*
X242768Y407054D01*
X242741Y407011D01*
X242696Y406958D01*
X241845Y405483D01*
X241822Y405416D01*
X241792Y405352D01*
X241790Y405319D01*
X241781Y405293D01*
X241785Y405241D01*
X241780Y405172D01*
X241791Y405081D01*
X241171Y404304D01*
X241156Y404273D01*
X241129Y404241D01*
X240632Y403381D01*
X240543Y403357D01*
X240480Y403325D01*
X240414Y403302D01*
X240389Y403280D01*
X240364Y403268D01*
X240330Y403228D01*
X240278Y403183D01*
X239217Y401851D01*
X239185Y401789D01*
X239145Y401730D01*
X239138Y401698D01*
X239125Y401673D01*
X239121Y401622D01*
X239107Y401554D01*
X239103Y401462D01*
X238375Y400786D01*
X238355Y400758D01*
X238323Y400730D01*
X237704Y399953D01*
X237613Y399943D01*
X237546Y399921D01*
X237476Y399908D01*
X237449Y399890D01*
X237422Y399882D01*
X237383Y399848D01*
X237325Y399811D01*
X236077Y398652D01*
X236036Y398595D01*
X235988Y398543D01*
X235976Y398512D01*
X235960Y398490D01*
X235948Y398439D01*
X235924Y398375D01*
X235906Y398284D01*
X235567Y398053D01*
X235530Y398015D01*
X235487Y397985D01*
X235461Y397944D01*
X235427Y397909D01*
X235408Y397860D01*
X235379Y397816D01*
X235371Y397768D01*
X235354Y397723D01*
X235355Y397670D01*
X235346Y397618D01*
X235357Y397571D01*
X235358Y397522D01*
X235379Y397474D01*
X235391Y397423D01*
X235422Y397379D01*
X235440Y397339D01*
X235468Y397313D01*
X235494Y397275D01*
X239607Y393163D01*
X239610Y393160D01*
X239612Y393157D01*
X239693Y393105D01*
X239774Y393052D01*
X239777Y393051D01*
X239781Y393049D01*
X239876Y393032D01*
X239970Y393014D01*
X239974Y393015D01*
X239978Y393014D01*
X240073Y393036D01*
X240167Y393056D01*
X240170Y393058D01*
X240174Y393059D01*
X240252Y393115D01*
X240331Y393170D01*
X240333Y393173D01*
X240337Y393176D01*
X240434Y393327D01*
X241020Y394742D01*
X242798Y396520D01*
X242997Y396603D01*
X242998Y396603D01*
X244222Y397110D01*
X245122Y397483D01*
X247638Y397483D01*
X249962Y396520D01*
X251740Y394742D01*
X252703Y392418D01*
X252703Y390437D01*
X252704Y390429D01*
X252703Y390421D01*
X252724Y390331D01*
X252742Y390240D01*
X252747Y390234D01*
X252749Y390226D01*
X252851Y390078D01*
X257705Y385224D01*
X257708Y385222D01*
X257709Y385220D01*
X257790Y385168D01*
X257872Y385113D01*
X257875Y385112D01*
X257877Y385111D01*
X257973Y385094D01*
X258069Y385075D01*
X258072Y385076D01*
X258074Y385075D01*
X258171Y385097D01*
X258265Y385117D01*
X258267Y385118D01*
X258270Y385119D01*
X258350Y385175D01*
X258430Y385231D01*
X258431Y385233D01*
X258433Y385235D01*
X258485Y385318D01*
X258537Y385400D01*
X258538Y385403D01*
X258539Y385405D01*
X258571Y385583D01*
X258571Y412489D01*
X258570Y412497D01*
X258571Y412504D01*
X258550Y412594D01*
X258532Y412685D01*
X258527Y412692D01*
X258525Y412700D01*
X258423Y412848D01*
X257022Y414248D01*
X256059Y416572D01*
X256059Y416640D01*
X256058Y416645D01*
X256059Y416650D01*
X256038Y416743D01*
X256020Y416837D01*
X256017Y416841D01*
X256016Y416846D01*
X255960Y416924D01*
X255907Y417002D01*
X255903Y417005D01*
X255900Y417010D01*
X255818Y417060D01*
X255739Y417112D01*
X255734Y417113D01*
X255729Y417115D01*
X255552Y417147D01*
X254794Y417147D01*
X251841Y420100D01*
X251841Y429276D01*
X254794Y432229D01*
X269970Y432229D01*
X272923Y429276D01*
X272923Y420100D01*
X269970Y417147D01*
X269212Y417147D01*
X269207Y417146D01*
X269202Y417147D01*
X269109Y417126D01*
X269015Y417108D01*
X269011Y417105D01*
X269006Y417104D01*
X268928Y417048D01*
X268850Y416995D01*
X268847Y416991D01*
X268843Y416988D01*
X268792Y416906D01*
X268740Y416827D01*
X268740Y416822D01*
X268737Y416817D01*
X268705Y416640D01*
X268705Y416572D01*
X267742Y414248D01*
X266341Y412848D01*
X266337Y412841D01*
X266331Y412836D01*
X266282Y412758D01*
X266230Y412681D01*
X266229Y412673D01*
X266225Y412666D01*
X266193Y412489D01*
X266193Y388377D01*
X266194Y388369D01*
X266193Y388361D01*
X266214Y388271D01*
X266232Y388180D01*
X266237Y388174D01*
X266239Y388166D01*
X266341Y388018D01*
X273210Y381149D01*
X273216Y381145D01*
X273221Y381139D01*
X273300Y381090D01*
X273377Y381038D01*
X273385Y381037D01*
X273391Y381033D01*
X273569Y381001D01*
X286058Y381001D01*
X299398Y367661D01*
X299404Y367657D01*
X299409Y367651D01*
X299488Y367602D01*
X299565Y367550D01*
X299573Y367549D01*
X299579Y367545D01*
X299757Y367513D01*
X313399Y367513D01*
X313511Y367493D01*
X315888Y367493D01*
X317743Y365638D01*
X317743Y361766D01*
X317538Y361561D01*
X317535Y361556D01*
X317530Y361553D01*
X317480Y361473D01*
X317427Y361394D01*
X317426Y361389D01*
X317423Y361384D01*
X317407Y361290D01*
X317389Y361197D01*
X317390Y361192D01*
X317389Y361186D01*
X317411Y361095D01*
X317431Y361001D01*
X317434Y360996D01*
X317435Y360991D01*
X317538Y360843D01*
X317743Y360638D01*
X317743Y356766D01*
X317538Y356561D01*
X317535Y356556D01*
X317530Y356553D01*
X317480Y356473D01*
X317427Y356394D01*
X317426Y356389D01*
X317423Y356384D01*
X317407Y356290D01*
X317389Y356197D01*
X317390Y356192D01*
X317389Y356186D01*
X317411Y356095D01*
X317431Y356001D01*
X317434Y355996D01*
X317435Y355991D01*
X317538Y355843D01*
X317743Y355638D01*
X317743Y351766D01*
X317538Y351561D01*
X317535Y351556D01*
X317530Y351553D01*
X317480Y351473D01*
X317427Y351394D01*
X317426Y351389D01*
X317423Y351384D01*
X317407Y351290D01*
X317389Y351197D01*
X317390Y351192D01*
X317389Y351186D01*
X317411Y351095D01*
X317431Y351001D01*
X317434Y350996D01*
X317435Y350991D01*
X317538Y350843D01*
X317743Y350638D01*
X317743Y346766D01*
X317538Y346561D01*
X317535Y346556D01*
X317530Y346553D01*
X317480Y346473D01*
X317427Y346394D01*
X317426Y346389D01*
X317423Y346384D01*
X317407Y346290D01*
X317389Y346197D01*
X317390Y346192D01*
X317389Y346186D01*
X317411Y346095D01*
X317431Y346001D01*
X317434Y345996D01*
X317435Y345991D01*
X317538Y345843D01*
X317743Y345638D01*
X317743Y341766D01*
X317538Y341561D01*
X317535Y341556D01*
X317530Y341553D01*
X317480Y341473D01*
X317427Y341394D01*
X317426Y341389D01*
X317423Y341384D01*
X317407Y341290D01*
X317389Y341197D01*
X317390Y341192D01*
X317389Y341186D01*
X317411Y341095D01*
X317431Y341001D01*
X317434Y340996D01*
X317435Y340991D01*
X317538Y340843D01*
X317743Y340638D01*
X317743Y336766D01*
X317538Y336561D01*
X317535Y336556D01*
X317530Y336553D01*
X317480Y336473D01*
X317427Y336394D01*
X317426Y336389D01*
X317423Y336384D01*
X317407Y336290D01*
X317389Y336197D01*
X317390Y336192D01*
X317389Y336186D01*
X317411Y336095D01*
X317431Y336001D01*
X317434Y335996D01*
X317435Y335991D01*
X317538Y335843D01*
X317743Y335638D01*
X317743Y331766D01*
X317538Y331561D01*
X317535Y331556D01*
X317530Y331553D01*
X317480Y331473D01*
X317427Y331394D01*
X317426Y331389D01*
X317423Y331384D01*
X317407Y331290D01*
X317389Y331197D01*
X317390Y331192D01*
X317389Y331186D01*
X317411Y331095D01*
X317431Y331001D01*
X317434Y330996D01*
X317435Y330991D01*
X317538Y330843D01*
X317743Y330638D01*
X317743Y326766D01*
X317538Y326561D01*
X317535Y326556D01*
X317530Y326553D01*
X317480Y326473D01*
X317427Y326394D01*
X317426Y326389D01*
X317423Y326384D01*
X317407Y326290D01*
X317389Y326197D01*
X317390Y326192D01*
X317389Y326186D01*
X317411Y326095D01*
X317431Y326001D01*
X317434Y325996D01*
X317435Y325991D01*
X317538Y325843D01*
X317743Y325638D01*
X317743Y321766D01*
X317538Y321561D01*
X317535Y321556D01*
X317530Y321553D01*
X317480Y321473D01*
X317427Y321394D01*
X317426Y321389D01*
X317423Y321384D01*
X317407Y321290D01*
X317389Y321197D01*
X317390Y321192D01*
X317389Y321186D01*
X317411Y321095D01*
X317431Y321001D01*
X317434Y320996D01*
X317435Y320991D01*
X317538Y320843D01*
X317743Y320638D01*
X317743Y318250D01*
X317744Y318245D01*
X317743Y318240D01*
X317764Y318147D01*
X317782Y318053D01*
X317785Y318049D01*
X317786Y318044D01*
X317842Y317966D01*
X317895Y317888D01*
X317899Y317885D01*
X317902Y317880D01*
X317984Y317830D01*
X318063Y317778D01*
X318068Y317777D01*
X318073Y317775D01*
X318250Y317743D01*
X320638Y317743D01*
X322493Y315888D01*
X322493Y313511D01*
X322494Y313503D01*
X322493Y313495D01*
X322513Y313410D01*
X322513Y310004D01*
X322493Y309893D01*
X322493Y307516D01*
X320638Y305661D01*
X316601Y305661D01*
X316593Y305660D01*
X316585Y305661D01*
X316495Y305640D01*
X316404Y305622D01*
X316398Y305617D01*
X316390Y305615D01*
X316242Y305513D01*
X313473Y302744D01*
X313469Y302737D01*
X313462Y302732D01*
X313413Y302654D01*
X313362Y302577D01*
X313361Y302569D01*
X313356Y302562D01*
X313324Y302385D01*
X313324Y293891D01*
X311836Y292403D01*
X310787Y292403D01*
X310781Y292401D01*
X310775Y292403D01*
X310683Y292382D01*
X310591Y292363D01*
X310586Y292359D01*
X310579Y292358D01*
X310503Y292303D01*
X310425Y292251D01*
X310422Y292245D01*
X310416Y292241D01*
X310319Y292090D01*
X309590Y290330D01*
X309589Y290326D01*
X309587Y290323D01*
X309570Y290228D01*
X309551Y290133D01*
X309552Y290129D01*
X309551Y290126D01*
X309573Y290030D01*
X309592Y289937D01*
X309594Y289934D01*
X309595Y289930D01*
X309651Y289851D01*
X309705Y289772D01*
X309709Y289770D01*
X309711Y289766D01*
X309793Y289716D01*
X309874Y289663D01*
X309878Y289663D01*
X309881Y289661D01*
X310059Y289629D01*
X310285Y289629D01*
X311774Y288140D01*
X311774Y271036D01*
X310285Y269547D01*
X295180Y269547D01*
X293692Y271036D01*
X293692Y288140D01*
X294519Y288967D01*
X294523Y288973D01*
X294529Y288978D01*
X294578Y289056D01*
X294630Y289134D01*
X294631Y289142D01*
X294635Y289148D01*
X294667Y289326D01*
X294667Y290818D01*
X295630Y293142D01*
X297094Y294606D01*
X297099Y294613D01*
X297105Y294617D01*
X297154Y294696D01*
X297205Y294773D01*
X297207Y294781D01*
X297211Y294788D01*
X297243Y294965D01*
X297243Y304212D01*
X297242Y304217D01*
X297243Y304222D01*
X297222Y304315D01*
X297203Y304409D01*
X297200Y304413D01*
X297199Y304418D01*
X297144Y304496D01*
X297091Y304574D01*
X297086Y304577D01*
X297083Y304581D01*
X297002Y304632D01*
X296923Y304684D01*
X296918Y304684D01*
X296913Y304687D01*
X296736Y304719D01*
X283969Y304719D01*
X283938Y304738D01*
X283861Y304790D01*
X283854Y304791D01*
X283847Y304795D01*
X283670Y304827D01*
X281952Y304827D01*
X279628Y305790D01*
X277850Y307568D01*
X276887Y309892D01*
X276887Y312408D01*
X277850Y314732D01*
X279628Y316510D01*
X280725Y316964D01*
X281949Y317472D01*
X281950Y317472D01*
X281952Y317473D01*
X284468Y317473D01*
X286792Y316510D01*
X288570Y314732D01*
X289431Y312654D01*
X289434Y312648D01*
X289436Y312642D01*
X289490Y312565D01*
X289543Y312487D01*
X289548Y312484D01*
X289552Y312479D01*
X289632Y312429D01*
X289710Y312377D01*
X289717Y312376D01*
X289722Y312373D01*
X289899Y312341D01*
X291993Y312341D01*
X291996Y312342D01*
X292000Y312341D01*
X292094Y312361D01*
X292189Y312380D01*
X292192Y312383D01*
X292196Y312383D01*
X292275Y312439D01*
X292355Y312493D01*
X292357Y312496D01*
X292360Y312499D01*
X292412Y312581D01*
X292464Y312661D01*
X292465Y312665D01*
X292467Y312668D01*
X292483Y312764D01*
X292500Y312858D01*
X292499Y312862D01*
X292500Y312866D01*
X292461Y313042D01*
X292127Y313848D01*
X292127Y315750D01*
X292126Y315755D01*
X292127Y315760D01*
X292106Y315853D01*
X292088Y315947D01*
X292085Y315951D01*
X292084Y315956D01*
X292028Y316034D01*
X291975Y316112D01*
X291971Y316115D01*
X291968Y316119D01*
X291886Y316170D01*
X291807Y316222D01*
X291802Y316222D01*
X291797Y316225D01*
X291620Y316257D01*
X290842Y316257D01*
X288518Y317220D01*
X286740Y318998D01*
X285777Y321322D01*
X285777Y323838D01*
X286740Y326162D01*
X287880Y327301D01*
X287883Y327306D01*
X287887Y327309D01*
X287938Y327389D01*
X287991Y327468D01*
X287992Y327473D01*
X287994Y327478D01*
X288010Y327572D01*
X288028Y327665D01*
X288027Y327670D01*
X288028Y327676D01*
X288006Y327768D01*
X287987Y327861D01*
X287984Y327866D01*
X287982Y327871D01*
X287880Y328019D01*
X286740Y329158D01*
X285777Y331482D01*
X285777Y333998D01*
X286740Y336322D01*
X288518Y338100D01*
X289659Y338572D01*
X289662Y338575D01*
X289666Y338575D01*
X289745Y338631D01*
X289825Y338684D01*
X289827Y338687D01*
X289830Y338690D01*
X289882Y338771D01*
X289935Y338852D01*
X289936Y338856D01*
X289938Y338859D01*
X289954Y338954D01*
X289972Y339049D01*
X289971Y339053D01*
X289971Y339056D01*
X289950Y339150D01*
X289929Y339245D01*
X289927Y339248D01*
X289926Y339252D01*
X289823Y339400D01*
X279342Y349881D01*
X279336Y349885D01*
X279331Y349891D01*
X279252Y349940D01*
X279175Y349992D01*
X279167Y349993D01*
X279161Y349997D01*
X278983Y350029D01*
X274581Y350029D01*
X274573Y350028D01*
X274566Y350029D01*
X274476Y350008D01*
X274385Y349990D01*
X274378Y349985D01*
X274370Y349983D01*
X274222Y349881D01*
X272822Y348480D01*
X272471Y348335D01*
X271246Y347827D01*
X270498Y347517D01*
X267982Y347517D01*
X265658Y348480D01*
X263880Y350258D01*
X262917Y352582D01*
X262917Y355098D01*
X263624Y356803D01*
X263624Y356807D01*
X263627Y356810D01*
X263644Y356905D01*
X263662Y357000D01*
X263661Y357003D01*
X263662Y357007D01*
X263641Y357101D01*
X263622Y357196D01*
X263619Y357199D01*
X263619Y357203D01*
X263562Y357282D01*
X263508Y357361D01*
X263505Y357363D01*
X263503Y357366D01*
X263421Y357417D01*
X263340Y357470D01*
X263336Y357470D01*
X263332Y357472D01*
X263155Y357504D01*
X251787Y357504D01*
X227142Y382149D01*
X227136Y382153D01*
X227131Y382159D01*
X227052Y382208D01*
X226975Y382260D01*
X226967Y382261D01*
X226961Y382265D01*
X226783Y382297D01*
X224802Y382297D01*
X222478Y383260D01*
X220700Y385038D01*
X219737Y387362D01*
X219737Y389878D01*
X220004Y390521D01*
X220005Y390525D01*
X220007Y390529D01*
X220024Y390624D01*
X220043Y390718D01*
X220042Y390722D01*
X220042Y390726D01*
X220021Y390821D01*
X220002Y390914D01*
X220000Y390918D01*
X219999Y390922D01*
X219943Y391001D01*
X219889Y391080D01*
X219885Y391082D01*
X219883Y391085D01*
X219800Y391136D01*
X219720Y391188D01*
X219716Y391189D01*
X219712Y391191D01*
X219535Y391223D01*
X218596Y391223D01*
X218562Y391216D01*
X218521Y391217D01*
X217538Y391068D01*
X217464Y391123D01*
X217400Y391153D01*
X217340Y391190D01*
X217308Y391196D01*
X217283Y391208D01*
X217231Y391210D01*
X217163Y391222D01*
X215460Y391222D01*
X215391Y391208D01*
X215321Y391202D01*
X215291Y391187D01*
X215264Y391182D01*
X215221Y391153D01*
X215159Y391122D01*
X215085Y391068D01*
X214103Y391215D01*
X214068Y391214D01*
X214027Y391221D01*
X213033Y391221D01*
X212968Y391286D01*
X212909Y391325D01*
X212856Y391371D01*
X212825Y391381D01*
X212801Y391397D01*
X212750Y391406D01*
X212685Y391429D01*
X211001Y391682D01*
X210931Y391678D01*
X210860Y391683D01*
X210829Y391673D01*
X210801Y391672D01*
X210755Y391650D01*
X210689Y391629D01*
X210607Y391586D01*
X209658Y391878D01*
X209623Y391882D01*
X209584Y391895D01*
X208601Y392043D01*
X208547Y392117D01*
X208494Y392164D01*
X208448Y392217D01*
X208419Y392232D01*
X208398Y392251D01*
X208349Y392269D01*
X208288Y392300D01*
X206661Y392802D01*
X206591Y392809D01*
X206522Y392824D01*
X206489Y392819D01*
X206461Y392822D01*
X206412Y392806D01*
X206344Y392796D01*
X206257Y392765D01*
X205362Y393196D01*
X205328Y393205D01*
X205291Y393224D01*
X204293Y393531D01*
X204244Y393536D01*
X204197Y393551D01*
X204145Y393546D01*
X204094Y393551D01*
X204046Y393537D01*
X203997Y393532D01*
X203952Y393508D01*
X203902Y393492D01*
X203864Y393461D01*
X203821Y393438D01*
X203783Y393393D01*
X203748Y393364D01*
X203732Y393332D01*
X203704Y393300D01*
X190623Y370642D01*
X190611Y370607D01*
X190591Y370576D01*
X190580Y370513D01*
X190559Y370452D01*
X190562Y370415D01*
X190555Y370378D01*
X190569Y370316D01*
X190574Y370252D01*
X190591Y370219D01*
X190599Y370183D01*
X190636Y370131D01*
X190665Y370074D01*
X190693Y370050D01*
X190715Y370019D01*
X190769Y369986D01*
X190818Y369944D01*
X190854Y369933D01*
X190885Y369913D01*
X190958Y369900D01*
X191009Y369884D01*
X191034Y369887D01*
X191063Y369881D01*
X192208Y369881D01*
X194532Y368919D01*
X196311Y367140D01*
X197273Y364816D01*
X197273Y362301D01*
X196311Y359977D01*
X194532Y358199D01*
X193986Y357972D01*
X192762Y357465D01*
X192208Y357236D01*
X189693Y357236D01*
X188779Y357614D01*
X187636Y359136D01*
X187611Y359159D01*
X187583Y359196D01*
X185371Y361320D01*
X185343Y361338D01*
X185309Y361371D01*
X182786Y363113D01*
X182759Y363124D01*
X182737Y363143D01*
X182668Y363163D01*
X182603Y363191D01*
X182574Y363191D01*
X182546Y363199D01*
X182475Y363191D01*
X182404Y363192D01*
X182377Y363180D01*
X182348Y363177D01*
X182286Y363142D01*
X182221Y363114D01*
X182200Y363094D01*
X182175Y363079D01*
X182112Y363002D01*
X182082Y362972D01*
X182078Y362962D01*
X182069Y362951D01*
X172569Y346451D01*
X172545Y346378D01*
X172514Y346308D01*
X172514Y346284D01*
X172506Y346262D01*
X172513Y346186D01*
X172512Y346109D01*
X172521Y346085D01*
X172522Y346064D01*
X172543Y346025D01*
X172562Y345973D01*
X172563Y345967D01*
X172565Y345965D01*
X172569Y345953D01*
X182069Y329453D01*
X182088Y329431D01*
X182101Y329405D01*
X182154Y329357D01*
X182201Y329304D01*
X182227Y329291D01*
X182249Y329272D01*
X182316Y329249D01*
X182380Y329218D01*
X182409Y329217D01*
X182436Y329207D01*
X182508Y329212D01*
X182579Y329209D01*
X182606Y329219D01*
X182635Y329221D01*
X182725Y329263D01*
X182765Y329278D01*
X182773Y329285D01*
X182786Y329291D01*
X185309Y331033D01*
X185333Y331057D01*
X185371Y331084D01*
X187583Y333208D01*
X187602Y333236D01*
X187636Y333268D01*
X187690Y333340D01*
X188568Y333704D01*
X188569Y333704D01*
X189242Y333983D01*
X191758Y333983D01*
X194082Y333020D01*
X195860Y331242D01*
X196823Y328918D01*
X196823Y326402D01*
X195860Y324078D01*
X194082Y322300D01*
X193255Y321958D01*
X192031Y321450D01*
X191758Y321337D01*
X191747Y321337D01*
X191710Y321330D01*
X191673Y321332D01*
X191613Y321310D01*
X191550Y321298D01*
X191519Y321277D01*
X191484Y321264D01*
X191437Y321221D01*
X191385Y321185D01*
X191364Y321154D01*
X191337Y321128D01*
X191310Y321070D01*
X191275Y321017D01*
X191269Y320980D01*
X191253Y320946D01*
X191251Y320882D01*
X191240Y320820D01*
X191248Y320783D01*
X191247Y320746D01*
X191272Y320676D01*
X191283Y320624D01*
X191298Y320604D01*
X191308Y320576D01*
X203704Y299104D01*
X203737Y299067D01*
X203761Y299024D01*
X203803Y298993D01*
X203837Y298954D01*
X203881Y298932D01*
X203920Y298902D01*
X203971Y298889D01*
X204017Y298866D01*
X204066Y298864D01*
X204114Y298851D01*
X204172Y298858D01*
X204218Y298856D01*
X204251Y298868D01*
X204293Y298873D01*
X205291Y299180D01*
X205322Y299197D01*
X205362Y299208D01*
X206257Y299639D01*
X206344Y299608D01*
X206414Y299599D01*
X206482Y299581D01*
X206514Y299585D01*
X206542Y299581D01*
X206592Y299594D01*
X206661Y299602D01*
X208288Y300104D01*
X208350Y300137D01*
X208416Y300164D01*
X208439Y300186D01*
X208464Y300199D01*
X208496Y300240D01*
X208547Y300287D01*
X208601Y300361D01*
X209584Y300509D01*
X209617Y300521D01*
X209658Y300526D01*
X210607Y300818D01*
X210689Y300775D01*
X210756Y300755D01*
X210821Y300727D01*
X210854Y300726D01*
X210881Y300718D01*
X210932Y300724D01*
X211001Y300722D01*
X212685Y300975D01*
X212751Y300999D01*
X212820Y301015D01*
X212847Y301034D01*
X212873Y301044D01*
X212911Y301079D01*
X212968Y301118D01*
X213033Y301183D01*
X214027Y301183D01*
X214061Y301190D01*
X214103Y301189D01*
X215085Y301336D01*
X215159Y301282D01*
X215223Y301252D01*
X215283Y301215D01*
X215315Y301209D01*
X215341Y301197D01*
X215392Y301195D01*
X215460Y301182D01*
X217163Y301182D01*
X217232Y301196D01*
X217303Y301201D01*
X217332Y301216D01*
X217359Y301221D01*
X217402Y301250D01*
X217464Y301281D01*
X217538Y301336D01*
X218521Y301187D01*
X218556Y301189D01*
X218596Y301181D01*
X219590Y301181D01*
X219655Y301116D01*
X219714Y301077D01*
X219767Y301031D01*
X219799Y301021D01*
X219822Y301005D01*
X219873Y300995D01*
X219938Y300973D01*
X221622Y300719D01*
X221692Y300722D01*
X221763Y300717D01*
X221794Y300727D01*
X221822Y300729D01*
X221868Y300751D01*
X221934Y300772D01*
X222016Y300815D01*
X222965Y300522D01*
X223000Y300518D01*
X223039Y300505D01*
X224021Y300356D01*
X224076Y300282D01*
X224128Y300235D01*
X224175Y300181D01*
X224204Y300166D01*
X224224Y300148D01*
X224273Y300130D01*
X224335Y300099D01*
X225961Y299596D01*
X226032Y299589D01*
X226101Y299574D01*
X226133Y299579D01*
X226161Y299576D01*
X226210Y299591D01*
X226278Y299602D01*
X226365Y299632D01*
X227260Y299201D01*
X227294Y299192D01*
X227331Y299173D01*
X228280Y298880D01*
X228323Y298799D01*
X228368Y298744D01*
X228406Y298684D01*
X228432Y298665D01*
X228450Y298643D01*
X228496Y298619D01*
X228552Y298579D01*
X230085Y297839D01*
X230154Y297822D01*
X230220Y297796D01*
X230252Y297797D01*
X230280Y297790D01*
X230331Y297797D01*
X230400Y297798D01*
X230490Y297815D01*
X231311Y297255D01*
X231343Y297242D01*
X231377Y297217D01*
X232272Y296786D01*
X232302Y296699D01*
X232338Y296638D01*
X232367Y296574D01*
X232390Y296550D01*
X232404Y296526D01*
X232446Y296496D01*
X232495Y296447D01*
X233902Y295488D01*
X233967Y295460D01*
X234028Y295425D01*
X234060Y295420D01*
X234086Y295410D01*
X234138Y295409D01*
X234206Y295400D01*
X234298Y295403D01*
X235026Y294727D01*
X235056Y294709D01*
X235086Y294680D01*
X235906Y294120D01*
X235924Y294029D01*
X235950Y293964D01*
X235969Y293896D01*
X235988Y293870D01*
X235999Y293844D01*
X236035Y293807D01*
X236077Y293752D01*
X237325Y292593D01*
X237385Y292556D01*
X237440Y292513D01*
X237472Y292503D01*
X237496Y292489D01*
X237547Y292481D01*
X237613Y292461D01*
X237704Y292451D01*
X238323Y291674D01*
X238350Y291651D01*
X238375Y291618D01*
X239103Y290942D01*
X239107Y290850D01*
X239123Y290781D01*
X239131Y290711D01*
X239147Y290682D01*
X239153Y290655D01*
X239184Y290613D01*
X239217Y290553D01*
X240278Y289221D01*
X240332Y289176D01*
X240338Y289169D01*
X240342Y289164D01*
X240345Y289162D01*
X240380Y289124D01*
X240410Y289110D01*
X240431Y289092D01*
X240481Y289077D01*
X240486Y289074D01*
X240512Y289058D01*
X240526Y289056D01*
X240543Y289047D01*
X240632Y289023D01*
X241129Y288163D01*
X241152Y288137D01*
X241171Y288100D01*
X241791Y287323D01*
X241780Y287232D01*
X241786Y287161D01*
X241784Y287091D01*
X241795Y287060D01*
X241798Y287032D01*
X241822Y286986D01*
X241845Y286921D01*
X242696Y285446D01*
X242742Y285393D01*
X242783Y285335D01*
X242810Y285317D01*
X242828Y285296D01*
X242875Y285273D01*
X242932Y285235D01*
X243017Y285198D01*
X243379Y284273D01*
X243385Y284264D01*
X243387Y284255D01*
X243402Y284234D01*
X243412Y284205D01*
X243909Y283344D01*
X243885Y283255D01*
X243880Y283185D01*
X243868Y283115D01*
X243874Y283083D01*
X243872Y283055D01*
X243889Y283006D01*
X243902Y282939D01*
X244524Y281353D01*
X244562Y281294D01*
X244593Y281231D01*
X244617Y281209D01*
X244633Y281185D01*
X244675Y281156D01*
X244726Y281109D01*
X244804Y281060D01*
X245025Y280091D01*
X245039Y280060D01*
X245047Y280019D01*
X245410Y279094D01*
X245373Y279010D01*
X245358Y278941D01*
X245335Y278874D01*
X245337Y278841D01*
X245331Y278814D01*
X245340Y278763D01*
X245343Y278694D01*
X245722Y277034D01*
X245751Y276969D01*
X245772Y276902D01*
X245793Y276877D01*
X245804Y276851D01*
X245842Y276816D01*
X245885Y276762D01*
X245955Y276702D01*
X246029Y275711D01*
X246038Y275678D01*
X246040Y275636D01*
X246261Y274667D01*
X246212Y274590D01*
X246192Y274535D01*
X246170Y274503D01*
X246167Y274486D01*
X246154Y274461D01*
X246151Y274428D01*
X246141Y274402D01*
X246143Y274351D01*
X246135Y274305D01*
X246137Y274295D01*
X246136Y274282D01*
X246262Y272584D01*
X246281Y272516D01*
X246292Y272446D01*
X246309Y272418D01*
X246317Y272391D01*
X246349Y272351D01*
X246384Y272291D01*
X246444Y272221D01*
X246369Y271230D01*
X246373Y271196D01*
X246369Y271155D01*
X246443Y270164D01*
X246383Y270094D01*
X246348Y270032D01*
X246307Y269975D01*
X246299Y269944D01*
X246296Y269939D01*
X246295Y269937D01*
X246285Y269919D01*
X246279Y269868D01*
X246262Y269801D01*
X246134Y268103D01*
X246142Y268033D01*
X246143Y267962D01*
X246155Y267932D01*
X246158Y267904D01*
X246184Y267860D01*
X246210Y267795D01*
X246259Y267717D01*
X246037Y266749D01*
X246037Y266714D01*
X246026Y266674D01*
X245952Y265683D01*
X245882Y265623D01*
X245838Y265567D01*
X245789Y265517D01*
X245776Y265487D01*
X245759Y265465D01*
X245745Y265415D01*
X245718Y265351D01*
X245588Y264781D01*
X245586Y264719D01*
X245575Y264658D01*
X245584Y264620D01*
X245583Y264581D01*
X245605Y264523D01*
X245619Y264462D01*
X245641Y264430D01*
X245655Y264394D01*
X245699Y264349D01*
X245735Y264299D01*
X245768Y264278D01*
X245795Y264250D01*
X245852Y264226D01*
X245905Y264193D01*
X245947Y264185D01*
X245979Y264171D01*
X246025Y264171D01*
X246082Y264161D01*
X311901Y264161D01*
X311909Y264162D01*
X311917Y264161D01*
X312007Y264182D01*
X312098Y264200D01*
X312104Y264205D01*
X312112Y264207D01*
X312260Y264309D01*
X324743Y276792D01*
X324747Y276798D01*
X324753Y276803D01*
X324802Y276882D01*
X324854Y276959D01*
X324855Y276967D01*
X324859Y276973D01*
X324891Y277151D01*
X324891Y313399D01*
X324911Y313511D01*
X324911Y315888D01*
X326766Y317743D01*
X330638Y317743D01*
X330843Y317538D01*
X330848Y317535D01*
X330851Y317530D01*
X330931Y317480D01*
X331010Y317427D01*
X331015Y317426D01*
X331020Y317423D01*
X331114Y317407D01*
X331207Y317389D01*
X331212Y317390D01*
X331218Y317389D01*
X331309Y317411D01*
X331403Y317431D01*
X331408Y317434D01*
X331413Y317435D01*
X331561Y317538D01*
X331766Y317743D01*
X335638Y317743D01*
X337493Y315888D01*
X337493Y313511D01*
X337494Y313503D01*
X337493Y313495D01*
X337513Y313410D01*
X337513Y294339D01*
X337513Y294336D01*
X337513Y294334D01*
X337533Y294236D01*
X337552Y294143D01*
X337554Y294140D01*
X337554Y294138D01*
X337610Y294057D01*
X337665Y293977D01*
X337667Y293975D01*
X337669Y293973D01*
X337753Y293919D01*
X337833Y293867D01*
X337836Y293867D01*
X337838Y293866D01*
X337934Y293849D01*
X338030Y293832D01*
X338033Y293832D01*
X338035Y293832D01*
X338130Y293854D01*
X338226Y293875D01*
X338228Y293877D01*
X338231Y293878D01*
X338379Y293980D01*
X339318Y294920D01*
X339880Y295153D01*
X341104Y295660D01*
X341642Y295883D01*
X344158Y295883D01*
X346482Y294920D01*
X348260Y293142D01*
X349223Y290818D01*
X349223Y288302D01*
X348260Y285978D01*
X346482Y284200D01*
X345791Y283914D01*
X344567Y283407D01*
X344566Y283407D01*
X344158Y283237D01*
X341642Y283237D01*
X339318Y284200D01*
X338379Y285140D01*
X338376Y285141D01*
X338375Y285143D01*
X338295Y285195D01*
X338212Y285251D01*
X338209Y285251D01*
X338207Y285253D01*
X338111Y285270D01*
X338015Y285288D01*
X338012Y285288D01*
X338010Y285288D01*
X337913Y285267D01*
X337819Y285247D01*
X337817Y285245D01*
X337814Y285245D01*
X337734Y285188D01*
X337654Y285132D01*
X337653Y285130D01*
X337651Y285129D01*
X337599Y285045D01*
X337547Y284963D01*
X337546Y284961D01*
X337545Y284958D01*
X337513Y284781D01*
X337513Y269894D01*
X317582Y249963D01*
X250451Y249963D01*
X250443Y249962D01*
X250436Y249963D01*
X250346Y249942D01*
X250255Y249924D01*
X250248Y249919D01*
X250240Y249917D01*
X250092Y249815D01*
X248692Y248414D01*
X248674Y248406D01*
X248673Y248406D01*
X247449Y247899D01*
X246368Y247451D01*
X243852Y247451D01*
X241528Y248414D01*
X239750Y250192D01*
X239470Y250867D01*
X239417Y250946D01*
X239367Y251026D01*
X239362Y251029D01*
X239359Y251034D01*
X239279Y251086D01*
X239202Y251139D01*
X239196Y251141D01*
X239191Y251144D01*
X239098Y251161D01*
X239005Y251181D01*
X239000Y251179D01*
X238994Y251180D01*
X238902Y251160D01*
X238809Y251142D01*
X238803Y251139D01*
X238798Y251138D01*
X238762Y251112D01*
X238657Y251045D01*
X238362Y250772D01*
X238342Y250744D01*
X238310Y250716D01*
X237691Y249940D01*
X237599Y249929D01*
X237532Y249908D01*
X237463Y249894D01*
X237435Y249877D01*
X237408Y249868D01*
X237369Y249835D01*
X237311Y249797D01*
X236062Y248640D01*
X236021Y248582D01*
X235973Y248530D01*
X235962Y248500D01*
X235945Y248477D01*
X235934Y248427D01*
X235909Y248362D01*
X235892Y248272D01*
X235071Y247712D01*
X235047Y247688D01*
X235011Y247665D01*
X234260Y246968D01*
X234231Y246928D01*
X234194Y246895D01*
X234173Y246847D01*
X234143Y246805D01*
X234131Y246757D01*
X234111Y246712D01*
X234109Y246661D01*
X234098Y246610D01*
X234106Y246561D01*
X234104Y246512D01*
X234124Y246458D01*
X234132Y246413D01*
X234151Y246383D01*
X234165Y246342D01*
X246720Y224596D01*
X246768Y224542D01*
X246808Y224484D01*
X246833Y224468D01*
X246853Y224445D01*
X246917Y224414D01*
X246978Y224376D01*
X247007Y224371D01*
X247033Y224358D01*
X247105Y224354D01*
X247175Y224342D01*
X247204Y224349D01*
X247234Y224348D01*
X247301Y224372D01*
X247370Y224388D01*
X247397Y224406D01*
X247422Y224415D01*
X247460Y224451D01*
X247518Y224491D01*
X248403Y225376D01*
X249088Y225659D01*
X250313Y226167D01*
X250727Y226338D01*
X253242Y226338D01*
X255566Y225376D01*
X257345Y223597D01*
X258307Y221273D01*
X258307Y218758D01*
X257345Y216434D01*
X256335Y215424D01*
X255748Y215354D01*
X255716Y215343D01*
X255670Y215338D01*
X252730Y214490D01*
X252700Y214474D01*
X252655Y214462D01*
X249889Y213153D01*
X249866Y213136D01*
X249839Y213126D01*
X249787Y213077D01*
X249729Y213034D01*
X249715Y213009D01*
X249694Y212990D01*
X249665Y212924D01*
X249629Y212862D01*
X249626Y212834D01*
X249614Y212808D01*
X249613Y212736D01*
X249604Y212665D01*
X249612Y212638D01*
X249612Y212609D01*
X249647Y212514D01*
X249658Y212474D01*
X249665Y212465D01*
X249669Y212453D01*
X259169Y195953D01*
X259221Y195895D01*
X259267Y195832D01*
X259286Y195821D01*
X259301Y195804D01*
X259371Y195770D01*
X259438Y195730D01*
X259463Y195726D01*
X259480Y195718D01*
X259525Y195716D01*
X259602Y195703D01*
X278602Y195703D01*
X278630Y195708D01*
G37*
%LPC*%
G36*
X310004Y369891D02*
X310004Y369891D01*
X309893Y369911D01*
X307516Y369911D01*
X306604Y370823D01*
X306599Y370826D01*
X306595Y370832D01*
X306516Y370881D01*
X306437Y370934D01*
X306431Y370935D01*
X306425Y370938D01*
X306333Y370954D01*
X306241Y370971D01*
X306234Y370970D01*
X306228Y370971D01*
X306052Y370933D01*
X305378Y370654D01*
X304154Y370146D01*
X301638Y370146D01*
X299314Y371109D01*
X297536Y372888D01*
X296573Y375211D01*
X296573Y377727D01*
X297124Y379056D01*
X297124Y379060D01*
X297127Y379063D01*
X297144Y379158D01*
X297162Y379253D01*
X297162Y379256D01*
X297162Y379260D01*
X297141Y379354D01*
X297122Y379449D01*
X297120Y379452D01*
X297119Y379456D01*
X297063Y379535D01*
X297008Y379614D01*
X297005Y379616D01*
X297003Y379619D01*
X296921Y379670D01*
X296840Y379723D01*
X296836Y379723D01*
X296832Y379725D01*
X296655Y379757D01*
X295922Y379757D01*
X293598Y380720D01*
X291820Y382498D01*
X291251Y383873D01*
X291246Y383880D01*
X291243Y383889D01*
X291141Y384037D01*
X285319Y389859D01*
X285312Y389864D01*
X285308Y389870D01*
X285229Y389919D01*
X285152Y389970D01*
X285144Y389972D01*
X285137Y389976D01*
X284960Y390008D01*
X279291Y390008D01*
X277802Y391496D01*
X277802Y406601D01*
X279291Y408089D01*
X296395Y408089D01*
X297884Y406601D01*
X297884Y393312D01*
X297885Y393304D01*
X297884Y393296D01*
X297905Y393206D01*
X297923Y393115D01*
X297928Y393109D01*
X297930Y393101D01*
X298032Y392953D01*
X298614Y392372D01*
X298621Y392367D01*
X298627Y392359D01*
X298778Y392262D01*
X300116Y391707D01*
X300125Y391706D01*
X300133Y391701D01*
X300311Y391669D01*
X301398Y391669D01*
X301403Y391670D01*
X301408Y391669D01*
X301501Y391690D01*
X301594Y391708D01*
X301598Y391711D01*
X301604Y391712D01*
X301681Y391768D01*
X301760Y391821D01*
X301763Y391825D01*
X301767Y391828D01*
X301818Y391910D01*
X301869Y391989D01*
X301870Y391994D01*
X301873Y391999D01*
X301905Y392176D01*
X301905Y395098D01*
X303393Y396586D01*
X314384Y396586D01*
X314389Y396587D01*
X314394Y396586D01*
X314487Y396607D01*
X314581Y396625D01*
X314585Y396628D01*
X314590Y396630D01*
X314668Y396685D01*
X314746Y396738D01*
X314749Y396743D01*
X314753Y396746D01*
X314804Y396827D01*
X314856Y396906D01*
X314856Y396911D01*
X314859Y396916D01*
X314891Y397093D01*
X314891Y410507D01*
X314890Y410511D01*
X314891Y410515D01*
X314871Y410608D01*
X314852Y410703D01*
X314849Y410707D01*
X314849Y410710D01*
X314793Y410790D01*
X314739Y410869D01*
X314736Y410871D01*
X314733Y410875D01*
X314651Y410926D01*
X314571Y410978D01*
X314567Y410979D01*
X314564Y410981D01*
X314468Y410997D01*
X314374Y411014D01*
X314370Y411013D01*
X314366Y411014D01*
X314190Y410975D01*
X313589Y410726D01*
X313588Y410726D01*
X312408Y410237D01*
X309892Y410237D01*
X307568Y411200D01*
X305790Y412978D01*
X304827Y415302D01*
X304827Y417818D01*
X305790Y420142D01*
X307568Y421920D01*
X307677Y421965D01*
X308901Y422472D01*
X308902Y422472D01*
X309892Y422883D01*
X312408Y422883D01*
X314190Y422145D01*
X314194Y422144D01*
X314197Y422142D01*
X314292Y422124D01*
X314387Y422106D01*
X314390Y422107D01*
X314394Y422106D01*
X314489Y422127D01*
X314583Y422147D01*
X314586Y422149D01*
X314590Y422150D01*
X314669Y422206D01*
X314748Y422260D01*
X314750Y422263D01*
X314753Y422266D01*
X314804Y422347D01*
X314857Y422429D01*
X314857Y422432D01*
X314859Y422436D01*
X314891Y422613D01*
X314891Y423729D01*
X314890Y423737D01*
X314891Y423745D01*
X314870Y423835D01*
X314852Y423926D01*
X314847Y423932D01*
X314845Y423940D01*
X314743Y424088D01*
X292702Y446129D01*
X292698Y446132D01*
X292695Y446136D01*
X292693Y446137D01*
X292691Y446139D01*
X292612Y446188D01*
X292535Y446240D01*
X292527Y446241D01*
X292521Y446245D01*
X292343Y446277D01*
X278391Y446277D01*
X278383Y446276D01*
X278376Y446277D01*
X278286Y446256D01*
X278195Y446238D01*
X278188Y446233D01*
X278180Y446231D01*
X278032Y446129D01*
X276632Y444728D01*
X276594Y444712D01*
X276593Y444712D01*
X275369Y444205D01*
X274308Y443765D01*
X271792Y443765D01*
X271678Y443813D01*
X271672Y443814D01*
X271666Y443817D01*
X271574Y443833D01*
X271481Y443851D01*
X271475Y443850D01*
X271468Y443851D01*
X271377Y443830D01*
X271285Y443811D01*
X271280Y443807D01*
X271273Y443805D01*
X271125Y443703D01*
X269970Y442547D01*
X254794Y442547D01*
X251841Y445500D01*
X251841Y454676D01*
X254794Y457629D01*
X269970Y457629D01*
X271125Y456473D01*
X271131Y456470D01*
X271135Y456464D01*
X271214Y456415D01*
X271292Y456362D01*
X271299Y456361D01*
X271304Y456358D01*
X271397Y456342D01*
X271489Y456325D01*
X271496Y456326D01*
X271502Y456325D01*
X271678Y456363D01*
X271792Y456411D01*
X274308Y456411D01*
X276632Y455448D01*
X277782Y454297D01*
X277783Y454297D01*
X277784Y454295D01*
X277865Y454242D01*
X277949Y454186D01*
X277951Y454186D01*
X277952Y454185D01*
X278049Y454167D01*
X278146Y454149D01*
X278147Y454149D01*
X278149Y454149D01*
X278246Y454170D01*
X278342Y454190D01*
X278343Y454191D01*
X278345Y454191D01*
X278425Y454248D01*
X278507Y454305D01*
X278508Y454306D01*
X278509Y454307D01*
X278562Y454391D01*
X278614Y454474D01*
X278615Y454475D01*
X278615Y454476D01*
X278632Y454575D01*
X278648Y454671D01*
X278648Y454673D01*
X278648Y454674D01*
X278610Y454850D01*
X278157Y455942D01*
X278157Y458458D01*
X279120Y460782D01*
X280898Y462560D01*
X282087Y463052D01*
X283222Y463523D01*
X285738Y463523D01*
X288062Y462560D01*
X289840Y460782D01*
X290803Y458458D01*
X290803Y455942D01*
X290247Y454600D01*
X290246Y454596D01*
X290244Y454593D01*
X290227Y454498D01*
X290208Y454403D01*
X290209Y454400D01*
X290208Y454396D01*
X290229Y454301D01*
X290249Y454207D01*
X290251Y454204D01*
X290252Y454200D01*
X290308Y454120D01*
X290362Y454042D01*
X290366Y454040D01*
X290368Y454037D01*
X290450Y453985D01*
X290531Y453933D01*
X290535Y453933D01*
X290538Y453931D01*
X290715Y453899D01*
X295710Y453899D01*
X295740Y453870D01*
X295741Y453869D01*
X295741Y453868D01*
X295825Y453813D01*
X295906Y453759D01*
X295908Y453758D01*
X295909Y453758D01*
X296006Y453740D01*
X296103Y453721D01*
X296105Y453721D01*
X296106Y453721D01*
X296203Y453742D01*
X296299Y453763D01*
X296301Y453763D01*
X296302Y453764D01*
X296383Y453820D01*
X296464Y453877D01*
X296465Y453878D01*
X296466Y453879D01*
X296518Y453961D01*
X296572Y454046D01*
X296572Y454048D01*
X296573Y454049D01*
X296589Y454147D01*
X296605Y454244D01*
X296605Y454245D01*
X296605Y454246D01*
X296567Y454422D01*
X295937Y455942D01*
X295937Y458458D01*
X296900Y460782D01*
X298678Y462560D01*
X299867Y463052D01*
X301002Y463523D01*
X303518Y463523D01*
X305842Y462560D01*
X307620Y460782D01*
X308583Y458458D01*
X308583Y455942D01*
X307620Y453618D01*
X305842Y451840D01*
X305778Y451814D01*
X304554Y451306D01*
X303518Y450877D01*
X301002Y450877D01*
X299482Y451507D01*
X299481Y451507D01*
X299480Y451508D01*
X299383Y451526D01*
X299286Y451545D01*
X299284Y451545D01*
X299283Y451545D01*
X299188Y451525D01*
X299089Y451505D01*
X299088Y451504D01*
X299087Y451504D01*
X299003Y451446D01*
X298924Y451391D01*
X298924Y451390D01*
X298922Y451390D01*
X298868Y451303D01*
X298816Y451223D01*
X298816Y451221D01*
X298815Y451220D01*
X298799Y451125D01*
X298781Y451025D01*
X298782Y451024D01*
X298781Y451023D01*
X298803Y450928D01*
X298826Y450830D01*
X298827Y450829D01*
X298827Y450828D01*
X298930Y450680D01*
X322513Y427096D01*
X322513Y379005D01*
X322493Y378893D01*
X322493Y376516D01*
X320638Y374661D01*
X318250Y374661D01*
X318245Y374660D01*
X318240Y374661D01*
X318147Y374640D01*
X318053Y374622D01*
X318049Y374619D01*
X318044Y374618D01*
X317966Y374562D01*
X317888Y374509D01*
X317885Y374505D01*
X317880Y374502D01*
X317830Y374420D01*
X317778Y374341D01*
X317777Y374336D01*
X317775Y374331D01*
X317743Y374154D01*
X317743Y371766D01*
X315888Y369911D01*
X313511Y369911D01*
X313503Y369910D01*
X313495Y369911D01*
X313410Y369891D01*
X310004Y369891D01*
G37*
%LPD*%
G36*
X478143Y393769D02*
X478143Y393769D01*
X478186Y393768D01*
X482179Y394369D01*
X482209Y394380D01*
X482252Y394385D01*
X486111Y395574D01*
X486139Y395589D01*
X486180Y395601D01*
X489818Y397352D01*
X489840Y397369D01*
X489866Y397378D01*
X489919Y397428D01*
X489977Y397472D01*
X489990Y397496D01*
X490010Y397515D01*
X490040Y397581D01*
X490076Y397645D01*
X490079Y397672D01*
X490090Y397697D01*
X490091Y397770D01*
X490100Y397842D01*
X490092Y397868D01*
X490092Y397896D01*
X490056Y397994D01*
X490044Y398033D01*
X490038Y398041D01*
X490034Y398052D01*
X463034Y444852D01*
X463016Y444872D01*
X463005Y444897D01*
X462951Y444946D01*
X462903Y445001D01*
X462878Y445012D01*
X462858Y445031D01*
X462789Y445055D01*
X462723Y445086D01*
X462696Y445088D01*
X462671Y445097D01*
X462598Y445092D01*
X462525Y445095D01*
X462499Y445086D01*
X462472Y445084D01*
X462376Y445040D01*
X462338Y445026D01*
X462331Y445019D01*
X462321Y445015D01*
X458984Y442741D01*
X458962Y442718D01*
X458926Y442695D01*
X455965Y439949D01*
X455946Y439923D01*
X455914Y439895D01*
X453396Y436739D01*
X453381Y436710D01*
X453354Y436677D01*
X451334Y433181D01*
X451324Y433151D01*
X451301Y433114D01*
X449825Y429356D01*
X449820Y429324D01*
X449803Y429284D01*
X448903Y425348D01*
X448903Y425316D01*
X448892Y425274D01*
X448589Y421248D01*
X448592Y421225D01*
X448589Y421205D01*
X448591Y421195D01*
X448589Y421174D01*
X448890Y417147D01*
X448898Y417116D01*
X448901Y417073D01*
X449798Y413137D01*
X449811Y413108D01*
X449820Y413065D01*
X451294Y409306D01*
X451311Y409279D01*
X451326Y409239D01*
X453344Y405742D01*
X453365Y405718D01*
X453386Y405680D01*
X455902Y402522D01*
X455927Y402502D01*
X455953Y402468D01*
X458912Y399720D01*
X458939Y399704D01*
X458970Y399674D01*
X462306Y397398D01*
X462335Y397386D01*
X462370Y397361D01*
X466008Y395608D01*
X466038Y395600D01*
X466077Y395581D01*
X469935Y394389D01*
X469967Y394386D01*
X470008Y394373D01*
X474000Y393770D01*
X474032Y393771D01*
X474074Y393764D01*
X478112Y393763D01*
X478143Y393769D01*
G37*
G36*
X218330Y393764D02*
X218330Y393764D01*
X218361Y393770D01*
X218404Y393770D01*
X222396Y394373D01*
X222426Y394384D01*
X222469Y394389D01*
X226327Y395581D01*
X226355Y395596D01*
X226397Y395608D01*
X230034Y397361D01*
X230059Y397380D01*
X230098Y397398D01*
X233434Y399674D01*
X233456Y399697D01*
X233492Y399720D01*
X236451Y402468D01*
X236470Y402493D01*
X236502Y402522D01*
X239018Y405680D01*
X239033Y405708D01*
X239060Y405742D01*
X241078Y409239D01*
X241088Y409269D01*
X241110Y409306D01*
X242584Y413065D01*
X242590Y413097D01*
X242606Y413137D01*
X243503Y417073D01*
X243504Y417105D01*
X243514Y417147D01*
X243815Y421174D01*
X243811Y421205D01*
X243812Y421221D01*
X243815Y421238D01*
X243814Y421242D01*
X243815Y421248D01*
X243512Y425274D01*
X243503Y425305D01*
X243501Y425348D01*
X242601Y429284D01*
X242588Y429313D01*
X242579Y429356D01*
X241103Y433114D01*
X241085Y433141D01*
X241070Y433181D01*
X239050Y436677D01*
X239029Y436701D01*
X239008Y436739D01*
X236490Y439895D01*
X236465Y439915D01*
X236439Y439949D01*
X233478Y442695D01*
X233451Y442711D01*
X233420Y442741D01*
X230083Y445015D01*
X230058Y445025D01*
X230037Y445042D01*
X229967Y445063D01*
X229900Y445092D01*
X229872Y445092D01*
X229846Y445099D01*
X229774Y445091D01*
X229701Y445091D01*
X229676Y445080D01*
X229649Y445077D01*
X229585Y445041D01*
X229518Y445013D01*
X229499Y444993D01*
X229476Y444980D01*
X229409Y444899D01*
X229380Y444869D01*
X229377Y444860D01*
X229370Y444852D01*
X202370Y398052D01*
X202361Y398026D01*
X202345Y398003D01*
X202330Y397932D01*
X202306Y397863D01*
X202309Y397836D01*
X202303Y397809D01*
X202316Y397738D01*
X202322Y397665D01*
X202335Y397640D01*
X202340Y397614D01*
X202380Y397553D01*
X202414Y397488D01*
X202435Y397471D01*
X202450Y397448D01*
X202536Y397387D01*
X202567Y397362D01*
X202576Y397359D01*
X202586Y397352D01*
X206224Y395601D01*
X206255Y395594D01*
X206293Y395574D01*
X210152Y394385D01*
X210184Y394382D01*
X210225Y394369D01*
X214218Y393768D01*
X214249Y393770D01*
X214292Y393763D01*
X218330Y393764D01*
G37*
G36*
X462630Y247313D02*
X462630Y247313D01*
X462703Y247313D01*
X462728Y247324D01*
X462755Y247327D01*
X462819Y247363D01*
X462886Y247391D01*
X462905Y247411D01*
X462928Y247424D01*
X462996Y247505D01*
X463024Y247535D01*
X463027Y247544D01*
X463034Y247553D01*
X490034Y294353D01*
X490043Y294378D01*
X490059Y294401D01*
X490074Y294472D01*
X490098Y294541D01*
X490095Y294568D01*
X490101Y294595D01*
X490088Y294666D01*
X490082Y294739D01*
X490069Y294764D01*
X490064Y294790D01*
X490024Y294851D01*
X489990Y294916D01*
X489969Y294933D01*
X489954Y294956D01*
X489868Y295017D01*
X489837Y295042D01*
X489828Y295045D01*
X489818Y295052D01*
X486180Y296803D01*
X486149Y296810D01*
X486111Y296830D01*
X482252Y298019D01*
X482220Y298022D01*
X482179Y298035D01*
X478186Y298636D01*
X478155Y298634D01*
X478112Y298641D01*
X474074Y298640D01*
X474043Y298634D01*
X474000Y298634D01*
X470008Y298031D01*
X469978Y298020D01*
X469935Y298015D01*
X466077Y296823D01*
X466049Y296808D01*
X466008Y296796D01*
X462370Y295043D01*
X462345Y295024D01*
X462306Y295006D01*
X458970Y292730D01*
X458948Y292707D01*
X458912Y292684D01*
X455953Y289936D01*
X455934Y289911D01*
X455902Y289882D01*
X453386Y286724D01*
X453371Y286696D01*
X453344Y286662D01*
X451326Y283165D01*
X451316Y283135D01*
X451294Y283098D01*
X449820Y279339D01*
X449814Y279307D01*
X449798Y279267D01*
X448901Y275331D01*
X448900Y275299D01*
X448890Y275257D01*
X448589Y271231D01*
X448593Y271199D01*
X448589Y271156D01*
X448892Y267130D01*
X448901Y267099D01*
X448903Y267056D01*
X449803Y263120D01*
X449816Y263091D01*
X449825Y263048D01*
X451301Y259290D01*
X451319Y259263D01*
X451334Y259223D01*
X453354Y255727D01*
X453375Y255703D01*
X453396Y255665D01*
X455914Y252509D01*
X455939Y252489D01*
X455965Y252455D01*
X458926Y249709D01*
X458953Y249693D01*
X458984Y249663D01*
X462321Y247389D01*
X462346Y247379D01*
X462367Y247362D01*
X462437Y247341D01*
X462504Y247312D01*
X462532Y247313D01*
X462558Y247305D01*
X462630Y247313D01*
G37*
G36*
X229806Y247312D02*
X229806Y247312D01*
X229879Y247309D01*
X229905Y247318D01*
X229932Y247320D01*
X230028Y247364D01*
X230066Y247378D01*
X230073Y247385D01*
X230083Y247389D01*
X233420Y249663D01*
X233442Y249686D01*
X233478Y249709D01*
X236439Y252455D01*
X236458Y252481D01*
X236490Y252509D01*
X239008Y255665D01*
X239023Y255694D01*
X239050Y255727D01*
X241070Y259223D01*
X241080Y259253D01*
X241103Y259290D01*
X242579Y263048D01*
X242584Y263080D01*
X242601Y263120D01*
X243501Y267056D01*
X243501Y267088D01*
X243512Y267130D01*
X243815Y271156D01*
X243811Y271187D01*
X243815Y271231D01*
X243514Y275257D01*
X243506Y275288D01*
X243503Y275331D01*
X242606Y279267D01*
X242593Y279296D01*
X242584Y279339D01*
X241110Y283098D01*
X241093Y283125D01*
X241078Y283165D01*
X239060Y286662D01*
X239039Y286686D01*
X239018Y286724D01*
X236502Y289882D01*
X236477Y289902D01*
X236451Y289936D01*
X233492Y292684D01*
X233465Y292700D01*
X233434Y292730D01*
X230098Y295006D01*
X230069Y295018D01*
X230034Y295043D01*
X226397Y296796D01*
X226366Y296804D01*
X226327Y296823D01*
X222469Y298015D01*
X222437Y298018D01*
X222396Y298031D01*
X218404Y298634D01*
X218372Y298633D01*
X218330Y298640D01*
X214292Y298641D01*
X214261Y298635D01*
X214218Y298636D01*
X210225Y298035D01*
X210195Y298024D01*
X210152Y298019D01*
X206293Y296830D01*
X206265Y296815D01*
X206224Y296803D01*
X202586Y295052D01*
X202564Y295035D01*
X202538Y295026D01*
X202485Y294976D01*
X202427Y294932D01*
X202414Y294908D01*
X202394Y294889D01*
X202364Y294823D01*
X202328Y294759D01*
X202325Y294732D01*
X202314Y294707D01*
X202313Y294634D01*
X202304Y294562D01*
X202312Y294536D01*
X202312Y294508D01*
X202348Y294410D01*
X202360Y294371D01*
X202366Y294363D01*
X202370Y294353D01*
X229370Y247553D01*
X229388Y247532D01*
X229399Y247507D01*
X229453Y247458D01*
X229501Y247404D01*
X229526Y247392D01*
X229546Y247373D01*
X229615Y247349D01*
X229681Y247318D01*
X229708Y247317D01*
X229733Y247307D01*
X229806Y247312D01*
G37*
%LPC*%
G36*
X379005Y369891D02*
X379005Y369891D01*
X378893Y369911D01*
X376516Y369911D01*
X374661Y371766D01*
X374661Y374154D01*
X374660Y374159D01*
X374661Y374164D01*
X374640Y374257D01*
X374622Y374351D01*
X374619Y374355D01*
X374618Y374360D01*
X374562Y374438D01*
X374509Y374516D01*
X374505Y374519D01*
X374502Y374524D01*
X374420Y374574D01*
X374341Y374626D01*
X374336Y374627D01*
X374331Y374629D01*
X374154Y374661D01*
X371766Y374661D01*
X369911Y376516D01*
X369911Y378893D01*
X369910Y378901D01*
X369911Y378909D01*
X369891Y378994D01*
X369891Y386817D01*
X369890Y386825D01*
X369891Y386833D01*
X369870Y386923D01*
X369852Y387014D01*
X369847Y387020D01*
X369845Y387028D01*
X369743Y387176D01*
X364788Y392131D01*
X364788Y394236D01*
X374055Y403502D01*
X376159Y403502D01*
X384719Y394943D01*
X384719Y392793D01*
X384697Y392760D01*
X384697Y392759D01*
X384696Y392758D01*
X384677Y392657D01*
X384659Y392563D01*
X384660Y392562D01*
X384659Y392561D01*
X384680Y392464D01*
X384701Y392367D01*
X384702Y392366D01*
X384702Y392365D01*
X384758Y392284D01*
X384815Y392202D01*
X384816Y392202D01*
X384817Y392201D01*
X384901Y392148D01*
X384984Y392095D01*
X384986Y392095D01*
X384987Y392094D01*
X385084Y392078D01*
X385182Y392061D01*
X385183Y392062D01*
X385185Y392061D01*
X385361Y392100D01*
X386092Y392403D01*
X386745Y392403D01*
X386752Y392404D01*
X386760Y392403D01*
X386850Y392424D01*
X386941Y392442D01*
X386948Y392447D01*
X386955Y392449D01*
X387103Y392551D01*
X388566Y394014D01*
X401671Y394014D01*
X403159Y392526D01*
X403159Y380421D01*
X401671Y378933D01*
X391799Y378933D01*
X391794Y378932D01*
X391789Y378933D01*
X391696Y378912D01*
X391603Y378893D01*
X391599Y378890D01*
X391594Y378889D01*
X391516Y378834D01*
X391437Y378781D01*
X391434Y378776D01*
X391430Y378773D01*
X391379Y378692D01*
X391328Y378613D01*
X391327Y378608D01*
X391324Y378603D01*
X391292Y378426D01*
X391292Y376899D01*
X388911Y374518D01*
X388762Y374518D01*
X388754Y374516D01*
X388747Y374518D01*
X388657Y374497D01*
X388566Y374478D01*
X388559Y374474D01*
X388551Y374472D01*
X388403Y374369D01*
X386891Y372857D01*
X386887Y372851D01*
X386881Y372846D01*
X386832Y372767D01*
X386780Y372690D01*
X386779Y372682D01*
X386775Y372676D01*
X386743Y372498D01*
X386743Y371766D01*
X384888Y369911D01*
X384156Y369911D01*
X384148Y369910D01*
X384140Y369911D01*
X384055Y369891D01*
X379005Y369891D01*
G37*
%LPD*%
%LPC*%
G36*
X340270Y201672D02*
X340270Y201672D01*
X338782Y203160D01*
X338782Y216265D01*
X340280Y217763D01*
X340330Y217774D01*
X340423Y217793D01*
X340428Y217796D01*
X340433Y217797D01*
X340511Y217852D01*
X340589Y217906D01*
X340592Y217910D01*
X340596Y217913D01*
X340647Y217994D01*
X340698Y218074D01*
X340699Y218079D01*
X340702Y218083D01*
X340734Y218261D01*
X340734Y221596D01*
X340733Y221602D01*
X340734Y221609D01*
X340713Y221701D01*
X340694Y221792D01*
X340691Y221798D01*
X340689Y221804D01*
X340635Y221881D01*
X340582Y221958D01*
X340576Y221962D01*
X340572Y221967D01*
X340478Y222028D01*
X337350Y225156D01*
X335669Y229214D01*
X335669Y233606D01*
X337350Y237664D01*
X340456Y240770D01*
X340714Y240877D01*
X341939Y241384D01*
X343163Y241891D01*
X344388Y242399D01*
X344514Y242451D01*
X348906Y242451D01*
X352964Y240770D01*
X356070Y237664D01*
X357751Y233606D01*
X357751Y229214D01*
X356070Y225156D01*
X352964Y222050D01*
X352914Y222029D01*
X352225Y221744D01*
X352219Y221740D01*
X352213Y221739D01*
X352136Y221684D01*
X352058Y221632D01*
X352055Y221627D01*
X352049Y221623D01*
X352000Y221543D01*
X351948Y221465D01*
X351947Y221458D01*
X351944Y221453D01*
X351912Y221275D01*
X351912Y218261D01*
X351913Y218255D01*
X351912Y218250D01*
X351932Y218157D01*
X351951Y218064D01*
X351954Y218060D01*
X351955Y218055D01*
X352010Y217977D01*
X352064Y217898D01*
X352068Y217895D01*
X352071Y217891D01*
X352153Y217840D01*
X352232Y217789D01*
X352237Y217788D01*
X352241Y217785D01*
X352366Y217763D01*
X353864Y216265D01*
X353864Y203160D01*
X352375Y201672D01*
X340270Y201672D01*
G37*
%LPD*%
%LPC*%
G36*
X309514Y220369D02*
X309514Y220369D01*
X305456Y222050D01*
X302350Y225156D01*
X300669Y229214D01*
X300669Y233606D01*
X302350Y237664D01*
X305456Y240770D01*
X305714Y240877D01*
X306939Y241384D01*
X308163Y241891D01*
X309388Y242399D01*
X309514Y242451D01*
X313906Y242451D01*
X317964Y240770D01*
X321070Y237664D01*
X322751Y233606D01*
X322751Y229214D01*
X321070Y225156D01*
X317964Y222050D01*
X317914Y222029D01*
X316690Y221522D01*
X316689Y221522D01*
X315465Y221015D01*
X314240Y220508D01*
X313906Y220369D01*
X309514Y220369D01*
G37*
%LPD*%
%LPC*%
G36*
X379514Y220369D02*
X379514Y220369D01*
X375456Y222050D01*
X372350Y225156D01*
X370669Y229214D01*
X370669Y233606D01*
X372350Y237664D01*
X375456Y240770D01*
X375714Y240877D01*
X376939Y241384D01*
X378163Y241891D01*
X379388Y242399D01*
X379514Y242451D01*
X383906Y242451D01*
X387964Y240770D01*
X391070Y237664D01*
X392751Y233606D01*
X392751Y229214D01*
X391070Y225156D01*
X387964Y222050D01*
X387914Y222029D01*
X386690Y221522D01*
X386689Y221522D01*
X385465Y221015D01*
X384240Y220508D01*
X383906Y220369D01*
X379514Y220369D01*
G37*
%LPD*%
%LPC*%
G36*
X363284Y449699D02*
X363284Y449699D01*
X359226Y451380D01*
X356120Y454486D01*
X354439Y458544D01*
X354439Y462936D01*
X356120Y466994D01*
X359226Y470100D01*
X359356Y470154D01*
X360581Y470661D01*
X361805Y471168D01*
X363030Y471676D01*
X363284Y471781D01*
X367676Y471781D01*
X371734Y470100D01*
X374840Y466994D01*
X376521Y462936D01*
X376521Y458544D01*
X374840Y454486D01*
X371734Y451380D01*
X371556Y451306D01*
X370332Y450799D01*
X370331Y450799D01*
X369107Y450292D01*
X367882Y449785D01*
X367676Y449699D01*
X363284Y449699D01*
G37*
%LPD*%
%LPC*%
G36*
X328284Y449699D02*
X328284Y449699D01*
X324226Y451380D01*
X321120Y454486D01*
X319439Y458544D01*
X319439Y462936D01*
X321120Y466994D01*
X324226Y470100D01*
X324356Y470154D01*
X325581Y470661D01*
X326805Y471168D01*
X328030Y471676D01*
X328284Y471781D01*
X332676Y471781D01*
X336734Y470100D01*
X339840Y466994D01*
X341521Y462936D01*
X341521Y458544D01*
X339840Y454486D01*
X336734Y451380D01*
X336556Y451306D01*
X335332Y450799D01*
X335331Y450799D01*
X334107Y450292D01*
X332882Y449785D01*
X332676Y449699D01*
X328284Y449699D01*
G37*
%LPD*%
%LPC*%
G36*
X283222Y428017D02*
X283222Y428017D01*
X280898Y428980D01*
X279120Y430758D01*
X278157Y433082D01*
X278157Y435598D01*
X279120Y437922D01*
X280898Y439700D01*
X280943Y439719D01*
X280944Y439719D01*
X282168Y440226D01*
X283222Y440663D01*
X285738Y440663D01*
X288062Y439700D01*
X289840Y437922D01*
X290803Y435598D01*
X290803Y433082D01*
X289840Y430758D01*
X288062Y428980D01*
X286855Y428480D01*
X285738Y428017D01*
X283222Y428017D01*
G37*
%LPD*%
%LPC*%
G36*
X247662Y332767D02*
X247662Y332767D01*
X245338Y333730D01*
X243560Y335508D01*
X242597Y337832D01*
X242597Y340348D01*
X243560Y342672D01*
X245338Y344450D01*
X246335Y344863D01*
X247560Y345370D01*
X247662Y345413D01*
X250178Y345413D01*
X252502Y344450D01*
X254280Y342672D01*
X255243Y340348D01*
X255243Y337832D01*
X254280Y335508D01*
X252502Y333730D01*
X252247Y333624D01*
X251022Y333117D01*
X250178Y332767D01*
X247662Y332767D01*
G37*
%LPD*%
%LPC*%
G36*
X269252Y332767D02*
X269252Y332767D01*
X266928Y333730D01*
X265150Y335508D01*
X264187Y337832D01*
X264187Y340348D01*
X265150Y342672D01*
X266928Y344450D01*
X267925Y344863D01*
X269150Y345370D01*
X269252Y345413D01*
X271768Y345413D01*
X274092Y344450D01*
X275870Y342672D01*
X276833Y340348D01*
X276833Y337832D01*
X275870Y335508D01*
X274092Y333730D01*
X273837Y333624D01*
X272612Y333117D01*
X271768Y332767D01*
X269252Y332767D01*
G37*
%LPD*%
%LPC*%
G36*
X394982Y467387D02*
X394982Y467387D01*
X392658Y468350D01*
X390880Y470128D01*
X389917Y472452D01*
X389917Y474968D01*
X390880Y477292D01*
X392658Y479070D01*
X393175Y479284D01*
X393176Y479284D01*
X394400Y479792D01*
X394982Y480033D01*
X397498Y480033D01*
X399822Y479070D01*
X401600Y477292D01*
X402563Y474968D01*
X402563Y472452D01*
X401600Y470128D01*
X399822Y468350D01*
X399087Y468046D01*
X397863Y467538D01*
X397862Y467538D01*
X397498Y467387D01*
X394982Y467387D01*
G37*
%LPD*%
%LPC*%
G36*
X363232Y237517D02*
X363232Y237517D01*
X360908Y238480D01*
X359130Y240258D01*
X358167Y242582D01*
X358167Y245098D01*
X359130Y247422D01*
X360908Y249200D01*
X361632Y249500D01*
X361633Y249500D01*
X362857Y250007D01*
X363232Y250163D01*
X365748Y250163D01*
X368072Y249200D01*
X369850Y247422D01*
X370813Y245098D01*
X370813Y242582D01*
X369850Y240258D01*
X368072Y238480D01*
X367544Y238261D01*
X366320Y237754D01*
X366319Y237754D01*
X365748Y237517D01*
X363232Y237517D01*
G37*
%LPD*%
%LPC*%
G36*
X327672Y237517D02*
X327672Y237517D01*
X325348Y238480D01*
X323570Y240258D01*
X322607Y242582D01*
X322607Y245098D01*
X323570Y247422D01*
X325348Y249200D01*
X326072Y249500D01*
X326073Y249500D01*
X327297Y250007D01*
X327672Y250163D01*
X330188Y250163D01*
X332512Y249200D01*
X334290Y247422D01*
X335253Y245098D01*
X335253Y242582D01*
X334290Y240258D01*
X332512Y238480D01*
X331984Y238261D01*
X330760Y237754D01*
X330759Y237754D01*
X330188Y237517D01*
X327672Y237517D01*
G37*
%LPD*%
%LPC*%
G36*
X262902Y280697D02*
X262902Y280697D01*
X260578Y281660D01*
X258800Y283438D01*
X257837Y285762D01*
X257837Y288278D01*
X258800Y290602D01*
X260578Y292380D01*
X261149Y292616D01*
X262373Y293124D01*
X262902Y293343D01*
X265418Y293343D01*
X267742Y292380D01*
X269520Y290602D01*
X270483Y288278D01*
X270483Y285762D01*
X269520Y283438D01*
X267742Y281660D01*
X267060Y281378D01*
X265836Y280870D01*
X265418Y280697D01*
X262902Y280697D01*
G37*
%LPD*%
%LPC*%
G36*
X429272Y393727D02*
X429272Y393727D01*
X426948Y394690D01*
X425170Y396468D01*
X424207Y398792D01*
X424207Y401308D01*
X425170Y403632D01*
X426948Y405410D01*
X427728Y405733D01*
X428953Y406240D01*
X429272Y406373D01*
X431788Y406373D01*
X434112Y405410D01*
X435890Y403632D01*
X436853Y401308D01*
X436853Y398792D01*
X435890Y396468D01*
X434112Y394690D01*
X433640Y394494D01*
X432415Y393987D01*
X431788Y393727D01*
X429272Y393727D01*
G37*
%LPD*%
D10*
X432090Y369521D03*
X432090Y386521D03*
D11*
X436127Y306058D03*
X436127Y325058D03*
D12*
X377827Y373077D02*
X377827Y374327D01*
X383577Y374327D01*
X383577Y373077D01*
X377827Y373077D01*
X377827Y374264D02*
X383577Y374264D01*
X377827Y369327D02*
X377827Y368077D01*
X377827Y369327D02*
X383577Y369327D01*
X383577Y368077D01*
X377827Y368077D01*
X377827Y369264D02*
X383577Y369264D01*
X377827Y364327D02*
X377827Y363077D01*
X377827Y364327D02*
X383577Y364327D01*
X383577Y363077D01*
X377827Y363077D01*
X377827Y364264D02*
X383577Y364264D01*
X377827Y359327D02*
X377827Y358077D01*
X377827Y359327D02*
X383577Y359327D01*
X383577Y358077D01*
X377827Y358077D01*
X377827Y359264D02*
X383577Y359264D01*
X377827Y354327D02*
X377827Y353077D01*
X377827Y354327D02*
X383577Y354327D01*
X383577Y353077D01*
X377827Y353077D01*
X377827Y354264D02*
X383577Y354264D01*
X377827Y349327D02*
X377827Y348077D01*
X377827Y349327D02*
X383577Y349327D01*
X383577Y348077D01*
X377827Y348077D01*
X377827Y349264D02*
X383577Y349264D01*
X377827Y344327D02*
X377827Y343077D01*
X377827Y344327D02*
X383577Y344327D01*
X383577Y343077D01*
X377827Y343077D01*
X377827Y344264D02*
X383577Y344264D01*
X377827Y339327D02*
X377827Y338077D01*
X377827Y339327D02*
X383577Y339327D01*
X383577Y338077D01*
X377827Y338077D01*
X377827Y339264D02*
X383577Y339264D01*
X377827Y334327D02*
X377827Y333077D01*
X377827Y334327D02*
X383577Y334327D01*
X383577Y333077D01*
X377827Y333077D01*
X377827Y334264D02*
X383577Y334264D01*
X377827Y329327D02*
X377827Y328077D01*
X377827Y329327D02*
X383577Y329327D01*
X383577Y328077D01*
X377827Y328077D01*
X377827Y329264D02*
X383577Y329264D01*
X377827Y324327D02*
X377827Y323077D01*
X377827Y324327D02*
X383577Y324327D01*
X383577Y323077D01*
X377827Y323077D01*
X377827Y324264D02*
X383577Y324264D01*
X377827Y319327D02*
X377827Y318077D01*
X377827Y319327D02*
X383577Y319327D01*
X383577Y318077D01*
X377827Y318077D01*
X377827Y319264D02*
X383577Y319264D01*
X374327Y314577D02*
X373077Y314577D01*
X374327Y314577D02*
X374327Y308827D01*
X373077Y308827D01*
X373077Y314577D01*
X373077Y310014D02*
X374327Y310014D01*
X374327Y311201D02*
X373077Y311201D01*
X373077Y312388D02*
X374327Y312388D01*
X374327Y313575D02*
X373077Y313575D01*
X369327Y314577D02*
X368077Y314577D01*
X369327Y314577D02*
X369327Y308827D01*
X368077Y308827D01*
X368077Y314577D01*
X368077Y310014D02*
X369327Y310014D01*
X369327Y311201D02*
X368077Y311201D01*
X368077Y312388D02*
X369327Y312388D01*
X369327Y313575D02*
X368077Y313575D01*
X364327Y314577D02*
X363077Y314577D01*
X364327Y314577D02*
X364327Y308827D01*
X363077Y308827D01*
X363077Y314577D01*
X363077Y310014D02*
X364327Y310014D01*
X364327Y311201D02*
X363077Y311201D01*
X363077Y312388D02*
X364327Y312388D01*
X364327Y313575D02*
X363077Y313575D01*
X359327Y314577D02*
X358077Y314577D01*
X359327Y314577D02*
X359327Y308827D01*
X358077Y308827D01*
X358077Y314577D01*
X358077Y310014D02*
X359327Y310014D01*
X359327Y311201D02*
X358077Y311201D01*
X358077Y312388D02*
X359327Y312388D01*
X359327Y313575D02*
X358077Y313575D01*
X354327Y314577D02*
X353077Y314577D01*
X354327Y314577D02*
X354327Y308827D01*
X353077Y308827D01*
X353077Y314577D01*
X353077Y310014D02*
X354327Y310014D01*
X354327Y311201D02*
X353077Y311201D01*
X353077Y312388D02*
X354327Y312388D01*
X354327Y313575D02*
X353077Y313575D01*
X349327Y314577D02*
X348077Y314577D01*
X349327Y314577D02*
X349327Y308827D01*
X348077Y308827D01*
X348077Y314577D01*
X348077Y310014D02*
X349327Y310014D01*
X349327Y311201D02*
X348077Y311201D01*
X348077Y312388D02*
X349327Y312388D01*
X349327Y313575D02*
X348077Y313575D01*
X344327Y314577D02*
X343077Y314577D01*
X344327Y314577D02*
X344327Y308827D01*
X343077Y308827D01*
X343077Y314577D01*
X343077Y310014D02*
X344327Y310014D01*
X344327Y311201D02*
X343077Y311201D01*
X343077Y312388D02*
X344327Y312388D01*
X344327Y313575D02*
X343077Y313575D01*
X339327Y314577D02*
X338077Y314577D01*
X339327Y314577D02*
X339327Y308827D01*
X338077Y308827D01*
X338077Y314577D01*
X338077Y310014D02*
X339327Y310014D01*
X339327Y311201D02*
X338077Y311201D01*
X338077Y312388D02*
X339327Y312388D01*
X339327Y313575D02*
X338077Y313575D01*
X334327Y314577D02*
X333077Y314577D01*
X334327Y314577D02*
X334327Y308827D01*
X333077Y308827D01*
X333077Y314577D01*
X333077Y310014D02*
X334327Y310014D01*
X334327Y311201D02*
X333077Y311201D01*
X333077Y312388D02*
X334327Y312388D01*
X334327Y313575D02*
X333077Y313575D01*
X329327Y314577D02*
X328077Y314577D01*
X329327Y314577D02*
X329327Y308827D01*
X328077Y308827D01*
X328077Y314577D01*
X328077Y310014D02*
X329327Y310014D01*
X329327Y311201D02*
X328077Y311201D01*
X328077Y312388D02*
X329327Y312388D01*
X329327Y313575D02*
X328077Y313575D01*
X324327Y314577D02*
X323077Y314577D01*
X324327Y314577D02*
X324327Y308827D01*
X323077Y308827D01*
X323077Y314577D01*
X323077Y310014D02*
X324327Y310014D01*
X324327Y311201D02*
X323077Y311201D01*
X323077Y312388D02*
X324327Y312388D01*
X324327Y313575D02*
X323077Y313575D01*
X319327Y314577D02*
X318077Y314577D01*
X319327Y314577D02*
X319327Y308827D01*
X318077Y308827D01*
X318077Y314577D01*
X318077Y310014D02*
X319327Y310014D01*
X319327Y311201D02*
X318077Y311201D01*
X318077Y312388D02*
X319327Y312388D01*
X319327Y313575D02*
X318077Y313575D01*
X314577Y318077D02*
X314577Y319327D01*
X314577Y318077D02*
X308827Y318077D01*
X308827Y319327D01*
X314577Y319327D01*
X314577Y319264D02*
X308827Y319264D01*
X314577Y323077D02*
X314577Y324327D01*
X314577Y323077D02*
X308827Y323077D01*
X308827Y324327D01*
X314577Y324327D01*
X314577Y324264D02*
X308827Y324264D01*
X314577Y328077D02*
X314577Y329327D01*
X314577Y328077D02*
X308827Y328077D01*
X308827Y329327D01*
X314577Y329327D01*
X314577Y329264D02*
X308827Y329264D01*
X314577Y333077D02*
X314577Y334327D01*
X314577Y333077D02*
X308827Y333077D01*
X308827Y334327D01*
X314577Y334327D01*
X314577Y334264D02*
X308827Y334264D01*
X314577Y338077D02*
X314577Y339327D01*
X314577Y338077D02*
X308827Y338077D01*
X308827Y339327D01*
X314577Y339327D01*
X314577Y339264D02*
X308827Y339264D01*
X314577Y343077D02*
X314577Y344327D01*
X314577Y343077D02*
X308827Y343077D01*
X308827Y344327D01*
X314577Y344327D01*
X314577Y344264D02*
X308827Y344264D01*
X314577Y348077D02*
X314577Y349327D01*
X314577Y348077D02*
X308827Y348077D01*
X308827Y349327D01*
X314577Y349327D01*
X314577Y349264D02*
X308827Y349264D01*
X314577Y353077D02*
X314577Y354327D01*
X314577Y353077D02*
X308827Y353077D01*
X308827Y354327D01*
X314577Y354327D01*
X314577Y354264D02*
X308827Y354264D01*
X314577Y358077D02*
X314577Y359327D01*
X314577Y358077D02*
X308827Y358077D01*
X308827Y359327D01*
X314577Y359327D01*
X314577Y359264D02*
X308827Y359264D01*
X314577Y363077D02*
X314577Y364327D01*
X314577Y363077D02*
X308827Y363077D01*
X308827Y364327D01*
X314577Y364327D01*
X314577Y364264D02*
X308827Y364264D01*
X314577Y368077D02*
X314577Y369327D01*
X314577Y368077D02*
X308827Y368077D01*
X308827Y369327D01*
X314577Y369327D01*
X314577Y369264D02*
X308827Y369264D01*
X314577Y373077D02*
X314577Y374327D01*
X314577Y373077D02*
X308827Y373077D01*
X308827Y374327D01*
X314577Y374327D01*
X314577Y374264D02*
X308827Y374264D01*
X318077Y377827D02*
X319327Y377827D01*
X318077Y377827D02*
X318077Y383577D01*
X319327Y383577D01*
X319327Y377827D01*
X319327Y379014D02*
X318077Y379014D01*
X318077Y380201D02*
X319327Y380201D01*
X319327Y381388D02*
X318077Y381388D01*
X318077Y382575D02*
X319327Y382575D01*
X323077Y377827D02*
X324327Y377827D01*
X323077Y377827D02*
X323077Y383577D01*
X324327Y383577D01*
X324327Y377827D01*
X324327Y379014D02*
X323077Y379014D01*
X323077Y380201D02*
X324327Y380201D01*
X324327Y381388D02*
X323077Y381388D01*
X323077Y382575D02*
X324327Y382575D01*
X328077Y377827D02*
X329327Y377827D01*
X328077Y377827D02*
X328077Y383577D01*
X329327Y383577D01*
X329327Y377827D01*
X329327Y379014D02*
X328077Y379014D01*
X328077Y380201D02*
X329327Y380201D01*
X329327Y381388D02*
X328077Y381388D01*
X328077Y382575D02*
X329327Y382575D01*
X333077Y377827D02*
X334327Y377827D01*
X333077Y377827D02*
X333077Y383577D01*
X334327Y383577D01*
X334327Y377827D01*
X334327Y379014D02*
X333077Y379014D01*
X333077Y380201D02*
X334327Y380201D01*
X334327Y381388D02*
X333077Y381388D01*
X333077Y382575D02*
X334327Y382575D01*
X338077Y377827D02*
X339327Y377827D01*
X338077Y377827D02*
X338077Y383577D01*
X339327Y383577D01*
X339327Y377827D01*
X339327Y379014D02*
X338077Y379014D01*
X338077Y380201D02*
X339327Y380201D01*
X339327Y381388D02*
X338077Y381388D01*
X338077Y382575D02*
X339327Y382575D01*
X343077Y377827D02*
X344327Y377827D01*
X343077Y377827D02*
X343077Y383577D01*
X344327Y383577D01*
X344327Y377827D01*
X344327Y379014D02*
X343077Y379014D01*
X343077Y380201D02*
X344327Y380201D01*
X344327Y381388D02*
X343077Y381388D01*
X343077Y382575D02*
X344327Y382575D01*
X348077Y377827D02*
X349327Y377827D01*
X348077Y377827D02*
X348077Y383577D01*
X349327Y383577D01*
X349327Y377827D01*
X349327Y379014D02*
X348077Y379014D01*
X348077Y380201D02*
X349327Y380201D01*
X349327Y381388D02*
X348077Y381388D01*
X348077Y382575D02*
X349327Y382575D01*
X353077Y377827D02*
X354327Y377827D01*
X353077Y377827D02*
X353077Y383577D01*
X354327Y383577D01*
X354327Y377827D01*
X354327Y379014D02*
X353077Y379014D01*
X353077Y380201D02*
X354327Y380201D01*
X354327Y381388D02*
X353077Y381388D01*
X353077Y382575D02*
X354327Y382575D01*
X358077Y377827D02*
X359327Y377827D01*
X358077Y377827D02*
X358077Y383577D01*
X359327Y383577D01*
X359327Y377827D01*
X359327Y379014D02*
X358077Y379014D01*
X358077Y380201D02*
X359327Y380201D01*
X359327Y381388D02*
X358077Y381388D01*
X358077Y382575D02*
X359327Y382575D01*
X363077Y377827D02*
X364327Y377827D01*
X363077Y377827D02*
X363077Y383577D01*
X364327Y383577D01*
X364327Y377827D01*
X364327Y379014D02*
X363077Y379014D01*
X363077Y380201D02*
X364327Y380201D01*
X364327Y381388D02*
X363077Y381388D01*
X363077Y382575D02*
X364327Y382575D01*
X368077Y377827D02*
X369327Y377827D01*
X368077Y377827D02*
X368077Y383577D01*
X369327Y383577D01*
X369327Y377827D01*
X369327Y379014D02*
X368077Y379014D01*
X368077Y380201D02*
X369327Y380201D01*
X369327Y381388D02*
X368077Y381388D01*
X368077Y382575D02*
X369327Y382575D01*
X373077Y377827D02*
X374327Y377827D01*
X373077Y377827D02*
X373077Y383577D01*
X374327Y383577D01*
X374327Y377827D01*
X374327Y379014D02*
X373077Y379014D01*
X373077Y380201D02*
X374327Y380201D01*
X374327Y381388D02*
X373077Y381388D01*
X373077Y382575D02*
X374327Y382575D01*
D13*
X346202Y346202D03*
D14*
X404335Y366820D03*
X404335Y354820D03*
X404335Y342820D03*
D10*
X343679Y410520D03*
X360679Y410520D03*
D15*
X302733Y279588D03*
X283733Y279588D03*
D11*
X287843Y399049D03*
X287843Y418049D03*
D10*
X414886Y304344D03*
X414886Y321344D03*
D16*
G36*
X382177Y393890D02*
X374400Y386113D01*
X367329Y393184D01*
X375106Y400961D01*
X382177Y393890D01*
G37*
G36*
X394198Y405911D02*
X386421Y398134D01*
X379350Y405205D01*
X387127Y412982D01*
X394198Y405911D01*
G37*
D10*
X309446Y388545D03*
X309446Y405545D03*
D16*
X305284Y299944D03*
X288284Y299944D03*
X395119Y386474D03*
X412119Y386474D03*
D10*
X363323Y209713D03*
X346323Y209713D03*
D17*
X267882Y422188D02*
X256882Y422188D01*
X256882Y427188D01*
X267882Y427188D01*
X267882Y422188D01*
X267882Y426938D02*
X256882Y426938D01*
X256882Y452588D02*
X267882Y452588D01*
X267882Y447588D01*
X256882Y447588D01*
X256882Y452588D01*
X256882Y452338D02*
X267882Y452338D01*
X418426Y452080D02*
X429426Y452080D01*
X429426Y447080D01*
X418426Y447080D01*
X418426Y452080D01*
X418426Y451830D02*
X429426Y451830D01*
X462272Y376083D02*
X473272Y376083D01*
X473272Y371083D01*
X462272Y371083D01*
X462272Y376083D01*
X462272Y375833D02*
X473272Y375833D01*
D18*
X428802Y489302D03*
X511402Y346202D03*
X428802Y203102D03*
X263602Y203102D03*
X181002Y346202D03*
X263602Y489302D03*
X470102Y417702D03*
X470102Y274702D03*
X222302Y274702D03*
X222302Y417702D03*
D19*
X365480Y460740D03*
X330480Y460740D03*
X311710Y231410D03*
X346710Y231410D03*
X381710Y231410D03*
D20*
X220980Y313690D03*
X419100Y473710D03*
X274320Y473710D03*
X199390Y345440D03*
X407670Y208280D03*
X421640Y220980D03*
X266700Y220980D03*
X283210Y208280D03*
X351790Y266700D03*
X378460Y266700D03*
X388620Y365760D03*
X443230Y384810D03*
X447040Y351790D03*
X368300Y373380D03*
X323850Y358140D03*
X347980Y358140D03*
X350520Y327660D03*
X323850Y327660D03*
X336550Y342900D03*
D21*
X318702Y311702D02*
X317042Y311702D01*
X305284Y299944D01*
X380702Y373702D02*
X382347Y373702D01*
X387228Y378583D01*
X311702Y382988D02*
X311702Y373702D01*
X311702Y382988D02*
X309446Y385244D01*
X309446Y388545D01*
D20*
X439743Y220251D03*
X501484Y328805D03*
X501650Y364490D03*
X439420Y471170D03*
X408530Y490224D03*
X283875Y490224D03*
X253938Y471923D03*
X190951Y363559D03*
X190500Y327660D03*
X251985Y220015D03*
X297180Y386080D03*
D22*
X297002Y386080D01*
X287843Y395239D01*
X287843Y399049D01*
X306980Y386080D02*
X309446Y388545D01*
X306980Y386080D02*
X297180Y386080D01*
D20*
X387350Y386080D03*
X300990Y289560D03*
D22*
X300990Y281331D01*
X302733Y279588D01*
X304800Y293370D02*
X304800Y299460D01*
X304800Y293370D02*
X300990Y289560D01*
X304800Y299460D02*
X305284Y299944D01*
X382210Y386080D02*
X387350Y386080D01*
X382210Y386080D02*
X374753Y393537D01*
X387350Y386080D02*
X394725Y386080D01*
X395119Y386474D01*
D23*
X387228Y385958D02*
X387228Y378583D01*
X387228Y385958D02*
X387350Y386080D01*
D21*
X374753Y393537D02*
X373702Y392485D01*
X373702Y380702D01*
X333702Y311702D02*
X333702Y271472D01*
X316004Y253774D02*
X245110Y253774D01*
D20*
X245110Y253774D03*
D21*
X316004Y253774D02*
X333702Y271472D01*
X311702Y343702D02*
X298450Y343702D01*
D20*
X226060Y388620D03*
D21*
X253365Y361315D01*
X280837Y361315D02*
X298450Y343702D01*
X280837Y361315D02*
X253365Y361315D01*
X328702Y311702D02*
X328702Y275362D01*
X313690Y260350D01*
X236654Y260350D01*
X222302Y274702D01*
X299720Y348702D02*
X311702Y348702D01*
X260350Y367030D02*
X222302Y405078D01*
X222302Y417702D01*
X281392Y367030D02*
X299720Y348702D01*
X281392Y367030D02*
X260350Y367030D01*
X301618Y353702D02*
X311702Y353702D01*
X283210Y372110D02*
X265430Y372110D01*
X246380Y391160D01*
D20*
X246380Y391160D03*
D21*
X283210Y372110D02*
X301618Y353702D01*
X380702Y333702D02*
X385118Y333702D01*
D22*
X434413Y304344D02*
X436127Y306058D01*
X434413Y304344D02*
X414886Y304344D01*
D20*
X302896Y376469D03*
X392430Y323370D03*
D21*
X392430Y326390D02*
X385118Y333702D01*
X392430Y326390D02*
X392430Y323370D01*
D22*
X411456Y304344D02*
X414886Y304344D01*
X411456Y304344D02*
X392430Y323370D01*
X436127Y306058D02*
X444488Y306058D01*
X457200Y318770D01*
D20*
X457200Y318770D03*
D21*
X328702Y380702D02*
X328702Y418872D01*
X347980Y438150D01*
X444274Y438150D01*
X444500Y438376D01*
D20*
X444500Y438376D03*
D21*
X333702Y416252D02*
X333702Y380702D01*
X333702Y416252D02*
X349250Y431800D01*
X456004Y431800D01*
X470102Y417702D01*
X387992Y353702D02*
X380702Y353702D01*
X401110Y366820D02*
X404335Y366820D01*
X401110Y366820D02*
X387992Y353702D01*
X392978Y348702D02*
X380702Y348702D01*
X398860Y342820D02*
X404335Y342820D01*
X398860Y342820D02*
X392978Y348702D01*
D23*
X400050Y417830D02*
X405130Y422910D01*
D20*
X405130Y422910D03*
D23*
X412750Y449580D02*
X423926Y449580D01*
D20*
X412750Y449580D03*
D23*
X371799Y417830D02*
X364489Y410520D01*
X360679Y410520D01*
X371799Y417830D02*
X400050Y417830D01*
D21*
X360679Y410520D02*
X353702Y403543D01*
X353702Y380702D01*
X380702Y343702D02*
X390358Y343702D01*
X396240Y337820D01*
X415290Y337820D01*
X432090Y354620D01*
X432090Y369521D01*
D24*
X436153Y373583D01*
X457200Y373583D01*
X467772Y373583D01*
D20*
X457200Y373583D03*
D22*
X346323Y231023D02*
X346323Y209713D01*
X346323Y231023D02*
X346710Y231410D01*
D21*
X380702Y338702D02*
X387738Y338702D01*
D22*
X432413Y321344D02*
X436127Y325058D01*
X432413Y321344D02*
X414886Y321344D01*
D20*
X248920Y339090D03*
X270510Y339090D03*
X264160Y287020D03*
X412750Y293370D03*
X328930Y243840D03*
X364490Y243840D03*
X447040Y325120D03*
X284480Y457200D03*
X302260Y457200D03*
X284480Y434340D03*
X427990Y293370D03*
X377190Y288290D03*
X342900Y289560D03*
X311150Y416560D03*
X430530Y400050D03*
X396240Y473710D03*
D22*
X436189Y325120D02*
X436127Y325058D01*
X436189Y325120D02*
X447040Y325120D01*
D20*
X403860Y330200D03*
D21*
X396240Y330200D02*
X387738Y338702D01*
X396240Y330200D02*
X403860Y330200D01*
X406030Y330200D01*
X414886Y321344D01*
X380702Y318702D02*
X380702Y306368D01*
X403860Y283210D01*
X441960Y283210D01*
D20*
X441960Y283210D03*
D21*
X373702Y303208D02*
X373702Y311702D01*
X373702Y303208D02*
X402590Y274320D01*
X469720Y274320D01*
X470102Y274702D01*
X311702Y363702D02*
X297968Y363702D01*
X284480Y377190D01*
X262382Y386588D02*
X262382Y417830D01*
X262382Y424688D01*
X271780Y377190D02*
X284480Y377190D01*
X271780Y377190D02*
X262382Y386588D01*
D20*
X262382Y417830D03*
D21*
X318702Y425518D02*
X318702Y380702D01*
X294132Y450088D02*
X273050Y450088D01*
X262382Y450088D01*
X294132Y450088D02*
X318702Y425518D01*
D20*
X273050Y450088D03*
X394970Y306070D03*
X411480Y413360D03*
X414810Y375920D03*
X341294Y395360D03*
D21*
X311702Y338702D02*
X295910Y338702D01*
D20*
X269240Y353840D03*
D21*
X280772Y353840D02*
X295910Y338702D01*
X280772Y353840D02*
X269240Y353840D01*
D20*
X283210Y311150D03*
D21*
X283210Y310886D02*
X285566Y308530D01*
X283210Y310886D02*
X283210Y311150D01*
X301530Y308530D02*
X311702Y318702D01*
X301530Y308530D02*
X285566Y308530D01*
X299720Y315055D02*
X308367Y323702D01*
X311702Y323702D01*
X299720Y315106D02*
X299720Y315055D01*
X299720Y315106D02*
X298450Y315106D01*
D20*
X298450Y315106D03*
D21*
X293062Y333702D02*
X311702Y333702D01*
X293062Y333702D02*
X292100Y332740D01*
D20*
X292100Y332740D03*
D21*
X298222Y328702D02*
X311702Y328702D01*
X298222Y328702D02*
X292100Y322580D01*
D20*
X292100Y322580D03*
X364971Y422930D03*
X402590Y403860D03*
M02*
