G04 EAGLE Gerber RS-274X export*
G75*
%MOMM*%
%FSLAX34Y34*%
%LPD*%
%INSilkscreen Bottom*%
%IPPOS*%
%AMOC8*
5,1,8,0,0,1.08239X$1,22.5*%
G01*
%ADD10C,0.152400*%
%ADD11C,0.101600*%
%ADD12C,0.127000*%
%ADD13C,0.076200*%
%ADD14C,0.254000*%


D10*
X449636Y450730D02*
X444697Y450730D01*
X444557Y450728D01*
X444418Y450722D01*
X444278Y450712D01*
X444139Y450698D01*
X444000Y450681D01*
X443862Y450659D01*
X443725Y450633D01*
X443588Y450604D01*
X443452Y450571D01*
X443318Y450534D01*
X443184Y450493D01*
X443052Y450448D01*
X442920Y450399D01*
X442791Y450347D01*
X442663Y450292D01*
X442536Y450232D01*
X442411Y450169D01*
X442288Y450103D01*
X442167Y450033D01*
X442048Y449960D01*
X441931Y449883D01*
X441817Y449803D01*
X441704Y449720D01*
X441594Y449634D01*
X441487Y449544D01*
X441382Y449452D01*
X441280Y449357D01*
X441180Y449259D01*
X441083Y449158D01*
X440989Y449054D01*
X440899Y448948D01*
X440811Y448839D01*
X440726Y448728D01*
X440645Y448614D01*
X440566Y448499D01*
X440491Y448381D01*
X440420Y448261D01*
X440352Y448138D01*
X440287Y448015D01*
X440226Y447889D01*
X440168Y447761D01*
X440114Y447633D01*
X440064Y447502D01*
X440017Y447370D01*
X439974Y447237D01*
X439935Y447103D01*
X439900Y446968D01*
X439869Y446832D01*
X439841Y446694D01*
X439818Y446557D01*
X439798Y446418D01*
X439782Y446279D01*
X439770Y446140D01*
X439762Y446001D01*
X439758Y445861D01*
X439758Y445721D01*
X439762Y445581D01*
X439770Y445442D01*
X439782Y445303D01*
X439798Y445164D01*
X439818Y445025D01*
X439841Y444888D01*
X439869Y444750D01*
X439900Y444614D01*
X439935Y444479D01*
X439974Y444345D01*
X440017Y444212D01*
X440064Y444080D01*
X440114Y443949D01*
X440168Y443821D01*
X440226Y443693D01*
X440287Y443567D01*
X440352Y443444D01*
X440420Y443322D01*
X440491Y443201D01*
X440566Y443083D01*
X440645Y442968D01*
X440726Y442854D01*
X440811Y442743D01*
X440899Y442634D01*
X440989Y442528D01*
X441083Y442424D01*
X441180Y442323D01*
X441280Y442225D01*
X441382Y442130D01*
X441487Y442038D01*
X441594Y441948D01*
X441704Y441862D01*
X441817Y441779D01*
X441931Y441699D01*
X442048Y441622D01*
X442167Y441549D01*
X442288Y441479D01*
X442411Y441413D01*
X442536Y441350D01*
X442663Y441290D01*
X442791Y441235D01*
X442920Y441183D01*
X443052Y441134D01*
X443184Y441089D01*
X443318Y441048D01*
X443452Y441011D01*
X443588Y440978D01*
X443725Y440949D01*
X443862Y440923D01*
X444000Y440901D01*
X444139Y440884D01*
X444278Y440870D01*
X444418Y440860D01*
X444557Y440854D01*
X444697Y440852D01*
X444697Y440853D02*
X449636Y440853D01*
X449636Y458633D01*
X444697Y458633D01*
X444697Y458632D02*
X444573Y458630D01*
X444449Y458624D01*
X444325Y458614D01*
X444202Y458601D01*
X444079Y458583D01*
X443957Y458562D01*
X443835Y458537D01*
X443714Y458508D01*
X443595Y458475D01*
X443476Y458439D01*
X443359Y458398D01*
X443243Y458355D01*
X443128Y458307D01*
X443015Y458256D01*
X442903Y458201D01*
X442794Y458143D01*
X442686Y458082D01*
X442580Y458017D01*
X442476Y457949D01*
X442375Y457877D01*
X442275Y457803D01*
X442179Y457725D01*
X442084Y457645D01*
X441992Y457561D01*
X441903Y457475D01*
X441817Y457386D01*
X441733Y457294D01*
X441653Y457199D01*
X441575Y457103D01*
X441501Y457003D01*
X441429Y456902D01*
X441361Y456798D01*
X441296Y456692D01*
X441235Y456584D01*
X441177Y456475D01*
X441122Y456363D01*
X441071Y456250D01*
X441023Y456135D01*
X440980Y456019D01*
X440939Y455902D01*
X440903Y455783D01*
X440870Y455664D01*
X440841Y455543D01*
X440816Y455421D01*
X440795Y455299D01*
X440777Y455176D01*
X440764Y455053D01*
X440754Y454929D01*
X440748Y454805D01*
X440746Y454681D01*
X440748Y454557D01*
X440754Y454433D01*
X440764Y454309D01*
X440777Y454186D01*
X440795Y454063D01*
X440816Y453941D01*
X440841Y453819D01*
X440870Y453698D01*
X440903Y453579D01*
X440939Y453460D01*
X440980Y453343D01*
X441023Y453227D01*
X441071Y453112D01*
X441122Y452999D01*
X441177Y452887D01*
X441235Y452778D01*
X441296Y452670D01*
X441361Y452564D01*
X441429Y452460D01*
X441501Y452359D01*
X441575Y452259D01*
X441653Y452163D01*
X441733Y452068D01*
X441817Y451976D01*
X441903Y451887D01*
X441992Y451801D01*
X442084Y451717D01*
X442179Y451637D01*
X442275Y451559D01*
X442375Y451485D01*
X442476Y451413D01*
X442580Y451345D01*
X442686Y451280D01*
X442794Y451219D01*
X442903Y451161D01*
X443015Y451106D01*
X443128Y451055D01*
X443243Y451007D01*
X443359Y450964D01*
X443476Y450923D01*
X443595Y450887D01*
X443714Y450854D01*
X443835Y450825D01*
X443957Y450800D01*
X444079Y450779D01*
X444202Y450761D01*
X444325Y450748D01*
X444449Y450738D01*
X444573Y450732D01*
X444697Y450730D01*
X472412Y361381D02*
X472412Y343601D01*
X472412Y361381D02*
X467473Y361381D01*
X467333Y361379D01*
X467194Y361373D01*
X467054Y361363D01*
X466915Y361349D01*
X466776Y361332D01*
X466638Y361310D01*
X466501Y361284D01*
X466364Y361255D01*
X466228Y361222D01*
X466094Y361185D01*
X465960Y361144D01*
X465828Y361099D01*
X465696Y361050D01*
X465567Y360998D01*
X465439Y360943D01*
X465312Y360883D01*
X465187Y360820D01*
X465064Y360754D01*
X464943Y360684D01*
X464824Y360611D01*
X464707Y360534D01*
X464593Y360454D01*
X464480Y360371D01*
X464370Y360285D01*
X464263Y360195D01*
X464158Y360103D01*
X464056Y360008D01*
X463956Y359910D01*
X463859Y359809D01*
X463765Y359705D01*
X463675Y359599D01*
X463587Y359490D01*
X463502Y359379D01*
X463421Y359265D01*
X463342Y359150D01*
X463267Y359032D01*
X463196Y358912D01*
X463128Y358789D01*
X463063Y358666D01*
X463002Y358540D01*
X462944Y358412D01*
X462890Y358284D01*
X462840Y358153D01*
X462793Y358021D01*
X462750Y357888D01*
X462711Y357754D01*
X462676Y357619D01*
X462645Y357483D01*
X462617Y357345D01*
X462594Y357208D01*
X462574Y357069D01*
X462558Y356930D01*
X462546Y356791D01*
X462538Y356652D01*
X462534Y356512D01*
X462534Y356372D01*
X462538Y356232D01*
X462546Y356093D01*
X462558Y355954D01*
X462574Y355815D01*
X462594Y355676D01*
X462617Y355539D01*
X462645Y355401D01*
X462676Y355265D01*
X462711Y355130D01*
X462750Y354996D01*
X462793Y354863D01*
X462840Y354731D01*
X462890Y354600D01*
X462944Y354472D01*
X463002Y354344D01*
X463063Y354218D01*
X463128Y354095D01*
X463196Y353973D01*
X463267Y353852D01*
X463342Y353734D01*
X463421Y353619D01*
X463502Y353505D01*
X463587Y353394D01*
X463675Y353285D01*
X463765Y353179D01*
X463859Y353075D01*
X463956Y352974D01*
X464056Y352876D01*
X464158Y352781D01*
X464263Y352689D01*
X464370Y352599D01*
X464480Y352513D01*
X464593Y352430D01*
X464707Y352350D01*
X464824Y352273D01*
X464943Y352200D01*
X465064Y352130D01*
X465187Y352064D01*
X465312Y352001D01*
X465439Y351941D01*
X465567Y351886D01*
X465696Y351834D01*
X465828Y351785D01*
X465960Y351740D01*
X466094Y351699D01*
X466228Y351662D01*
X466364Y351629D01*
X466501Y351600D01*
X466638Y351574D01*
X466776Y351552D01*
X466915Y351535D01*
X467054Y351521D01*
X467194Y351511D01*
X467333Y351505D01*
X467473Y351503D01*
X472412Y351503D01*
X466485Y351503D02*
X462534Y343601D01*
X248630Y417055D02*
X248630Y434835D01*
X243692Y434835D01*
X243553Y434833D01*
X243415Y434827D01*
X243277Y434818D01*
X243139Y434804D01*
X243002Y434787D01*
X242865Y434765D01*
X242728Y434740D01*
X242593Y434711D01*
X242458Y434678D01*
X242325Y434642D01*
X242192Y434602D01*
X242061Y434558D01*
X241931Y434510D01*
X241802Y434459D01*
X241675Y434404D01*
X241549Y434346D01*
X241425Y434284D01*
X241303Y434219D01*
X241183Y434150D01*
X241064Y434078D01*
X240948Y434003D01*
X240834Y433924D01*
X240722Y433842D01*
X240613Y433757D01*
X240505Y433670D01*
X240401Y433579D01*
X240299Y433485D01*
X240200Y433388D01*
X240103Y433289D01*
X240009Y433187D01*
X239918Y433083D01*
X239831Y432975D01*
X239746Y432866D01*
X239664Y432754D01*
X239585Y432640D01*
X239510Y432524D01*
X239438Y432405D01*
X239369Y432285D01*
X239304Y432163D01*
X239242Y432039D01*
X239184Y431913D01*
X239129Y431786D01*
X239078Y431657D01*
X239030Y431527D01*
X238986Y431396D01*
X238946Y431263D01*
X238910Y431130D01*
X238877Y430995D01*
X238848Y430860D01*
X238823Y430723D01*
X238801Y430586D01*
X238784Y430449D01*
X238770Y430311D01*
X238761Y430173D01*
X238755Y430035D01*
X238753Y429896D01*
X238753Y421994D01*
X238755Y421855D01*
X238761Y421717D01*
X238770Y421579D01*
X238784Y421441D01*
X238801Y421304D01*
X238823Y421167D01*
X238848Y421030D01*
X238877Y420895D01*
X238910Y420760D01*
X238946Y420627D01*
X238986Y420494D01*
X239030Y420363D01*
X239078Y420233D01*
X239129Y420104D01*
X239184Y419977D01*
X239242Y419851D01*
X239304Y419727D01*
X239369Y419605D01*
X239438Y419485D01*
X239510Y419366D01*
X239585Y419250D01*
X239664Y419136D01*
X239746Y419024D01*
X239831Y418915D01*
X239918Y418807D01*
X240009Y418703D01*
X240103Y418601D01*
X240200Y418502D01*
X240299Y418405D01*
X240401Y418311D01*
X240505Y418220D01*
X240613Y418133D01*
X240722Y418048D01*
X240834Y417966D01*
X240948Y417887D01*
X241064Y417812D01*
X241183Y417740D01*
X241303Y417671D01*
X241425Y417606D01*
X241549Y417544D01*
X241675Y417486D01*
X241802Y417431D01*
X241931Y417380D01*
X242061Y417332D01*
X242192Y417288D01*
X242325Y417248D01*
X242458Y417212D01*
X242593Y417179D01*
X242728Y417150D01*
X242865Y417125D01*
X243002Y417103D01*
X243139Y417086D01*
X243277Y417072D01*
X243415Y417063D01*
X243553Y417057D01*
X243692Y417055D01*
X248630Y417055D01*
X244961Y441663D02*
X241010Y441663D01*
X244961Y441663D02*
X245085Y441665D01*
X245209Y441671D01*
X245333Y441681D01*
X245456Y441694D01*
X245579Y441712D01*
X245701Y441733D01*
X245823Y441758D01*
X245944Y441787D01*
X246063Y441820D01*
X246182Y441856D01*
X246299Y441897D01*
X246415Y441940D01*
X246530Y441988D01*
X246643Y442039D01*
X246755Y442094D01*
X246864Y442152D01*
X246972Y442213D01*
X247078Y442278D01*
X247182Y442346D01*
X247283Y442418D01*
X247383Y442492D01*
X247479Y442570D01*
X247574Y442650D01*
X247666Y442734D01*
X247755Y442820D01*
X247841Y442909D01*
X247925Y443001D01*
X248005Y443096D01*
X248083Y443192D01*
X248157Y443292D01*
X248229Y443393D01*
X248297Y443497D01*
X248362Y443603D01*
X248423Y443711D01*
X248481Y443820D01*
X248536Y443932D01*
X248587Y444045D01*
X248635Y444160D01*
X248678Y444276D01*
X248719Y444393D01*
X248755Y444512D01*
X248788Y444631D01*
X248817Y444752D01*
X248842Y444874D01*
X248863Y444996D01*
X248881Y445119D01*
X248894Y445242D01*
X248904Y445366D01*
X248910Y445490D01*
X248912Y445614D01*
X248912Y455492D01*
X248910Y455616D01*
X248904Y455740D01*
X248894Y455864D01*
X248881Y455987D01*
X248863Y456110D01*
X248842Y456232D01*
X248817Y456354D01*
X248788Y456475D01*
X248755Y456594D01*
X248719Y456713D01*
X248678Y456830D01*
X248635Y456946D01*
X248587Y457061D01*
X248536Y457174D01*
X248481Y457286D01*
X248423Y457395D01*
X248362Y457503D01*
X248297Y457609D01*
X248229Y457713D01*
X248157Y457814D01*
X248083Y457914D01*
X248005Y458010D01*
X247925Y458105D01*
X247841Y458197D01*
X247755Y458286D01*
X247666Y458372D01*
X247574Y458456D01*
X247479Y458536D01*
X247383Y458614D01*
X247283Y458688D01*
X247182Y458760D01*
X247078Y458828D01*
X246972Y458893D01*
X246864Y458954D01*
X246755Y459012D01*
X246643Y459067D01*
X246530Y459118D01*
X246416Y459166D01*
X246299Y459209D01*
X246182Y459250D01*
X246063Y459286D01*
X245944Y459319D01*
X245823Y459348D01*
X245701Y459373D01*
X245579Y459394D01*
X245456Y459412D01*
X245333Y459425D01*
X245209Y459435D01*
X245085Y459441D01*
X244961Y459443D01*
X241010Y459443D01*
D11*
X426501Y467300D02*
X428096Y466183D01*
X426501Y467300D02*
X422778Y461983D01*
X425968Y459749D01*
X426051Y459694D01*
X426135Y459642D01*
X426222Y459593D01*
X426310Y459547D01*
X426400Y459505D01*
X426492Y459466D01*
X426585Y459431D01*
X426679Y459399D01*
X426774Y459371D01*
X426871Y459347D01*
X426968Y459326D01*
X427066Y459310D01*
X427165Y459296D01*
X427264Y459287D01*
X427363Y459282D01*
X427463Y459280D01*
X427562Y459282D01*
X427661Y459288D01*
X427760Y459298D01*
X427859Y459311D01*
X427957Y459329D01*
X428054Y459350D01*
X428150Y459374D01*
X428246Y459403D01*
X428340Y459435D01*
X428433Y459470D01*
X428524Y459509D01*
X428614Y459552D01*
X428702Y459598D01*
X428788Y459647D01*
X428873Y459700D01*
X428955Y459756D01*
X429035Y459815D01*
X429113Y459877D01*
X429188Y459942D01*
X429261Y460009D01*
X429331Y460080D01*
X429399Y460153D01*
X429463Y460229D01*
X429525Y460307D01*
X429584Y460387D01*
X433307Y465704D01*
X433362Y465787D01*
X433414Y465871D01*
X433463Y465958D01*
X433509Y466046D01*
X433551Y466136D01*
X433590Y466228D01*
X433625Y466321D01*
X433657Y466415D01*
X433685Y466510D01*
X433709Y466607D01*
X433730Y466704D01*
X433746Y466802D01*
X433760Y466901D01*
X433769Y467000D01*
X433774Y467099D01*
X433776Y467199D01*
X433774Y467298D01*
X433768Y467397D01*
X433758Y467496D01*
X433745Y467595D01*
X433727Y467693D01*
X433706Y467790D01*
X433682Y467886D01*
X433653Y467982D01*
X433621Y468076D01*
X433586Y468169D01*
X433547Y468260D01*
X433504Y468350D01*
X433458Y468438D01*
X433409Y468524D01*
X433356Y468609D01*
X433300Y468691D01*
X433241Y468771D01*
X433179Y468849D01*
X433114Y468924D01*
X433047Y468997D01*
X432976Y469067D01*
X432903Y469135D01*
X432827Y469199D01*
X432749Y469261D01*
X432669Y469320D01*
X432670Y469320D02*
X429479Y471554D01*
X424810Y474824D02*
X418108Y465253D01*
X412791Y468976D02*
X424810Y474824D01*
X419492Y478547D02*
X412791Y468976D01*
X408121Y472246D02*
X414822Y481817D01*
X412164Y483678D01*
X412164Y483679D02*
X412070Y483742D01*
X411974Y483802D01*
X411876Y483859D01*
X411776Y483912D01*
X411674Y483962D01*
X411570Y484008D01*
X411465Y484050D01*
X411359Y484089D01*
X411251Y484124D01*
X411142Y484155D01*
X411032Y484183D01*
X410921Y484206D01*
X410810Y484226D01*
X410698Y484242D01*
X410585Y484254D01*
X410472Y484262D01*
X410359Y484266D01*
X410245Y484266D01*
X410132Y484262D01*
X410019Y484254D01*
X409906Y484242D01*
X409794Y484226D01*
X409683Y484206D01*
X409572Y484183D01*
X409462Y484155D01*
X409353Y484124D01*
X409245Y484089D01*
X409139Y484050D01*
X409034Y484008D01*
X408930Y483962D01*
X408828Y483912D01*
X408728Y483859D01*
X408630Y483802D01*
X408534Y483742D01*
X408440Y483679D01*
X408349Y483612D01*
X408259Y483543D01*
X408172Y483470D01*
X408088Y483394D01*
X408007Y483315D01*
X407928Y483234D01*
X407852Y483150D01*
X407779Y483063D01*
X407710Y482974D01*
X407643Y482882D01*
X407644Y482881D02*
X404665Y478628D01*
X404602Y478534D01*
X404542Y478438D01*
X404485Y478340D01*
X404432Y478240D01*
X404382Y478138D01*
X404336Y478034D01*
X404294Y477929D01*
X404255Y477823D01*
X404220Y477715D01*
X404189Y477606D01*
X404161Y477496D01*
X404138Y477385D01*
X404118Y477274D01*
X404102Y477162D01*
X404090Y477049D01*
X404082Y476936D01*
X404078Y476823D01*
X404078Y476709D01*
X404082Y476596D01*
X404090Y476483D01*
X404102Y476370D01*
X404118Y476258D01*
X404138Y476147D01*
X404161Y476036D01*
X404189Y475926D01*
X404220Y475817D01*
X404255Y475709D01*
X404294Y475603D01*
X404336Y475498D01*
X404382Y475394D01*
X404432Y475292D01*
X404485Y475192D01*
X404542Y475094D01*
X404602Y474998D01*
X404665Y474904D01*
X404732Y474812D01*
X404801Y474723D01*
X404874Y474636D01*
X404950Y474552D01*
X405029Y474471D01*
X405110Y474392D01*
X405194Y474316D01*
X405281Y474243D01*
X405371Y474174D01*
X405462Y474107D01*
X408121Y472246D01*
X492049Y337254D02*
X492049Y335306D01*
X492049Y337254D02*
X485558Y337254D01*
X485558Y333359D01*
X485560Y333260D01*
X485566Y333160D01*
X485575Y333061D01*
X485588Y332963D01*
X485605Y332865D01*
X485626Y332767D01*
X485651Y332671D01*
X485679Y332576D01*
X485711Y332482D01*
X485746Y332389D01*
X485785Y332297D01*
X485828Y332207D01*
X485873Y332119D01*
X485923Y332032D01*
X485975Y331948D01*
X486031Y331865D01*
X486089Y331785D01*
X486151Y331707D01*
X486216Y331632D01*
X486284Y331559D01*
X486354Y331489D01*
X486427Y331421D01*
X486502Y331356D01*
X486580Y331294D01*
X486660Y331236D01*
X486743Y331180D01*
X486827Y331128D01*
X486914Y331078D01*
X487002Y331033D01*
X487092Y330990D01*
X487184Y330951D01*
X487277Y330916D01*
X487371Y330884D01*
X487466Y330856D01*
X487562Y330831D01*
X487660Y330810D01*
X487758Y330793D01*
X487856Y330780D01*
X487955Y330771D01*
X488055Y330765D01*
X488154Y330763D01*
X494646Y330763D01*
X494745Y330765D01*
X494845Y330771D01*
X494944Y330780D01*
X495042Y330793D01*
X495140Y330810D01*
X495238Y330831D01*
X495334Y330856D01*
X495429Y330884D01*
X495523Y330916D01*
X495616Y330951D01*
X495708Y330990D01*
X495798Y331033D01*
X495886Y331078D01*
X495973Y331128D01*
X496057Y331180D01*
X496140Y331236D01*
X496220Y331294D01*
X496298Y331356D01*
X496373Y331421D01*
X496446Y331489D01*
X496516Y331559D01*
X496584Y331632D01*
X496649Y331707D01*
X496711Y331785D01*
X496769Y331865D01*
X496825Y331948D01*
X496877Y332032D01*
X496927Y332119D01*
X496972Y332207D01*
X497015Y332297D01*
X497054Y332389D01*
X497089Y332481D01*
X497121Y332576D01*
X497149Y332671D01*
X497174Y332767D01*
X497195Y332865D01*
X497212Y332963D01*
X497225Y333061D01*
X497234Y333160D01*
X497240Y333260D01*
X497242Y333359D01*
X497242Y337254D01*
X497242Y342954D02*
X485558Y342954D01*
X485558Y349446D02*
X497242Y342954D01*
X497242Y349446D02*
X485558Y349446D01*
X485558Y355146D02*
X497242Y355146D01*
X497242Y358392D01*
X497240Y358505D01*
X497234Y358618D01*
X497224Y358731D01*
X497210Y358844D01*
X497193Y358956D01*
X497171Y359067D01*
X497146Y359177D01*
X497116Y359287D01*
X497083Y359395D01*
X497046Y359502D01*
X497006Y359608D01*
X496961Y359712D01*
X496913Y359815D01*
X496862Y359916D01*
X496807Y360015D01*
X496749Y360112D01*
X496687Y360207D01*
X496622Y360300D01*
X496554Y360390D01*
X496483Y360478D01*
X496408Y360564D01*
X496331Y360647D01*
X496251Y360727D01*
X496168Y360804D01*
X496082Y360879D01*
X495994Y360950D01*
X495904Y361018D01*
X495811Y361083D01*
X495716Y361145D01*
X495619Y361203D01*
X495520Y361258D01*
X495419Y361309D01*
X495316Y361357D01*
X495212Y361402D01*
X495106Y361442D01*
X494999Y361479D01*
X494891Y361512D01*
X494781Y361542D01*
X494671Y361567D01*
X494560Y361589D01*
X494448Y361606D01*
X494335Y361620D01*
X494222Y361630D01*
X494109Y361636D01*
X493996Y361638D01*
X488804Y361638D01*
X488691Y361636D01*
X488578Y361630D01*
X488465Y361620D01*
X488352Y361606D01*
X488240Y361589D01*
X488129Y361567D01*
X488019Y361542D01*
X487909Y361512D01*
X487801Y361479D01*
X487694Y361442D01*
X487588Y361402D01*
X487484Y361357D01*
X487381Y361309D01*
X487280Y361258D01*
X487181Y361203D01*
X487084Y361145D01*
X486989Y361083D01*
X486896Y361018D01*
X486806Y360950D01*
X486718Y360879D01*
X486632Y360804D01*
X486549Y360727D01*
X486469Y360647D01*
X486392Y360564D01*
X486317Y360478D01*
X486246Y360390D01*
X486178Y360300D01*
X486113Y360207D01*
X486051Y360112D01*
X485993Y360015D01*
X485938Y359916D01*
X485887Y359815D01*
X485839Y359712D01*
X485794Y359608D01*
X485754Y359502D01*
X485717Y359395D01*
X485684Y359287D01*
X485654Y359177D01*
X485629Y359067D01*
X485607Y358956D01*
X485590Y358844D01*
X485576Y358731D01*
X485566Y358618D01*
X485560Y358505D01*
X485558Y358392D01*
X485558Y355146D01*
X427351Y227280D02*
X425756Y226163D01*
X429479Y220846D01*
X432670Y223080D01*
X432669Y223080D02*
X432749Y223139D01*
X432827Y223201D01*
X432903Y223265D01*
X432976Y223333D01*
X433047Y223403D01*
X433114Y223476D01*
X433179Y223551D01*
X433241Y223629D01*
X433300Y223709D01*
X433356Y223791D01*
X433409Y223876D01*
X433458Y223962D01*
X433504Y224050D01*
X433547Y224140D01*
X433586Y224231D01*
X433621Y224324D01*
X433653Y224418D01*
X433682Y224514D01*
X433706Y224610D01*
X433727Y224707D01*
X433745Y224805D01*
X433758Y224904D01*
X433768Y225003D01*
X433774Y225102D01*
X433776Y225201D01*
X433774Y225301D01*
X433769Y225400D01*
X433759Y225499D01*
X433746Y225598D01*
X433730Y225696D01*
X433709Y225793D01*
X433685Y225890D01*
X433657Y225985D01*
X433625Y226079D01*
X433590Y226172D01*
X433551Y226264D01*
X433509Y226354D01*
X433463Y226442D01*
X433414Y226529D01*
X433362Y226613D01*
X433307Y226696D01*
X429584Y232013D01*
X429525Y232093D01*
X429463Y232171D01*
X429399Y232247D01*
X429331Y232320D01*
X429261Y232391D01*
X429188Y232458D01*
X429113Y232523D01*
X429035Y232585D01*
X428955Y232644D01*
X428873Y232700D01*
X428788Y232753D01*
X428702Y232802D01*
X428614Y232848D01*
X428524Y232891D01*
X428433Y232930D01*
X428340Y232965D01*
X428246Y232997D01*
X428150Y233026D01*
X428054Y233050D01*
X427957Y233071D01*
X427859Y233089D01*
X427760Y233102D01*
X427661Y233112D01*
X427562Y233118D01*
X427463Y233120D01*
X427363Y233118D01*
X427264Y233113D01*
X427165Y233104D01*
X427066Y233090D01*
X426968Y233074D01*
X426871Y233053D01*
X426774Y233029D01*
X426679Y233001D01*
X426585Y232969D01*
X426492Y232934D01*
X426400Y232895D01*
X426310Y232853D01*
X426222Y232807D01*
X426135Y232758D01*
X426051Y232706D01*
X425968Y232651D01*
X422778Y230417D01*
X418108Y227147D02*
X424809Y217576D01*
X419492Y213853D02*
X418108Y227147D01*
X412791Y223424D02*
X419492Y213853D01*
X414822Y210583D02*
X408121Y220154D01*
X405462Y218292D01*
X405462Y218293D02*
X405371Y218226D01*
X405281Y218157D01*
X405194Y218084D01*
X405110Y218008D01*
X405029Y217929D01*
X404950Y217848D01*
X404874Y217764D01*
X404801Y217677D01*
X404732Y217588D01*
X404665Y217496D01*
X404602Y217402D01*
X404542Y217306D01*
X404485Y217208D01*
X404432Y217108D01*
X404382Y217006D01*
X404336Y216902D01*
X404294Y216797D01*
X404255Y216691D01*
X404220Y216583D01*
X404189Y216474D01*
X404161Y216364D01*
X404138Y216253D01*
X404118Y216142D01*
X404102Y216030D01*
X404090Y215917D01*
X404082Y215804D01*
X404078Y215691D01*
X404078Y215577D01*
X404082Y215464D01*
X404090Y215351D01*
X404102Y215238D01*
X404118Y215126D01*
X404138Y215015D01*
X404161Y214904D01*
X404189Y214794D01*
X404220Y214685D01*
X404255Y214577D01*
X404294Y214471D01*
X404336Y214366D01*
X404382Y214262D01*
X404432Y214160D01*
X404485Y214060D01*
X404542Y213962D01*
X404602Y213866D01*
X404665Y213772D01*
X407644Y209518D01*
X407643Y209518D02*
X407710Y209427D01*
X407779Y209337D01*
X407852Y209250D01*
X407928Y209166D01*
X408007Y209085D01*
X408088Y209006D01*
X408172Y208930D01*
X408259Y208857D01*
X408349Y208788D01*
X408440Y208721D01*
X408534Y208658D01*
X408630Y208598D01*
X408728Y208541D01*
X408828Y208488D01*
X408930Y208438D01*
X409034Y208392D01*
X409139Y208350D01*
X409245Y208311D01*
X409353Y208276D01*
X409462Y208245D01*
X409572Y208217D01*
X409683Y208194D01*
X409794Y208174D01*
X409906Y208158D01*
X410019Y208146D01*
X410132Y208138D01*
X410245Y208134D01*
X410359Y208134D01*
X410472Y208138D01*
X410585Y208146D01*
X410698Y208158D01*
X410810Y208174D01*
X410921Y208194D01*
X411032Y208217D01*
X411142Y208245D01*
X411251Y208276D01*
X411359Y208311D01*
X411465Y208350D01*
X411570Y208392D01*
X411674Y208438D01*
X411776Y208488D01*
X411876Y208541D01*
X411974Y208598D01*
X412070Y208658D01*
X412164Y208721D01*
X414822Y210583D01*
X282896Y214783D02*
X281301Y215900D01*
X277578Y210583D01*
X280768Y208349D01*
X280851Y208294D01*
X280935Y208242D01*
X281022Y208193D01*
X281110Y208147D01*
X281200Y208105D01*
X281292Y208066D01*
X281385Y208031D01*
X281479Y207999D01*
X281574Y207971D01*
X281671Y207947D01*
X281768Y207926D01*
X281866Y207910D01*
X281965Y207896D01*
X282064Y207887D01*
X282163Y207882D01*
X282263Y207880D01*
X282362Y207882D01*
X282461Y207888D01*
X282560Y207898D01*
X282659Y207911D01*
X282757Y207929D01*
X282854Y207950D01*
X282950Y207974D01*
X283046Y208003D01*
X283140Y208035D01*
X283233Y208070D01*
X283324Y208109D01*
X283414Y208152D01*
X283502Y208198D01*
X283588Y208247D01*
X283673Y208300D01*
X283755Y208356D01*
X283835Y208415D01*
X283913Y208477D01*
X283988Y208542D01*
X284061Y208609D01*
X284131Y208680D01*
X284199Y208753D01*
X284263Y208829D01*
X284325Y208907D01*
X284384Y208987D01*
X288107Y214304D01*
X288162Y214387D01*
X288214Y214471D01*
X288263Y214558D01*
X288309Y214646D01*
X288351Y214736D01*
X288390Y214828D01*
X288425Y214921D01*
X288457Y215015D01*
X288485Y215110D01*
X288509Y215207D01*
X288530Y215304D01*
X288546Y215402D01*
X288560Y215501D01*
X288569Y215600D01*
X288574Y215699D01*
X288576Y215799D01*
X288574Y215898D01*
X288568Y215997D01*
X288558Y216096D01*
X288545Y216195D01*
X288527Y216293D01*
X288506Y216390D01*
X288482Y216486D01*
X288453Y216582D01*
X288421Y216676D01*
X288386Y216769D01*
X288347Y216860D01*
X288304Y216950D01*
X288258Y217038D01*
X288209Y217124D01*
X288156Y217209D01*
X288100Y217291D01*
X288041Y217371D01*
X287979Y217449D01*
X287914Y217524D01*
X287847Y217597D01*
X287776Y217667D01*
X287703Y217735D01*
X287627Y217799D01*
X287549Y217861D01*
X287469Y217920D01*
X287470Y217920D02*
X284279Y220154D01*
X279610Y223424D02*
X272908Y213853D01*
X267591Y217576D02*
X279610Y223424D01*
X274292Y227147D02*
X267591Y217576D01*
X262921Y220846D02*
X269622Y230417D01*
X266964Y232278D01*
X266964Y232279D02*
X266870Y232342D01*
X266774Y232402D01*
X266676Y232459D01*
X266576Y232512D01*
X266474Y232562D01*
X266370Y232608D01*
X266265Y232650D01*
X266159Y232689D01*
X266051Y232724D01*
X265942Y232755D01*
X265832Y232783D01*
X265721Y232806D01*
X265610Y232826D01*
X265498Y232842D01*
X265385Y232854D01*
X265272Y232862D01*
X265159Y232866D01*
X265045Y232866D01*
X264932Y232862D01*
X264819Y232854D01*
X264706Y232842D01*
X264594Y232826D01*
X264483Y232806D01*
X264372Y232783D01*
X264262Y232755D01*
X264153Y232724D01*
X264045Y232689D01*
X263939Y232650D01*
X263834Y232608D01*
X263730Y232562D01*
X263628Y232512D01*
X263528Y232459D01*
X263430Y232402D01*
X263334Y232342D01*
X263240Y232279D01*
X263149Y232212D01*
X263059Y232143D01*
X262972Y232070D01*
X262888Y231994D01*
X262807Y231915D01*
X262728Y231834D01*
X262652Y231750D01*
X262579Y231663D01*
X262510Y231574D01*
X262443Y231482D01*
X262444Y231481D02*
X259465Y227228D01*
X259402Y227134D01*
X259342Y227038D01*
X259285Y226940D01*
X259232Y226840D01*
X259182Y226738D01*
X259136Y226634D01*
X259094Y226529D01*
X259055Y226423D01*
X259020Y226315D01*
X258989Y226206D01*
X258961Y226096D01*
X258938Y225985D01*
X258918Y225874D01*
X258902Y225762D01*
X258890Y225649D01*
X258882Y225536D01*
X258878Y225423D01*
X258878Y225309D01*
X258882Y225196D01*
X258890Y225083D01*
X258902Y224970D01*
X258918Y224858D01*
X258938Y224747D01*
X258961Y224636D01*
X258989Y224526D01*
X259020Y224417D01*
X259055Y224309D01*
X259094Y224203D01*
X259136Y224098D01*
X259182Y223994D01*
X259232Y223892D01*
X259285Y223792D01*
X259342Y223694D01*
X259402Y223598D01*
X259465Y223504D01*
X259532Y223412D01*
X259601Y223323D01*
X259674Y223236D01*
X259750Y223152D01*
X259829Y223071D01*
X259910Y222992D01*
X259994Y222916D01*
X260081Y222843D01*
X260171Y222774D01*
X260262Y222707D01*
X262921Y220846D01*
X201649Y335306D02*
X201649Y337254D01*
X195158Y337254D01*
X195158Y333359D01*
X195160Y333260D01*
X195166Y333160D01*
X195175Y333061D01*
X195188Y332963D01*
X195205Y332865D01*
X195226Y332767D01*
X195251Y332671D01*
X195279Y332576D01*
X195311Y332482D01*
X195346Y332389D01*
X195385Y332297D01*
X195428Y332207D01*
X195473Y332119D01*
X195523Y332032D01*
X195575Y331948D01*
X195631Y331865D01*
X195689Y331785D01*
X195751Y331707D01*
X195816Y331632D01*
X195884Y331559D01*
X195954Y331489D01*
X196027Y331421D01*
X196102Y331356D01*
X196180Y331294D01*
X196260Y331236D01*
X196343Y331180D01*
X196427Y331128D01*
X196514Y331078D01*
X196602Y331033D01*
X196692Y330990D01*
X196784Y330951D01*
X196877Y330916D01*
X196971Y330884D01*
X197066Y330856D01*
X197162Y330831D01*
X197260Y330810D01*
X197358Y330793D01*
X197456Y330780D01*
X197555Y330771D01*
X197655Y330765D01*
X197754Y330763D01*
X204246Y330763D01*
X204345Y330765D01*
X204445Y330771D01*
X204544Y330780D01*
X204642Y330793D01*
X204740Y330810D01*
X204838Y330831D01*
X204934Y330856D01*
X205029Y330884D01*
X205123Y330916D01*
X205216Y330951D01*
X205308Y330990D01*
X205398Y331033D01*
X205486Y331078D01*
X205573Y331128D01*
X205657Y331180D01*
X205740Y331236D01*
X205820Y331294D01*
X205898Y331356D01*
X205973Y331421D01*
X206046Y331489D01*
X206116Y331559D01*
X206184Y331632D01*
X206249Y331707D01*
X206311Y331785D01*
X206369Y331865D01*
X206425Y331948D01*
X206477Y332032D01*
X206527Y332119D01*
X206572Y332207D01*
X206615Y332297D01*
X206654Y332389D01*
X206689Y332481D01*
X206721Y332576D01*
X206749Y332671D01*
X206774Y332767D01*
X206795Y332865D01*
X206812Y332963D01*
X206825Y333061D01*
X206834Y333160D01*
X206840Y333260D01*
X206842Y333359D01*
X206842Y337254D01*
X206842Y342954D02*
X195158Y342954D01*
X195158Y349446D02*
X206842Y342954D01*
X206842Y349446D02*
X195158Y349446D01*
X195158Y355146D02*
X206842Y355146D01*
X206842Y358392D01*
X206840Y358505D01*
X206834Y358618D01*
X206824Y358731D01*
X206810Y358844D01*
X206793Y358956D01*
X206771Y359067D01*
X206746Y359177D01*
X206716Y359287D01*
X206683Y359395D01*
X206646Y359502D01*
X206606Y359608D01*
X206561Y359712D01*
X206513Y359815D01*
X206462Y359916D01*
X206407Y360015D01*
X206349Y360112D01*
X206287Y360207D01*
X206222Y360300D01*
X206154Y360390D01*
X206083Y360478D01*
X206008Y360564D01*
X205931Y360647D01*
X205851Y360727D01*
X205768Y360804D01*
X205682Y360879D01*
X205594Y360950D01*
X205504Y361018D01*
X205411Y361083D01*
X205316Y361145D01*
X205219Y361203D01*
X205120Y361258D01*
X205019Y361309D01*
X204916Y361357D01*
X204812Y361402D01*
X204706Y361442D01*
X204599Y361479D01*
X204491Y361512D01*
X204381Y361542D01*
X204271Y361567D01*
X204160Y361589D01*
X204048Y361606D01*
X203935Y361620D01*
X203822Y361630D01*
X203709Y361636D01*
X203596Y361638D01*
X198404Y361638D01*
X198291Y361636D01*
X198178Y361630D01*
X198065Y361620D01*
X197952Y361606D01*
X197840Y361589D01*
X197729Y361567D01*
X197619Y361542D01*
X197509Y361512D01*
X197401Y361479D01*
X197294Y361442D01*
X197188Y361402D01*
X197084Y361357D01*
X196981Y361309D01*
X196880Y361258D01*
X196781Y361203D01*
X196684Y361145D01*
X196589Y361083D01*
X196496Y361018D01*
X196406Y360950D01*
X196318Y360879D01*
X196232Y360804D01*
X196149Y360727D01*
X196069Y360647D01*
X195992Y360564D01*
X195917Y360478D01*
X195846Y360390D01*
X195778Y360300D01*
X195713Y360207D01*
X195651Y360112D01*
X195593Y360015D01*
X195538Y359916D01*
X195487Y359815D01*
X195439Y359712D01*
X195394Y359608D01*
X195354Y359502D01*
X195317Y359395D01*
X195284Y359287D01*
X195254Y359177D01*
X195229Y359067D01*
X195207Y358956D01*
X195190Y358844D01*
X195176Y358731D01*
X195166Y358618D01*
X195160Y358505D01*
X195158Y358392D01*
X195158Y355146D01*
X280556Y477563D02*
X282151Y478680D01*
X280556Y477563D02*
X284279Y472246D01*
X287470Y474480D01*
X287469Y474480D02*
X287549Y474539D01*
X287627Y474601D01*
X287703Y474665D01*
X287776Y474733D01*
X287847Y474803D01*
X287914Y474876D01*
X287979Y474951D01*
X288041Y475029D01*
X288100Y475109D01*
X288156Y475191D01*
X288209Y475276D01*
X288258Y475362D01*
X288304Y475450D01*
X288347Y475540D01*
X288386Y475631D01*
X288421Y475724D01*
X288453Y475818D01*
X288482Y475914D01*
X288506Y476010D01*
X288527Y476107D01*
X288545Y476205D01*
X288558Y476304D01*
X288568Y476403D01*
X288574Y476502D01*
X288576Y476601D01*
X288574Y476701D01*
X288569Y476800D01*
X288559Y476899D01*
X288546Y476998D01*
X288530Y477096D01*
X288509Y477193D01*
X288485Y477290D01*
X288457Y477385D01*
X288425Y477479D01*
X288390Y477572D01*
X288351Y477664D01*
X288309Y477754D01*
X288263Y477842D01*
X288214Y477929D01*
X288162Y478013D01*
X288107Y478096D01*
X284384Y483413D01*
X284325Y483493D01*
X284263Y483571D01*
X284199Y483647D01*
X284131Y483720D01*
X284061Y483791D01*
X283988Y483858D01*
X283913Y483923D01*
X283835Y483985D01*
X283755Y484044D01*
X283673Y484100D01*
X283588Y484153D01*
X283502Y484202D01*
X283414Y484248D01*
X283324Y484291D01*
X283233Y484330D01*
X283140Y484365D01*
X283046Y484397D01*
X282950Y484426D01*
X282854Y484450D01*
X282757Y484471D01*
X282659Y484489D01*
X282560Y484502D01*
X282461Y484512D01*
X282362Y484518D01*
X282263Y484520D01*
X282163Y484518D01*
X282064Y484513D01*
X281965Y484504D01*
X281866Y484490D01*
X281768Y484474D01*
X281671Y484453D01*
X281574Y484429D01*
X281479Y484401D01*
X281385Y484369D01*
X281292Y484334D01*
X281200Y484295D01*
X281110Y484253D01*
X281022Y484207D01*
X280935Y484158D01*
X280851Y484106D01*
X280768Y484051D01*
X277578Y481817D01*
X272908Y478547D02*
X279609Y468976D01*
X274292Y465253D02*
X272908Y478547D01*
X267591Y474824D02*
X274292Y465253D01*
X269622Y461983D02*
X262921Y471554D01*
X260262Y469692D01*
X260262Y469693D02*
X260171Y469626D01*
X260081Y469557D01*
X259994Y469484D01*
X259910Y469408D01*
X259829Y469329D01*
X259750Y469248D01*
X259674Y469164D01*
X259601Y469077D01*
X259532Y468988D01*
X259465Y468896D01*
X259402Y468802D01*
X259342Y468706D01*
X259285Y468608D01*
X259232Y468508D01*
X259182Y468406D01*
X259136Y468302D01*
X259094Y468197D01*
X259055Y468091D01*
X259020Y467983D01*
X258989Y467874D01*
X258961Y467764D01*
X258938Y467653D01*
X258918Y467542D01*
X258902Y467430D01*
X258890Y467317D01*
X258882Y467204D01*
X258878Y467091D01*
X258878Y466977D01*
X258882Y466864D01*
X258890Y466751D01*
X258902Y466638D01*
X258918Y466526D01*
X258938Y466415D01*
X258961Y466304D01*
X258989Y466194D01*
X259020Y466085D01*
X259055Y465977D01*
X259094Y465871D01*
X259136Y465766D01*
X259182Y465662D01*
X259232Y465560D01*
X259285Y465460D01*
X259342Y465362D01*
X259402Y465266D01*
X259465Y465172D01*
X262444Y460918D01*
X262443Y460918D02*
X262510Y460827D01*
X262579Y460737D01*
X262652Y460650D01*
X262728Y460566D01*
X262807Y460485D01*
X262888Y460406D01*
X262972Y460330D01*
X263059Y460257D01*
X263149Y460188D01*
X263240Y460121D01*
X263334Y460058D01*
X263430Y459998D01*
X263528Y459941D01*
X263628Y459888D01*
X263730Y459838D01*
X263834Y459792D01*
X263939Y459750D01*
X264045Y459711D01*
X264153Y459676D01*
X264262Y459645D01*
X264372Y459617D01*
X264483Y459594D01*
X264594Y459574D01*
X264706Y459558D01*
X264819Y459546D01*
X264932Y459538D01*
X265045Y459534D01*
X265159Y459534D01*
X265272Y459538D01*
X265385Y459546D01*
X265498Y459558D01*
X265610Y459574D01*
X265721Y459594D01*
X265832Y459617D01*
X265942Y459645D01*
X266051Y459676D01*
X266159Y459711D01*
X266265Y459750D01*
X266370Y459792D01*
X266474Y459838D01*
X266576Y459888D01*
X266676Y459941D01*
X266774Y459998D01*
X266870Y460058D01*
X266964Y460121D01*
X269622Y461983D01*
D10*
X452456Y419510D02*
X452456Y401730D01*
X452456Y419510D02*
X447518Y419510D01*
X447378Y419508D01*
X447239Y419502D01*
X447099Y419492D01*
X446960Y419478D01*
X446821Y419461D01*
X446683Y419439D01*
X446546Y419413D01*
X446409Y419384D01*
X446273Y419351D01*
X446139Y419314D01*
X446005Y419273D01*
X445873Y419228D01*
X445741Y419179D01*
X445612Y419127D01*
X445484Y419072D01*
X445357Y419012D01*
X445232Y418949D01*
X445109Y418883D01*
X444988Y418813D01*
X444869Y418740D01*
X444752Y418663D01*
X444638Y418583D01*
X444525Y418500D01*
X444415Y418414D01*
X444308Y418324D01*
X444203Y418232D01*
X444101Y418137D01*
X444001Y418039D01*
X443904Y417938D01*
X443810Y417834D01*
X443720Y417728D01*
X443632Y417619D01*
X443547Y417508D01*
X443466Y417394D01*
X443387Y417279D01*
X443312Y417161D01*
X443241Y417041D01*
X443173Y416918D01*
X443108Y416795D01*
X443047Y416669D01*
X442989Y416541D01*
X442935Y416413D01*
X442885Y416282D01*
X442838Y416150D01*
X442795Y416017D01*
X442756Y415883D01*
X442721Y415748D01*
X442690Y415612D01*
X442662Y415474D01*
X442639Y415337D01*
X442619Y415198D01*
X442603Y415059D01*
X442591Y414920D01*
X442583Y414781D01*
X442579Y414641D01*
X442579Y414501D01*
X442583Y414361D01*
X442591Y414222D01*
X442603Y414083D01*
X442619Y413944D01*
X442639Y413805D01*
X442662Y413668D01*
X442690Y413530D01*
X442721Y413394D01*
X442756Y413259D01*
X442795Y413125D01*
X442838Y412992D01*
X442885Y412860D01*
X442935Y412729D01*
X442989Y412601D01*
X443047Y412473D01*
X443108Y412347D01*
X443173Y412224D01*
X443241Y412102D01*
X443312Y411981D01*
X443387Y411863D01*
X443466Y411748D01*
X443547Y411634D01*
X443632Y411523D01*
X443720Y411414D01*
X443810Y411308D01*
X443904Y411204D01*
X444001Y411103D01*
X444101Y411005D01*
X444203Y410910D01*
X444308Y410818D01*
X444415Y410728D01*
X444525Y410642D01*
X444638Y410559D01*
X444752Y410479D01*
X444869Y410402D01*
X444988Y410329D01*
X445109Y410259D01*
X445232Y410193D01*
X445357Y410130D01*
X445484Y410070D01*
X445612Y410015D01*
X445741Y409963D01*
X445873Y409914D01*
X446005Y409869D01*
X446139Y409828D01*
X446273Y409791D01*
X446409Y409758D01*
X446546Y409729D01*
X446683Y409703D01*
X446821Y409681D01*
X446960Y409664D01*
X447099Y409650D01*
X447239Y409640D01*
X447378Y409634D01*
X447518Y409632D01*
X452456Y409632D01*
X436461Y415559D02*
X431522Y419510D01*
X431522Y401730D01*
X426584Y401730D02*
X436461Y401730D01*
X452468Y284320D02*
X452468Y266540D01*
X452468Y284320D02*
X447529Y284320D01*
X447389Y284318D01*
X447250Y284312D01*
X447110Y284302D01*
X446971Y284288D01*
X446832Y284271D01*
X446694Y284249D01*
X446557Y284223D01*
X446420Y284194D01*
X446284Y284161D01*
X446150Y284124D01*
X446016Y284083D01*
X445884Y284038D01*
X445752Y283989D01*
X445623Y283937D01*
X445495Y283882D01*
X445368Y283822D01*
X445243Y283759D01*
X445120Y283693D01*
X444999Y283623D01*
X444880Y283550D01*
X444763Y283473D01*
X444649Y283393D01*
X444536Y283310D01*
X444426Y283224D01*
X444319Y283134D01*
X444214Y283042D01*
X444112Y282947D01*
X444012Y282849D01*
X443915Y282748D01*
X443821Y282644D01*
X443731Y282538D01*
X443643Y282429D01*
X443558Y282318D01*
X443477Y282204D01*
X443398Y282089D01*
X443323Y281971D01*
X443252Y281851D01*
X443184Y281728D01*
X443119Y281605D01*
X443058Y281479D01*
X443000Y281351D01*
X442946Y281223D01*
X442896Y281092D01*
X442849Y280960D01*
X442806Y280827D01*
X442767Y280693D01*
X442732Y280558D01*
X442701Y280422D01*
X442673Y280284D01*
X442650Y280147D01*
X442630Y280008D01*
X442614Y279869D01*
X442602Y279730D01*
X442594Y279591D01*
X442590Y279451D01*
X442590Y279311D01*
X442594Y279171D01*
X442602Y279032D01*
X442614Y278893D01*
X442630Y278754D01*
X442650Y278615D01*
X442673Y278478D01*
X442701Y278340D01*
X442732Y278204D01*
X442767Y278069D01*
X442806Y277935D01*
X442849Y277802D01*
X442896Y277670D01*
X442946Y277539D01*
X443000Y277411D01*
X443058Y277283D01*
X443119Y277157D01*
X443184Y277034D01*
X443252Y276912D01*
X443323Y276791D01*
X443398Y276673D01*
X443477Y276558D01*
X443558Y276444D01*
X443643Y276333D01*
X443731Y276224D01*
X443821Y276118D01*
X443915Y276014D01*
X444012Y275913D01*
X444112Y275815D01*
X444214Y275720D01*
X444319Y275628D01*
X444426Y275538D01*
X444536Y275452D01*
X444649Y275369D01*
X444763Y275289D01*
X444880Y275212D01*
X444999Y275139D01*
X445120Y275069D01*
X445243Y275003D01*
X445368Y274940D01*
X445495Y274880D01*
X445623Y274825D01*
X445752Y274773D01*
X445884Y274724D01*
X446016Y274679D01*
X446150Y274638D01*
X446284Y274601D01*
X446420Y274568D01*
X446557Y274539D01*
X446694Y274513D01*
X446832Y274491D01*
X446971Y274474D01*
X447110Y274460D01*
X447250Y274450D01*
X447389Y274444D01*
X447529Y274442D01*
X452468Y274442D01*
X431040Y284320D02*
X430908Y284318D01*
X430777Y284312D01*
X430645Y284302D01*
X430514Y284289D01*
X430384Y284271D01*
X430254Y284250D01*
X430124Y284225D01*
X429996Y284196D01*
X429868Y284163D01*
X429742Y284126D01*
X429616Y284086D01*
X429492Y284042D01*
X429369Y283994D01*
X429248Y283943D01*
X429128Y283888D01*
X429010Y283830D01*
X428894Y283768D01*
X428780Y283702D01*
X428667Y283634D01*
X428557Y283562D01*
X428449Y283487D01*
X428343Y283408D01*
X428239Y283327D01*
X428138Y283242D01*
X428040Y283155D01*
X427944Y283064D01*
X427851Y282971D01*
X427760Y282875D01*
X427673Y282777D01*
X427588Y282676D01*
X427507Y282572D01*
X427428Y282466D01*
X427353Y282358D01*
X427281Y282248D01*
X427213Y282135D01*
X427147Y282021D01*
X427085Y281905D01*
X427027Y281787D01*
X426972Y281667D01*
X426921Y281546D01*
X426873Y281423D01*
X426829Y281299D01*
X426789Y281173D01*
X426752Y281047D01*
X426719Y280919D01*
X426690Y280791D01*
X426665Y280661D01*
X426644Y280531D01*
X426626Y280401D01*
X426613Y280270D01*
X426603Y280138D01*
X426597Y280007D01*
X426595Y279875D01*
X431040Y284320D02*
X431190Y284318D01*
X431339Y284312D01*
X431488Y284302D01*
X431637Y284289D01*
X431786Y284271D01*
X431934Y284250D01*
X432082Y284224D01*
X432228Y284195D01*
X432374Y284162D01*
X432519Y284125D01*
X432663Y284084D01*
X432806Y284040D01*
X432948Y283992D01*
X433088Y283940D01*
X433227Y283885D01*
X433365Y283826D01*
X433500Y283763D01*
X433635Y283697D01*
X433767Y283627D01*
X433897Y283554D01*
X434026Y283477D01*
X434153Y283397D01*
X434277Y283314D01*
X434399Y283228D01*
X434519Y283138D01*
X434636Y283045D01*
X434751Y282950D01*
X434864Y282851D01*
X434974Y282749D01*
X435081Y282645D01*
X435185Y282538D01*
X435287Y282428D01*
X435385Y282315D01*
X435481Y282200D01*
X435573Y282082D01*
X435663Y281962D01*
X435749Y281840D01*
X435832Y281716D01*
X435912Y281589D01*
X435988Y281461D01*
X436061Y281330D01*
X436131Y281197D01*
X436197Y281063D01*
X436259Y280927D01*
X436318Y280790D01*
X436374Y280651D01*
X436425Y280510D01*
X436473Y280369D01*
X428077Y276418D02*
X427981Y276511D01*
X427889Y276607D01*
X427799Y276706D01*
X427712Y276807D01*
X427628Y276910D01*
X427546Y277015D01*
X427468Y277123D01*
X427393Y277233D01*
X427320Y277345D01*
X427251Y277459D01*
X427185Y277575D01*
X427123Y277693D01*
X427064Y277812D01*
X427008Y277933D01*
X426955Y278056D01*
X426906Y278180D01*
X426861Y278305D01*
X426818Y278432D01*
X426780Y278559D01*
X426745Y278688D01*
X426714Y278817D01*
X426686Y278948D01*
X426662Y279079D01*
X426641Y279211D01*
X426625Y279343D01*
X426612Y279476D01*
X426602Y279609D01*
X426597Y279742D01*
X426595Y279875D01*
X428077Y276418D02*
X436473Y266540D01*
X426595Y266540D01*
X414225Y273454D02*
X414225Y279381D01*
X414225Y273454D02*
X410768Y269009D01*
X414225Y273454D02*
X417682Y269009D01*
X414225Y273454D02*
X408792Y275430D01*
X414225Y273454D02*
X419658Y275430D01*
X268356Y283050D02*
X268356Y265270D01*
X268356Y283050D02*
X263418Y283050D01*
X263278Y283048D01*
X263139Y283042D01*
X262999Y283032D01*
X262860Y283018D01*
X262721Y283001D01*
X262583Y282979D01*
X262446Y282953D01*
X262309Y282924D01*
X262173Y282891D01*
X262039Y282854D01*
X261905Y282813D01*
X261773Y282768D01*
X261641Y282719D01*
X261512Y282667D01*
X261384Y282612D01*
X261257Y282552D01*
X261132Y282489D01*
X261009Y282423D01*
X260888Y282353D01*
X260769Y282280D01*
X260652Y282203D01*
X260538Y282123D01*
X260425Y282040D01*
X260315Y281954D01*
X260208Y281864D01*
X260103Y281772D01*
X260001Y281677D01*
X259901Y281579D01*
X259804Y281478D01*
X259710Y281374D01*
X259620Y281268D01*
X259532Y281159D01*
X259447Y281048D01*
X259366Y280934D01*
X259287Y280819D01*
X259212Y280701D01*
X259141Y280581D01*
X259073Y280458D01*
X259008Y280335D01*
X258947Y280209D01*
X258889Y280081D01*
X258835Y279953D01*
X258785Y279822D01*
X258738Y279690D01*
X258695Y279557D01*
X258656Y279423D01*
X258621Y279288D01*
X258590Y279152D01*
X258562Y279014D01*
X258539Y278877D01*
X258519Y278738D01*
X258503Y278599D01*
X258491Y278460D01*
X258483Y278321D01*
X258479Y278181D01*
X258479Y278041D01*
X258483Y277901D01*
X258491Y277762D01*
X258503Y277623D01*
X258519Y277484D01*
X258539Y277345D01*
X258562Y277208D01*
X258590Y277070D01*
X258621Y276934D01*
X258656Y276799D01*
X258695Y276665D01*
X258738Y276532D01*
X258785Y276400D01*
X258835Y276269D01*
X258889Y276141D01*
X258947Y276013D01*
X259008Y275887D01*
X259073Y275764D01*
X259141Y275642D01*
X259212Y275521D01*
X259287Y275403D01*
X259366Y275288D01*
X259447Y275174D01*
X259532Y275063D01*
X259620Y274954D01*
X259710Y274848D01*
X259804Y274744D01*
X259901Y274643D01*
X260001Y274545D01*
X260103Y274450D01*
X260208Y274358D01*
X260315Y274268D01*
X260425Y274182D01*
X260538Y274099D01*
X260652Y274019D01*
X260769Y273942D01*
X260888Y273869D01*
X261009Y273799D01*
X261132Y273733D01*
X261257Y273670D01*
X261384Y273610D01*
X261512Y273555D01*
X261641Y273503D01*
X261773Y273454D01*
X261905Y273409D01*
X262039Y273368D01*
X262173Y273331D01*
X262309Y273298D01*
X262446Y273269D01*
X262583Y273243D01*
X262721Y273221D01*
X262860Y273204D01*
X262999Y273190D01*
X263139Y273180D01*
X263278Y273174D01*
X263418Y273172D01*
X268356Y273172D01*
X252361Y265270D02*
X247422Y265270D01*
X247282Y265272D01*
X247143Y265278D01*
X247003Y265288D01*
X246864Y265302D01*
X246725Y265319D01*
X246587Y265341D01*
X246450Y265367D01*
X246313Y265396D01*
X246177Y265429D01*
X246043Y265466D01*
X245909Y265507D01*
X245777Y265552D01*
X245645Y265601D01*
X245516Y265653D01*
X245388Y265708D01*
X245261Y265768D01*
X245136Y265831D01*
X245013Y265897D01*
X244892Y265967D01*
X244773Y266040D01*
X244656Y266117D01*
X244542Y266197D01*
X244429Y266280D01*
X244319Y266366D01*
X244212Y266456D01*
X244107Y266548D01*
X244005Y266643D01*
X243905Y266741D01*
X243808Y266842D01*
X243714Y266946D01*
X243624Y267052D01*
X243536Y267161D01*
X243451Y267272D01*
X243370Y267386D01*
X243291Y267501D01*
X243216Y267619D01*
X243145Y267740D01*
X243077Y267862D01*
X243012Y267985D01*
X242951Y268111D01*
X242893Y268239D01*
X242839Y268367D01*
X242789Y268498D01*
X242742Y268630D01*
X242699Y268763D01*
X242660Y268897D01*
X242625Y269032D01*
X242594Y269168D01*
X242566Y269306D01*
X242543Y269443D01*
X242523Y269582D01*
X242507Y269721D01*
X242495Y269860D01*
X242487Y269999D01*
X242483Y270139D01*
X242483Y270279D01*
X242487Y270419D01*
X242495Y270558D01*
X242507Y270697D01*
X242523Y270836D01*
X242543Y270975D01*
X242566Y271112D01*
X242594Y271250D01*
X242625Y271386D01*
X242660Y271521D01*
X242699Y271655D01*
X242742Y271788D01*
X242789Y271920D01*
X242839Y272051D01*
X242893Y272179D01*
X242951Y272307D01*
X243012Y272433D01*
X243077Y272556D01*
X243145Y272679D01*
X243216Y272799D01*
X243291Y272917D01*
X243370Y273032D01*
X243451Y273146D01*
X243536Y273257D01*
X243624Y273366D01*
X243714Y273472D01*
X243808Y273576D01*
X243905Y273677D01*
X244005Y273775D01*
X244107Y273870D01*
X244212Y273962D01*
X244319Y274052D01*
X244429Y274138D01*
X244542Y274221D01*
X244656Y274301D01*
X244773Y274378D01*
X244892Y274451D01*
X245013Y274521D01*
X245136Y274587D01*
X245261Y274650D01*
X245388Y274710D01*
X245516Y274765D01*
X245645Y274817D01*
X245777Y274866D01*
X245909Y274911D01*
X246043Y274952D01*
X246177Y274989D01*
X246313Y275022D01*
X246450Y275051D01*
X246587Y275077D01*
X246725Y275099D01*
X246864Y275116D01*
X247003Y275130D01*
X247143Y275140D01*
X247282Y275146D01*
X247422Y275148D01*
X246435Y283050D02*
X252361Y283050D01*
X246435Y283050D02*
X246311Y283048D01*
X246187Y283042D01*
X246063Y283032D01*
X245940Y283019D01*
X245817Y283001D01*
X245695Y282980D01*
X245573Y282955D01*
X245452Y282926D01*
X245333Y282893D01*
X245214Y282857D01*
X245097Y282816D01*
X244981Y282773D01*
X244866Y282725D01*
X244753Y282674D01*
X244641Y282619D01*
X244532Y282561D01*
X244424Y282500D01*
X244318Y282435D01*
X244214Y282367D01*
X244113Y282295D01*
X244013Y282221D01*
X243917Y282143D01*
X243822Y282063D01*
X243730Y281979D01*
X243641Y281893D01*
X243555Y281804D01*
X243471Y281712D01*
X243391Y281617D01*
X243313Y281521D01*
X243239Y281421D01*
X243167Y281320D01*
X243099Y281216D01*
X243034Y281110D01*
X242973Y281002D01*
X242915Y280893D01*
X242860Y280781D01*
X242809Y280668D01*
X242761Y280553D01*
X242718Y280437D01*
X242677Y280320D01*
X242641Y280201D01*
X242608Y280082D01*
X242579Y279961D01*
X242554Y279839D01*
X242533Y279717D01*
X242515Y279594D01*
X242502Y279471D01*
X242492Y279347D01*
X242486Y279223D01*
X242484Y279099D01*
X242486Y278975D01*
X242492Y278851D01*
X242502Y278727D01*
X242515Y278604D01*
X242533Y278481D01*
X242554Y278359D01*
X242579Y278237D01*
X242608Y278116D01*
X242641Y277997D01*
X242677Y277878D01*
X242718Y277761D01*
X242761Y277645D01*
X242809Y277530D01*
X242860Y277417D01*
X242915Y277305D01*
X242973Y277196D01*
X243034Y277088D01*
X243099Y276982D01*
X243167Y276878D01*
X243239Y276777D01*
X243313Y276677D01*
X243391Y276581D01*
X243471Y276486D01*
X243555Y276394D01*
X243641Y276305D01*
X243730Y276219D01*
X243822Y276135D01*
X243917Y276055D01*
X244013Y275977D01*
X244113Y275903D01*
X244214Y275831D01*
X244318Y275763D01*
X244424Y275698D01*
X244532Y275637D01*
X244641Y275579D01*
X244753Y275524D01*
X244866Y275473D01*
X244981Y275425D01*
X245097Y275382D01*
X245214Y275341D01*
X245333Y275305D01*
X245452Y275272D01*
X245573Y275243D01*
X245695Y275218D01*
X245817Y275197D01*
X245940Y275179D01*
X246063Y275166D01*
X246187Y275156D01*
X246311Y275150D01*
X246435Y275148D01*
X250386Y275148D01*
X258208Y385220D02*
X258208Y403000D01*
X253269Y403000D01*
X253129Y402998D01*
X252990Y402992D01*
X252850Y402982D01*
X252711Y402968D01*
X252572Y402951D01*
X252434Y402929D01*
X252297Y402903D01*
X252160Y402874D01*
X252024Y402841D01*
X251890Y402804D01*
X251756Y402763D01*
X251624Y402718D01*
X251492Y402669D01*
X251363Y402617D01*
X251235Y402562D01*
X251108Y402502D01*
X250983Y402439D01*
X250860Y402373D01*
X250739Y402303D01*
X250620Y402230D01*
X250503Y402153D01*
X250389Y402073D01*
X250276Y401990D01*
X250166Y401904D01*
X250059Y401814D01*
X249954Y401722D01*
X249852Y401627D01*
X249752Y401529D01*
X249655Y401428D01*
X249561Y401324D01*
X249471Y401218D01*
X249383Y401109D01*
X249298Y400998D01*
X249217Y400884D01*
X249138Y400769D01*
X249063Y400651D01*
X248992Y400531D01*
X248924Y400408D01*
X248859Y400285D01*
X248798Y400159D01*
X248740Y400031D01*
X248686Y399903D01*
X248636Y399772D01*
X248589Y399640D01*
X248546Y399507D01*
X248507Y399373D01*
X248472Y399238D01*
X248441Y399102D01*
X248413Y398964D01*
X248390Y398827D01*
X248370Y398688D01*
X248354Y398549D01*
X248342Y398410D01*
X248334Y398271D01*
X248330Y398131D01*
X248330Y397991D01*
X248334Y397851D01*
X248342Y397712D01*
X248354Y397573D01*
X248370Y397434D01*
X248390Y397295D01*
X248413Y397158D01*
X248441Y397020D01*
X248472Y396884D01*
X248507Y396749D01*
X248546Y396615D01*
X248589Y396482D01*
X248636Y396350D01*
X248686Y396219D01*
X248740Y396091D01*
X248798Y395963D01*
X248859Y395837D01*
X248924Y395714D01*
X248992Y395592D01*
X249063Y395471D01*
X249138Y395353D01*
X249217Y395238D01*
X249298Y395124D01*
X249383Y395013D01*
X249471Y394904D01*
X249561Y394798D01*
X249655Y394694D01*
X249752Y394593D01*
X249852Y394495D01*
X249954Y394400D01*
X250059Y394308D01*
X250166Y394218D01*
X250276Y394132D01*
X250389Y394049D01*
X250503Y393969D01*
X250620Y393892D01*
X250739Y393819D01*
X250860Y393749D01*
X250983Y393683D01*
X251108Y393620D01*
X251235Y393560D01*
X251363Y393505D01*
X251492Y393453D01*
X251624Y393404D01*
X251756Y393359D01*
X251890Y393318D01*
X252024Y393281D01*
X252160Y393248D01*
X252297Y393219D01*
X252434Y393193D01*
X252572Y393171D01*
X252711Y393154D01*
X252850Y393140D01*
X252990Y393130D01*
X253129Y393124D01*
X253269Y393122D01*
X258208Y393122D01*
X242213Y389171D02*
X238262Y403000D01*
X242213Y389171D02*
X232335Y389171D01*
X235298Y393122D02*
X235298Y385220D01*
X219965Y392134D02*
X219965Y398061D01*
X219965Y392134D02*
X216508Y387689D01*
X219965Y392134D02*
X223422Y387689D01*
X219965Y392134D02*
X214532Y394110D01*
X219965Y392134D02*
X225398Y394110D01*
X393575Y427243D02*
X393575Y445023D01*
X393575Y437121D02*
X383698Y437121D01*
X383698Y445023D02*
X383698Y427243D01*
X376267Y441072D02*
X371328Y445023D01*
X371328Y427243D01*
X376267Y427243D02*
X366389Y427243D01*
X359516Y427243D02*
X353589Y427243D01*
X353465Y427245D01*
X353341Y427251D01*
X353217Y427261D01*
X353094Y427274D01*
X352971Y427292D01*
X352849Y427313D01*
X352727Y427338D01*
X352606Y427367D01*
X352487Y427400D01*
X352368Y427436D01*
X352251Y427477D01*
X352135Y427520D01*
X352020Y427568D01*
X351907Y427619D01*
X351795Y427674D01*
X351686Y427732D01*
X351578Y427793D01*
X351472Y427858D01*
X351368Y427926D01*
X351267Y427998D01*
X351167Y428072D01*
X351071Y428150D01*
X350976Y428230D01*
X350884Y428314D01*
X350795Y428400D01*
X350709Y428489D01*
X350625Y428581D01*
X350545Y428676D01*
X350467Y428772D01*
X350393Y428872D01*
X350321Y428973D01*
X350253Y429077D01*
X350188Y429183D01*
X350127Y429291D01*
X350069Y429400D01*
X350014Y429512D01*
X349963Y429625D01*
X349915Y429740D01*
X349872Y429856D01*
X349831Y429973D01*
X349795Y430092D01*
X349762Y430211D01*
X349733Y430332D01*
X349708Y430454D01*
X349687Y430576D01*
X349669Y430699D01*
X349656Y430822D01*
X349646Y430946D01*
X349640Y431070D01*
X349638Y431194D01*
X349638Y433170D01*
X349640Y433294D01*
X349646Y433418D01*
X349656Y433542D01*
X349669Y433665D01*
X349687Y433788D01*
X349708Y433910D01*
X349733Y434032D01*
X349762Y434153D01*
X349795Y434272D01*
X349831Y434391D01*
X349872Y434508D01*
X349915Y434624D01*
X349963Y434739D01*
X350014Y434852D01*
X350069Y434964D01*
X350127Y435073D01*
X350188Y435181D01*
X350253Y435287D01*
X350321Y435391D01*
X350393Y435492D01*
X350467Y435592D01*
X350545Y435688D01*
X350625Y435783D01*
X350709Y435875D01*
X350795Y435964D01*
X350884Y436050D01*
X350976Y436134D01*
X351071Y436214D01*
X351167Y436292D01*
X351267Y436366D01*
X351368Y436438D01*
X351472Y436506D01*
X351578Y436571D01*
X351686Y436632D01*
X351795Y436690D01*
X351907Y436745D01*
X352020Y436796D01*
X352135Y436844D01*
X352251Y436887D01*
X352368Y436928D01*
X352487Y436964D01*
X352606Y436997D01*
X352727Y437026D01*
X352849Y437051D01*
X352971Y437072D01*
X353094Y437090D01*
X353217Y437103D01*
X353341Y437113D01*
X353465Y437119D01*
X353589Y437121D01*
X359516Y437121D01*
X359516Y445023D01*
X349638Y445023D01*
X342122Y445023D02*
X342122Y427243D01*
X342122Y445023D02*
X337183Y445023D01*
X337043Y445021D01*
X336904Y445015D01*
X336764Y445005D01*
X336625Y444991D01*
X336486Y444974D01*
X336348Y444952D01*
X336211Y444926D01*
X336074Y444897D01*
X335938Y444864D01*
X335804Y444827D01*
X335670Y444786D01*
X335538Y444741D01*
X335406Y444692D01*
X335277Y444640D01*
X335149Y444585D01*
X335022Y444525D01*
X334897Y444462D01*
X334774Y444396D01*
X334653Y444326D01*
X334534Y444253D01*
X334417Y444176D01*
X334303Y444096D01*
X334190Y444013D01*
X334080Y443927D01*
X333973Y443837D01*
X333868Y443745D01*
X333766Y443650D01*
X333666Y443552D01*
X333569Y443451D01*
X333475Y443347D01*
X333385Y443241D01*
X333297Y443132D01*
X333212Y443021D01*
X333131Y442907D01*
X333052Y442792D01*
X332977Y442674D01*
X332906Y442554D01*
X332838Y442431D01*
X332773Y442308D01*
X332712Y442182D01*
X332654Y442054D01*
X332600Y441926D01*
X332550Y441795D01*
X332503Y441663D01*
X332460Y441530D01*
X332421Y441396D01*
X332386Y441261D01*
X332355Y441125D01*
X332327Y440987D01*
X332304Y440850D01*
X332284Y440711D01*
X332268Y440572D01*
X332256Y440433D01*
X332248Y440294D01*
X332244Y440154D01*
X332244Y440014D01*
X332248Y439874D01*
X332256Y439735D01*
X332268Y439596D01*
X332284Y439457D01*
X332304Y439318D01*
X332327Y439181D01*
X332355Y439043D01*
X332386Y438907D01*
X332421Y438772D01*
X332460Y438638D01*
X332503Y438505D01*
X332550Y438373D01*
X332600Y438242D01*
X332654Y438114D01*
X332712Y437986D01*
X332773Y437860D01*
X332838Y437737D01*
X332906Y437615D01*
X332977Y437494D01*
X333052Y437376D01*
X333131Y437261D01*
X333212Y437147D01*
X333297Y437036D01*
X333385Y436927D01*
X333475Y436821D01*
X333569Y436717D01*
X333666Y436616D01*
X333766Y436518D01*
X333868Y436423D01*
X333973Y436331D01*
X334080Y436241D01*
X334190Y436155D01*
X334303Y436072D01*
X334417Y435992D01*
X334534Y435915D01*
X334653Y435842D01*
X334774Y435772D01*
X334897Y435706D01*
X335022Y435643D01*
X335149Y435583D01*
X335277Y435528D01*
X335406Y435476D01*
X335538Y435427D01*
X335670Y435382D01*
X335804Y435341D01*
X335938Y435304D01*
X336074Y435271D01*
X336211Y435242D01*
X336348Y435216D01*
X336486Y435194D01*
X336625Y435177D01*
X336764Y435163D01*
X336904Y435153D01*
X337043Y435147D01*
X337183Y435145D01*
X342122Y435145D01*
X336195Y435145D02*
X332244Y427243D01*
X325457Y432182D02*
X325455Y432322D01*
X325449Y432461D01*
X325439Y432601D01*
X325425Y432740D01*
X325408Y432879D01*
X325386Y433017D01*
X325360Y433154D01*
X325331Y433291D01*
X325298Y433427D01*
X325261Y433561D01*
X325220Y433695D01*
X325175Y433827D01*
X325126Y433959D01*
X325074Y434088D01*
X325019Y434216D01*
X324959Y434343D01*
X324896Y434468D01*
X324830Y434591D01*
X324760Y434712D01*
X324687Y434831D01*
X324610Y434948D01*
X324530Y435062D01*
X324447Y435175D01*
X324361Y435285D01*
X324271Y435392D01*
X324179Y435497D01*
X324084Y435599D01*
X323986Y435699D01*
X323885Y435796D01*
X323781Y435890D01*
X323675Y435980D01*
X323566Y436068D01*
X323455Y436153D01*
X323341Y436234D01*
X323226Y436313D01*
X323108Y436388D01*
X322988Y436459D01*
X322865Y436527D01*
X322742Y436592D01*
X322616Y436653D01*
X322488Y436711D01*
X322360Y436765D01*
X322229Y436815D01*
X322097Y436862D01*
X321964Y436905D01*
X321830Y436944D01*
X321695Y436979D01*
X321559Y437010D01*
X321421Y437038D01*
X321284Y437061D01*
X321145Y437081D01*
X321006Y437097D01*
X320867Y437109D01*
X320728Y437117D01*
X320588Y437121D01*
X320448Y437121D01*
X320308Y437117D01*
X320169Y437109D01*
X320030Y437097D01*
X319891Y437081D01*
X319752Y437061D01*
X319615Y437038D01*
X319477Y437010D01*
X319341Y436979D01*
X319206Y436944D01*
X319072Y436905D01*
X318939Y436862D01*
X318807Y436815D01*
X318676Y436765D01*
X318548Y436711D01*
X318420Y436653D01*
X318294Y436592D01*
X318171Y436527D01*
X318049Y436459D01*
X317928Y436388D01*
X317810Y436313D01*
X317695Y436234D01*
X317581Y436153D01*
X317470Y436068D01*
X317361Y435980D01*
X317255Y435890D01*
X317151Y435796D01*
X317050Y435699D01*
X316952Y435599D01*
X316857Y435497D01*
X316765Y435392D01*
X316675Y435285D01*
X316589Y435175D01*
X316506Y435062D01*
X316426Y434948D01*
X316349Y434831D01*
X316276Y434712D01*
X316206Y434591D01*
X316140Y434468D01*
X316077Y434343D01*
X316017Y434216D01*
X315962Y434088D01*
X315910Y433959D01*
X315861Y433827D01*
X315816Y433695D01*
X315775Y433561D01*
X315738Y433427D01*
X315705Y433291D01*
X315676Y433154D01*
X315650Y433017D01*
X315628Y432879D01*
X315611Y432740D01*
X315597Y432601D01*
X315587Y432461D01*
X315581Y432322D01*
X315579Y432182D01*
X315581Y432042D01*
X315587Y431903D01*
X315597Y431763D01*
X315611Y431624D01*
X315628Y431485D01*
X315650Y431347D01*
X315676Y431210D01*
X315705Y431073D01*
X315738Y430937D01*
X315775Y430803D01*
X315816Y430669D01*
X315861Y430537D01*
X315910Y430405D01*
X315962Y430276D01*
X316017Y430148D01*
X316077Y430021D01*
X316140Y429896D01*
X316206Y429773D01*
X316276Y429652D01*
X316349Y429533D01*
X316426Y429416D01*
X316506Y429302D01*
X316589Y429189D01*
X316675Y429079D01*
X316765Y428972D01*
X316857Y428867D01*
X316952Y428765D01*
X317050Y428665D01*
X317151Y428568D01*
X317255Y428474D01*
X317361Y428384D01*
X317470Y428296D01*
X317581Y428211D01*
X317695Y428130D01*
X317810Y428051D01*
X317928Y427976D01*
X318049Y427905D01*
X318171Y427837D01*
X318294Y427772D01*
X318420Y427711D01*
X318548Y427653D01*
X318676Y427599D01*
X318807Y427549D01*
X318939Y427502D01*
X319072Y427459D01*
X319206Y427420D01*
X319341Y427385D01*
X319477Y427354D01*
X319615Y427326D01*
X319752Y427303D01*
X319891Y427283D01*
X320030Y427267D01*
X320169Y427255D01*
X320308Y427247D01*
X320448Y427243D01*
X320588Y427243D01*
X320728Y427247D01*
X320867Y427255D01*
X321006Y427267D01*
X321145Y427283D01*
X321284Y427303D01*
X321421Y427326D01*
X321559Y427354D01*
X321695Y427385D01*
X321830Y427420D01*
X321964Y427459D01*
X322097Y427502D01*
X322229Y427549D01*
X322360Y427599D01*
X322488Y427653D01*
X322616Y427711D01*
X322742Y427772D01*
X322865Y427837D01*
X322988Y427905D01*
X323108Y427976D01*
X323226Y428051D01*
X323341Y428130D01*
X323455Y428211D01*
X323566Y428296D01*
X323675Y428384D01*
X323781Y428474D01*
X323885Y428568D01*
X323986Y428665D01*
X324084Y428765D01*
X324179Y428867D01*
X324271Y428972D01*
X324361Y429079D01*
X324447Y429189D01*
X324530Y429302D01*
X324610Y429416D01*
X324687Y429533D01*
X324760Y429652D01*
X324830Y429773D01*
X324896Y429896D01*
X324959Y430021D01*
X325019Y430148D01*
X325074Y430276D01*
X325126Y430405D01*
X325175Y430537D01*
X325220Y430669D01*
X325261Y430803D01*
X325298Y430937D01*
X325331Y431073D01*
X325360Y431210D01*
X325386Y431347D01*
X325408Y431485D01*
X325425Y431624D01*
X325439Y431763D01*
X325449Y431903D01*
X325455Y432042D01*
X325457Y432182D01*
X324469Y441072D02*
X324467Y441196D01*
X324461Y441320D01*
X324451Y441444D01*
X324438Y441567D01*
X324420Y441690D01*
X324399Y441812D01*
X324374Y441934D01*
X324345Y442055D01*
X324312Y442174D01*
X324276Y442293D01*
X324235Y442410D01*
X324192Y442526D01*
X324144Y442641D01*
X324093Y442754D01*
X324038Y442866D01*
X323980Y442975D01*
X323919Y443083D01*
X323854Y443189D01*
X323786Y443293D01*
X323714Y443394D01*
X323640Y443494D01*
X323562Y443590D01*
X323482Y443685D01*
X323398Y443777D01*
X323312Y443866D01*
X323223Y443952D01*
X323131Y444036D01*
X323036Y444116D01*
X322940Y444194D01*
X322840Y444268D01*
X322739Y444340D01*
X322635Y444408D01*
X322529Y444473D01*
X322421Y444534D01*
X322312Y444592D01*
X322200Y444647D01*
X322087Y444698D01*
X321972Y444746D01*
X321856Y444789D01*
X321739Y444830D01*
X321620Y444866D01*
X321501Y444899D01*
X321380Y444928D01*
X321258Y444953D01*
X321136Y444974D01*
X321013Y444992D01*
X320890Y445005D01*
X320766Y445015D01*
X320642Y445021D01*
X320518Y445023D01*
X320394Y445021D01*
X320270Y445015D01*
X320146Y445005D01*
X320023Y444992D01*
X319900Y444974D01*
X319778Y444953D01*
X319656Y444928D01*
X319535Y444899D01*
X319416Y444866D01*
X319297Y444830D01*
X319180Y444789D01*
X319064Y444746D01*
X318949Y444698D01*
X318836Y444647D01*
X318724Y444592D01*
X318615Y444534D01*
X318507Y444473D01*
X318401Y444408D01*
X318297Y444340D01*
X318196Y444268D01*
X318096Y444194D01*
X318000Y444116D01*
X317905Y444036D01*
X317813Y443952D01*
X317724Y443866D01*
X317638Y443777D01*
X317554Y443685D01*
X317474Y443590D01*
X317396Y443494D01*
X317322Y443394D01*
X317250Y443293D01*
X317182Y443189D01*
X317117Y443083D01*
X317056Y442975D01*
X316998Y442866D01*
X316943Y442754D01*
X316892Y442641D01*
X316844Y442526D01*
X316801Y442410D01*
X316760Y442293D01*
X316724Y442174D01*
X316691Y442055D01*
X316662Y441934D01*
X316637Y441812D01*
X316616Y441690D01*
X316598Y441567D01*
X316585Y441444D01*
X316575Y441320D01*
X316569Y441196D01*
X316567Y441072D01*
X316569Y440948D01*
X316575Y440824D01*
X316585Y440700D01*
X316598Y440577D01*
X316616Y440454D01*
X316637Y440332D01*
X316662Y440210D01*
X316691Y440089D01*
X316724Y439970D01*
X316760Y439851D01*
X316801Y439734D01*
X316844Y439618D01*
X316892Y439503D01*
X316943Y439390D01*
X316998Y439278D01*
X317056Y439169D01*
X317117Y439061D01*
X317182Y438955D01*
X317250Y438851D01*
X317322Y438750D01*
X317396Y438650D01*
X317474Y438554D01*
X317554Y438459D01*
X317638Y438367D01*
X317724Y438278D01*
X317813Y438192D01*
X317905Y438108D01*
X318000Y438028D01*
X318096Y437950D01*
X318196Y437876D01*
X318297Y437804D01*
X318401Y437736D01*
X318507Y437671D01*
X318615Y437610D01*
X318724Y437552D01*
X318836Y437497D01*
X318949Y437446D01*
X319064Y437398D01*
X319180Y437355D01*
X319297Y437314D01*
X319416Y437278D01*
X319535Y437245D01*
X319656Y437216D01*
X319778Y437191D01*
X319900Y437170D01*
X320023Y437152D01*
X320146Y437139D01*
X320270Y437129D01*
X320394Y437123D01*
X320518Y437121D01*
X320642Y437123D01*
X320766Y437129D01*
X320890Y437139D01*
X321013Y437152D01*
X321136Y437170D01*
X321258Y437191D01*
X321380Y437216D01*
X321501Y437245D01*
X321620Y437278D01*
X321739Y437314D01*
X321856Y437355D01*
X321972Y437398D01*
X322087Y437446D01*
X322200Y437497D01*
X322312Y437552D01*
X322421Y437610D01*
X322529Y437671D01*
X322635Y437736D01*
X322739Y437804D01*
X322840Y437876D01*
X322940Y437950D01*
X323036Y438028D01*
X323131Y438108D01*
X323223Y438192D01*
X323312Y438278D01*
X323398Y438367D01*
X323482Y438459D01*
X323562Y438554D01*
X323640Y438650D01*
X323714Y438750D01*
X323786Y438851D01*
X323854Y438955D01*
X323919Y439061D01*
X323980Y439169D01*
X324038Y439278D01*
X324093Y439390D01*
X324144Y439503D01*
X324192Y439618D01*
X324235Y439734D01*
X324276Y439851D01*
X324312Y439970D01*
X324345Y440089D01*
X324374Y440210D01*
X324399Y440332D01*
X324420Y440454D01*
X324438Y440577D01*
X324451Y440700D01*
X324461Y440824D01*
X324467Y440948D01*
X324469Y441072D01*
X308706Y436133D02*
X308702Y436483D01*
X308689Y436832D01*
X308668Y437181D01*
X308639Y437530D01*
X308602Y437878D01*
X308556Y438225D01*
X308502Y438570D01*
X308440Y438914D01*
X308369Y439257D01*
X308290Y439598D01*
X308204Y439937D01*
X308109Y440273D01*
X308006Y440608D01*
X307895Y440939D01*
X307777Y441269D01*
X307650Y441595D01*
X307516Y441918D01*
X307374Y442237D01*
X307224Y442554D01*
X307225Y442554D02*
X307185Y442667D01*
X307141Y442777D01*
X307093Y442887D01*
X307042Y442994D01*
X306987Y443100D01*
X306929Y443205D01*
X306867Y443307D01*
X306802Y443407D01*
X306734Y443505D01*
X306663Y443601D01*
X306588Y443694D01*
X306511Y443785D01*
X306431Y443873D01*
X306348Y443958D01*
X306262Y444041D01*
X306173Y444121D01*
X306082Y444198D01*
X305988Y444272D01*
X305892Y444343D01*
X305794Y444411D01*
X305694Y444475D01*
X305591Y444537D01*
X305487Y444594D01*
X305381Y444649D01*
X305273Y444700D01*
X305163Y444747D01*
X305052Y444791D01*
X304940Y444831D01*
X304826Y444867D01*
X304712Y444900D01*
X304596Y444929D01*
X304479Y444954D01*
X304362Y444975D01*
X304244Y444993D01*
X304125Y445006D01*
X304006Y445016D01*
X303887Y445022D01*
X303768Y445024D01*
X303768Y445023D02*
X303649Y445021D01*
X303530Y445015D01*
X303411Y445005D01*
X303292Y444992D01*
X303174Y444974D01*
X303057Y444953D01*
X302940Y444928D01*
X302824Y444899D01*
X302710Y444866D01*
X302596Y444830D01*
X302484Y444790D01*
X302373Y444746D01*
X302263Y444699D01*
X302155Y444648D01*
X302049Y444593D01*
X301945Y444536D01*
X301842Y444474D01*
X301742Y444410D01*
X301644Y444342D01*
X301548Y444271D01*
X301454Y444197D01*
X301363Y444120D01*
X301274Y444040D01*
X301189Y443957D01*
X301105Y443872D01*
X301025Y443784D01*
X300948Y443693D01*
X300873Y443600D01*
X300802Y443504D01*
X300734Y443406D01*
X300669Y443306D01*
X300607Y443204D01*
X300549Y443099D01*
X300494Y442994D01*
X300443Y442886D01*
X300395Y442776D01*
X300351Y442666D01*
X300311Y442553D01*
X300311Y442554D02*
X300161Y442237D01*
X300019Y441918D01*
X299885Y441595D01*
X299758Y441269D01*
X299640Y440939D01*
X299529Y440608D01*
X299426Y440273D01*
X299331Y439937D01*
X299245Y439598D01*
X299166Y439257D01*
X299095Y438914D01*
X299033Y438570D01*
X298979Y438225D01*
X298933Y437878D01*
X298896Y437530D01*
X298867Y437181D01*
X298846Y436832D01*
X298833Y436483D01*
X298829Y436133D01*
X308706Y436133D02*
X308702Y435783D01*
X308689Y435434D01*
X308668Y435085D01*
X308639Y434736D01*
X308602Y434388D01*
X308556Y434041D01*
X308502Y433696D01*
X308440Y433352D01*
X308369Y433009D01*
X308290Y432668D01*
X308204Y432329D01*
X308109Y431993D01*
X308006Y431658D01*
X307895Y431327D01*
X307777Y430998D01*
X307650Y430671D01*
X307516Y430348D01*
X307374Y430029D01*
X307224Y429713D01*
X307225Y429713D02*
X307185Y429600D01*
X307141Y429490D01*
X307093Y429380D01*
X307042Y429273D01*
X306987Y429167D01*
X306929Y429062D01*
X306867Y428960D01*
X306802Y428860D01*
X306734Y428762D01*
X306663Y428666D01*
X306588Y428573D01*
X306511Y428482D01*
X306431Y428394D01*
X306348Y428309D01*
X306262Y428226D01*
X306173Y428146D01*
X306082Y428069D01*
X305988Y427995D01*
X305892Y427924D01*
X305794Y427856D01*
X305694Y427792D01*
X305591Y427730D01*
X305487Y427673D01*
X305381Y427618D01*
X305273Y427567D01*
X305163Y427520D01*
X305052Y427476D01*
X304940Y427436D01*
X304826Y427400D01*
X304712Y427367D01*
X304596Y427338D01*
X304479Y427313D01*
X304362Y427292D01*
X304244Y427274D01*
X304125Y427261D01*
X304006Y427251D01*
X303887Y427245D01*
X303768Y427243D01*
X300311Y429713D02*
X300161Y430029D01*
X300019Y430348D01*
X299885Y430671D01*
X299758Y430998D01*
X299640Y431327D01*
X299529Y431658D01*
X299426Y431993D01*
X299331Y432329D01*
X299245Y432668D01*
X299166Y433009D01*
X299095Y433352D01*
X299033Y433696D01*
X298979Y434041D01*
X298933Y434388D01*
X298896Y434736D01*
X298867Y435085D01*
X298846Y435434D01*
X298833Y435783D01*
X298829Y436133D01*
X300311Y429713D02*
X300351Y429600D01*
X300395Y429490D01*
X300443Y429380D01*
X300494Y429272D01*
X300549Y429166D01*
X300607Y429062D01*
X300669Y428960D01*
X300734Y428860D01*
X300802Y428762D01*
X300873Y428666D01*
X300948Y428573D01*
X301025Y428482D01*
X301105Y428394D01*
X301189Y428309D01*
X301274Y428226D01*
X301363Y428146D01*
X301454Y428069D01*
X301548Y427995D01*
X301644Y427924D01*
X301742Y427856D01*
X301842Y427792D01*
X301945Y427730D01*
X302049Y427672D01*
X302155Y427618D01*
X302263Y427567D01*
X302373Y427520D01*
X302484Y427476D01*
X302596Y427436D01*
X302710Y427400D01*
X302824Y427367D01*
X302940Y427338D01*
X303057Y427313D01*
X303174Y427292D01*
X303292Y427274D01*
X303411Y427261D01*
X303530Y427251D01*
X303649Y427245D01*
X303768Y427243D01*
X307719Y431194D02*
X299816Y441072D01*
D11*
X387391Y475249D02*
X391793Y488457D01*
X382988Y488457D02*
X387391Y475249D01*
X378804Y473782D02*
X372934Y489925D01*
X366908Y488457D02*
X366908Y475249D01*
X365441Y475249D02*
X368376Y475249D01*
X368376Y488457D02*
X365441Y488457D01*
X360216Y480386D02*
X351411Y480386D01*
X355813Y484788D02*
X355813Y475983D01*
X336591Y475249D02*
X340993Y488457D01*
X332188Y488457D02*
X336591Y475249D01*
X328004Y473782D02*
X322134Y489925D01*
X316108Y488457D02*
X316108Y475249D01*
X314641Y475249D02*
X317576Y475249D01*
X317576Y488457D02*
X314641Y488457D01*
X309416Y480386D02*
X300611Y480386D01*
D12*
X309222Y250262D02*
X319551Y250262D01*
X302833Y256287D02*
X298529Y259730D01*
X298529Y244236D01*
X302833Y244236D02*
X294225Y244236D01*
X287967Y244236D02*
X282803Y244236D01*
X282688Y244238D01*
X282573Y244244D01*
X282458Y244253D01*
X282344Y244267D01*
X282230Y244284D01*
X282117Y244305D01*
X282005Y244330D01*
X281893Y244358D01*
X281783Y244391D01*
X281674Y244427D01*
X281566Y244466D01*
X281459Y244509D01*
X281354Y244556D01*
X281250Y244606D01*
X281148Y244660D01*
X281048Y244717D01*
X280950Y244777D01*
X280854Y244840D01*
X280761Y244907D01*
X280669Y244977D01*
X280580Y245050D01*
X280493Y245125D01*
X280409Y245204D01*
X280328Y245285D01*
X280249Y245369D01*
X280174Y245456D01*
X280101Y245545D01*
X280031Y245637D01*
X279964Y245730D01*
X279901Y245826D01*
X279841Y245924D01*
X279784Y246024D01*
X279730Y246126D01*
X279680Y246230D01*
X279633Y246335D01*
X279590Y246442D01*
X279551Y246550D01*
X279515Y246659D01*
X279482Y246769D01*
X279454Y246881D01*
X279429Y246993D01*
X279408Y247106D01*
X279391Y247220D01*
X279377Y247334D01*
X279368Y247449D01*
X279362Y247564D01*
X279360Y247679D01*
X279360Y249401D01*
X279362Y249516D01*
X279368Y249631D01*
X279377Y249746D01*
X279391Y249860D01*
X279408Y249974D01*
X279429Y250087D01*
X279454Y250199D01*
X279482Y250311D01*
X279515Y250421D01*
X279551Y250530D01*
X279590Y250638D01*
X279633Y250745D01*
X279680Y250850D01*
X279730Y250954D01*
X279784Y251056D01*
X279841Y251156D01*
X279901Y251254D01*
X279964Y251350D01*
X280031Y251443D01*
X280101Y251535D01*
X280174Y251624D01*
X280250Y251711D01*
X280328Y251795D01*
X280409Y251876D01*
X280494Y251955D01*
X280580Y252030D01*
X280669Y252103D01*
X280761Y252173D01*
X280854Y252240D01*
X280950Y252303D01*
X281048Y252363D01*
X281148Y252420D01*
X281250Y252474D01*
X281354Y252524D01*
X281459Y252571D01*
X281566Y252614D01*
X281674Y252654D01*
X281783Y252689D01*
X281893Y252722D01*
X282005Y252750D01*
X282117Y252775D01*
X282230Y252796D01*
X282344Y252813D01*
X282458Y252827D01*
X282573Y252836D01*
X282688Y252842D01*
X282803Y252844D01*
X287967Y252844D01*
X287967Y259730D01*
X279360Y259730D01*
X273962Y259730D02*
X268798Y244236D01*
X263633Y259730D01*
D11*
X356188Y255257D02*
X358389Y255257D01*
X356188Y255257D02*
X356188Y247919D01*
X360591Y247919D01*
X360698Y247921D01*
X360805Y247927D01*
X360912Y247937D01*
X361018Y247950D01*
X361124Y247968D01*
X361229Y247989D01*
X361333Y248014D01*
X361437Y248043D01*
X361539Y248076D01*
X361639Y248113D01*
X361739Y248153D01*
X361837Y248197D01*
X361933Y248244D01*
X362027Y248295D01*
X362120Y248349D01*
X362210Y248406D01*
X362299Y248467D01*
X362385Y248531D01*
X362468Y248598D01*
X362550Y248668D01*
X362628Y248741D01*
X362704Y248817D01*
X362777Y248895D01*
X362847Y248977D01*
X362914Y249060D01*
X362978Y249146D01*
X363039Y249235D01*
X363096Y249325D01*
X363150Y249418D01*
X363201Y249512D01*
X363249Y249608D01*
X363292Y249706D01*
X363332Y249806D01*
X363369Y249906D01*
X363402Y250008D01*
X363431Y250112D01*
X363456Y250216D01*
X363477Y250321D01*
X363495Y250427D01*
X363508Y250533D01*
X363518Y250640D01*
X363524Y250747D01*
X363526Y250854D01*
X363526Y258192D01*
X363524Y258299D01*
X363518Y258406D01*
X363508Y258513D01*
X363495Y258619D01*
X363477Y258725D01*
X363456Y258830D01*
X363431Y258934D01*
X363402Y259038D01*
X363369Y259140D01*
X363332Y259240D01*
X363292Y259340D01*
X363248Y259438D01*
X363201Y259534D01*
X363150Y259628D01*
X363096Y259721D01*
X363039Y259811D01*
X362978Y259900D01*
X362914Y259986D01*
X362847Y260069D01*
X362777Y260151D01*
X362704Y260229D01*
X362628Y260305D01*
X362550Y260378D01*
X362468Y260448D01*
X362385Y260515D01*
X362299Y260579D01*
X362210Y260640D01*
X362120Y260697D01*
X362027Y260751D01*
X361933Y260802D01*
X361837Y260849D01*
X361739Y260893D01*
X361640Y260933D01*
X361539Y260970D01*
X361437Y261003D01*
X361333Y261032D01*
X361229Y261057D01*
X361124Y261078D01*
X361018Y261096D01*
X360912Y261109D01*
X360805Y261119D01*
X360698Y261125D01*
X360591Y261127D01*
X356188Y261127D01*
X349871Y261127D02*
X349871Y247919D01*
X342533Y247919D02*
X349871Y261127D01*
X342533Y261127D02*
X342533Y247919D01*
X336216Y247919D02*
X336216Y261127D01*
X332547Y261127D01*
X332427Y261125D01*
X332307Y261119D01*
X332187Y261109D01*
X332068Y261096D01*
X331949Y261078D01*
X331831Y261057D01*
X331714Y261031D01*
X331597Y261002D01*
X331482Y260969D01*
X331368Y260932D01*
X331255Y260892D01*
X331143Y260848D01*
X331033Y260800D01*
X330924Y260749D01*
X330817Y260694D01*
X330713Y260635D01*
X330610Y260574D01*
X330509Y260509D01*
X330410Y260440D01*
X330313Y260369D01*
X330219Y260294D01*
X330128Y260217D01*
X330039Y260136D01*
X329953Y260052D01*
X329869Y259966D01*
X329788Y259877D01*
X329711Y259786D01*
X329636Y259692D01*
X329565Y259595D01*
X329496Y259496D01*
X329431Y259395D01*
X329370Y259293D01*
X329311Y259188D01*
X329256Y259081D01*
X329205Y258972D01*
X329157Y258862D01*
X329113Y258750D01*
X329073Y258637D01*
X329036Y258523D01*
X329003Y258408D01*
X328974Y258291D01*
X328948Y258174D01*
X328927Y258056D01*
X328909Y257937D01*
X328896Y257818D01*
X328886Y257698D01*
X328880Y257578D01*
X328878Y257458D01*
X328878Y251588D01*
X328880Y251468D01*
X328886Y251348D01*
X328896Y251228D01*
X328909Y251109D01*
X328927Y250990D01*
X328948Y250872D01*
X328974Y250755D01*
X329003Y250638D01*
X329036Y250523D01*
X329073Y250409D01*
X329113Y250296D01*
X329157Y250184D01*
X329205Y250074D01*
X329256Y249965D01*
X329311Y249858D01*
X329370Y249754D01*
X329431Y249651D01*
X329496Y249550D01*
X329565Y249451D01*
X329636Y249354D01*
X329711Y249260D01*
X329788Y249169D01*
X329869Y249080D01*
X329953Y248994D01*
X330039Y248910D01*
X330128Y248829D01*
X330219Y248752D01*
X330313Y248677D01*
X330410Y248606D01*
X330509Y248537D01*
X330610Y248472D01*
X330713Y248411D01*
X330817Y248352D01*
X330924Y248297D01*
X331033Y248246D01*
X331143Y248198D01*
X331255Y248154D01*
X331368Y248114D01*
X331482Y248077D01*
X331597Y248044D01*
X331714Y248015D01*
X331831Y247989D01*
X331949Y247968D01*
X332068Y247950D01*
X332187Y247937D01*
X332307Y247927D01*
X332427Y247921D01*
X332547Y247919D01*
X336216Y247919D01*
D12*
X420982Y251532D02*
X431311Y251532D01*
X426146Y256696D02*
X426146Y246367D01*
X414593Y257557D02*
X410289Y261000D01*
X410289Y245506D01*
X414593Y245506D02*
X405985Y245506D01*
X399727Y245506D02*
X394563Y245506D01*
X394448Y245508D01*
X394333Y245514D01*
X394218Y245523D01*
X394104Y245537D01*
X393990Y245554D01*
X393877Y245575D01*
X393765Y245600D01*
X393653Y245628D01*
X393543Y245661D01*
X393434Y245697D01*
X393326Y245736D01*
X393219Y245779D01*
X393114Y245826D01*
X393010Y245876D01*
X392908Y245930D01*
X392808Y245987D01*
X392710Y246047D01*
X392614Y246110D01*
X392521Y246177D01*
X392429Y246247D01*
X392340Y246320D01*
X392253Y246395D01*
X392169Y246474D01*
X392088Y246555D01*
X392009Y246639D01*
X391934Y246726D01*
X391861Y246815D01*
X391791Y246907D01*
X391724Y247000D01*
X391661Y247096D01*
X391601Y247194D01*
X391544Y247294D01*
X391490Y247396D01*
X391440Y247500D01*
X391393Y247605D01*
X391350Y247712D01*
X391311Y247820D01*
X391275Y247929D01*
X391242Y248039D01*
X391214Y248151D01*
X391189Y248263D01*
X391168Y248376D01*
X391151Y248490D01*
X391137Y248604D01*
X391128Y248719D01*
X391122Y248834D01*
X391120Y248949D01*
X391120Y250671D01*
X391122Y250786D01*
X391128Y250901D01*
X391137Y251016D01*
X391151Y251130D01*
X391168Y251244D01*
X391189Y251357D01*
X391214Y251469D01*
X391242Y251581D01*
X391275Y251691D01*
X391311Y251800D01*
X391350Y251908D01*
X391393Y252015D01*
X391440Y252120D01*
X391490Y252224D01*
X391544Y252326D01*
X391601Y252426D01*
X391661Y252524D01*
X391724Y252620D01*
X391791Y252713D01*
X391861Y252805D01*
X391934Y252894D01*
X392010Y252981D01*
X392088Y253065D01*
X392169Y253146D01*
X392254Y253225D01*
X392340Y253300D01*
X392429Y253373D01*
X392521Y253443D01*
X392614Y253510D01*
X392710Y253573D01*
X392808Y253633D01*
X392908Y253690D01*
X393010Y253744D01*
X393114Y253794D01*
X393219Y253841D01*
X393326Y253884D01*
X393434Y253924D01*
X393543Y253959D01*
X393653Y253992D01*
X393765Y254020D01*
X393877Y254045D01*
X393990Y254066D01*
X394104Y254083D01*
X394218Y254097D01*
X394333Y254106D01*
X394448Y254112D01*
X394563Y254114D01*
X399727Y254114D01*
X399727Y261000D01*
X391120Y261000D01*
X385722Y261000D02*
X380558Y245506D01*
X375393Y261000D01*
D13*
X441093Y372254D02*
X441093Y374342D01*
X441094Y372254D02*
X441096Y372165D01*
X441102Y372077D01*
X441111Y371989D01*
X441124Y371901D01*
X441141Y371814D01*
X441161Y371728D01*
X441186Y371643D01*
X441213Y371558D01*
X441245Y371475D01*
X441279Y371394D01*
X441318Y371314D01*
X441359Y371236D01*
X441404Y371159D01*
X441452Y371085D01*
X441503Y371012D01*
X441557Y370942D01*
X441615Y370875D01*
X441675Y370809D01*
X441737Y370747D01*
X441803Y370687D01*
X441870Y370629D01*
X441940Y370575D01*
X442013Y370524D01*
X442087Y370476D01*
X442164Y370431D01*
X442242Y370390D01*
X442322Y370351D01*
X442403Y370317D01*
X442486Y370285D01*
X442571Y370258D01*
X442656Y370233D01*
X442742Y370213D01*
X442829Y370196D01*
X442917Y370183D01*
X443005Y370174D01*
X443093Y370168D01*
X443182Y370166D01*
X443182Y370165D02*
X448403Y370165D01*
X448403Y370166D02*
X448494Y370168D01*
X448585Y370174D01*
X448676Y370184D01*
X448766Y370198D01*
X448855Y370215D01*
X448943Y370237D01*
X449031Y370263D01*
X449117Y370292D01*
X449202Y370325D01*
X449285Y370362D01*
X449367Y370402D01*
X449447Y370446D01*
X449525Y370493D01*
X449601Y370544D01*
X449674Y370597D01*
X449745Y370654D01*
X449814Y370715D01*
X449879Y370778D01*
X449942Y370843D01*
X450002Y370912D01*
X450060Y370983D01*
X450113Y371056D01*
X450164Y371132D01*
X450211Y371210D01*
X450255Y371290D01*
X450295Y371372D01*
X450332Y371455D01*
X450365Y371540D01*
X450394Y371626D01*
X450420Y371714D01*
X450442Y371802D01*
X450459Y371891D01*
X450473Y371981D01*
X450483Y372072D01*
X450489Y372163D01*
X450491Y372254D01*
X450491Y374342D01*
X443704Y377810D02*
X443805Y377812D01*
X443906Y377818D01*
X444007Y377828D01*
X444107Y377841D01*
X444207Y377859D01*
X444306Y377880D01*
X444404Y377906D01*
X444501Y377935D01*
X444597Y377967D01*
X444691Y378004D01*
X444784Y378044D01*
X444876Y378088D01*
X444965Y378135D01*
X445053Y378186D01*
X445139Y378240D01*
X445222Y378297D01*
X445304Y378357D01*
X445382Y378421D01*
X445459Y378487D01*
X445532Y378557D01*
X445603Y378629D01*
X445671Y378704D01*
X445736Y378782D01*
X445798Y378862D01*
X445857Y378944D01*
X445913Y379029D01*
X445965Y379116D01*
X446014Y379204D01*
X446060Y379295D01*
X446101Y379387D01*
X446140Y379481D01*
X446174Y379576D01*
X446205Y379672D01*
X446232Y379770D01*
X446256Y379868D01*
X446275Y379968D01*
X446291Y380068D01*
X446303Y380168D01*
X446311Y380269D01*
X446315Y380370D01*
X446315Y380472D01*
X446311Y380573D01*
X446303Y380674D01*
X446291Y380774D01*
X446275Y380874D01*
X446256Y380974D01*
X446232Y381072D01*
X446205Y381170D01*
X446174Y381266D01*
X446140Y381361D01*
X446101Y381455D01*
X446060Y381547D01*
X446014Y381638D01*
X445965Y381726D01*
X445913Y381813D01*
X445857Y381898D01*
X445798Y381980D01*
X445736Y382060D01*
X445671Y382138D01*
X445603Y382213D01*
X445532Y382285D01*
X445459Y382355D01*
X445382Y382421D01*
X445304Y382485D01*
X445222Y382545D01*
X445139Y382602D01*
X445053Y382656D01*
X444965Y382707D01*
X444876Y382754D01*
X444784Y382798D01*
X444691Y382838D01*
X444597Y382875D01*
X444501Y382907D01*
X444404Y382936D01*
X444306Y382962D01*
X444207Y382983D01*
X444107Y383001D01*
X444007Y383014D01*
X443906Y383024D01*
X443805Y383030D01*
X443704Y383032D01*
X443603Y383030D01*
X443502Y383024D01*
X443401Y383014D01*
X443301Y383001D01*
X443201Y382983D01*
X443102Y382962D01*
X443004Y382936D01*
X442907Y382907D01*
X442811Y382875D01*
X442717Y382838D01*
X442624Y382798D01*
X442532Y382754D01*
X442443Y382707D01*
X442355Y382656D01*
X442269Y382602D01*
X442186Y382545D01*
X442104Y382485D01*
X442026Y382421D01*
X441949Y382355D01*
X441876Y382285D01*
X441805Y382213D01*
X441737Y382138D01*
X441672Y382060D01*
X441610Y381980D01*
X441551Y381898D01*
X441495Y381813D01*
X441443Y381727D01*
X441394Y381638D01*
X441348Y381547D01*
X441307Y381455D01*
X441268Y381361D01*
X441234Y381266D01*
X441203Y381170D01*
X441176Y381072D01*
X441152Y380974D01*
X441133Y380874D01*
X441117Y380774D01*
X441105Y380674D01*
X441097Y380573D01*
X441093Y380472D01*
X441093Y380370D01*
X441097Y380269D01*
X441105Y380168D01*
X441117Y380068D01*
X441133Y379968D01*
X441152Y379868D01*
X441176Y379770D01*
X441203Y379672D01*
X441234Y379576D01*
X441268Y379481D01*
X441307Y379387D01*
X441348Y379295D01*
X441394Y379204D01*
X441443Y379116D01*
X441495Y379029D01*
X441551Y378944D01*
X441610Y378862D01*
X441672Y378782D01*
X441737Y378704D01*
X441805Y378629D01*
X441876Y378557D01*
X441949Y378487D01*
X442026Y378421D01*
X442104Y378357D01*
X442186Y378297D01*
X442269Y378240D01*
X442355Y378186D01*
X442443Y378135D01*
X442532Y378088D01*
X442624Y378044D01*
X442717Y378004D01*
X442811Y377967D01*
X442907Y377935D01*
X443004Y377906D01*
X443102Y377880D01*
X443201Y377859D01*
X443301Y377841D01*
X443401Y377828D01*
X443502Y377818D01*
X443603Y377812D01*
X443704Y377810D01*
X448403Y378333D02*
X448493Y378335D01*
X448582Y378341D01*
X448672Y378350D01*
X448761Y378364D01*
X448849Y378381D01*
X448936Y378402D01*
X449023Y378427D01*
X449108Y378456D01*
X449192Y378488D01*
X449274Y378523D01*
X449355Y378563D01*
X449434Y378605D01*
X449511Y378651D01*
X449586Y378701D01*
X449659Y378753D01*
X449730Y378809D01*
X449798Y378867D01*
X449863Y378929D01*
X449926Y378993D01*
X449986Y379060D01*
X450043Y379129D01*
X450097Y379201D01*
X450148Y379275D01*
X450196Y379351D01*
X450240Y379429D01*
X450281Y379509D01*
X450319Y379591D01*
X450353Y379674D01*
X450383Y379759D01*
X450410Y379845D01*
X450433Y379931D01*
X450452Y380019D01*
X450467Y380108D01*
X450479Y380197D01*
X450487Y380286D01*
X450491Y380376D01*
X450491Y380466D01*
X450487Y380556D01*
X450479Y380645D01*
X450467Y380734D01*
X450452Y380823D01*
X450433Y380911D01*
X450410Y380997D01*
X450383Y381083D01*
X450353Y381168D01*
X450319Y381251D01*
X450281Y381333D01*
X450240Y381413D01*
X450196Y381491D01*
X450148Y381567D01*
X450097Y381641D01*
X450043Y381713D01*
X449986Y381782D01*
X449926Y381849D01*
X449863Y381913D01*
X449798Y381975D01*
X449730Y382033D01*
X449659Y382089D01*
X449586Y382141D01*
X449511Y382191D01*
X449434Y382237D01*
X449355Y382279D01*
X449274Y382319D01*
X449192Y382354D01*
X449108Y382386D01*
X449023Y382415D01*
X448936Y382440D01*
X448849Y382461D01*
X448761Y382478D01*
X448672Y382492D01*
X448582Y382501D01*
X448493Y382507D01*
X448403Y382509D01*
X448313Y382507D01*
X448224Y382501D01*
X448134Y382492D01*
X448045Y382478D01*
X447957Y382461D01*
X447870Y382440D01*
X447783Y382415D01*
X447698Y382386D01*
X447614Y382354D01*
X447532Y382319D01*
X447451Y382279D01*
X447372Y382237D01*
X447295Y382191D01*
X447220Y382141D01*
X447147Y382089D01*
X447076Y382033D01*
X447008Y381975D01*
X446943Y381913D01*
X446880Y381849D01*
X446820Y381782D01*
X446763Y381713D01*
X446709Y381641D01*
X446658Y381567D01*
X446610Y381491D01*
X446566Y381413D01*
X446525Y381333D01*
X446487Y381251D01*
X446453Y381168D01*
X446423Y381083D01*
X446396Y380997D01*
X446373Y380911D01*
X446354Y380823D01*
X446339Y380734D01*
X446327Y380645D01*
X446319Y380556D01*
X446315Y380466D01*
X446315Y380376D01*
X446319Y380286D01*
X446327Y380197D01*
X446339Y380108D01*
X446354Y380019D01*
X446373Y379931D01*
X446396Y379845D01*
X446423Y379759D01*
X446453Y379674D01*
X446487Y379591D01*
X446525Y379509D01*
X446566Y379429D01*
X446610Y379351D01*
X446658Y379275D01*
X446709Y379201D01*
X446763Y379129D01*
X446820Y379060D01*
X446880Y378993D01*
X446943Y378929D01*
X447008Y378867D01*
X447076Y378809D01*
X447147Y378753D01*
X447220Y378701D01*
X447295Y378651D01*
X447372Y378605D01*
X447451Y378563D01*
X447532Y378523D01*
X447614Y378488D01*
X447698Y378456D01*
X447783Y378427D01*
X447870Y378402D01*
X447957Y378381D01*
X448045Y378364D01*
X448134Y378350D01*
X448224Y378341D01*
X448313Y378335D01*
X448403Y378333D01*
D10*
X446084Y295403D02*
X425955Y295403D01*
D13*
X448773Y310345D02*
X448773Y312434D01*
X448773Y310345D02*
X448775Y310256D01*
X448781Y310168D01*
X448790Y310080D01*
X448803Y309992D01*
X448820Y309905D01*
X448840Y309819D01*
X448865Y309734D01*
X448892Y309649D01*
X448924Y309566D01*
X448958Y309485D01*
X448997Y309405D01*
X449038Y309327D01*
X449083Y309250D01*
X449131Y309176D01*
X449182Y309103D01*
X449236Y309033D01*
X449294Y308966D01*
X449354Y308900D01*
X449416Y308838D01*
X449482Y308778D01*
X449549Y308720D01*
X449619Y308666D01*
X449692Y308615D01*
X449766Y308567D01*
X449843Y308522D01*
X449921Y308481D01*
X450001Y308442D01*
X450082Y308408D01*
X450165Y308376D01*
X450250Y308349D01*
X450335Y308324D01*
X450421Y308304D01*
X450508Y308287D01*
X450596Y308274D01*
X450684Y308265D01*
X450772Y308259D01*
X450861Y308257D01*
X456083Y308257D01*
X456174Y308259D01*
X456265Y308265D01*
X456356Y308275D01*
X456446Y308289D01*
X456535Y308306D01*
X456623Y308328D01*
X456711Y308354D01*
X456797Y308383D01*
X456882Y308416D01*
X456965Y308453D01*
X457047Y308493D01*
X457127Y308537D01*
X457205Y308584D01*
X457281Y308635D01*
X457354Y308688D01*
X457425Y308745D01*
X457494Y308806D01*
X457559Y308869D01*
X457622Y308934D01*
X457682Y309003D01*
X457740Y309074D01*
X457793Y309147D01*
X457844Y309223D01*
X457891Y309301D01*
X457935Y309381D01*
X457975Y309463D01*
X458012Y309546D01*
X458045Y309631D01*
X458074Y309717D01*
X458100Y309805D01*
X458122Y309893D01*
X458139Y309982D01*
X458153Y310072D01*
X458163Y310163D01*
X458169Y310254D01*
X458171Y310345D01*
X458171Y312434D01*
X458172Y318774D02*
X458170Y318869D01*
X458164Y318963D01*
X458155Y319057D01*
X458142Y319151D01*
X458125Y319244D01*
X458104Y319336D01*
X458079Y319428D01*
X458051Y319518D01*
X458019Y319607D01*
X457984Y319695D01*
X457945Y319781D01*
X457903Y319866D01*
X457857Y319949D01*
X457808Y320030D01*
X457756Y320109D01*
X457701Y320186D01*
X457642Y320260D01*
X457581Y320332D01*
X457517Y320402D01*
X457450Y320469D01*
X457380Y320533D01*
X457308Y320594D01*
X457234Y320653D01*
X457157Y320708D01*
X457078Y320760D01*
X456997Y320809D01*
X456914Y320855D01*
X456829Y320897D01*
X456743Y320936D01*
X456655Y320971D01*
X456566Y321003D01*
X456476Y321031D01*
X456384Y321056D01*
X456292Y321077D01*
X456199Y321094D01*
X456105Y321107D01*
X456011Y321116D01*
X455917Y321122D01*
X455822Y321124D01*
X458171Y318774D02*
X458169Y318666D01*
X458163Y318557D01*
X458153Y318449D01*
X458140Y318342D01*
X458122Y318235D01*
X458101Y318128D01*
X458076Y318023D01*
X458047Y317918D01*
X458015Y317815D01*
X457978Y317713D01*
X457938Y317612D01*
X457895Y317513D01*
X457848Y317415D01*
X457797Y317319D01*
X457743Y317225D01*
X457686Y317133D01*
X457625Y317043D01*
X457561Y316955D01*
X457495Y316870D01*
X457425Y316787D01*
X457352Y316707D01*
X457276Y316629D01*
X457198Y316554D01*
X457117Y316482D01*
X457033Y316413D01*
X456947Y316347D01*
X456859Y316284D01*
X456768Y316225D01*
X456676Y316168D01*
X456581Y316115D01*
X456485Y316066D01*
X456386Y316020D01*
X456287Y315977D01*
X456185Y315938D01*
X456083Y315903D01*
X453994Y320341D02*
X454063Y320410D01*
X454134Y320476D01*
X454207Y320540D01*
X454283Y320601D01*
X454362Y320659D01*
X454442Y320713D01*
X454525Y320765D01*
X454609Y320813D01*
X454695Y320859D01*
X454783Y320900D01*
X454873Y320939D01*
X454964Y320974D01*
X455056Y321005D01*
X455149Y321033D01*
X455243Y321057D01*
X455338Y321077D01*
X455434Y321094D01*
X455531Y321107D01*
X455628Y321116D01*
X455725Y321122D01*
X455822Y321124D01*
X453994Y320340D02*
X448773Y315902D01*
X448773Y321124D01*
D12*
X381202Y376202D02*
X376202Y381202D01*
X311202Y311212D02*
X311202Y311202D01*
X385972Y373852D02*
X385974Y373941D01*
X385980Y374030D01*
X385990Y374119D01*
X386004Y374207D01*
X386021Y374294D01*
X386043Y374380D01*
X386069Y374466D01*
X386098Y374550D01*
X386131Y374633D01*
X386167Y374714D01*
X386208Y374794D01*
X386251Y374871D01*
X386298Y374947D01*
X386349Y375020D01*
X386402Y375091D01*
X386459Y375160D01*
X386519Y375226D01*
X386582Y375290D01*
X386647Y375350D01*
X386715Y375408D01*
X386786Y375462D01*
X386859Y375513D01*
X386934Y375561D01*
X387011Y375606D01*
X387090Y375647D01*
X387171Y375684D01*
X387253Y375718D01*
X387337Y375749D01*
X387422Y375775D01*
X387508Y375798D01*
X387595Y375816D01*
X387683Y375831D01*
X387772Y375842D01*
X387861Y375849D01*
X387950Y375852D01*
X388039Y375851D01*
X388128Y375846D01*
X388216Y375837D01*
X388305Y375824D01*
X388392Y375807D01*
X388479Y375787D01*
X388565Y375762D01*
X388649Y375734D01*
X388732Y375702D01*
X388814Y375666D01*
X388894Y375627D01*
X388972Y375584D01*
X389048Y375538D01*
X389122Y375488D01*
X389194Y375435D01*
X389263Y375379D01*
X389330Y375320D01*
X389394Y375258D01*
X389455Y375194D01*
X389514Y375126D01*
X389569Y375056D01*
X389621Y374984D01*
X389670Y374909D01*
X389715Y374833D01*
X389757Y374754D01*
X389795Y374674D01*
X389830Y374592D01*
X389861Y374508D01*
X389889Y374423D01*
X389912Y374337D01*
X389932Y374250D01*
X389948Y374163D01*
X389960Y374074D01*
X389968Y373986D01*
X389972Y373897D01*
X389972Y373807D01*
X389968Y373718D01*
X389960Y373630D01*
X389948Y373541D01*
X389932Y373454D01*
X389912Y373367D01*
X389889Y373281D01*
X389861Y373196D01*
X389830Y373112D01*
X389795Y373030D01*
X389757Y372950D01*
X389715Y372871D01*
X389670Y372795D01*
X389621Y372720D01*
X389569Y372648D01*
X389514Y372578D01*
X389455Y372510D01*
X389394Y372446D01*
X389330Y372384D01*
X389263Y372325D01*
X389194Y372269D01*
X389122Y372216D01*
X389048Y372166D01*
X388972Y372120D01*
X388894Y372077D01*
X388814Y372038D01*
X388732Y372002D01*
X388649Y371970D01*
X388565Y371942D01*
X388479Y371917D01*
X388392Y371897D01*
X388305Y371880D01*
X388216Y371867D01*
X388128Y371858D01*
X388039Y371853D01*
X387950Y371852D01*
X387861Y371855D01*
X387772Y371862D01*
X387683Y371873D01*
X387595Y371888D01*
X387508Y371906D01*
X387422Y371929D01*
X387337Y371955D01*
X387253Y371986D01*
X387171Y372020D01*
X387090Y372057D01*
X387011Y372098D01*
X386934Y372143D01*
X386859Y372191D01*
X386786Y372242D01*
X386715Y372296D01*
X386647Y372354D01*
X386582Y372414D01*
X386519Y372478D01*
X386459Y372544D01*
X386402Y372613D01*
X386349Y372684D01*
X386298Y372757D01*
X386251Y372833D01*
X386208Y372910D01*
X386167Y372990D01*
X386131Y373071D01*
X386098Y373154D01*
X386069Y373238D01*
X386043Y373324D01*
X386021Y373410D01*
X386004Y373497D01*
X385990Y373585D01*
X385980Y373674D01*
X385974Y373763D01*
X385972Y373852D01*
X311242Y381212D02*
X311242Y381222D01*
X315942Y381222D01*
X315902Y311212D02*
X311202Y311212D01*
X311242Y376522D02*
X311242Y381212D01*
X311192Y315902D02*
X311192Y311202D01*
X376522Y311202D02*
X381222Y311202D01*
X381222Y311192D02*
X381222Y315892D01*
D13*
X377267Y302831D02*
X377267Y296044D01*
X377265Y295943D01*
X377259Y295842D01*
X377249Y295741D01*
X377236Y295641D01*
X377218Y295541D01*
X377197Y295442D01*
X377171Y295344D01*
X377142Y295247D01*
X377110Y295151D01*
X377073Y295057D01*
X377033Y294964D01*
X376989Y294872D01*
X376942Y294783D01*
X376891Y294695D01*
X376837Y294609D01*
X376780Y294526D01*
X376720Y294444D01*
X376656Y294366D01*
X376590Y294289D01*
X376520Y294216D01*
X376448Y294145D01*
X376373Y294077D01*
X376295Y294012D01*
X376215Y293950D01*
X376133Y293891D01*
X376048Y293835D01*
X375961Y293783D01*
X375873Y293734D01*
X375782Y293688D01*
X375690Y293647D01*
X375596Y293608D01*
X375501Y293574D01*
X375405Y293543D01*
X375307Y293516D01*
X375209Y293492D01*
X375109Y293473D01*
X375009Y293457D01*
X374909Y293445D01*
X374808Y293437D01*
X374707Y293433D01*
X374605Y293433D01*
X374504Y293437D01*
X374403Y293445D01*
X374303Y293457D01*
X374203Y293473D01*
X374103Y293492D01*
X374005Y293516D01*
X373907Y293543D01*
X373811Y293574D01*
X373716Y293608D01*
X373622Y293647D01*
X373530Y293688D01*
X373439Y293734D01*
X373351Y293783D01*
X373264Y293835D01*
X373179Y293891D01*
X373097Y293950D01*
X373017Y294012D01*
X372939Y294077D01*
X372864Y294145D01*
X372792Y294216D01*
X372722Y294289D01*
X372656Y294366D01*
X372592Y294444D01*
X372532Y294526D01*
X372475Y294609D01*
X372421Y294695D01*
X372370Y294783D01*
X372323Y294872D01*
X372279Y294964D01*
X372239Y295057D01*
X372202Y295151D01*
X372170Y295247D01*
X372141Y295344D01*
X372115Y295442D01*
X372094Y295541D01*
X372076Y295641D01*
X372063Y295741D01*
X372053Y295842D01*
X372047Y295943D01*
X372045Y296044D01*
X372046Y296044D02*
X372046Y302831D01*
X367818Y300743D02*
X365208Y302831D01*
X365208Y293433D01*
X367818Y293433D02*
X362597Y293433D01*
D14*
X394175Y337040D02*
X394175Y372600D01*
X394175Y337040D02*
X414495Y337040D01*
X414495Y372600D01*
X394175Y372600D01*
D13*
X417812Y335290D02*
X427210Y341555D01*
X427210Y335290D02*
X417812Y341555D01*
X425122Y344956D02*
X427210Y347566D01*
X417812Y347566D01*
X417812Y344956D02*
X417812Y350177D01*
X352829Y390749D02*
X352829Y400147D01*
X350218Y400147D01*
X350117Y400145D01*
X350016Y400139D01*
X349915Y400129D01*
X349815Y400116D01*
X349715Y400098D01*
X349616Y400077D01*
X349518Y400051D01*
X349421Y400022D01*
X349325Y399990D01*
X349231Y399953D01*
X349138Y399913D01*
X349046Y399869D01*
X348957Y399822D01*
X348869Y399771D01*
X348783Y399717D01*
X348700Y399660D01*
X348618Y399600D01*
X348540Y399536D01*
X348463Y399470D01*
X348390Y399400D01*
X348319Y399328D01*
X348251Y399253D01*
X348186Y399175D01*
X348124Y399095D01*
X348065Y399013D01*
X348009Y398928D01*
X347957Y398842D01*
X347908Y398753D01*
X347862Y398662D01*
X347821Y398570D01*
X347782Y398476D01*
X347748Y398381D01*
X347717Y398285D01*
X347690Y398187D01*
X347666Y398089D01*
X347647Y397989D01*
X347631Y397889D01*
X347619Y397789D01*
X347611Y397688D01*
X347607Y397587D01*
X347607Y397485D01*
X347611Y397384D01*
X347619Y397283D01*
X347631Y397183D01*
X347647Y397083D01*
X347666Y396983D01*
X347690Y396885D01*
X347717Y396787D01*
X347748Y396691D01*
X347782Y396596D01*
X347821Y396502D01*
X347862Y396410D01*
X347908Y396319D01*
X347957Y396231D01*
X348009Y396144D01*
X348065Y396059D01*
X348124Y395977D01*
X348186Y395897D01*
X348251Y395819D01*
X348319Y395744D01*
X348390Y395672D01*
X348463Y395602D01*
X348540Y395536D01*
X348618Y395472D01*
X348700Y395412D01*
X348783Y395355D01*
X348869Y395301D01*
X348957Y395250D01*
X349046Y395203D01*
X349138Y395159D01*
X349231Y395119D01*
X349325Y395082D01*
X349421Y395050D01*
X349518Y395021D01*
X349616Y394995D01*
X349715Y394974D01*
X349815Y394956D01*
X349915Y394943D01*
X350016Y394933D01*
X350117Y394927D01*
X350218Y394925D01*
X352829Y394925D01*
X349696Y394925D02*
X347608Y390749D01*
X343742Y390749D02*
X341132Y390749D01*
X341132Y390748D02*
X341031Y390750D01*
X340930Y390756D01*
X340829Y390766D01*
X340729Y390779D01*
X340629Y390797D01*
X340530Y390818D01*
X340432Y390844D01*
X340335Y390873D01*
X340239Y390905D01*
X340145Y390942D01*
X340052Y390982D01*
X339960Y391026D01*
X339871Y391073D01*
X339783Y391124D01*
X339697Y391178D01*
X339614Y391235D01*
X339532Y391295D01*
X339454Y391359D01*
X339377Y391425D01*
X339304Y391495D01*
X339233Y391567D01*
X339165Y391642D01*
X339100Y391720D01*
X339038Y391800D01*
X338979Y391882D01*
X338923Y391967D01*
X338871Y392054D01*
X338822Y392142D01*
X338776Y392233D01*
X338735Y392325D01*
X338696Y392419D01*
X338662Y392514D01*
X338631Y392610D01*
X338604Y392708D01*
X338580Y392806D01*
X338561Y392906D01*
X338545Y393006D01*
X338533Y393106D01*
X338525Y393207D01*
X338521Y393308D01*
X338521Y393410D01*
X338525Y393511D01*
X338533Y393612D01*
X338545Y393712D01*
X338561Y393812D01*
X338580Y393912D01*
X338604Y394010D01*
X338631Y394108D01*
X338662Y394204D01*
X338696Y394299D01*
X338735Y394393D01*
X338776Y394485D01*
X338822Y394576D01*
X338871Y394665D01*
X338923Y394751D01*
X338979Y394836D01*
X339038Y394918D01*
X339100Y394998D01*
X339165Y395076D01*
X339233Y395151D01*
X339304Y395223D01*
X339377Y395293D01*
X339454Y395359D01*
X339532Y395423D01*
X339614Y395483D01*
X339697Y395540D01*
X339783Y395594D01*
X339871Y395645D01*
X339960Y395692D01*
X340052Y395736D01*
X340145Y395776D01*
X340239Y395813D01*
X340335Y395845D01*
X340432Y395874D01*
X340530Y395900D01*
X340629Y395921D01*
X340729Y395939D01*
X340829Y395952D01*
X340930Y395962D01*
X341031Y395968D01*
X341132Y395970D01*
X340609Y400147D02*
X343742Y400147D01*
X340609Y400146D02*
X340519Y400144D01*
X340430Y400138D01*
X340340Y400129D01*
X340251Y400115D01*
X340163Y400098D01*
X340076Y400077D01*
X339989Y400052D01*
X339904Y400023D01*
X339820Y399991D01*
X339738Y399956D01*
X339657Y399916D01*
X339578Y399874D01*
X339501Y399828D01*
X339426Y399778D01*
X339353Y399726D01*
X339282Y399670D01*
X339214Y399612D01*
X339149Y399550D01*
X339086Y399486D01*
X339026Y399419D01*
X338969Y399350D01*
X338915Y399278D01*
X338864Y399204D01*
X338816Y399128D01*
X338772Y399050D01*
X338731Y398970D01*
X338693Y398888D01*
X338659Y398805D01*
X338629Y398720D01*
X338602Y398634D01*
X338579Y398548D01*
X338560Y398460D01*
X338545Y398371D01*
X338533Y398282D01*
X338525Y398193D01*
X338521Y398103D01*
X338521Y398013D01*
X338525Y397923D01*
X338533Y397834D01*
X338545Y397745D01*
X338560Y397656D01*
X338579Y397568D01*
X338602Y397482D01*
X338629Y397396D01*
X338659Y397311D01*
X338693Y397228D01*
X338731Y397146D01*
X338772Y397066D01*
X338816Y396988D01*
X338864Y396912D01*
X338915Y396838D01*
X338969Y396766D01*
X339026Y396697D01*
X339086Y396630D01*
X339149Y396566D01*
X339214Y396504D01*
X339282Y396446D01*
X339353Y396390D01*
X339426Y396338D01*
X339501Y396288D01*
X339578Y396242D01*
X339657Y396200D01*
X339738Y396160D01*
X339820Y396125D01*
X339904Y396093D01*
X339989Y396064D01*
X340076Y396039D01*
X340163Y396018D01*
X340251Y396001D01*
X340340Y395987D01*
X340430Y395978D01*
X340519Y395972D01*
X340609Y395970D01*
X342698Y395970D01*
D10*
X313388Y289545D02*
X313388Y269415D01*
D13*
X327846Y274757D02*
X329934Y274757D01*
X330023Y274759D01*
X330111Y274765D01*
X330199Y274774D01*
X330287Y274787D01*
X330374Y274804D01*
X330460Y274824D01*
X330545Y274849D01*
X330630Y274876D01*
X330713Y274908D01*
X330794Y274942D01*
X330874Y274981D01*
X330952Y275022D01*
X331029Y275067D01*
X331103Y275115D01*
X331176Y275166D01*
X331246Y275220D01*
X331313Y275278D01*
X331379Y275338D01*
X331441Y275400D01*
X331501Y275466D01*
X331559Y275533D01*
X331613Y275603D01*
X331664Y275676D01*
X331712Y275750D01*
X331757Y275827D01*
X331798Y275905D01*
X331837Y275985D01*
X331871Y276066D01*
X331903Y276149D01*
X331930Y276234D01*
X331955Y276319D01*
X331975Y276405D01*
X331992Y276492D01*
X332005Y276580D01*
X332014Y276668D01*
X332020Y276756D01*
X332022Y276845D01*
X332023Y276845D02*
X332023Y282066D01*
X332022Y282066D02*
X332020Y282157D01*
X332014Y282248D01*
X332004Y282339D01*
X331990Y282429D01*
X331973Y282518D01*
X331951Y282606D01*
X331925Y282694D01*
X331896Y282780D01*
X331863Y282865D01*
X331826Y282948D01*
X331786Y283030D01*
X331742Y283110D01*
X331695Y283188D01*
X331644Y283264D01*
X331591Y283337D01*
X331534Y283408D01*
X331473Y283477D01*
X331410Y283542D01*
X331345Y283605D01*
X331276Y283665D01*
X331205Y283723D01*
X331132Y283776D01*
X331056Y283827D01*
X330978Y283874D01*
X330898Y283918D01*
X330816Y283958D01*
X330733Y283995D01*
X330648Y284028D01*
X330562Y284057D01*
X330474Y284083D01*
X330386Y284105D01*
X330297Y284122D01*
X330207Y284136D01*
X330116Y284146D01*
X330025Y284152D01*
X329934Y284154D01*
X329934Y284155D02*
X327846Y284155D01*
X322289Y284155D02*
X324377Y276845D01*
X319156Y276845D01*
X320722Y278934D02*
X320722Y274757D01*
D10*
X297800Y388394D02*
X277670Y388394D01*
D13*
X271844Y370786D02*
X271844Y368698D01*
X271846Y368609D01*
X271852Y368521D01*
X271861Y368433D01*
X271874Y368345D01*
X271891Y368258D01*
X271911Y368172D01*
X271936Y368087D01*
X271963Y368002D01*
X271995Y367919D01*
X272029Y367838D01*
X272068Y367758D01*
X272109Y367680D01*
X272154Y367603D01*
X272202Y367529D01*
X272253Y367456D01*
X272307Y367386D01*
X272365Y367319D01*
X272425Y367253D01*
X272487Y367191D01*
X272553Y367131D01*
X272620Y367073D01*
X272690Y367019D01*
X272763Y366968D01*
X272837Y366920D01*
X272914Y366875D01*
X272992Y366834D01*
X273072Y366795D01*
X273153Y366761D01*
X273236Y366729D01*
X273321Y366702D01*
X273406Y366677D01*
X273492Y366657D01*
X273579Y366640D01*
X273667Y366627D01*
X273755Y366618D01*
X273843Y366612D01*
X273932Y366610D01*
X279153Y366610D01*
X279244Y366612D01*
X279335Y366618D01*
X279426Y366628D01*
X279516Y366642D01*
X279605Y366659D01*
X279693Y366681D01*
X279781Y366707D01*
X279867Y366736D01*
X279952Y366769D01*
X280035Y366806D01*
X280117Y366846D01*
X280197Y366890D01*
X280275Y366937D01*
X280351Y366988D01*
X280424Y367041D01*
X280495Y367098D01*
X280564Y367159D01*
X280629Y367222D01*
X280692Y367287D01*
X280752Y367356D01*
X280810Y367427D01*
X280863Y367500D01*
X280914Y367576D01*
X280961Y367654D01*
X281005Y367734D01*
X281045Y367816D01*
X281082Y367899D01*
X281115Y367984D01*
X281144Y368070D01*
X281170Y368158D01*
X281192Y368246D01*
X281209Y368335D01*
X281223Y368425D01*
X281233Y368516D01*
X281239Y368607D01*
X281241Y368698D01*
X281242Y368698D02*
X281242Y370786D01*
X281242Y374255D02*
X280197Y374255D01*
X281242Y374255D02*
X281242Y379476D01*
X271844Y376866D01*
X395821Y311864D02*
X395821Y309776D01*
X395823Y309687D01*
X395829Y309599D01*
X395838Y309511D01*
X395851Y309423D01*
X395868Y309336D01*
X395888Y309250D01*
X395913Y309165D01*
X395940Y309080D01*
X395972Y308997D01*
X396006Y308916D01*
X396045Y308836D01*
X396086Y308758D01*
X396131Y308681D01*
X396179Y308607D01*
X396230Y308534D01*
X396284Y308464D01*
X396342Y308397D01*
X396402Y308331D01*
X396464Y308269D01*
X396530Y308209D01*
X396597Y308151D01*
X396667Y308097D01*
X396740Y308046D01*
X396814Y307998D01*
X396891Y307953D01*
X396969Y307912D01*
X397049Y307873D01*
X397130Y307839D01*
X397213Y307807D01*
X397298Y307780D01*
X397383Y307755D01*
X397469Y307735D01*
X397556Y307718D01*
X397644Y307705D01*
X397732Y307696D01*
X397820Y307690D01*
X397909Y307688D01*
X403130Y307688D01*
X403221Y307690D01*
X403312Y307696D01*
X403403Y307706D01*
X403493Y307720D01*
X403582Y307737D01*
X403670Y307759D01*
X403758Y307785D01*
X403844Y307814D01*
X403929Y307847D01*
X404012Y307884D01*
X404094Y307924D01*
X404174Y307968D01*
X404252Y308015D01*
X404328Y308066D01*
X404401Y308119D01*
X404472Y308176D01*
X404541Y308237D01*
X404606Y308300D01*
X404669Y308365D01*
X404729Y308434D01*
X404787Y308505D01*
X404840Y308578D01*
X404891Y308654D01*
X404938Y308732D01*
X404982Y308812D01*
X405022Y308894D01*
X405059Y308977D01*
X405092Y309062D01*
X405121Y309148D01*
X405147Y309236D01*
X405169Y309324D01*
X405186Y309413D01*
X405200Y309503D01*
X405210Y309594D01*
X405216Y309685D01*
X405218Y309776D01*
X405219Y309776D02*
X405219Y311864D01*
X403130Y315333D02*
X405219Y317944D01*
X395821Y317944D01*
X395821Y320554D02*
X395821Y315333D01*
X403562Y417343D02*
X405039Y418820D01*
X405038Y418820D02*
X405100Y418884D01*
X405158Y418950D01*
X405214Y419019D01*
X405267Y419090D01*
X405316Y419164D01*
X405363Y419239D01*
X405406Y419317D01*
X405446Y419396D01*
X405482Y419477D01*
X405516Y419559D01*
X405545Y419642D01*
X405571Y419727D01*
X405593Y419813D01*
X405612Y419900D01*
X405627Y419987D01*
X405638Y420075D01*
X405646Y420163D01*
X405650Y420252D01*
X405650Y420340D01*
X405646Y420429D01*
X405638Y420517D01*
X405627Y420605D01*
X405612Y420692D01*
X405593Y420779D01*
X405571Y420865D01*
X405545Y420950D01*
X405516Y421033D01*
X405482Y421115D01*
X405446Y421196D01*
X405406Y421275D01*
X405363Y421353D01*
X405316Y421428D01*
X405267Y421502D01*
X405214Y421573D01*
X405158Y421642D01*
X405100Y421708D01*
X405038Y421772D01*
X405039Y421773D02*
X401347Y425465D01*
X401281Y425528D01*
X401213Y425588D01*
X401142Y425645D01*
X401068Y425699D01*
X400992Y425750D01*
X400915Y425797D01*
X400835Y425841D01*
X400753Y425881D01*
X400669Y425918D01*
X400585Y425951D01*
X400498Y425980D01*
X400411Y426006D01*
X400322Y426027D01*
X400233Y426045D01*
X400143Y426059D01*
X400052Y426069D01*
X399961Y426075D01*
X399870Y426077D01*
X399779Y426075D01*
X399688Y426069D01*
X399597Y426059D01*
X399507Y426045D01*
X399418Y426027D01*
X399329Y426006D01*
X399242Y425980D01*
X399156Y425951D01*
X399071Y425918D01*
X398987Y425881D01*
X398905Y425841D01*
X398826Y425797D01*
X398748Y425750D01*
X398672Y425699D01*
X398598Y425645D01*
X398527Y425588D01*
X398459Y425528D01*
X398393Y425465D01*
X398394Y425465D02*
X396917Y423988D01*
X401109Y414890D02*
X399264Y413044D01*
X399191Y412974D01*
X399116Y412906D01*
X399037Y412842D01*
X398957Y412781D01*
X398874Y412723D01*
X398789Y412668D01*
X398702Y412616D01*
X398612Y412568D01*
X398521Y412524D01*
X398429Y412483D01*
X398335Y412445D01*
X398239Y412412D01*
X398143Y412382D01*
X398045Y412355D01*
X397946Y412333D01*
X397846Y412314D01*
X397746Y412300D01*
X397646Y412289D01*
X397545Y412282D01*
X397443Y412279D01*
X397342Y412280D01*
X397241Y412285D01*
X397140Y412294D01*
X397040Y412307D01*
X396940Y412323D01*
X396841Y412344D01*
X396742Y412368D01*
X396645Y412396D01*
X396549Y412428D01*
X396454Y412463D01*
X396361Y412503D01*
X396269Y412545D01*
X396179Y412592D01*
X396091Y412642D01*
X396004Y412695D01*
X395920Y412751D01*
X395839Y412811D01*
X395759Y412874D01*
X395682Y412940D01*
X395608Y413008D01*
X395536Y413080D01*
X395468Y413154D01*
X395402Y413231D01*
X395339Y413311D01*
X395279Y413392D01*
X395223Y413476D01*
X395170Y413563D01*
X395120Y413651D01*
X395073Y413741D01*
X395031Y413833D01*
X394991Y413926D01*
X394956Y414021D01*
X394924Y414117D01*
X394896Y414214D01*
X394872Y414313D01*
X394851Y414412D01*
X394835Y414512D01*
X394822Y414612D01*
X394813Y414713D01*
X394808Y414814D01*
X394807Y414915D01*
X394810Y415017D01*
X394817Y415118D01*
X394828Y415218D01*
X394842Y415318D01*
X394861Y415418D01*
X394883Y415517D01*
X394910Y415615D01*
X394940Y415711D01*
X394973Y415807D01*
X395011Y415901D01*
X395052Y415993D01*
X395096Y416084D01*
X395144Y416174D01*
X395196Y416261D01*
X395251Y416346D01*
X395309Y416429D01*
X395370Y416509D01*
X395434Y416588D01*
X395502Y416663D01*
X395572Y416736D01*
X392249Y419320D02*
X394464Y421535D01*
X392250Y419319D02*
X392187Y419255D01*
X392128Y419187D01*
X392072Y419117D01*
X392018Y419045D01*
X391968Y418970D01*
X391921Y418893D01*
X391878Y418815D01*
X391838Y418734D01*
X391801Y418652D01*
X391768Y418569D01*
X391739Y418484D01*
X391713Y418398D01*
X391691Y418311D01*
X391673Y418223D01*
X391658Y418134D01*
X391648Y418045D01*
X391641Y417955D01*
X391638Y417865D01*
X391639Y417776D01*
X391644Y417686D01*
X391653Y417596D01*
X391665Y417507D01*
X391681Y417419D01*
X391702Y417332D01*
X391725Y417245D01*
X391753Y417159D01*
X391784Y417075D01*
X391819Y416992D01*
X391857Y416911D01*
X391899Y416832D01*
X391945Y416754D01*
X391993Y416678D01*
X392045Y416605D01*
X392100Y416534D01*
X392157Y416465D01*
X392218Y416399D01*
X392282Y416335D01*
X392348Y416274D01*
X392417Y416217D01*
X392488Y416162D01*
X392561Y416110D01*
X392637Y416062D01*
X392715Y416016D01*
X392794Y415974D01*
X392875Y415936D01*
X392958Y415901D01*
X393042Y415870D01*
X393128Y415842D01*
X393215Y415819D01*
X393302Y415798D01*
X393390Y415782D01*
X393479Y415770D01*
X393569Y415761D01*
X393659Y415756D01*
X393748Y415755D01*
X393838Y415758D01*
X393928Y415765D01*
X394017Y415775D01*
X394106Y415790D01*
X394194Y415808D01*
X394281Y415830D01*
X394367Y415856D01*
X394452Y415885D01*
X394535Y415918D01*
X394617Y415955D01*
X394698Y415995D01*
X394776Y416038D01*
X394853Y416085D01*
X394928Y416135D01*
X395000Y416189D01*
X395070Y416245D01*
X395138Y416304D01*
X395202Y416367D01*
X396679Y417843D01*
X288669Y370394D02*
X288669Y368306D01*
X288671Y368217D01*
X288677Y368129D01*
X288686Y368041D01*
X288699Y367953D01*
X288716Y367866D01*
X288736Y367780D01*
X288761Y367695D01*
X288788Y367610D01*
X288820Y367527D01*
X288854Y367446D01*
X288893Y367366D01*
X288934Y367288D01*
X288979Y367211D01*
X289027Y367137D01*
X289078Y367064D01*
X289132Y366994D01*
X289190Y366927D01*
X289250Y366861D01*
X289312Y366799D01*
X289378Y366739D01*
X289445Y366681D01*
X289515Y366627D01*
X289588Y366576D01*
X289662Y366528D01*
X289739Y366483D01*
X289817Y366442D01*
X289897Y366403D01*
X289978Y366369D01*
X290061Y366337D01*
X290146Y366310D01*
X290231Y366285D01*
X290317Y366265D01*
X290404Y366248D01*
X290492Y366235D01*
X290580Y366226D01*
X290668Y366220D01*
X290757Y366218D01*
X290757Y366217D02*
X295978Y366217D01*
X295978Y366218D02*
X296069Y366220D01*
X296160Y366226D01*
X296251Y366236D01*
X296341Y366250D01*
X296430Y366267D01*
X296518Y366289D01*
X296606Y366315D01*
X296692Y366344D01*
X296777Y366377D01*
X296860Y366414D01*
X296942Y366454D01*
X297022Y366498D01*
X297100Y366545D01*
X297176Y366596D01*
X297249Y366649D01*
X297320Y366706D01*
X297389Y366767D01*
X297454Y366830D01*
X297517Y366895D01*
X297577Y366964D01*
X297635Y367035D01*
X297688Y367108D01*
X297739Y367184D01*
X297786Y367262D01*
X297830Y367342D01*
X297870Y367424D01*
X297907Y367507D01*
X297940Y367592D01*
X297969Y367678D01*
X297995Y367766D01*
X298017Y367854D01*
X298034Y367943D01*
X298048Y368033D01*
X298058Y368124D01*
X298064Y368215D01*
X298066Y368306D01*
X298067Y368306D02*
X298067Y370394D01*
X288669Y373863D02*
X288669Y376996D01*
X288671Y377085D01*
X288677Y377173D01*
X288686Y377261D01*
X288699Y377349D01*
X288716Y377436D01*
X288736Y377522D01*
X288761Y377607D01*
X288788Y377692D01*
X288820Y377775D01*
X288854Y377856D01*
X288893Y377936D01*
X288934Y378014D01*
X288979Y378091D01*
X289027Y378165D01*
X289078Y378238D01*
X289132Y378308D01*
X289190Y378375D01*
X289250Y378441D01*
X289312Y378503D01*
X289378Y378563D01*
X289445Y378621D01*
X289515Y378675D01*
X289588Y378726D01*
X289662Y378774D01*
X289739Y378819D01*
X289817Y378860D01*
X289897Y378899D01*
X289978Y378933D01*
X290061Y378965D01*
X290146Y378992D01*
X290231Y379017D01*
X290317Y379037D01*
X290404Y379054D01*
X290492Y379067D01*
X290580Y379076D01*
X290668Y379082D01*
X290757Y379084D01*
X291801Y379084D01*
X291890Y379082D01*
X291978Y379076D01*
X292066Y379067D01*
X292154Y379054D01*
X292241Y379037D01*
X292327Y379017D01*
X292412Y378992D01*
X292497Y378965D01*
X292580Y378933D01*
X292661Y378899D01*
X292741Y378860D01*
X292819Y378819D01*
X292896Y378774D01*
X292970Y378726D01*
X293043Y378675D01*
X293113Y378621D01*
X293180Y378563D01*
X293246Y378503D01*
X293308Y378441D01*
X293368Y378375D01*
X293426Y378308D01*
X293480Y378238D01*
X293531Y378165D01*
X293579Y378091D01*
X293624Y378014D01*
X293665Y377936D01*
X293704Y377856D01*
X293738Y377775D01*
X293770Y377692D01*
X293797Y377607D01*
X293822Y377522D01*
X293842Y377436D01*
X293859Y377349D01*
X293872Y377261D01*
X293881Y377173D01*
X293887Y377085D01*
X293889Y376996D01*
X293890Y376996D02*
X293890Y373863D01*
X298067Y373863D01*
X298067Y379084D01*
X328315Y293983D02*
X330403Y293983D01*
X330492Y293985D01*
X330580Y293991D01*
X330668Y294000D01*
X330756Y294013D01*
X330843Y294030D01*
X330929Y294050D01*
X331014Y294075D01*
X331099Y294102D01*
X331182Y294134D01*
X331263Y294168D01*
X331343Y294207D01*
X331421Y294248D01*
X331498Y294293D01*
X331572Y294341D01*
X331645Y294392D01*
X331715Y294446D01*
X331782Y294504D01*
X331848Y294564D01*
X331910Y294626D01*
X331970Y294692D01*
X332028Y294759D01*
X332082Y294829D01*
X332133Y294902D01*
X332181Y294976D01*
X332226Y295053D01*
X332267Y295131D01*
X332306Y295211D01*
X332340Y295292D01*
X332372Y295375D01*
X332399Y295460D01*
X332424Y295545D01*
X332444Y295631D01*
X332461Y295718D01*
X332474Y295806D01*
X332483Y295894D01*
X332489Y295982D01*
X332491Y296071D01*
X332492Y296071D02*
X332492Y301292D01*
X332491Y301292D02*
X332489Y301381D01*
X332483Y301469D01*
X332474Y301557D01*
X332461Y301645D01*
X332444Y301732D01*
X332424Y301818D01*
X332399Y301903D01*
X332372Y301988D01*
X332340Y302071D01*
X332306Y302152D01*
X332267Y302232D01*
X332226Y302310D01*
X332181Y302387D01*
X332133Y302461D01*
X332082Y302534D01*
X332028Y302604D01*
X331970Y302671D01*
X331910Y302737D01*
X331848Y302799D01*
X331782Y302859D01*
X331715Y302917D01*
X331645Y302971D01*
X331572Y303022D01*
X331498Y303070D01*
X331421Y303115D01*
X331343Y303156D01*
X331263Y303195D01*
X331182Y303229D01*
X331099Y303261D01*
X331014Y303288D01*
X330929Y303313D01*
X330843Y303333D01*
X330756Y303350D01*
X330668Y303363D01*
X330580Y303372D01*
X330492Y303378D01*
X330403Y303380D01*
X330403Y303381D02*
X328315Y303381D01*
X324846Y299204D02*
X321713Y299204D01*
X321713Y299203D02*
X321624Y299201D01*
X321536Y299195D01*
X321448Y299186D01*
X321360Y299173D01*
X321273Y299156D01*
X321187Y299136D01*
X321102Y299111D01*
X321017Y299084D01*
X320934Y299052D01*
X320853Y299018D01*
X320773Y298979D01*
X320695Y298938D01*
X320618Y298893D01*
X320544Y298845D01*
X320471Y298794D01*
X320401Y298740D01*
X320334Y298682D01*
X320268Y298622D01*
X320206Y298560D01*
X320146Y298494D01*
X320088Y298427D01*
X320034Y298357D01*
X319983Y298284D01*
X319935Y298210D01*
X319890Y298133D01*
X319849Y298055D01*
X319810Y297975D01*
X319776Y297894D01*
X319744Y297811D01*
X319717Y297726D01*
X319692Y297641D01*
X319672Y297555D01*
X319655Y297468D01*
X319642Y297380D01*
X319633Y297292D01*
X319627Y297204D01*
X319625Y297115D01*
X319625Y296593D01*
X319624Y296593D02*
X319626Y296492D01*
X319632Y296391D01*
X319642Y296290D01*
X319655Y296190D01*
X319673Y296090D01*
X319694Y295991D01*
X319720Y295893D01*
X319749Y295796D01*
X319781Y295700D01*
X319818Y295606D01*
X319858Y295513D01*
X319902Y295421D01*
X319949Y295332D01*
X320000Y295244D01*
X320054Y295158D01*
X320111Y295075D01*
X320171Y294993D01*
X320235Y294915D01*
X320301Y294838D01*
X320371Y294765D01*
X320443Y294694D01*
X320518Y294626D01*
X320596Y294561D01*
X320676Y294499D01*
X320758Y294440D01*
X320843Y294384D01*
X320930Y294332D01*
X321018Y294283D01*
X321109Y294237D01*
X321201Y294196D01*
X321295Y294157D01*
X321390Y294123D01*
X321486Y294092D01*
X321584Y294065D01*
X321682Y294041D01*
X321782Y294022D01*
X321882Y294006D01*
X321982Y293994D01*
X322083Y293986D01*
X322184Y293982D01*
X322286Y293982D01*
X322387Y293986D01*
X322488Y293994D01*
X322588Y294006D01*
X322688Y294022D01*
X322788Y294041D01*
X322886Y294065D01*
X322984Y294092D01*
X323080Y294123D01*
X323175Y294157D01*
X323269Y294196D01*
X323361Y294237D01*
X323452Y294283D01*
X323540Y294332D01*
X323627Y294384D01*
X323712Y294440D01*
X323794Y294499D01*
X323874Y294561D01*
X323952Y294626D01*
X324027Y294694D01*
X324099Y294765D01*
X324169Y294838D01*
X324235Y294915D01*
X324299Y294993D01*
X324359Y295075D01*
X324416Y295158D01*
X324470Y295244D01*
X324521Y295332D01*
X324568Y295421D01*
X324612Y295513D01*
X324652Y295606D01*
X324689Y295700D01*
X324721Y295796D01*
X324750Y295893D01*
X324776Y295991D01*
X324797Y296090D01*
X324815Y296190D01*
X324828Y296290D01*
X324838Y296391D01*
X324844Y296492D01*
X324846Y296593D01*
X324846Y299204D01*
X324844Y299330D01*
X324838Y299456D01*
X324829Y299582D01*
X324816Y299707D01*
X324798Y299832D01*
X324778Y299957D01*
X324753Y300081D01*
X324725Y300204D01*
X324693Y300326D01*
X324657Y300447D01*
X324618Y300567D01*
X324575Y300685D01*
X324528Y300802D01*
X324478Y300918D01*
X324424Y301033D01*
X324368Y301145D01*
X324307Y301256D01*
X324244Y301365D01*
X324177Y301472D01*
X324107Y301577D01*
X324033Y301680D01*
X323957Y301780D01*
X323878Y301878D01*
X323796Y301974D01*
X323710Y302067D01*
X323623Y302158D01*
X323532Y302245D01*
X323439Y302331D01*
X323343Y302413D01*
X323245Y302492D01*
X323145Y302568D01*
X323042Y302642D01*
X322937Y302712D01*
X322830Y302779D01*
X322721Y302842D01*
X322610Y302903D01*
X322498Y302959D01*
X322383Y303013D01*
X322267Y303063D01*
X322150Y303110D01*
X322032Y303153D01*
X321912Y303192D01*
X321791Y303228D01*
X321669Y303260D01*
X321546Y303288D01*
X321422Y303313D01*
X321297Y303333D01*
X321172Y303351D01*
X321047Y303364D01*
X320921Y303373D01*
X320795Y303379D01*
X320669Y303381D01*
X414095Y397332D02*
X416184Y397332D01*
X416184Y397333D02*
X416273Y397335D01*
X416361Y397341D01*
X416449Y397350D01*
X416537Y397363D01*
X416624Y397380D01*
X416710Y397400D01*
X416795Y397425D01*
X416880Y397452D01*
X416963Y397484D01*
X417044Y397518D01*
X417124Y397557D01*
X417202Y397598D01*
X417279Y397643D01*
X417353Y397691D01*
X417426Y397742D01*
X417496Y397796D01*
X417563Y397854D01*
X417629Y397914D01*
X417691Y397976D01*
X417751Y398042D01*
X417809Y398109D01*
X417863Y398179D01*
X417914Y398252D01*
X417962Y398326D01*
X418007Y398403D01*
X418048Y398481D01*
X418087Y398561D01*
X418121Y398642D01*
X418153Y398725D01*
X418180Y398810D01*
X418205Y398895D01*
X418225Y398981D01*
X418242Y399068D01*
X418255Y399156D01*
X418264Y399244D01*
X418270Y399332D01*
X418272Y399421D01*
X418272Y404642D01*
X418270Y404731D01*
X418264Y404819D01*
X418255Y404907D01*
X418242Y404995D01*
X418225Y405082D01*
X418205Y405168D01*
X418180Y405253D01*
X418153Y405338D01*
X418121Y405421D01*
X418087Y405502D01*
X418048Y405582D01*
X418007Y405660D01*
X417962Y405737D01*
X417914Y405811D01*
X417863Y405884D01*
X417809Y405954D01*
X417751Y406021D01*
X417691Y406087D01*
X417629Y406149D01*
X417563Y406209D01*
X417496Y406267D01*
X417426Y406321D01*
X417353Y406372D01*
X417279Y406420D01*
X417202Y406465D01*
X417124Y406506D01*
X417044Y406545D01*
X416963Y406579D01*
X416880Y406611D01*
X416795Y406638D01*
X416710Y406663D01*
X416624Y406683D01*
X416537Y406700D01*
X416449Y406713D01*
X416361Y406722D01*
X416273Y406728D01*
X416184Y406730D01*
X414095Y406730D01*
X408538Y401509D02*
X405405Y401509D01*
X408538Y401510D02*
X408627Y401512D01*
X408715Y401518D01*
X408803Y401527D01*
X408891Y401540D01*
X408978Y401557D01*
X409064Y401577D01*
X409149Y401602D01*
X409234Y401629D01*
X409317Y401661D01*
X409398Y401695D01*
X409478Y401734D01*
X409556Y401775D01*
X409633Y401820D01*
X409707Y401868D01*
X409780Y401919D01*
X409850Y401973D01*
X409917Y402031D01*
X409983Y402091D01*
X410045Y402153D01*
X410105Y402219D01*
X410163Y402286D01*
X410217Y402356D01*
X410268Y402429D01*
X410316Y402503D01*
X410361Y402580D01*
X410402Y402658D01*
X410441Y402738D01*
X410475Y402819D01*
X410507Y402902D01*
X410534Y402987D01*
X410559Y403072D01*
X410579Y403158D01*
X410596Y403245D01*
X410609Y403333D01*
X410618Y403421D01*
X410624Y403509D01*
X410626Y403598D01*
X410626Y404120D01*
X410627Y404120D02*
X410625Y404221D01*
X410619Y404322D01*
X410609Y404423D01*
X410596Y404523D01*
X410578Y404623D01*
X410557Y404722D01*
X410531Y404820D01*
X410502Y404917D01*
X410470Y405013D01*
X410433Y405107D01*
X410393Y405200D01*
X410349Y405292D01*
X410302Y405381D01*
X410251Y405469D01*
X410197Y405555D01*
X410140Y405638D01*
X410080Y405720D01*
X410016Y405798D01*
X409950Y405875D01*
X409880Y405948D01*
X409808Y406019D01*
X409733Y406087D01*
X409655Y406152D01*
X409575Y406214D01*
X409493Y406273D01*
X409408Y406329D01*
X409322Y406381D01*
X409233Y406430D01*
X409142Y406476D01*
X409050Y406517D01*
X408956Y406556D01*
X408861Y406590D01*
X408765Y406621D01*
X408667Y406648D01*
X408569Y406672D01*
X408469Y406691D01*
X408369Y406707D01*
X408269Y406719D01*
X408168Y406727D01*
X408067Y406731D01*
X407965Y406731D01*
X407864Y406727D01*
X407763Y406719D01*
X407663Y406707D01*
X407563Y406691D01*
X407463Y406672D01*
X407365Y406648D01*
X407267Y406621D01*
X407171Y406590D01*
X407076Y406556D01*
X406982Y406517D01*
X406890Y406476D01*
X406799Y406430D01*
X406711Y406381D01*
X406624Y406329D01*
X406539Y406273D01*
X406457Y406214D01*
X406377Y406152D01*
X406299Y406087D01*
X406224Y406019D01*
X406152Y405948D01*
X406082Y405875D01*
X406016Y405798D01*
X405952Y405720D01*
X405892Y405638D01*
X405835Y405555D01*
X405781Y405469D01*
X405730Y405381D01*
X405683Y405292D01*
X405639Y405200D01*
X405599Y405107D01*
X405562Y405013D01*
X405530Y404917D01*
X405501Y404820D01*
X405475Y404722D01*
X405454Y404623D01*
X405436Y404523D01*
X405423Y404423D01*
X405413Y404322D01*
X405407Y404221D01*
X405405Y404120D01*
X405405Y401509D01*
X405407Y401383D01*
X405413Y401257D01*
X405422Y401131D01*
X405435Y401006D01*
X405453Y400881D01*
X405473Y400756D01*
X405498Y400632D01*
X405526Y400509D01*
X405558Y400387D01*
X405594Y400266D01*
X405633Y400146D01*
X405676Y400028D01*
X405723Y399911D01*
X405773Y399795D01*
X405827Y399680D01*
X405883Y399568D01*
X405944Y399457D01*
X406007Y399348D01*
X406074Y399241D01*
X406144Y399136D01*
X406218Y399033D01*
X406294Y398933D01*
X406373Y398835D01*
X406455Y398739D01*
X406541Y398646D01*
X406628Y398555D01*
X406719Y398468D01*
X406812Y398382D01*
X406908Y398300D01*
X407006Y398221D01*
X407106Y398145D01*
X407209Y398071D01*
X407314Y398001D01*
X407421Y397934D01*
X407530Y397871D01*
X407641Y397810D01*
X407753Y397754D01*
X407868Y397700D01*
X407984Y397650D01*
X408101Y397603D01*
X408219Y397560D01*
X408339Y397521D01*
X408460Y397485D01*
X408582Y397453D01*
X408705Y397425D01*
X408829Y397400D01*
X408954Y397380D01*
X409079Y397362D01*
X409204Y397349D01*
X409330Y397340D01*
X409456Y397334D01*
X409582Y397332D01*
X331869Y214201D02*
X331869Y204803D01*
X331869Y214201D02*
X329258Y214201D01*
X329157Y214199D01*
X329056Y214193D01*
X328955Y214183D01*
X328855Y214170D01*
X328755Y214152D01*
X328656Y214131D01*
X328558Y214105D01*
X328461Y214076D01*
X328365Y214044D01*
X328271Y214007D01*
X328178Y213967D01*
X328086Y213923D01*
X327997Y213876D01*
X327909Y213825D01*
X327823Y213771D01*
X327740Y213714D01*
X327658Y213654D01*
X327580Y213590D01*
X327503Y213524D01*
X327430Y213454D01*
X327359Y213382D01*
X327291Y213307D01*
X327226Y213229D01*
X327164Y213149D01*
X327105Y213067D01*
X327049Y212982D01*
X326997Y212896D01*
X326948Y212807D01*
X326902Y212716D01*
X326861Y212624D01*
X326822Y212530D01*
X326788Y212435D01*
X326757Y212339D01*
X326730Y212241D01*
X326706Y212143D01*
X326687Y212043D01*
X326671Y211943D01*
X326659Y211843D01*
X326651Y211742D01*
X326647Y211641D01*
X326647Y211539D01*
X326651Y211438D01*
X326659Y211337D01*
X326671Y211237D01*
X326687Y211137D01*
X326706Y211037D01*
X326730Y210939D01*
X326757Y210841D01*
X326788Y210745D01*
X326822Y210650D01*
X326861Y210556D01*
X326902Y210464D01*
X326948Y210373D01*
X326997Y210285D01*
X327049Y210198D01*
X327105Y210113D01*
X327164Y210031D01*
X327226Y209951D01*
X327291Y209873D01*
X327359Y209798D01*
X327430Y209726D01*
X327503Y209656D01*
X327580Y209590D01*
X327658Y209526D01*
X327740Y209466D01*
X327823Y209409D01*
X327909Y209355D01*
X327997Y209304D01*
X328086Y209257D01*
X328178Y209213D01*
X328271Y209173D01*
X328365Y209136D01*
X328461Y209104D01*
X328558Y209075D01*
X328656Y209049D01*
X328755Y209028D01*
X328855Y209010D01*
X328955Y208997D01*
X329056Y208987D01*
X329157Y208981D01*
X329258Y208979D01*
X329258Y208980D02*
X331869Y208980D01*
X328736Y208980D02*
X326648Y204803D01*
X317560Y211851D02*
X317562Y211946D01*
X317568Y212040D01*
X317577Y212134D01*
X317590Y212228D01*
X317607Y212321D01*
X317628Y212413D01*
X317653Y212505D01*
X317681Y212595D01*
X317713Y212684D01*
X317748Y212772D01*
X317787Y212858D01*
X317829Y212943D01*
X317875Y213026D01*
X317924Y213107D01*
X317976Y213186D01*
X318031Y213263D01*
X318090Y213337D01*
X318151Y213409D01*
X318215Y213479D01*
X318282Y213546D01*
X318352Y213610D01*
X318424Y213671D01*
X318498Y213730D01*
X318575Y213785D01*
X318654Y213837D01*
X318735Y213886D01*
X318818Y213932D01*
X318903Y213974D01*
X318989Y214013D01*
X319077Y214048D01*
X319166Y214080D01*
X319256Y214108D01*
X319348Y214133D01*
X319440Y214154D01*
X319533Y214171D01*
X319627Y214184D01*
X319721Y214193D01*
X319815Y214199D01*
X319910Y214201D01*
X319910Y214200D02*
X320018Y214198D01*
X320127Y214192D01*
X320235Y214182D01*
X320342Y214169D01*
X320449Y214151D01*
X320556Y214130D01*
X320661Y214105D01*
X320766Y214076D01*
X320869Y214044D01*
X320971Y214007D01*
X321072Y213967D01*
X321171Y213924D01*
X321269Y213877D01*
X321365Y213826D01*
X321459Y213772D01*
X321551Y213715D01*
X321641Y213654D01*
X321729Y213590D01*
X321814Y213524D01*
X321897Y213454D01*
X321977Y213381D01*
X322055Y213305D01*
X322130Y213227D01*
X322202Y213146D01*
X322271Y213062D01*
X322337Y212976D01*
X322400Y212888D01*
X322459Y212797D01*
X322516Y212705D01*
X322569Y212610D01*
X322618Y212513D01*
X322664Y212415D01*
X322707Y212316D01*
X322746Y212214D01*
X322781Y212112D01*
X318343Y210023D02*
X318274Y210092D01*
X318208Y210163D01*
X318144Y210236D01*
X318083Y210312D01*
X318025Y210391D01*
X317971Y210471D01*
X317919Y210554D01*
X317871Y210638D01*
X317825Y210724D01*
X317784Y210812D01*
X317745Y210902D01*
X317710Y210993D01*
X317679Y211085D01*
X317651Y211178D01*
X317627Y211272D01*
X317607Y211367D01*
X317590Y211463D01*
X317577Y211560D01*
X317568Y211657D01*
X317562Y211754D01*
X317560Y211851D01*
X318344Y210024D02*
X322782Y204803D01*
X317561Y204803D01*
M02*
