M48
;GenerationSoftware,Autodesk,EAGLE,9.6.2*%
;CreationDate,2022-11-09T21:05:13Z*%
FMAT,2
ICI,OFF
METRIC,TZ,000.000
T3C0.350
T2C1.016
T1C1.100
%
G90
M71
T1
X36548Y46074
X33048Y46074
X31171Y23141
X34671Y23141
X38171Y23141
T2
X25468Y39670
X47153Y32278
X25459Y44750
X25463Y42210
T3
X47038Y38322
X45593Y39354
X44704Y32480
X49530Y33687
X45324Y24168
X50148Y32881
X50165Y36449
X43942Y47117
X40853Y49022
X28387Y49022
X25394Y47192
X19095Y36356
X19050Y32766
X24167Y23827
X23050Y34877
X25066Y29528
X27527Y34179
X30210Y37806
X38846Y36623
X45730Y32035
X44291Y42806
X22908Y33909
X26608Y33512
X26098Y27273
X43781Y27300
X33052Y24543
X38640Y26829
X42259Y45720
X28003Y46037
X28448Y43434
X43019Y27267
X27003Y27294
X34290Y28956
X31194Y41656
X43053Y40005
X40497Y46736
X43482Y36592
X45672Y29812
X39227Y30805
X41148Y41336
X41560Y37116
X34685Y39536
X39552Y22766
X32337Y27150
X29715Y36039
X22098Y31210
X40259Y40386
X27924Y33258
X29051Y31034
X29289Y32798
X29527Y31861
X38224Y38623
X21987Y37862
X36132Y24622
X41910Y47371
X27114Y47292
X19939Y34544
X42563Y21999
X26871Y21953
X27780Y21318
X35655Y26987
X36497Y42293
M30