G04 EAGLE Gerber RS-274X export*
G75*
%MOMM*%
%FSLAX34Y34*%
%LPD*%
%INTop Copper*%
%IPPOS*%
%AMOC8*
5,1,8,0,0,1.08239X$1,22.5*%
G01*
%ADD10R,0.800000X0.800000*%
%ADD11R,1.100000X1.000000*%
%ADD12C,1.000000*%
%ADD13C,1.700000*%
%ADD14R,0.600000X0.250000*%
%ADD15R,0.250000X0.600000*%
%ADD16R,4.600000X4.600000*%
%ADD17R,2.400000X2.600000*%
%ADD18R,1.000000X1.100000*%
%ADD19R,1.000000X0.600000*%
%ADD20P,1.649562X8X22.500000*%
%ADD21C,1.524000*%
%ADD22C,0.756400*%
%ADD23C,0.609600*%
%ADD24C,0.254000*%
%ADD25C,0.406400*%
%ADD26C,0.304800*%
%ADD27C,0.508000*%

G36*
X281785Y339123D02*
X281785Y339123D01*
X281787Y339123D01*
X281881Y339145D01*
X281979Y339168D01*
X281980Y339168D01*
X281982Y339169D01*
X282130Y339271D01*
X285958Y343100D01*
X288339Y345481D01*
X306708Y345481D01*
X306819Y345461D01*
X307962Y345461D01*
X307967Y345462D01*
X307972Y345461D01*
X308065Y345482D01*
X308159Y345500D01*
X308163Y345503D01*
X308168Y345504D01*
X308246Y345560D01*
X308324Y345613D01*
X308327Y345617D01*
X308331Y345620D01*
X308382Y345702D01*
X308434Y345781D01*
X308434Y345786D01*
X308437Y345791D01*
X308469Y345968D01*
X308469Y357372D01*
X308468Y357377D01*
X308469Y357382D01*
X308448Y357475D01*
X308430Y357569D01*
X308427Y357573D01*
X308426Y357578D01*
X308370Y357656D01*
X308317Y357734D01*
X308313Y357737D01*
X308310Y357742D01*
X308228Y357792D01*
X308149Y357844D01*
X308144Y357845D01*
X308139Y357847D01*
X307962Y357879D01*
X306819Y357879D01*
X306811Y357878D01*
X306803Y357879D01*
X306718Y357859D01*
X303281Y357859D01*
X303275Y357858D01*
X303268Y357859D01*
X303177Y357838D01*
X303085Y357820D01*
X303079Y357816D01*
X303073Y357815D01*
X302996Y357760D01*
X302919Y357707D01*
X302915Y357702D01*
X302910Y357698D01*
X302813Y357546D01*
X302508Y356812D01*
X300730Y355033D01*
X300478Y354929D01*
X299254Y354422D01*
X298406Y354070D01*
X296247Y354070D01*
X296239Y354069D01*
X296232Y354070D01*
X296142Y354049D01*
X296051Y354031D01*
X296044Y354026D01*
X296036Y354025D01*
X295888Y353922D01*
X295761Y353795D01*
X272373Y353795D01*
X272365Y353793D01*
X272357Y353795D01*
X272268Y353774D01*
X272176Y353755D01*
X272170Y353751D01*
X272162Y353749D01*
X272014Y353646D01*
X270496Y352129D01*
X257392Y352129D01*
X255903Y353617D01*
X255903Y365722D01*
X257392Y367210D01*
X270496Y367210D01*
X271985Y365722D01*
X271985Y361924D01*
X271986Y361918D01*
X271985Y361913D01*
X272006Y361820D01*
X272024Y361727D01*
X272027Y361723D01*
X272029Y361718D01*
X272084Y361640D01*
X272137Y361561D01*
X272141Y361558D01*
X272145Y361554D01*
X272226Y361504D01*
X272305Y361452D01*
X272310Y361451D01*
X272315Y361448D01*
X272492Y361416D01*
X275816Y361416D01*
X275821Y361417D01*
X275826Y361416D01*
X275919Y361437D01*
X276013Y361456D01*
X276017Y361459D01*
X276022Y361460D01*
X276100Y361515D01*
X276178Y361569D01*
X276181Y361573D01*
X276186Y361576D01*
X276236Y361657D01*
X276288Y361737D01*
X276289Y361742D01*
X276291Y361746D01*
X276323Y361924D01*
X276323Y367044D01*
X276322Y367052D01*
X276323Y367059D01*
X276302Y367149D01*
X276284Y367240D01*
X276279Y367247D01*
X276278Y367255D01*
X276175Y367403D01*
X272831Y370746D01*
X272827Y370749D01*
X272824Y370753D01*
X272744Y370804D01*
X272664Y370857D01*
X272659Y370858D01*
X272655Y370861D01*
X272561Y370877D01*
X272467Y370895D01*
X272462Y370893D01*
X272457Y370894D01*
X272365Y370873D01*
X272271Y370853D01*
X272267Y370850D01*
X272262Y370849D01*
X272114Y370746D01*
X270496Y369129D01*
X257392Y369129D01*
X255903Y370617D01*
X255903Y382722D01*
X257392Y384210D01*
X270496Y384210D01*
X271994Y382712D01*
X272006Y382661D01*
X272024Y382569D01*
X272027Y382564D01*
X272029Y382559D01*
X272084Y382481D01*
X272137Y382403D01*
X272141Y382400D01*
X272145Y382396D01*
X272226Y382345D01*
X272305Y382294D01*
X272310Y382293D01*
X272315Y382290D01*
X272492Y382258D01*
X275923Y382258D01*
X277977Y381407D01*
X279621Y379764D01*
X281372Y378013D01*
X281376Y378010D01*
X281379Y378006D01*
X281459Y377955D01*
X281539Y377902D01*
X281544Y377901D01*
X281548Y377898D01*
X281642Y377882D01*
X281736Y377864D01*
X281741Y377865D01*
X281746Y377864D01*
X281838Y377886D01*
X281932Y377906D01*
X281936Y377909D01*
X281941Y377910D01*
X282089Y378013D01*
X282267Y378191D01*
X282631Y378342D01*
X283856Y378849D01*
X284321Y379042D01*
X292592Y379042D01*
X292600Y379043D01*
X292608Y379042D01*
X292697Y379063D01*
X292789Y379081D01*
X292795Y379086D01*
X292803Y379087D01*
X292951Y379190D01*
X296555Y382795D01*
X296826Y382907D01*
X298051Y383414D01*
X298609Y383645D01*
X298972Y383645D01*
X298981Y383647D01*
X298990Y383646D01*
X299166Y383684D01*
X299168Y383685D01*
X299318Y383747D01*
X299319Y383748D01*
X299321Y383748D01*
X299404Y383805D01*
X299485Y383859D01*
X299485Y383860D01*
X299486Y383861D01*
X299540Y383943D01*
X299595Y384026D01*
X299595Y384028D01*
X299596Y384029D01*
X299613Y384126D01*
X299631Y384223D01*
X299631Y384225D01*
X299631Y384226D01*
X299609Y384325D01*
X299589Y384419D01*
X299588Y384420D01*
X299588Y384422D01*
X299529Y384504D01*
X299474Y384583D01*
X299472Y384584D01*
X299472Y384585D01*
X299387Y384638D01*
X299304Y384690D01*
X299303Y384690D01*
X299301Y384691D01*
X299124Y384723D01*
X295056Y384723D01*
X280752Y399028D01*
X280752Y426282D01*
X287567Y433097D01*
X287571Y433103D01*
X287577Y433108D01*
X287626Y433186D01*
X287678Y433264D01*
X287679Y433271D01*
X287683Y433278D01*
X287715Y433455D01*
X287715Y437772D01*
X289204Y439260D01*
X301308Y439260D01*
X302797Y437772D01*
X302797Y436937D01*
X302797Y436934D01*
X302797Y436931D01*
X302817Y436836D01*
X302836Y436740D01*
X302838Y436738D01*
X302838Y436735D01*
X302894Y436655D01*
X302949Y436574D01*
X302951Y436573D01*
X302953Y436571D01*
X303036Y436517D01*
X303117Y436465D01*
X303120Y436465D01*
X303122Y436463D01*
X303218Y436447D01*
X303314Y436429D01*
X303317Y436430D01*
X303319Y436430D01*
X303413Y436451D01*
X303510Y436473D01*
X303512Y436475D01*
X303515Y436475D01*
X303663Y436578D01*
X305387Y438303D01*
X305392Y438309D01*
X305398Y438314D01*
X305447Y438392D01*
X305498Y438469D01*
X305500Y438477D01*
X305500Y438478D01*
X305504Y438484D01*
X305536Y438661D01*
X305536Y450237D01*
X305534Y450245D01*
X305536Y450253D01*
X305515Y450343D01*
X305496Y450434D01*
X305492Y450440D01*
X305490Y450448D01*
X305387Y450596D01*
X300479Y455504D01*
X300472Y455508D01*
X300468Y455515D01*
X300389Y455564D01*
X300312Y455615D01*
X300304Y455617D01*
X300298Y455621D01*
X300120Y455653D01*
X293972Y455653D01*
X292484Y457141D01*
X292484Y470246D01*
X293972Y471734D01*
X294437Y471734D01*
X294442Y471735D01*
X294447Y471734D01*
X294540Y471755D01*
X294633Y471774D01*
X294638Y471777D01*
X294643Y471778D01*
X294721Y471833D01*
X294799Y471886D01*
X294802Y471891D01*
X294806Y471894D01*
X294857Y471975D01*
X294908Y472054D01*
X294909Y472060D01*
X294912Y472064D01*
X294944Y472241D01*
X294944Y478871D01*
X294963Y478891D01*
X294968Y478897D01*
X294974Y478902D01*
X295023Y478981D01*
X295074Y479058D01*
X295076Y479065D01*
X295080Y479072D01*
X295112Y479250D01*
X295112Y485947D01*
X296600Y487436D01*
X309705Y487436D01*
X311193Y485947D01*
X311193Y473843D01*
X309705Y472354D01*
X306682Y472354D01*
X306679Y472354D01*
X306677Y472354D01*
X306582Y472334D01*
X306485Y472315D01*
X306483Y472313D01*
X306480Y472313D01*
X306400Y472257D01*
X306319Y472202D01*
X306318Y472200D01*
X306316Y472198D01*
X306263Y472114D01*
X306210Y472034D01*
X306210Y472031D01*
X306208Y472029D01*
X306192Y471933D01*
X306175Y471837D01*
X306175Y471834D01*
X306175Y471831D01*
X306197Y471737D01*
X306218Y471641D01*
X306220Y471639D01*
X306220Y471636D01*
X306323Y471488D01*
X307566Y470246D01*
X307566Y462998D01*
X307567Y462991D01*
X307566Y462983D01*
X307587Y462893D01*
X307605Y462802D01*
X307610Y462795D01*
X307611Y462788D01*
X307714Y462640D01*
X315697Y454656D01*
X315697Y442014D01*
X315699Y442006D01*
X315698Y441999D01*
X315719Y441909D01*
X315737Y441818D01*
X315741Y441811D01*
X315743Y441803D01*
X315846Y441655D01*
X315925Y441576D01*
X315932Y441572D01*
X315936Y441565D01*
X316015Y441516D01*
X316092Y441465D01*
X316100Y441463D01*
X316107Y441459D01*
X316284Y441427D01*
X370938Y441427D01*
X371438Y440927D01*
X371446Y440922D01*
X371451Y440915D01*
X371603Y440817D01*
X372736Y440348D01*
X387499Y425584D01*
X387502Y425583D01*
X387503Y425581D01*
X387584Y425528D01*
X387666Y425473D01*
X387669Y425473D01*
X387671Y425471D01*
X387767Y425454D01*
X387863Y425436D01*
X387866Y425436D01*
X387868Y425436D01*
X387965Y425457D01*
X388059Y425477D01*
X388061Y425479D01*
X388064Y425479D01*
X388144Y425536D01*
X388224Y425592D01*
X388225Y425594D01*
X388227Y425595D01*
X388279Y425678D01*
X388331Y425761D01*
X388332Y425763D01*
X388333Y425766D01*
X388365Y425943D01*
X388365Y439039D01*
X388364Y439044D01*
X388365Y439049D01*
X388344Y439142D01*
X388326Y439236D01*
X388323Y439240D01*
X388322Y439245D01*
X388266Y439323D01*
X388213Y439401D01*
X388209Y439404D01*
X388206Y439408D01*
X388124Y439459D01*
X388045Y439511D01*
X388040Y439511D01*
X388035Y439514D01*
X387858Y439546D01*
X379973Y439546D01*
X377919Y440397D01*
X376276Y442041D01*
X368581Y449735D01*
X368576Y449739D01*
X368572Y449744D01*
X368493Y449794D01*
X368414Y449846D01*
X368408Y449847D01*
X368402Y449851D01*
X368309Y449866D01*
X368217Y449884D01*
X368211Y449882D01*
X368204Y449883D01*
X368028Y449845D01*
X367882Y449785D01*
X367676Y449699D01*
X363284Y449699D01*
X359226Y451380D01*
X356120Y454486D01*
X354439Y458544D01*
X354439Y462936D01*
X356120Y466994D01*
X359226Y470100D01*
X359356Y470154D01*
X360581Y470661D01*
X361805Y471168D01*
X363030Y471676D01*
X363284Y471781D01*
X367676Y471781D01*
X371734Y470100D01*
X374840Y466994D01*
X376521Y462936D01*
X376521Y458544D01*
X376375Y458192D01*
X376374Y458185D01*
X376370Y458180D01*
X376354Y458087D01*
X376336Y457995D01*
X376338Y457988D01*
X376336Y457982D01*
X376358Y457891D01*
X376377Y457799D01*
X376381Y457793D01*
X376382Y457787D01*
X376485Y457639D01*
X383251Y450872D01*
X383258Y450868D01*
X383262Y450862D01*
X383341Y450813D01*
X383418Y450761D01*
X383426Y450760D01*
X383433Y450756D01*
X383610Y450724D01*
X388192Y450724D01*
X388197Y450725D01*
X388202Y450724D01*
X388295Y450745D01*
X388389Y450763D01*
X388393Y450766D01*
X388398Y450767D01*
X388476Y450823D01*
X388554Y450876D01*
X388557Y450880D01*
X388561Y450883D01*
X388612Y450965D01*
X388664Y451044D01*
X388664Y451049D01*
X388667Y451054D01*
X388699Y451231D01*
X388699Y451442D01*
X390188Y452931D01*
X402292Y452931D01*
X403781Y451442D01*
X403781Y438338D01*
X402292Y436849D01*
X397002Y436849D01*
X396997Y436848D01*
X396992Y436849D01*
X396899Y436828D01*
X396805Y436810D01*
X396801Y436807D01*
X396796Y436806D01*
X396718Y436750D01*
X396640Y436697D01*
X396637Y436693D01*
X396633Y436690D01*
X396582Y436608D01*
X396530Y436529D01*
X396530Y436524D01*
X396527Y436519D01*
X396495Y436342D01*
X396495Y419408D01*
X396496Y419403D01*
X396495Y419398D01*
X396516Y419305D01*
X396534Y419211D01*
X396537Y419207D01*
X396538Y419202D01*
X396594Y419124D01*
X396647Y419046D01*
X396651Y419043D01*
X396654Y419039D01*
X396736Y418988D01*
X396815Y418936D01*
X396820Y418936D01*
X396825Y418933D01*
X397002Y418901D01*
X401835Y418901D01*
X401844Y418903D01*
X401853Y418901D01*
X402029Y418939D01*
X402032Y418940D01*
X402052Y418949D01*
X408349Y418949D01*
X408358Y418951D01*
X408367Y418949D01*
X408544Y418987D01*
X408546Y418988D01*
X409609Y419429D01*
X410222Y419683D01*
X412738Y419683D01*
X413398Y419409D01*
X413402Y419409D01*
X413405Y419406D01*
X413500Y419389D01*
X413595Y419371D01*
X413598Y419371D01*
X413602Y419371D01*
X413696Y419392D01*
X413791Y419411D01*
X413794Y419413D01*
X413798Y419414D01*
X413877Y419470D01*
X413956Y419525D01*
X413958Y419528D01*
X413961Y419530D01*
X414013Y419613D01*
X414065Y419693D01*
X414065Y419697D01*
X414067Y419701D01*
X414099Y419878D01*
X414099Y420182D01*
X415588Y421671D01*
X427692Y421671D01*
X429181Y420182D01*
X429181Y419726D01*
X429182Y419721D01*
X429181Y419716D01*
X429202Y419623D01*
X429220Y419529D01*
X429223Y419525D01*
X429224Y419520D01*
X429280Y419442D01*
X429333Y419364D01*
X429337Y419361D01*
X429340Y419357D01*
X429422Y419306D01*
X429501Y419254D01*
X429506Y419254D01*
X429511Y419251D01*
X429688Y419219D01*
X432642Y419219D01*
X432647Y419220D01*
X432652Y419219D01*
X432745Y419240D01*
X432839Y419258D01*
X432843Y419261D01*
X432848Y419262D01*
X432926Y419318D01*
X433004Y419371D01*
X433007Y419375D01*
X433011Y419378D01*
X433062Y419460D01*
X433114Y419539D01*
X433114Y419544D01*
X433117Y419549D01*
X433149Y419726D01*
X433149Y420182D01*
X434638Y421671D01*
X439259Y421671D01*
X439260Y421671D01*
X439261Y421671D01*
X439359Y421691D01*
X439455Y421710D01*
X439456Y421711D01*
X439458Y421711D01*
X439540Y421768D01*
X439621Y421823D01*
X439622Y421824D01*
X439623Y421825D01*
X439677Y421908D01*
X439730Y421991D01*
X439731Y421992D01*
X439731Y421993D01*
X439748Y422091D01*
X439766Y422188D01*
X439766Y422190D01*
X439766Y422191D01*
X439744Y422286D01*
X439722Y422384D01*
X439722Y422385D01*
X439721Y422386D01*
X439665Y422465D01*
X439606Y422547D01*
X439605Y422548D01*
X439604Y422549D01*
X439453Y422647D01*
X439331Y422697D01*
X437552Y424476D01*
X436590Y426800D01*
X436590Y429315D01*
X437552Y431639D01*
X439331Y433417D01*
X439849Y433632D01*
X441073Y434139D01*
X441655Y434380D01*
X444170Y434380D01*
X446494Y433417D01*
X447523Y432388D01*
X447530Y432383D01*
X447535Y432376D01*
X447613Y432329D01*
X447690Y432277D01*
X447699Y432276D01*
X447706Y432271D01*
X447797Y432257D01*
X447887Y432240D01*
X447895Y432242D01*
X447904Y432240D01*
X447993Y432262D01*
X448083Y432281D01*
X448090Y432286D01*
X448099Y432288D01*
X448173Y432343D01*
X448248Y432396D01*
X448252Y432403D01*
X448259Y432408D01*
X448354Y432562D01*
X448509Y432956D01*
X448521Y433026D01*
X448542Y433093D01*
X448539Y433126D01*
X448544Y433154D01*
X448533Y433204D01*
X448527Y433273D01*
X448503Y433362D01*
X449000Y434222D01*
X449011Y434255D01*
X449033Y434290D01*
X449396Y435215D01*
X449481Y435252D01*
X449539Y435293D01*
X449601Y435326D01*
X449622Y435351D01*
X449645Y435367D01*
X449673Y435410D01*
X449717Y435463D01*
X450569Y436938D01*
X450592Y437004D01*
X450622Y437068D01*
X450624Y437101D01*
X450633Y437127D01*
X450629Y437179D01*
X450634Y437248D01*
X450624Y437339D01*
X451243Y438116D01*
X451259Y438147D01*
X451286Y438179D01*
X451783Y439039D01*
X451872Y439063D01*
X451935Y439094D01*
X452002Y439118D01*
X452027Y439139D01*
X452052Y439152D01*
X452085Y439191D01*
X452137Y439236D01*
X453200Y440567D01*
X453232Y440630D01*
X453271Y440689D01*
X453278Y440721D01*
X453291Y440746D01*
X453295Y440797D01*
X453310Y440865D01*
X453313Y440956D01*
X454042Y441632D01*
X454062Y441660D01*
X454094Y441688D01*
X454713Y442464D01*
X454805Y442475D01*
X454872Y442496D01*
X454941Y442510D01*
X454969Y442527D01*
X454996Y442536D01*
X455035Y442569D01*
X455093Y442607D01*
X456342Y443764D01*
X456383Y443822D01*
X456431Y443874D01*
X456442Y443904D01*
X456459Y443927D01*
X456470Y443977D01*
X456495Y444042D01*
X456512Y444132D01*
X457333Y444692D01*
X457357Y444716D01*
X457393Y444739D01*
X458144Y445436D01*
X458173Y445476D01*
X458210Y445509D01*
X458231Y445557D01*
X458261Y445599D01*
X458273Y445647D01*
X458293Y445692D01*
X458295Y445743D01*
X458306Y445794D01*
X458298Y445843D01*
X458300Y445892D01*
X458280Y445946D01*
X458272Y445991D01*
X458253Y446021D01*
X458239Y446062D01*
X445725Y467737D01*
X445678Y467789D01*
X445639Y467847D01*
X445613Y467864D01*
X445592Y467887D01*
X445529Y467918D01*
X445470Y467956D01*
X445440Y467961D01*
X445412Y467974D01*
X445342Y467978D01*
X445273Y467990D01*
X445242Y467983D01*
X445212Y467985D01*
X445146Y467961D01*
X445077Y467946D01*
X445052Y467928D01*
X445023Y467917D01*
X444971Y467870D01*
X444914Y467829D01*
X444896Y467801D01*
X444875Y467782D01*
X444854Y467735D01*
X444817Y467677D01*
X444780Y467588D01*
X443002Y465810D01*
X442276Y465509D01*
X441052Y465002D01*
X441051Y465002D01*
X440678Y464847D01*
X438162Y464847D01*
X435838Y465810D01*
X434060Y467588D01*
X433097Y469912D01*
X433097Y470770D01*
X433089Y470813D01*
X433090Y470857D01*
X433067Y470918D01*
X433058Y470966D01*
X433040Y470992D01*
X433028Y471026D01*
X431373Y473853D01*
X431358Y473869D01*
X431350Y473888D01*
X431292Y473943D01*
X431239Y474002D01*
X431220Y474011D01*
X431204Y474026D01*
X431107Y474065D01*
X431058Y474088D01*
X431048Y474089D01*
X431037Y474093D01*
X430169Y474271D01*
X430132Y474271D01*
X430088Y474281D01*
X429116Y474322D01*
X429039Y474406D01*
X428984Y474446D01*
X428935Y474492D01*
X428901Y474506D01*
X428877Y474524D01*
X428828Y474535D01*
X428768Y474559D01*
X428013Y474714D01*
X427945Y474714D01*
X427878Y474724D01*
X427843Y474715D01*
X427813Y474715D01*
X427767Y474696D01*
X427703Y474680D01*
X427599Y474633D01*
X426690Y474979D01*
X426653Y474985D01*
X426611Y475002D01*
X426032Y475121D01*
X425975Y475121D01*
X425920Y475131D01*
X425876Y475122D01*
X425832Y475122D01*
X425779Y475100D01*
X425724Y475088D01*
X425688Y475062D01*
X425647Y475045D01*
X425607Y475005D01*
X425561Y474972D01*
X425537Y474934D01*
X425506Y474902D01*
X425485Y474850D01*
X425455Y474802D01*
X425446Y474753D01*
X425431Y474716D01*
X425432Y474675D01*
X425423Y474624D01*
X425423Y472452D01*
X424460Y470128D01*
X422682Y468350D01*
X421947Y468046D01*
X420723Y467538D01*
X420722Y467538D01*
X420358Y467387D01*
X417842Y467387D01*
X415518Y468350D01*
X413740Y470128D01*
X412777Y472452D01*
X412777Y474968D01*
X413740Y477292D01*
X415518Y479070D01*
X416035Y479284D01*
X416036Y479284D01*
X417045Y479702D01*
X417069Y479719D01*
X417097Y479728D01*
X417152Y479774D01*
X417211Y479814D01*
X417227Y479839D01*
X417250Y479858D01*
X417282Y479922D01*
X417321Y479982D01*
X417327Y480011D01*
X417340Y480037D01*
X417345Y480108D01*
X417358Y480179D01*
X417352Y480207D01*
X417354Y480237D01*
X417330Y480305D01*
X417315Y480375D01*
X417298Y480399D01*
X417289Y480426D01*
X417232Y480493D01*
X417200Y480539D01*
X417185Y480548D01*
X417172Y480564D01*
X416727Y480927D01*
X416716Y481041D01*
X416696Y481106D01*
X416685Y481173D01*
X416666Y481204D01*
X416657Y481233D01*
X416625Y481271D01*
X416591Y481327D01*
X416081Y481904D01*
X416027Y481945D01*
X415979Y481992D01*
X415946Y482006D01*
X415922Y482025D01*
X415873Y482037D01*
X415813Y482063D01*
X415702Y482088D01*
X415182Y482911D01*
X415157Y482938D01*
X415133Y482976D01*
X414489Y483706D01*
X414496Y483820D01*
X414487Y483887D01*
X414486Y483955D01*
X414473Y483988D01*
X414469Y484018D01*
X414449Y484052D01*
X414448Y484059D01*
X414438Y484073D01*
X414419Y484122D01*
X414404Y484145D01*
X414376Y484174D01*
X414366Y484191D01*
X414359Y484196D01*
X414339Y484227D01*
X414299Y484255D01*
X414266Y484290D01*
X414218Y484311D01*
X414174Y484341D01*
X414122Y484353D01*
X414082Y484370D01*
X414044Y484371D01*
X413998Y484381D01*
X411360Y484501D01*
X411339Y484498D01*
X411319Y484501D01*
X411214Y484478D01*
X411162Y484470D01*
X411153Y484465D01*
X411142Y484463D01*
X410695Y484278D01*
X409787Y483901D01*
X407272Y483901D01*
X404948Y484864D01*
X403169Y486643D01*
X402207Y488967D01*
X402207Y491482D01*
X402612Y492460D01*
X402613Y492464D01*
X402615Y492467D01*
X402632Y492562D01*
X402651Y492657D01*
X402650Y492660D01*
X402650Y492664D01*
X402629Y492758D01*
X402610Y492853D01*
X402608Y492856D01*
X402607Y492860D01*
X402551Y492938D01*
X402496Y493018D01*
X402493Y493020D01*
X402491Y493023D01*
X402409Y493074D01*
X402328Y493127D01*
X402324Y493127D01*
X402321Y493129D01*
X402143Y493161D01*
X290261Y493161D01*
X290257Y493160D01*
X290253Y493161D01*
X290159Y493141D01*
X290064Y493122D01*
X290061Y493119D01*
X290057Y493119D01*
X289978Y493063D01*
X289898Y493009D01*
X289896Y493006D01*
X289893Y493003D01*
X289841Y492921D01*
X289789Y492841D01*
X289789Y492837D01*
X289786Y492834D01*
X289771Y492738D01*
X289754Y492644D01*
X289754Y492640D01*
X289754Y492636D01*
X289792Y492460D01*
X290197Y491482D01*
X290197Y488966D01*
X289235Y486643D01*
X287456Y484864D01*
X287265Y484785D01*
X286040Y484278D01*
X285132Y483901D01*
X282617Y483901D01*
X281262Y484463D01*
X281241Y484467D01*
X281223Y484477D01*
X281117Y484491D01*
X281065Y484501D01*
X281055Y484499D01*
X281044Y484501D01*
X278406Y484381D01*
X278354Y484368D01*
X278302Y484365D01*
X278258Y484344D01*
X278211Y484332D01*
X278169Y484301D01*
X278121Y484278D01*
X278085Y484238D01*
X278051Y484212D01*
X278033Y484183D01*
X278024Y484175D01*
X278019Y484166D01*
X278000Y484145D01*
X277985Y484122D01*
X277962Y484062D01*
X277949Y484039D01*
X277949Y484035D01*
X277929Y483999D01*
X277925Y483963D01*
X277914Y483934D01*
X277916Y483885D01*
X277908Y483820D01*
X277915Y483706D01*
X277271Y482976D01*
X277252Y482944D01*
X277222Y482911D01*
X276702Y482088D01*
X276591Y482063D01*
X276529Y482035D01*
X276464Y482016D01*
X276436Y481993D01*
X276408Y481981D01*
X276374Y481944D01*
X276323Y481904D01*
X275813Y481327D01*
X275779Y481268D01*
X275738Y481215D01*
X275728Y481180D01*
X275712Y481153D01*
X275706Y481104D01*
X275688Y481041D01*
X275677Y480927D01*
X274924Y480311D01*
X274900Y480282D01*
X274865Y480254D01*
X274219Y479524D01*
X274144Y479503D01*
X274059Y479486D01*
X274047Y479478D01*
X274033Y479474D01*
X273965Y479421D01*
X273894Y479373D01*
X273886Y479360D01*
X273875Y479351D01*
X273832Y479277D01*
X273786Y479204D01*
X273783Y479190D01*
X273776Y479177D01*
X273766Y479091D01*
X273751Y479006D01*
X273754Y478992D01*
X273753Y478978D01*
X273777Y478895D01*
X273796Y478811D01*
X273804Y478799D01*
X273808Y478785D01*
X273862Y478718D01*
X273913Y478648D01*
X273926Y478640D01*
X273934Y478629D01*
X273983Y478603D01*
X274064Y478551D01*
X274727Y478276D01*
X276505Y476498D01*
X277468Y474174D01*
X277468Y471659D01*
X276505Y469335D01*
X274727Y467556D01*
X274684Y467538D01*
X273459Y467031D01*
X272403Y466594D01*
X269887Y466594D01*
X267563Y467556D01*
X265785Y469335D01*
X264822Y471659D01*
X264822Y474181D01*
X264822Y474182D01*
X264822Y474183D01*
X264820Y474194D01*
X264811Y474236D01*
X264810Y474293D01*
X264791Y474334D01*
X264783Y474377D01*
X264751Y474424D01*
X264728Y474476D01*
X264695Y474506D01*
X264670Y474543D01*
X264623Y474574D01*
X264581Y474613D01*
X264539Y474628D01*
X264502Y474652D01*
X264446Y474662D01*
X264393Y474682D01*
X264344Y474681D01*
X264305Y474688D01*
X264264Y474679D01*
X264213Y474678D01*
X263636Y474559D01*
X263574Y474533D01*
X263509Y474515D01*
X263480Y474493D01*
X263452Y474481D01*
X263417Y474445D01*
X263365Y474406D01*
X263288Y474322D01*
X262316Y474281D01*
X262279Y474272D01*
X262235Y474271D01*
X261790Y474180D01*
X261765Y474169D01*
X261738Y474166D01*
X261673Y474131D01*
X261605Y474102D01*
X261586Y474082D01*
X261563Y474069D01*
X261526Y474025D01*
X261519Y474020D01*
X261508Y474002D01*
X261505Y473998D01*
X261465Y473958D01*
X261460Y473943D01*
X261448Y473930D01*
X260324Y471908D01*
X260313Y471872D01*
X260293Y471839D01*
X260280Y471768D01*
X260264Y471717D01*
X260266Y471692D01*
X260261Y471662D01*
X260261Y470665D01*
X259298Y468341D01*
X257519Y466563D01*
X257426Y466524D01*
X256201Y466017D01*
X255196Y465600D01*
X252680Y465600D01*
X250356Y466563D01*
X248578Y468341D01*
X248324Y468954D01*
X248285Y469012D01*
X248253Y469074D01*
X248229Y469094D01*
X248212Y469120D01*
X248154Y469159D01*
X248100Y469204D01*
X248071Y469213D01*
X248045Y469230D01*
X247976Y469243D01*
X247909Y469264D01*
X247878Y469261D01*
X247848Y469267D01*
X247779Y469252D01*
X247709Y469245D01*
X247682Y469231D01*
X247652Y469224D01*
X247594Y469184D01*
X247532Y469151D01*
X247511Y469125D01*
X247488Y469109D01*
X247460Y469066D01*
X247416Y469013D01*
X234165Y446062D01*
X234150Y446015D01*
X234125Y445972D01*
X234118Y445921D01*
X234101Y445872D01*
X234105Y445822D01*
X234099Y445773D01*
X234112Y445723D01*
X234116Y445672D01*
X234138Y445628D01*
X234151Y445580D01*
X234186Y445534D01*
X234207Y445493D01*
X234234Y445470D01*
X234260Y445436D01*
X235011Y444739D01*
X235041Y444721D01*
X235071Y444692D01*
X235892Y444132D01*
X235909Y444042D01*
X235935Y443977D01*
X235954Y443908D01*
X235974Y443882D01*
X235984Y443856D01*
X236021Y443820D01*
X236062Y443764D01*
X237311Y442607D01*
X237371Y442570D01*
X237427Y442526D01*
X237458Y442517D01*
X237482Y442502D01*
X237533Y442494D01*
X237599Y442475D01*
X237691Y442464D01*
X238310Y441688D01*
X238337Y441665D01*
X238362Y441632D01*
X239091Y440956D01*
X239094Y440865D01*
X239111Y440796D01*
X239119Y440726D01*
X239134Y440697D01*
X239141Y440670D01*
X239172Y440628D01*
X239204Y440567D01*
X240267Y439236D01*
X240321Y439191D01*
X240369Y439140D01*
X240399Y439126D01*
X240420Y439108D01*
X240469Y439092D01*
X240532Y439063D01*
X240621Y439039D01*
X241118Y438179D01*
X241141Y438153D01*
X241161Y438116D01*
X241780Y437339D01*
X241770Y437248D01*
X241776Y437178D01*
X241774Y437107D01*
X241785Y437076D01*
X241787Y437048D01*
X241811Y437003D01*
X241835Y436938D01*
X242687Y435463D01*
X242733Y435410D01*
X242774Y435352D01*
X242801Y435334D01*
X242819Y435313D01*
X242866Y435290D01*
X242923Y435252D01*
X243008Y435215D01*
X243371Y434290D01*
X243390Y434261D01*
X243404Y434222D01*
X243901Y433362D01*
X243877Y433273D01*
X243873Y433203D01*
X243860Y433133D01*
X243866Y433101D01*
X243865Y433073D01*
X243882Y433024D01*
X243895Y432956D01*
X244518Y431372D01*
X244522Y431365D01*
X244524Y431357D01*
X244556Y431311D01*
X244587Y431249D01*
X244611Y431227D01*
X244626Y431203D01*
X244639Y431194D01*
X244640Y431194D01*
X244642Y431192D01*
X244669Y431174D01*
X244720Y431127D01*
X244798Y431078D01*
X245019Y430110D01*
X245034Y430078D01*
X245042Y430038D01*
X245405Y429113D01*
X245368Y429028D01*
X245353Y428959D01*
X245330Y428892D01*
X245332Y428860D01*
X245326Y428832D01*
X245335Y428782D01*
X245339Y428713D01*
X245421Y428352D01*
X245440Y428309D01*
X245450Y428263D01*
X245481Y428219D01*
X245504Y428169D01*
X245538Y428137D01*
X245564Y428099D01*
X245610Y428069D01*
X245650Y428032D01*
X245694Y428016D01*
X245734Y427991D01*
X245787Y427982D01*
X245839Y427963D01*
X245885Y427965D01*
X245931Y427958D01*
X245984Y427970D01*
X246039Y427973D01*
X246081Y427993D01*
X246126Y428003D01*
X246177Y428038D01*
X246220Y428059D01*
X246242Y428083D01*
X246274Y428106D01*
X248879Y430711D01*
X249808Y431096D01*
X251032Y431603D01*
X251033Y431603D01*
X252257Y432110D01*
X252614Y432258D01*
X256656Y432258D01*
X260391Y430711D01*
X263249Y427853D01*
X264796Y424118D01*
X264796Y420076D01*
X263249Y416342D01*
X260391Y413483D01*
X259858Y413263D01*
X258633Y412755D01*
X257409Y412248D01*
X256656Y411936D01*
X252614Y411936D01*
X248879Y413483D01*
X246667Y415696D01*
X246664Y415698D01*
X246662Y415701D01*
X246627Y415722D01*
X246595Y415744D01*
X246525Y415795D01*
X246512Y415799D01*
X246500Y415806D01*
X246415Y415823D01*
X246331Y415844D01*
X246317Y415841D01*
X246303Y415844D01*
X246218Y415826D01*
X246133Y415813D01*
X246120Y415805D01*
X246107Y415802D01*
X246061Y415771D01*
X245978Y415721D01*
X245885Y415642D01*
X245842Y415586D01*
X245792Y415536D01*
X245780Y415506D01*
X245762Y415484D01*
X245749Y415434D01*
X245722Y415370D01*
X245343Y413710D01*
X245342Y413640D01*
X245332Y413570D01*
X245339Y413538D01*
X245338Y413510D01*
X245357Y413462D01*
X245373Y413394D01*
X245410Y413310D01*
X245047Y412385D01*
X245041Y412351D01*
X245025Y412313D01*
X244804Y411344D01*
X244726Y411295D01*
X244675Y411246D01*
X244619Y411204D01*
X244601Y411176D01*
X244581Y411157D01*
X244560Y411109D01*
X244524Y411051D01*
X243902Y409465D01*
X243890Y409396D01*
X243870Y409328D01*
X243873Y409296D01*
X243868Y409268D01*
X243879Y409218D01*
X243885Y409149D01*
X243909Y409060D01*
X243412Y408199D01*
X243401Y408166D01*
X243379Y408131D01*
X243017Y407206D01*
X242932Y407169D01*
X242874Y407129D01*
X242812Y407095D01*
X242791Y407070D01*
X242768Y407054D01*
X242741Y407010D01*
X242696Y406958D01*
X241845Y405483D01*
X241822Y405416D01*
X241792Y405352D01*
X241790Y405319D01*
X241781Y405293D01*
X241785Y405241D01*
X241780Y405172D01*
X241791Y405081D01*
X241171Y404304D01*
X241156Y404273D01*
X241129Y404241D01*
X240632Y403381D01*
X240543Y403357D01*
X240480Y403325D01*
X240414Y403302D01*
X240389Y403280D01*
X240364Y403268D01*
X240330Y403228D01*
X240278Y403183D01*
X239217Y401851D01*
X239185Y401789D01*
X239145Y401730D01*
X239138Y401698D01*
X239125Y401673D01*
X239121Y401622D01*
X239107Y401554D01*
X239103Y401462D01*
X238375Y400786D01*
X238355Y400758D01*
X238323Y400730D01*
X237704Y399953D01*
X237613Y399943D01*
X237546Y399921D01*
X237476Y399908D01*
X237449Y399890D01*
X237422Y399882D01*
X237383Y399848D01*
X237325Y399811D01*
X236077Y398652D01*
X236036Y398595D01*
X235988Y398543D01*
X235976Y398512D01*
X235960Y398490D01*
X235948Y398439D01*
X235924Y398375D01*
X235906Y398284D01*
X235086Y397724D01*
X235061Y397699D01*
X235027Y397677D01*
X235006Y397658D01*
X234996Y397644D01*
X234982Y397634D01*
X234954Y397589D01*
X234946Y397581D01*
X234940Y397567D01*
X234938Y397563D01*
X234889Y397496D01*
X234885Y397479D01*
X234876Y397464D01*
X234855Y397347D01*
X234844Y397300D01*
X234845Y397294D01*
X234844Y397286D01*
X234844Y365516D01*
X234846Y365508D01*
X234844Y365500D01*
X234865Y365410D01*
X234884Y365319D01*
X234888Y365313D01*
X234890Y365305D01*
X234993Y365157D01*
X254401Y345748D01*
X254408Y345744D01*
X254413Y345737D01*
X254491Y345688D01*
X254568Y345637D01*
X254576Y345636D01*
X254583Y345631D01*
X254760Y345599D01*
X269931Y345599D01*
X269939Y345601D01*
X269947Y345600D01*
X270037Y345621D01*
X270128Y345639D01*
X270134Y345644D01*
X270142Y345645D01*
X270290Y345748D01*
X271691Y347149D01*
X272295Y347399D01*
X272296Y347399D01*
X273520Y347907D01*
X274015Y348111D01*
X276530Y348111D01*
X278854Y347149D01*
X280633Y345370D01*
X281595Y343046D01*
X281595Y340531D01*
X281302Y339824D01*
X281302Y339823D01*
X281301Y339822D01*
X281283Y339725D01*
X281264Y339628D01*
X281264Y339626D01*
X281264Y339625D01*
X281285Y339527D01*
X281304Y339431D01*
X281305Y339430D01*
X281305Y339429D01*
X281364Y339344D01*
X281418Y339266D01*
X281419Y339265D01*
X281420Y339264D01*
X281506Y339210D01*
X281587Y339158D01*
X281588Y339157D01*
X281589Y339157D01*
X281685Y339140D01*
X281784Y339123D01*
X281785Y339123D01*
G37*
G36*
X410558Y199252D02*
X410558Y199252D01*
X410603Y199251D01*
X410655Y199271D01*
X410710Y199282D01*
X410747Y199308D01*
X410790Y199324D01*
X410830Y199364D01*
X410876Y199395D01*
X410900Y199433D01*
X410933Y199465D01*
X410959Y199522D01*
X410985Y199563D01*
X410991Y199595D01*
X411006Y199629D01*
X411023Y199698D01*
X411025Y199735D01*
X411036Y199779D01*
X411113Y200749D01*
X411200Y200823D01*
X411242Y200876D01*
X411291Y200924D01*
X411305Y200957D01*
X411324Y200981D01*
X411337Y201029D01*
X411364Y201088D01*
X411547Y201836D01*
X411550Y201904D01*
X411562Y201971D01*
X411554Y202006D01*
X411556Y202036D01*
X411538Y202083D01*
X411525Y202147D01*
X411482Y202253D01*
X411863Y203149D01*
X411870Y203186D01*
X411888Y203226D01*
X412120Y204171D01*
X412218Y204231D01*
X412268Y204277D01*
X412323Y204316D01*
X412343Y204346D01*
X412365Y204367D01*
X412386Y204412D01*
X412422Y204466D01*
X412723Y205175D01*
X412737Y205241D01*
X412759Y205305D01*
X412757Y205342D01*
X412763Y205372D01*
X412754Y205420D01*
X412751Y205485D01*
X412725Y205597D01*
X413244Y206420D01*
X413258Y206455D01*
X413282Y206493D01*
X413663Y207388D01*
X413769Y207431D01*
X413826Y207468D01*
X413886Y207498D01*
X413911Y207525D01*
X413936Y207541D01*
X413964Y207583D01*
X414008Y207631D01*
X414419Y208282D01*
X414443Y208346D01*
X414475Y208405D01*
X414479Y208441D01*
X414490Y208470D01*
X414489Y208519D01*
X414496Y208584D01*
X414489Y208698D01*
X415133Y209428D01*
X415152Y209460D01*
X415182Y209493D01*
X415702Y210316D01*
X415813Y210341D01*
X415875Y210369D01*
X415940Y210388D01*
X415968Y210411D01*
X415996Y210423D01*
X416030Y210460D01*
X416081Y210500D01*
X416591Y211077D01*
X416625Y211136D01*
X416666Y211189D01*
X416674Y211216D01*
X416683Y211230D01*
X416685Y211238D01*
X416692Y211251D01*
X416698Y211300D01*
X416716Y211363D01*
X416727Y211477D01*
X417480Y212093D01*
X417504Y212122D01*
X417539Y212150D01*
X418184Y212879D01*
X418298Y212886D01*
X418363Y212903D01*
X418430Y212912D01*
X418462Y212929D01*
X418492Y212937D01*
X418531Y212968D01*
X418588Y213000D01*
X419184Y213487D01*
X419227Y213540D01*
X419276Y213586D01*
X419291Y213619D01*
X419311Y213642D01*
X419325Y213690D01*
X419353Y213749D01*
X419382Y213860D01*
X420224Y214347D01*
X420252Y214372D01*
X420291Y214394D01*
X420952Y214935D01*
X420972Y214958D01*
X420997Y214976D01*
X421035Y215035D01*
X421079Y215090D01*
X421088Y215119D01*
X421104Y215145D01*
X421116Y215215D01*
X421136Y215282D01*
X421133Y215312D01*
X421138Y215343D01*
X421122Y215411D01*
X421114Y215481D01*
X421099Y215508D01*
X421092Y215538D01*
X421044Y215608D01*
X421017Y215656D01*
X421002Y215668D01*
X420990Y215686D01*
X420268Y216408D01*
X419305Y218732D01*
X419305Y221247D01*
X420268Y223571D01*
X422046Y225350D01*
X422794Y225659D01*
X424019Y226167D01*
X424370Y226312D01*
X426886Y226312D01*
X429209Y225350D01*
X430988Y223571D01*
X431951Y221247D01*
X431951Y220447D01*
X431962Y220391D01*
X431964Y220333D01*
X431982Y220293D01*
X431990Y220251D01*
X432023Y220203D01*
X432047Y220150D01*
X432078Y220121D01*
X432103Y220085D01*
X432151Y220053D01*
X432194Y220014D01*
X432235Y219999D01*
X432271Y219976D01*
X432328Y219965D01*
X432382Y219946D01*
X432425Y219948D01*
X432468Y219940D01*
X432525Y219953D01*
X432582Y219956D01*
X432621Y219974D01*
X432664Y219984D01*
X432711Y220017D01*
X432763Y220042D01*
X432795Y220077D01*
X432827Y220100D01*
X432850Y220136D01*
X432885Y220174D01*
X441304Y233369D01*
X441321Y233414D01*
X441348Y233455D01*
X441357Y233507D01*
X441376Y233556D01*
X441375Y233605D01*
X441383Y233652D01*
X441372Y233704D01*
X441370Y233757D01*
X441350Y233801D01*
X441340Y233848D01*
X441309Y233891D01*
X441287Y233939D01*
X441252Y233972D01*
X441224Y234011D01*
X441179Y234039D01*
X441140Y234075D01*
X441095Y234092D01*
X441054Y234117D01*
X440996Y234128D01*
X440952Y234144D01*
X440917Y234142D01*
X440876Y234149D01*
X416208Y234149D01*
X414719Y235638D01*
X414719Y243594D01*
X414718Y243599D01*
X414719Y243604D01*
X414698Y243697D01*
X414680Y243791D01*
X414677Y243795D01*
X414676Y243800D01*
X414621Y243877D01*
X414567Y243956D01*
X414563Y243959D01*
X414560Y243963D01*
X414478Y244014D01*
X414399Y244066D01*
X414394Y244066D01*
X414389Y244069D01*
X414212Y244101D01*
X403248Y244101D01*
X401806Y244699D01*
X401802Y244699D01*
X401799Y244702D01*
X401704Y244719D01*
X401609Y244737D01*
X401606Y244736D01*
X401602Y244737D01*
X401508Y244716D01*
X401413Y244697D01*
X401410Y244694D01*
X401406Y244694D01*
X401327Y244638D01*
X401248Y244583D01*
X401246Y244580D01*
X401243Y244578D01*
X401192Y244496D01*
X401139Y244415D01*
X401139Y244411D01*
X401137Y244407D01*
X401105Y244230D01*
X401105Y230791D01*
X401107Y230782D01*
X401105Y230773D01*
X401143Y230597D01*
X401839Y228918D01*
X401839Y226402D01*
X400876Y224079D01*
X399098Y222300D01*
X398444Y222029D01*
X397220Y221522D01*
X397219Y221522D01*
X396774Y221337D01*
X394258Y221337D01*
X391934Y222300D01*
X390433Y223802D01*
X390429Y223805D01*
X390426Y223809D01*
X390345Y223860D01*
X390266Y223913D01*
X390261Y223914D01*
X390256Y223916D01*
X390163Y223932D01*
X390069Y223950D01*
X390064Y223949D01*
X390059Y223950D01*
X389966Y223928D01*
X389873Y223909D01*
X389869Y223906D01*
X389864Y223904D01*
X389716Y223802D01*
X387964Y222050D01*
X387914Y222029D01*
X386690Y221522D01*
X386689Y221522D01*
X385465Y221015D01*
X384240Y220508D01*
X383906Y220369D01*
X379514Y220369D01*
X375456Y222050D01*
X372350Y225156D01*
X370669Y229214D01*
X370669Y233606D01*
X372350Y237664D01*
X375456Y240770D01*
X375714Y240877D01*
X376939Y241384D01*
X378163Y241891D01*
X379388Y242399D01*
X379514Y242451D01*
X383906Y242451D01*
X387964Y240770D01*
X389061Y239673D01*
X389064Y239671D01*
X389065Y239669D01*
X389145Y239617D01*
X389228Y239562D01*
X389231Y239561D01*
X389233Y239560D01*
X389329Y239542D01*
X389425Y239524D01*
X389428Y239525D01*
X389430Y239524D01*
X389527Y239546D01*
X389621Y239566D01*
X389623Y239567D01*
X389626Y239568D01*
X389706Y239624D01*
X389786Y239680D01*
X389787Y239682D01*
X389789Y239684D01*
X389842Y239768D01*
X389893Y239849D01*
X389894Y239852D01*
X389895Y239854D01*
X389927Y240031D01*
X389927Y262147D01*
X389927Y262150D01*
X389927Y262152D01*
X389927Y262153D01*
X389927Y262155D01*
X389907Y262248D01*
X389888Y262343D01*
X389885Y262347D01*
X389885Y262350D01*
X389829Y262429D01*
X389775Y262509D01*
X389772Y262511D01*
X389769Y262514D01*
X389687Y262566D01*
X389607Y262618D01*
X389603Y262619D01*
X389600Y262621D01*
X389504Y262637D01*
X389410Y262654D01*
X389406Y262653D01*
X389402Y262654D01*
X389226Y262615D01*
X389211Y262609D01*
X387987Y262102D01*
X387655Y261965D01*
X385140Y261965D01*
X382816Y262927D01*
X381037Y264706D01*
X380075Y267030D01*
X380075Y269545D01*
X381037Y271869D01*
X382816Y273648D01*
X383300Y273848D01*
X384524Y274355D01*
X384525Y274355D01*
X385140Y274610D01*
X386032Y274610D01*
X386037Y274611D01*
X386042Y274610D01*
X386135Y274631D01*
X386229Y274650D01*
X386233Y274653D01*
X386238Y274654D01*
X386316Y274709D01*
X386394Y274762D01*
X386397Y274767D01*
X386401Y274770D01*
X386452Y274851D01*
X386504Y274931D01*
X386504Y274936D01*
X386507Y274940D01*
X386539Y275117D01*
X386539Y284182D01*
X388028Y285671D01*
X388484Y285671D01*
X388489Y285672D01*
X388494Y285671D01*
X388587Y285692D01*
X388681Y285710D01*
X388685Y285713D01*
X388690Y285714D01*
X388768Y285770D01*
X388846Y285823D01*
X388849Y285827D01*
X388853Y285830D01*
X388904Y285912D01*
X388956Y285991D01*
X388956Y285996D01*
X388959Y286001D01*
X388991Y286178D01*
X388991Y289132D01*
X388990Y289137D01*
X388991Y289142D01*
X388970Y289235D01*
X388952Y289329D01*
X388949Y289333D01*
X388948Y289338D01*
X388892Y289416D01*
X388839Y289494D01*
X388835Y289497D01*
X388832Y289501D01*
X388750Y289552D01*
X388671Y289604D01*
X388666Y289604D01*
X388661Y289607D01*
X388484Y289639D01*
X388028Y289639D01*
X386539Y291128D01*
X386539Y303232D01*
X386985Y303678D01*
X386988Y303683D01*
X386992Y303686D01*
X387044Y303766D01*
X387096Y303845D01*
X387097Y303850D01*
X387100Y303855D01*
X387116Y303949D01*
X387134Y304042D01*
X387133Y304047D01*
X387133Y304052D01*
X387112Y304145D01*
X387092Y304238D01*
X387089Y304242D01*
X387088Y304248D01*
X386985Y304396D01*
X386911Y304470D01*
X385948Y306794D01*
X385948Y309309D01*
X386898Y311602D01*
X386899Y311608D01*
X386903Y311614D01*
X386919Y311706D01*
X386937Y311798D01*
X386936Y311805D01*
X386937Y311811D01*
X386915Y311903D01*
X386896Y311995D01*
X386893Y312000D01*
X386891Y312007D01*
X386788Y312155D01*
X385518Y313425D01*
X370585Y328358D01*
X370585Y332098D01*
X370584Y332103D01*
X370585Y332108D01*
X370564Y332201D01*
X370546Y332295D01*
X370543Y332299D01*
X370542Y332304D01*
X370486Y332382D01*
X370433Y332460D01*
X370429Y332463D01*
X370426Y332467D01*
X370344Y332518D01*
X370265Y332570D01*
X370260Y332570D01*
X370255Y332573D01*
X370078Y332605D01*
X361326Y332605D01*
X361201Y332731D01*
X361194Y332735D01*
X361190Y332741D01*
X361111Y332791D01*
X361034Y332842D01*
X361026Y332843D01*
X361020Y332847D01*
X360842Y332879D01*
X360058Y332879D01*
X360053Y332878D01*
X360048Y332879D01*
X359955Y332858D01*
X359861Y332840D01*
X359857Y332837D01*
X359852Y332836D01*
X359774Y332780D01*
X359696Y332727D01*
X359693Y332723D01*
X359689Y332720D01*
X359638Y332638D01*
X359586Y332559D01*
X359586Y332554D01*
X359583Y332549D01*
X359551Y332372D01*
X359551Y330968D01*
X359552Y330963D01*
X359551Y330958D01*
X359572Y330865D01*
X359590Y330771D01*
X359593Y330767D01*
X359594Y330762D01*
X359650Y330684D01*
X359703Y330606D01*
X359707Y330603D01*
X359710Y330599D01*
X359792Y330548D01*
X359871Y330496D01*
X359876Y330496D01*
X359881Y330493D01*
X360058Y330461D01*
X367062Y330461D01*
X368551Y328972D01*
X368551Y319368D01*
X367062Y317879D01*
X360808Y317879D01*
X360803Y317878D01*
X360798Y317879D01*
X360705Y317858D01*
X360611Y317840D01*
X360607Y317837D01*
X360602Y317836D01*
X360524Y317780D01*
X360446Y317727D01*
X360443Y317723D01*
X360439Y317720D01*
X360388Y317638D01*
X360336Y317559D01*
X360336Y317554D01*
X360333Y317549D01*
X360301Y317372D01*
X360301Y311118D01*
X358812Y309629D01*
X355204Y309629D01*
X355201Y309629D01*
X355199Y309629D01*
X355104Y309609D01*
X355007Y309590D01*
X355005Y309588D01*
X355002Y309588D01*
X354922Y309532D01*
X354841Y309477D01*
X354840Y309475D01*
X354838Y309473D01*
X354785Y309390D01*
X354732Y309309D01*
X354732Y309306D01*
X354730Y309304D01*
X354714Y309208D01*
X354697Y309112D01*
X354697Y309109D01*
X354697Y309107D01*
X354719Y309013D01*
X354740Y308916D01*
X354742Y308914D01*
X354742Y308911D01*
X354845Y308763D01*
X357359Y306249D01*
X357366Y306245D01*
X357370Y306239D01*
X357449Y306190D01*
X357526Y306138D01*
X357534Y306137D01*
X357540Y306133D01*
X357718Y306101D01*
X365462Y306101D01*
X366951Y304612D01*
X366951Y291508D01*
X365462Y290019D01*
X353358Y290019D01*
X351869Y291508D01*
X351869Y300032D01*
X351868Y300040D01*
X351869Y300048D01*
X351848Y300138D01*
X351830Y300229D01*
X351825Y300235D01*
X351823Y300243D01*
X351721Y300391D01*
X342631Y309481D01*
X342624Y309485D01*
X342620Y309491D01*
X342541Y309540D01*
X342464Y309592D01*
X342456Y309593D01*
X342450Y309597D01*
X342272Y309629D01*
X334208Y309629D01*
X332719Y311118D01*
X332719Y318122D01*
X332718Y318127D01*
X332719Y318132D01*
X332698Y318225D01*
X332680Y318319D01*
X332677Y318323D01*
X332676Y318328D01*
X332620Y318406D01*
X332567Y318484D01*
X332563Y318487D01*
X332560Y318492D01*
X332478Y318542D01*
X332399Y318594D01*
X332394Y318595D01*
X332389Y318597D01*
X332212Y318629D01*
X331082Y318629D01*
X331077Y318628D01*
X331072Y318629D01*
X330979Y318608D01*
X330885Y318590D01*
X330881Y318587D01*
X330876Y318586D01*
X330798Y318530D01*
X330720Y318477D01*
X330717Y318473D01*
X330713Y318470D01*
X330662Y318388D01*
X330610Y318309D01*
X330610Y318304D01*
X330607Y318299D01*
X330575Y318122D01*
X330575Y307768D01*
X330576Y307763D01*
X330575Y307758D01*
X330596Y307665D01*
X330614Y307571D01*
X330617Y307567D01*
X330618Y307562D01*
X330674Y307484D01*
X330727Y307406D01*
X330731Y307403D01*
X330734Y307399D01*
X330816Y307348D01*
X330895Y307296D01*
X330900Y307296D01*
X330905Y307293D01*
X331082Y307261D01*
X332062Y307261D01*
X333551Y305772D01*
X333551Y293668D01*
X332062Y292179D01*
X318958Y292179D01*
X318494Y292643D01*
X318489Y292646D01*
X318486Y292650D01*
X318406Y292702D01*
X318327Y292754D01*
X318322Y292755D01*
X318317Y292758D01*
X318223Y292774D01*
X318130Y292792D01*
X318125Y292791D01*
X318119Y292792D01*
X318027Y292770D01*
X317934Y292750D01*
X317929Y292747D01*
X317924Y292746D01*
X317776Y292643D01*
X317312Y292179D01*
X316856Y292179D01*
X316851Y292178D01*
X316846Y292179D01*
X316753Y292158D01*
X316659Y292140D01*
X316655Y292137D01*
X316650Y292136D01*
X316572Y292080D01*
X316494Y292027D01*
X316491Y292023D01*
X316487Y292020D01*
X316436Y291938D01*
X316384Y291859D01*
X316384Y291854D01*
X316381Y291849D01*
X316349Y291672D01*
X316349Y287448D01*
X316350Y287443D01*
X316349Y287438D01*
X316370Y287345D01*
X316388Y287251D01*
X316391Y287247D01*
X316392Y287242D01*
X316448Y287164D01*
X316501Y287086D01*
X316505Y287083D01*
X316508Y287079D01*
X316590Y287028D01*
X316669Y286976D01*
X316674Y286976D01*
X316679Y286973D01*
X316856Y286941D01*
X317312Y286941D01*
X317776Y286477D01*
X317781Y286474D01*
X317784Y286470D01*
X317864Y286418D01*
X317943Y286366D01*
X317948Y286365D01*
X317953Y286362D01*
X318047Y286346D01*
X318140Y286328D01*
X318145Y286329D01*
X318150Y286328D01*
X318243Y286350D01*
X318336Y286370D01*
X318340Y286373D01*
X318346Y286374D01*
X318494Y286477D01*
X318958Y286941D01*
X332062Y286941D01*
X333551Y285452D01*
X333551Y273348D01*
X332062Y271859D01*
X330197Y271859D01*
X330192Y271858D01*
X330187Y271859D01*
X330094Y271838D01*
X330001Y271820D01*
X329997Y271817D01*
X329991Y271816D01*
X329914Y271760D01*
X329835Y271707D01*
X329832Y271703D01*
X329828Y271700D01*
X329777Y271618D01*
X329726Y271539D01*
X329725Y271534D01*
X329722Y271529D01*
X329690Y271352D01*
X329690Y270243D01*
X328728Y267919D01*
X326949Y266140D01*
X325772Y265653D01*
X324625Y265178D01*
X322110Y265178D01*
X319786Y266140D01*
X318007Y267919D01*
X317325Y269567D01*
X317324Y269568D01*
X317324Y269570D01*
X317267Y269652D01*
X317213Y269734D01*
X317212Y269734D01*
X317211Y269735D01*
X317130Y269788D01*
X317045Y269844D01*
X317044Y269844D01*
X317043Y269845D01*
X316946Y269862D01*
X316848Y269880D01*
X316847Y269880D01*
X316846Y269880D01*
X316747Y269858D01*
X316652Y269838D01*
X316651Y269837D01*
X316650Y269837D01*
X316568Y269778D01*
X316488Y269722D01*
X316488Y269721D01*
X316487Y269721D01*
X316433Y269635D01*
X316382Y269553D01*
X316381Y269551D01*
X316381Y269550D01*
X316349Y269373D01*
X316349Y253091D01*
X315498Y251037D01*
X310094Y245634D01*
X309440Y245363D01*
X308216Y244856D01*
X308215Y244856D01*
X308040Y244783D01*
X279208Y244783D01*
X279203Y244782D01*
X279198Y244783D01*
X279105Y244762D01*
X279011Y244743D01*
X279007Y244741D01*
X279002Y244739D01*
X278924Y244684D01*
X278846Y244631D01*
X278843Y244626D01*
X278839Y244623D01*
X278788Y244542D01*
X278736Y244463D01*
X278736Y244458D01*
X278733Y244453D01*
X278701Y244276D01*
X278701Y237158D01*
X277212Y235669D01*
X251197Y235669D01*
X251142Y235658D01*
X251085Y235657D01*
X251044Y235638D01*
X251001Y235630D01*
X250954Y235598D01*
X250902Y235574D01*
X250872Y235542D01*
X250835Y235517D01*
X250804Y235469D01*
X250765Y235427D01*
X250750Y235386D01*
X250726Y235349D01*
X250716Y235293D01*
X250696Y235239D01*
X250698Y235195D01*
X250690Y235152D01*
X250703Y235096D01*
X250705Y235039D01*
X250725Y234995D01*
X250734Y234956D01*
X250758Y234922D01*
X250779Y234875D01*
X261465Y219318D01*
X261500Y219283D01*
X261528Y219243D01*
X261571Y219214D01*
X261609Y219178D01*
X261655Y219160D01*
X261696Y219133D01*
X261747Y219124D01*
X261795Y219105D01*
X261845Y219107D01*
X261893Y219098D01*
X261944Y219109D01*
X261996Y219110D01*
X262041Y219131D01*
X262089Y219141D01*
X262131Y219172D01*
X262179Y219193D01*
X262212Y219229D01*
X262252Y219257D01*
X262280Y219302D01*
X262315Y219340D01*
X262332Y219386D01*
X262358Y219428D01*
X262369Y219485D01*
X262384Y219528D01*
X262383Y219563D01*
X262390Y219605D01*
X262390Y220790D01*
X263353Y223114D01*
X265131Y224892D01*
X265758Y225152D01*
X265759Y225152D01*
X266983Y225659D01*
X267455Y225855D01*
X269971Y225855D01*
X272294Y224892D01*
X274073Y223114D01*
X275036Y220790D01*
X275036Y219640D01*
X275036Y219636D01*
X275036Y219632D01*
X275056Y219538D01*
X275075Y219444D01*
X275077Y219440D01*
X275078Y219436D01*
X275134Y219357D01*
X275188Y219278D01*
X275191Y219276D01*
X275193Y219272D01*
X275276Y219221D01*
X275356Y219169D01*
X275360Y219168D01*
X275363Y219166D01*
X275459Y219150D01*
X275553Y219133D01*
X275557Y219134D01*
X275561Y219133D01*
X275737Y219171D01*
X276542Y219505D01*
X279058Y219505D01*
X281381Y218542D01*
X283160Y216764D01*
X284123Y214440D01*
X284123Y211925D01*
X283160Y209601D01*
X281381Y207822D01*
X280167Y207319D01*
X279475Y207032D01*
X279434Y207005D01*
X279389Y206987D01*
X279352Y206950D01*
X279308Y206920D01*
X279282Y206880D01*
X279247Y206846D01*
X279227Y206797D01*
X279198Y206753D01*
X279189Y206705D01*
X279171Y206661D01*
X279171Y206608D01*
X279162Y206556D01*
X279172Y206509D01*
X279172Y206460D01*
X279194Y206405D01*
X279204Y206360D01*
X279224Y206331D01*
X279240Y206293D01*
X279679Y205597D01*
X279653Y205485D01*
X279652Y205418D01*
X279641Y205351D01*
X279649Y205316D01*
X279648Y205285D01*
X279667Y205239D01*
X279681Y205175D01*
X279982Y204466D01*
X280020Y204410D01*
X280051Y204350D01*
X280078Y204326D01*
X280095Y204301D01*
X280137Y204274D01*
X280186Y204231D01*
X280284Y204171D01*
X280516Y203226D01*
X280532Y203193D01*
X280541Y203149D01*
X280922Y202253D01*
X280879Y202147D01*
X280867Y202080D01*
X280845Y202016D01*
X280848Y201980D01*
X280842Y201950D01*
X280853Y201901D01*
X280857Y201836D01*
X281040Y201088D01*
X281069Y201027D01*
X281089Y200963D01*
X281112Y200935D01*
X281125Y200907D01*
X281162Y200874D01*
X281204Y200823D01*
X281291Y200749D01*
X281368Y199779D01*
X281378Y199743D01*
X281381Y199698D01*
X281398Y199629D01*
X281417Y199588D01*
X281427Y199544D01*
X281459Y199498D01*
X281483Y199448D01*
X281517Y199417D01*
X281543Y199381D01*
X281590Y199351D01*
X281632Y199314D01*
X281675Y199299D01*
X281713Y199275D01*
X281775Y199264D01*
X281821Y199247D01*
X281853Y199249D01*
X281890Y199243D01*
X410514Y199243D01*
X410558Y199252D01*
G37*
G36*
X444375Y238526D02*
X444375Y238526D01*
X444433Y238529D01*
X444472Y238548D01*
X444514Y238557D01*
X444561Y238591D01*
X444613Y238616D01*
X444646Y238651D01*
X444677Y238673D01*
X444700Y238709D01*
X444736Y238748D01*
X446835Y242038D01*
X446854Y242088D01*
X446882Y242133D01*
X446892Y242185D01*
X446907Y242225D01*
X446906Y242264D01*
X446914Y242311D01*
X446914Y242940D01*
X447877Y245264D01*
X449656Y247042D01*
X450691Y247471D01*
X451915Y247978D01*
X451979Y248005D01*
X454495Y248005D01*
X456092Y247343D01*
X456140Y247334D01*
X456185Y247315D01*
X456238Y247315D01*
X456289Y247305D01*
X456337Y247315D01*
X456386Y247315D01*
X456434Y247335D01*
X456485Y247345D01*
X456525Y247373D01*
X456571Y247392D01*
X456607Y247429D01*
X456650Y247459D01*
X456677Y247500D01*
X456711Y247535D01*
X456730Y247583D01*
X456759Y247627D01*
X456767Y247676D01*
X456785Y247721D01*
X456784Y247773D01*
X456793Y247825D01*
X456782Y247873D01*
X456781Y247922D01*
X456760Y247969D01*
X456749Y248020D01*
X456720Y248060D01*
X456700Y248105D01*
X456659Y248146D01*
X456632Y248183D01*
X456599Y248204D01*
X456572Y248231D01*
X456512Y248272D01*
X456495Y248362D01*
X456469Y248427D01*
X456450Y248496D01*
X456430Y248522D01*
X456420Y248548D01*
X456383Y248584D01*
X456342Y248640D01*
X455093Y249797D01*
X455033Y249834D01*
X454977Y249878D01*
X454946Y249887D01*
X454922Y249902D01*
X454871Y249910D01*
X454805Y249929D01*
X454713Y249940D01*
X454094Y250716D01*
X454067Y250739D01*
X454042Y250772D01*
X453313Y251448D01*
X453310Y251539D01*
X453293Y251608D01*
X453285Y251678D01*
X453270Y251707D01*
X453263Y251734D01*
X453232Y251776D01*
X453200Y251837D01*
X452137Y253168D01*
X452083Y253213D01*
X452035Y253264D01*
X452005Y253278D01*
X451984Y253296D01*
X451935Y253312D01*
X451872Y253341D01*
X451783Y253365D01*
X451286Y254225D01*
X451263Y254251D01*
X451243Y254288D01*
X450624Y255065D01*
X450634Y255156D01*
X450628Y255226D01*
X450630Y255297D01*
X450619Y255328D01*
X450617Y255356D01*
X450593Y255401D01*
X450569Y255466D01*
X449717Y256941D01*
X449671Y256994D01*
X449631Y257052D01*
X449603Y257070D01*
X449585Y257091D01*
X449538Y257113D01*
X449481Y257152D01*
X449396Y257189D01*
X449033Y258114D01*
X449014Y258143D01*
X449000Y258182D01*
X448503Y259042D01*
X448527Y259131D01*
X448531Y259201D01*
X448544Y259271D01*
X448538Y259303D01*
X448539Y259331D01*
X448523Y259380D01*
X448509Y259448D01*
X447886Y261032D01*
X447848Y261092D01*
X447817Y261155D01*
X447793Y261177D01*
X447778Y261201D01*
X447735Y261230D01*
X447684Y261277D01*
X447606Y261326D01*
X447385Y262294D01*
X447370Y262326D01*
X447362Y262366D01*
X446999Y263291D01*
X447036Y263376D01*
X447051Y263445D01*
X447074Y263512D01*
X447072Y263544D01*
X447078Y263572D01*
X447069Y263622D01*
X447065Y263691D01*
X446686Y265351D01*
X446657Y265416D01*
X446636Y265483D01*
X446615Y265509D01*
X446604Y265534D01*
X446566Y265569D01*
X446522Y265623D01*
X446452Y265683D01*
X446378Y266674D01*
X446368Y266707D01*
X446367Y266749D01*
X446145Y267717D01*
X446194Y267795D01*
X446219Y267861D01*
X446252Y267924D01*
X446255Y267956D01*
X446265Y267983D01*
X446263Y268034D01*
X446270Y268103D01*
X446142Y269801D01*
X446123Y269869D01*
X446112Y269939D01*
X446096Y269967D01*
X446088Y269994D01*
X446056Y270034D01*
X446021Y270094D01*
X445961Y270164D01*
X446035Y271155D01*
X446031Y271189D01*
X446035Y271230D01*
X445960Y272221D01*
X446020Y272291D01*
X446055Y272352D01*
X446096Y272409D01*
X446105Y272441D01*
X446118Y272466D01*
X446124Y272517D01*
X446142Y272584D01*
X446268Y274282D01*
X446265Y274305D01*
X446269Y274326D01*
X446259Y274370D01*
X446259Y274422D01*
X446247Y274453D01*
X446243Y274481D01*
X446229Y274505D01*
X446226Y274522D01*
X446211Y274543D01*
X446192Y274590D01*
X446143Y274667D01*
X446364Y275636D01*
X446365Y275671D01*
X446375Y275711D01*
X446449Y276702D01*
X446519Y276762D01*
X446562Y276818D01*
X446612Y276868D01*
X446624Y276898D01*
X446642Y276920D01*
X446655Y276970D01*
X446682Y277034D01*
X447061Y278694D01*
X447062Y278764D01*
X447072Y278834D01*
X447065Y278866D01*
X447066Y278894D01*
X447047Y278942D01*
X447031Y279010D01*
X446994Y279094D01*
X447357Y280019D01*
X447363Y280053D01*
X447379Y280091D01*
X447600Y281060D01*
X447678Y281109D01*
X447729Y281158D01*
X447785Y281200D01*
X447803Y281228D01*
X447823Y281247D01*
X447844Y281295D01*
X447880Y281353D01*
X448501Y282939D01*
X448514Y283008D01*
X448534Y283076D01*
X448531Y283108D01*
X448536Y283136D01*
X448525Y283186D01*
X448519Y283255D01*
X448495Y283344D01*
X448992Y284205D01*
X449003Y284238D01*
X449025Y284273D01*
X449387Y285198D01*
X449472Y285235D01*
X449530Y285275D01*
X449592Y285309D01*
X449613Y285334D01*
X449636Y285350D01*
X449663Y285394D01*
X449708Y285446D01*
X450559Y286921D01*
X450581Y286988D01*
X450612Y287052D01*
X450614Y287085D01*
X450623Y287111D01*
X450619Y287163D01*
X450624Y287232D01*
X450613Y287323D01*
X451233Y288100D01*
X451248Y288131D01*
X451275Y288163D01*
X451772Y289023D01*
X451861Y289047D01*
X451888Y289061D01*
X451911Y289066D01*
X451937Y289083D01*
X451990Y289102D01*
X452015Y289124D01*
X452040Y289136D01*
X452074Y289176D01*
X452126Y289221D01*
X453187Y290553D01*
X453219Y290615D01*
X453259Y290674D01*
X453266Y290706D01*
X453279Y290731D01*
X453283Y290782D01*
X453297Y290850D01*
X453301Y290942D01*
X454024Y291614D01*
X454032Y291625D01*
X454043Y291632D01*
X454091Y291706D01*
X454141Y291777D01*
X454144Y291790D01*
X454152Y291801D01*
X454167Y291887D01*
X454186Y291972D01*
X454184Y291985D01*
X454186Y291998D01*
X454167Y292084D01*
X454152Y292169D01*
X454145Y292181D01*
X454142Y292194D01*
X454091Y292265D01*
X454044Y292338D01*
X454033Y292346D01*
X454025Y292357D01*
X453905Y292434D01*
X453879Y292452D01*
X453876Y292452D01*
X453873Y292454D01*
X453136Y292760D01*
X451357Y294538D01*
X450395Y296862D01*
X450395Y299378D01*
X451357Y301701D01*
X453136Y303480D01*
X453850Y303776D01*
X455075Y304283D01*
X455460Y304443D01*
X457975Y304443D01*
X460299Y303480D01*
X462078Y301701D01*
X463040Y299378D01*
X463040Y298995D01*
X463044Y298977D01*
X463041Y298958D01*
X463063Y298879D01*
X463080Y298798D01*
X463090Y298783D01*
X463095Y298765D01*
X463146Y298701D01*
X463192Y298632D01*
X463208Y298622D01*
X463219Y298608D01*
X463291Y298568D01*
X463360Y298523D01*
X463378Y298520D01*
X463395Y298511D01*
X463477Y298502D01*
X463558Y298488D01*
X463576Y298492D01*
X463594Y298490D01*
X463704Y298520D01*
X463753Y298531D01*
X463760Y298536D01*
X463768Y298538D01*
X463852Y298579D01*
X463909Y298621D01*
X463970Y298657D01*
X463990Y298683D01*
X464012Y298700D01*
X464038Y298744D01*
X464081Y298799D01*
X464124Y298880D01*
X465073Y299173D01*
X465103Y299190D01*
X465144Y299201D01*
X466039Y299632D01*
X466126Y299602D01*
X466195Y299592D01*
X466264Y299574D01*
X466296Y299578D01*
X466324Y299575D01*
X466374Y299588D01*
X466443Y299596D01*
X468069Y300099D01*
X468131Y300132D01*
X468197Y300158D01*
X468221Y300181D01*
X468245Y300194D01*
X468278Y300235D01*
X468328Y300282D01*
X468383Y300356D01*
X469365Y300505D01*
X469398Y300517D01*
X469439Y300522D01*
X470388Y300815D01*
X470470Y300772D01*
X470537Y300752D01*
X470602Y300724D01*
X470635Y300723D01*
X470662Y300715D01*
X470713Y300721D01*
X470782Y300719D01*
X472466Y300973D01*
X472532Y300997D01*
X472601Y301013D01*
X472628Y301032D01*
X472654Y301042D01*
X472692Y301077D01*
X472749Y301116D01*
X472814Y301181D01*
X473808Y301181D01*
X473842Y301188D01*
X473883Y301187D01*
X474866Y301336D01*
X474940Y301281D01*
X475004Y301251D01*
X475064Y301214D01*
X475096Y301208D01*
X475121Y301196D01*
X475173Y301194D01*
X475241Y301182D01*
X476944Y301182D01*
X477013Y301196D01*
X477083Y301202D01*
X477113Y301217D01*
X477140Y301222D01*
X477183Y301251D01*
X477245Y301282D01*
X477319Y301336D01*
X478301Y301189D01*
X478336Y301190D01*
X478377Y301183D01*
X479371Y301183D01*
X479436Y301118D01*
X479495Y301079D01*
X479548Y301033D01*
X479579Y301023D01*
X479603Y301007D01*
X479653Y300998D01*
X479719Y300975D01*
X481403Y300722D01*
X481473Y300726D01*
X481544Y300721D01*
X481575Y300731D01*
X481603Y300732D01*
X481649Y300754D01*
X481715Y300775D01*
X481797Y300818D01*
X482746Y300526D01*
X482781Y300522D01*
X482820Y300509D01*
X483803Y300361D01*
X483857Y300287D01*
X483910Y300240D01*
X483956Y300187D01*
X483985Y300172D01*
X484006Y300153D01*
X484055Y300135D01*
X484116Y300104D01*
X485743Y299602D01*
X485813Y299595D01*
X485882Y299580D01*
X485915Y299585D01*
X485943Y299582D01*
X485992Y299598D01*
X486060Y299608D01*
X486147Y299639D01*
X487042Y299208D01*
X487055Y299205D01*
X487058Y299203D01*
X487073Y299200D01*
X487076Y299199D01*
X487113Y299180D01*
X488111Y298873D01*
X488160Y298868D01*
X488207Y298853D01*
X488259Y298858D01*
X488310Y298853D01*
X488358Y298867D01*
X488407Y298872D01*
X488452Y298896D01*
X488502Y298912D01*
X488540Y298943D01*
X488583Y298966D01*
X488621Y299011D01*
X488656Y299040D01*
X488672Y299072D01*
X488700Y299104D01*
X501757Y321721D01*
X501769Y321757D01*
X501790Y321788D01*
X501801Y321851D01*
X501821Y321911D01*
X501819Y321949D01*
X501825Y321985D01*
X501811Y322048D01*
X501807Y322111D01*
X501790Y322144D01*
X501782Y322181D01*
X501745Y322233D01*
X501716Y322290D01*
X501687Y322314D01*
X501666Y322344D01*
X501611Y322378D01*
X501563Y322419D01*
X501527Y322431D01*
X501495Y322450D01*
X501423Y322463D01*
X501372Y322479D01*
X501347Y322477D01*
X501318Y322482D01*
X500226Y322482D01*
X497902Y323445D01*
X496123Y325223D01*
X495161Y327547D01*
X495161Y330038D01*
X495160Y330043D01*
X495161Y330048D01*
X495140Y330141D01*
X495121Y330234D01*
X495118Y330238D01*
X495117Y330243D01*
X495062Y330321D01*
X495009Y330400D01*
X495004Y330403D01*
X495001Y330407D01*
X494920Y330458D01*
X494841Y330509D01*
X494835Y330510D01*
X494831Y330513D01*
X494654Y330545D01*
X494042Y330545D01*
X491718Y331507D01*
X489940Y333286D01*
X488977Y335610D01*
X488977Y338125D01*
X489717Y339912D01*
X489718Y339916D01*
X489720Y339919D01*
X489737Y340014D01*
X489756Y340109D01*
X489755Y340112D01*
X489756Y340116D01*
X489735Y340210D01*
X489715Y340305D01*
X489713Y340308D01*
X489712Y340312D01*
X489656Y340391D01*
X489602Y340470D01*
X489599Y340472D01*
X489596Y340475D01*
X489514Y340527D01*
X489433Y340579D01*
X489429Y340579D01*
X489426Y340581D01*
X489249Y340613D01*
X481936Y340613D01*
X479882Y341464D01*
X478239Y343108D01*
X478238Y343108D01*
X477045Y344301D01*
X477043Y344302D01*
X477042Y344304D01*
X476961Y344357D01*
X476878Y344412D01*
X476876Y344412D01*
X476873Y344414D01*
X476777Y344431D01*
X476681Y344449D01*
X476679Y344449D01*
X476676Y344449D01*
X476580Y344428D01*
X476485Y344408D01*
X476483Y344406D01*
X476481Y344406D01*
X476401Y344349D01*
X476321Y344293D01*
X476319Y344291D01*
X476317Y344290D01*
X476266Y344207D01*
X476213Y344124D01*
X476213Y344122D01*
X476211Y344119D01*
X476179Y343942D01*
X476179Y338059D01*
X474691Y336570D01*
X468712Y336570D01*
X468704Y336569D01*
X468696Y336570D01*
X468606Y336549D01*
X468515Y336531D01*
X468509Y336526D01*
X468501Y336525D01*
X468353Y336422D01*
X463557Y331626D01*
X463553Y331619D01*
X463546Y331615D01*
X463497Y331536D01*
X463446Y331459D01*
X463445Y331451D01*
X463441Y331445D01*
X463409Y331267D01*
X463409Y330254D01*
X463409Y330251D01*
X463409Y330249D01*
X463429Y330154D01*
X463448Y330057D01*
X463450Y330055D01*
X463450Y330053D01*
X463506Y329972D01*
X463561Y329892D01*
X463563Y329890D01*
X463564Y329888D01*
X463648Y329835D01*
X463729Y329782D01*
X463731Y329782D01*
X463734Y329780D01*
X463830Y329764D01*
X463926Y329747D01*
X463929Y329747D01*
X463931Y329747D01*
X464025Y329769D01*
X464122Y329790D01*
X464124Y329792D01*
X464126Y329792D01*
X464274Y329895D01*
X467323Y332944D01*
X475741Y332944D01*
X481693Y326992D01*
X481693Y318575D01*
X475741Y312622D01*
X467323Y312622D01*
X463278Y316668D01*
X463273Y316671D01*
X463270Y316675D01*
X463190Y316726D01*
X463111Y316779D01*
X463106Y316780D01*
X463101Y316783D01*
X463007Y316799D01*
X462914Y316817D01*
X462909Y316816D01*
X462903Y316816D01*
X462811Y316795D01*
X462718Y316775D01*
X462713Y316772D01*
X462708Y316771D01*
X462560Y316668D01*
X460883Y314991D01*
X460558Y314856D01*
X460557Y314856D01*
X459333Y314349D01*
X458559Y314028D01*
X456044Y314028D01*
X453720Y314991D01*
X451941Y316770D01*
X450997Y319049D01*
X450994Y319053D01*
X450993Y319058D01*
X450938Y319137D01*
X450886Y319215D01*
X450881Y319218D01*
X450878Y319223D01*
X450798Y319273D01*
X450718Y319325D01*
X450713Y319326D01*
X450708Y319329D01*
X450614Y319345D01*
X450521Y319362D01*
X450516Y319361D01*
X450511Y319362D01*
X450335Y319323D01*
X449346Y318914D01*
X448298Y318480D01*
X445782Y318480D01*
X443458Y319442D01*
X441680Y321221D01*
X440717Y323545D01*
X440717Y326060D01*
X441680Y328384D01*
X443458Y330163D01*
X444659Y330660D01*
X445782Y331125D01*
X448298Y331125D01*
X450622Y330163D01*
X451365Y329419D01*
X451367Y329418D01*
X451369Y329415D01*
X451449Y329363D01*
X451532Y329308D01*
X451535Y329308D01*
X451537Y329306D01*
X451633Y329289D01*
X451729Y329271D01*
X451731Y329271D01*
X451734Y329271D01*
X451831Y329292D01*
X451925Y329312D01*
X451927Y329314D01*
X451930Y329314D01*
X452009Y329371D01*
X452090Y329426D01*
X452091Y329429D01*
X452093Y329430D01*
X452145Y329513D01*
X452197Y329596D01*
X452198Y329598D01*
X452199Y329600D01*
X452231Y329778D01*
X452231Y334904D01*
X453082Y336958D01*
X459949Y343826D01*
X459954Y343832D01*
X459960Y343837D01*
X460009Y343915D01*
X460060Y343992D01*
X460062Y344000D01*
X460066Y344007D01*
X460098Y344184D01*
X460098Y350164D01*
X461586Y351652D01*
X468470Y351652D01*
X468472Y351652D01*
X468475Y351652D01*
X468570Y351672D01*
X468666Y351691D01*
X468668Y351693D01*
X468671Y351694D01*
X468751Y351750D01*
X468832Y351804D01*
X468833Y351806D01*
X468835Y351808D01*
X468889Y351892D01*
X468941Y351972D01*
X468942Y351975D01*
X468943Y351977D01*
X468959Y352073D01*
X468977Y352169D01*
X468976Y352172D01*
X468977Y352175D01*
X468955Y352268D01*
X468933Y352365D01*
X468932Y352367D01*
X468931Y352370D01*
X468828Y352518D01*
X467924Y353422D01*
X467918Y353426D01*
X467913Y353433D01*
X467834Y353482D01*
X467757Y353533D01*
X467750Y353534D01*
X467743Y353538D01*
X467566Y353570D01*
X461586Y353570D01*
X460098Y355059D01*
X460098Y367164D01*
X461586Y368652D01*
X474691Y368652D01*
X476179Y367164D01*
X476179Y361184D01*
X476181Y361176D01*
X476180Y361169D01*
X476200Y361079D01*
X476219Y360988D01*
X476223Y360981D01*
X476225Y360973D01*
X476328Y360825D01*
X485214Y351939D01*
X485221Y351935D01*
X485225Y351929D01*
X485304Y351880D01*
X485381Y351828D01*
X485389Y351827D01*
X485395Y351823D01*
X485573Y351791D01*
X497585Y351791D01*
X497648Y351804D01*
X497713Y351807D01*
X497746Y351823D01*
X497781Y351830D01*
X497835Y351867D01*
X497893Y351896D01*
X497917Y351923D01*
X497947Y351943D01*
X497982Y351998D01*
X498025Y352047D01*
X498038Y352084D01*
X498056Y352111D01*
X498065Y352158D01*
X498085Y352217D01*
X498130Y352493D01*
X498223Y352559D01*
X498269Y352609D01*
X498321Y352652D01*
X498339Y352684D01*
X498359Y352706D01*
X498376Y352753D01*
X498408Y352810D01*
X498654Y353547D01*
X498662Y353614D01*
X498679Y353680D01*
X498674Y353715D01*
X498678Y353746D01*
X498665Y353794D01*
X498657Y353858D01*
X498623Y353968D01*
X499075Y354829D01*
X499085Y354865D01*
X499107Y354905D01*
X499421Y355845D01*
X499448Y355869D01*
X499518Y355923D01*
X499524Y355934D01*
X499533Y355942D01*
X499573Y356021D01*
X499616Y356098D01*
X499617Y356110D01*
X499623Y356121D01*
X499629Y356209D01*
X499639Y356297D01*
X499635Y356309D01*
X499636Y356321D01*
X499588Y356469D01*
X499582Y356490D01*
X499581Y356491D01*
X499581Y356493D01*
X498290Y358913D01*
X498237Y358978D01*
X498188Y359046D01*
X498173Y359056D01*
X498163Y359068D01*
X498113Y359094D01*
X498089Y359110D01*
X496290Y360908D01*
X495327Y363232D01*
X495327Y365748D01*
X496290Y368072D01*
X498068Y369850D01*
X498975Y370226D01*
X500199Y370733D01*
X500200Y370733D01*
X500392Y370813D01*
X500804Y370813D01*
X500840Y370820D01*
X500878Y370818D01*
X500938Y370840D01*
X501000Y370852D01*
X501031Y370873D01*
X501066Y370886D01*
X501113Y370929D01*
X501166Y370965D01*
X501186Y370996D01*
X501214Y371022D01*
X501241Y371080D01*
X501275Y371133D01*
X501282Y371170D01*
X501297Y371204D01*
X501300Y371268D01*
X501311Y371330D01*
X501303Y371367D01*
X501304Y371404D01*
X501279Y371474D01*
X501267Y371526D01*
X501253Y371546D01*
X501243Y371574D01*
X488700Y393300D01*
X488667Y393337D01*
X488643Y393380D01*
X488601Y393411D01*
X488567Y393450D01*
X488523Y393472D01*
X488484Y393502D01*
X488433Y393515D01*
X488387Y393538D01*
X488338Y393540D01*
X488290Y393553D01*
X488232Y393546D01*
X488186Y393548D01*
X488153Y393536D01*
X488111Y393531D01*
X487113Y393224D01*
X487082Y393207D01*
X487042Y393196D01*
X486147Y392765D01*
X486060Y392796D01*
X485990Y392805D01*
X485922Y392823D01*
X485889Y392819D01*
X485862Y392823D01*
X485812Y392810D01*
X485743Y392802D01*
X484116Y392300D01*
X484054Y392267D01*
X483988Y392240D01*
X483965Y392218D01*
X483940Y392205D01*
X483908Y392164D01*
X483857Y392117D01*
X483803Y392043D01*
X482820Y391895D01*
X482787Y391883D01*
X482746Y391878D01*
X481797Y391586D01*
X481715Y391629D01*
X481648Y391649D01*
X481583Y391677D01*
X481550Y391678D01*
X481523Y391686D01*
X481472Y391680D01*
X481403Y391682D01*
X479719Y391429D01*
X479653Y391405D01*
X479584Y391389D01*
X479557Y391370D01*
X479531Y391360D01*
X479493Y391325D01*
X479436Y391286D01*
X479371Y391221D01*
X478377Y391221D01*
X478343Y391214D01*
X478301Y391215D01*
X477319Y391068D01*
X477245Y391122D01*
X477181Y391152D01*
X477121Y391189D01*
X477089Y391195D01*
X477063Y391207D01*
X477012Y391209D01*
X476944Y391222D01*
X475241Y391222D01*
X475172Y391208D01*
X475101Y391203D01*
X475072Y391188D01*
X475045Y391183D01*
X475002Y391154D01*
X474940Y391123D01*
X474866Y391068D01*
X473883Y391217D01*
X473848Y391215D01*
X473808Y391223D01*
X472814Y391223D01*
X472749Y391288D01*
X472690Y391327D01*
X472637Y391373D01*
X472605Y391383D01*
X472582Y391399D01*
X472531Y391409D01*
X472466Y391431D01*
X470782Y391685D01*
X470712Y391682D01*
X470641Y391687D01*
X470610Y391677D01*
X470582Y391675D01*
X470536Y391653D01*
X470470Y391632D01*
X470388Y391589D01*
X469439Y391882D01*
X469404Y391886D01*
X469365Y391899D01*
X468383Y392048D01*
X468328Y392122D01*
X468276Y392169D01*
X468229Y392223D01*
X468200Y392238D01*
X468180Y392256D01*
X468131Y392274D01*
X468069Y392305D01*
X466443Y392808D01*
X466372Y392815D01*
X466303Y392830D01*
X466271Y392825D01*
X466243Y392828D01*
X466194Y392813D01*
X466126Y392802D01*
X466039Y392772D01*
X465144Y393203D01*
X465110Y393212D01*
X465073Y393231D01*
X464124Y393524D01*
X464081Y393605D01*
X464036Y393660D01*
X463998Y393720D01*
X463972Y393739D01*
X463954Y393761D01*
X463908Y393785D01*
X463852Y393825D01*
X462980Y394246D01*
X462962Y394250D01*
X462947Y394260D01*
X462866Y394275D01*
X462786Y394295D01*
X462768Y394293D01*
X462750Y394296D01*
X462669Y394278D01*
X462588Y394266D01*
X462572Y394256D01*
X462554Y394252D01*
X462487Y394205D01*
X462416Y394162D01*
X462406Y394147D01*
X462391Y394136D01*
X462347Y394066D01*
X462299Y394000D01*
X462294Y393982D01*
X462285Y393966D01*
X462264Y393853D01*
X462253Y393804D01*
X462254Y393797D01*
X462253Y393789D01*
X462253Y392284D01*
X461290Y389960D01*
X459512Y388181D01*
X458833Y387900D01*
X457609Y387393D01*
X457188Y387219D01*
X454672Y387219D01*
X452348Y388181D01*
X450570Y389960D01*
X449607Y392284D01*
X449607Y394799D01*
X450570Y397123D01*
X452348Y398901D01*
X452922Y399139D01*
X454124Y399637D01*
X454187Y399679D01*
X454254Y399715D01*
X454270Y399735D01*
X454290Y399749D01*
X454332Y399812D01*
X454380Y399871D01*
X454387Y399895D01*
X454401Y399916D01*
X454414Y399991D01*
X454435Y400064D01*
X454433Y400089D01*
X454437Y400113D01*
X454421Y400188D01*
X454412Y400263D01*
X454399Y400287D01*
X454395Y400309D01*
X454363Y400354D01*
X454327Y400422D01*
X454081Y400730D01*
X454054Y400753D01*
X454029Y400786D01*
X453301Y401462D01*
X453297Y401554D01*
X453281Y401623D01*
X453273Y401693D01*
X453257Y401722D01*
X453251Y401749D01*
X453220Y401791D01*
X453187Y401851D01*
X452126Y403183D01*
X452072Y403228D01*
X452024Y403280D01*
X451994Y403294D01*
X451973Y403312D01*
X451923Y403327D01*
X451861Y403357D01*
X451772Y403381D01*
X451275Y404241D01*
X451252Y404267D01*
X451233Y404304D01*
X450613Y405081D01*
X450624Y405172D01*
X450622Y405195D01*
X450622Y405197D01*
X450621Y405199D01*
X450618Y405243D01*
X450620Y405313D01*
X450609Y405344D01*
X450606Y405372D01*
X450582Y405418D01*
X450559Y405483D01*
X449708Y406958D01*
X449661Y407011D01*
X449621Y407069D01*
X449594Y407087D01*
X449576Y407108D01*
X449529Y407131D01*
X449472Y407169D01*
X449387Y407206D01*
X449210Y407658D01*
X449207Y407663D01*
X449206Y407669D01*
X449153Y407747D01*
X449102Y407826D01*
X449096Y407830D01*
X449093Y407835D01*
X449014Y407886D01*
X448936Y407940D01*
X448930Y407941D01*
X448925Y407944D01*
X448833Y407961D01*
X448740Y407980D01*
X448734Y407979D01*
X448728Y407980D01*
X448635Y407959D01*
X448543Y407941D01*
X448538Y407938D01*
X448532Y407936D01*
X448455Y407881D01*
X448377Y407829D01*
X448374Y407824D01*
X448369Y407820D01*
X448319Y407740D01*
X448267Y407661D01*
X448266Y407655D01*
X448263Y407650D01*
X448231Y407473D01*
X448231Y407078D01*
X446742Y405589D01*
X434638Y405589D01*
X433149Y407078D01*
X433149Y407534D01*
X433148Y407539D01*
X433149Y407544D01*
X433128Y407637D01*
X433110Y407731D01*
X433107Y407735D01*
X433106Y407740D01*
X433050Y407818D01*
X432997Y407896D01*
X432993Y407899D01*
X432990Y407903D01*
X432908Y407954D01*
X432829Y408006D01*
X432824Y408006D01*
X432819Y408009D01*
X432642Y408041D01*
X429688Y408041D01*
X429683Y408040D01*
X429678Y408041D01*
X429585Y408020D01*
X429491Y408002D01*
X429487Y407999D01*
X429482Y407998D01*
X429404Y407942D01*
X429326Y407889D01*
X429323Y407885D01*
X429319Y407882D01*
X429268Y407800D01*
X429216Y407721D01*
X429216Y407716D01*
X429213Y407711D01*
X429181Y407534D01*
X429181Y407078D01*
X427692Y405589D01*
X415588Y405589D01*
X413969Y407208D01*
X413963Y407212D01*
X413959Y407217D01*
X413880Y407267D01*
X413802Y407319D01*
X413795Y407320D01*
X413790Y407324D01*
X413697Y407339D01*
X413605Y407357D01*
X413598Y407355D01*
X413592Y407356D01*
X413416Y407318D01*
X413072Y407176D01*
X412738Y407037D01*
X410222Y407037D01*
X408813Y407621D01*
X408811Y407621D01*
X408808Y407623D01*
X408712Y407641D01*
X408616Y407660D01*
X408614Y407659D01*
X408611Y407660D01*
X408515Y407639D01*
X408420Y407619D01*
X408418Y407618D01*
X408415Y407617D01*
X408335Y407560D01*
X408255Y407506D01*
X408253Y407503D01*
X408251Y407502D01*
X408200Y407420D01*
X408146Y407337D01*
X408146Y407334D01*
X408145Y407332D01*
X408129Y407236D01*
X408112Y407139D01*
X408112Y407137D01*
X408112Y407134D01*
X408150Y406958D01*
X408913Y405118D01*
X408913Y402602D01*
X408084Y400602D01*
X408083Y400598D01*
X408081Y400595D01*
X408064Y400500D01*
X408046Y400405D01*
X408046Y400402D01*
X408046Y400398D01*
X408067Y400304D01*
X408086Y400209D01*
X408088Y400206D01*
X408089Y400202D01*
X408145Y400123D01*
X408200Y400044D01*
X408203Y400042D01*
X408205Y400039D01*
X408287Y399988D01*
X408368Y399936D01*
X408372Y399935D01*
X408376Y399933D01*
X408553Y399901D01*
X409216Y399901D01*
X410704Y398412D01*
X410704Y390652D01*
X410706Y390647D01*
X410705Y390642D01*
X410725Y390549D01*
X410744Y390455D01*
X410747Y390451D01*
X410748Y390446D01*
X410803Y390368D01*
X410857Y390290D01*
X410861Y390287D01*
X410864Y390283D01*
X410946Y390232D01*
X411025Y390180D01*
X411030Y390180D01*
X411034Y390177D01*
X411212Y390145D01*
X416974Y390145D01*
X426975Y380144D01*
X426975Y359876D01*
X425519Y358421D01*
X425515Y358414D01*
X425509Y358410D01*
X425460Y358331D01*
X425408Y358254D01*
X425407Y358246D01*
X425403Y358240D01*
X425371Y358062D01*
X425371Y349928D01*
X423782Y348339D01*
X423779Y348334D01*
X423775Y348331D01*
X423723Y348251D01*
X423671Y348172D01*
X423670Y348167D01*
X423667Y348162D01*
X423651Y348068D01*
X423633Y347975D01*
X423634Y347970D01*
X423633Y347964D01*
X423655Y347872D01*
X423675Y347779D01*
X423678Y347774D01*
X423679Y347769D01*
X423782Y347621D01*
X425371Y346032D01*
X425371Y332928D01*
X423882Y331439D01*
X422402Y331439D01*
X422397Y331438D01*
X422392Y331439D01*
X422299Y331418D01*
X422205Y331400D01*
X422201Y331397D01*
X422196Y331396D01*
X422118Y331340D01*
X422040Y331287D01*
X422037Y331283D01*
X422033Y331280D01*
X421982Y331198D01*
X421930Y331119D01*
X421930Y331114D01*
X421927Y331109D01*
X421922Y331084D01*
X401734Y310895D01*
X399298Y310895D01*
X399296Y310895D01*
X399293Y310895D01*
X399198Y310875D01*
X399102Y310856D01*
X399100Y310854D01*
X399097Y310854D01*
X399018Y310798D01*
X398936Y310743D01*
X398935Y310741D01*
X398932Y310739D01*
X398880Y310656D01*
X398827Y310575D01*
X398826Y310572D01*
X398825Y310570D01*
X398809Y310474D01*
X398791Y310378D01*
X398792Y310375D01*
X398791Y310373D01*
X398813Y310278D01*
X398835Y310182D01*
X398836Y310180D01*
X398837Y310177D01*
X398940Y310029D01*
X399318Y309651D01*
X399671Y308798D01*
X400169Y307597D01*
X400169Y305228D01*
X400170Y305223D01*
X400169Y305218D01*
X400190Y305125D01*
X400208Y305031D01*
X400211Y305027D01*
X400212Y305022D01*
X400268Y304944D01*
X400321Y304866D01*
X400325Y304863D01*
X400328Y304859D01*
X400410Y304808D01*
X400489Y304756D01*
X400494Y304756D01*
X400499Y304753D01*
X400676Y304721D01*
X401132Y304721D01*
X402621Y303232D01*
X402621Y291128D01*
X401132Y289639D01*
X400676Y289639D01*
X400671Y289638D01*
X400666Y289639D01*
X400573Y289618D01*
X400479Y289600D01*
X400475Y289597D01*
X400470Y289596D01*
X400392Y289540D01*
X400314Y289487D01*
X400311Y289483D01*
X400307Y289480D01*
X400256Y289398D01*
X400204Y289319D01*
X400204Y289314D01*
X400201Y289309D01*
X400169Y289132D01*
X400169Y286178D01*
X400170Y286173D01*
X400169Y286168D01*
X400190Y286074D01*
X400208Y285981D01*
X400211Y285977D01*
X400212Y285972D01*
X400268Y285894D01*
X400321Y285816D01*
X400325Y285813D01*
X400328Y285809D01*
X400410Y285758D01*
X400489Y285706D01*
X400494Y285706D01*
X400499Y285703D01*
X400676Y285671D01*
X401132Y285671D01*
X402621Y284182D01*
X402621Y272078D01*
X401253Y270710D01*
X401249Y270704D01*
X401243Y270699D01*
X401194Y270620D01*
X401142Y270543D01*
X401141Y270535D01*
X401137Y270529D01*
X401105Y270351D01*
X401105Y261059D01*
X401106Y261051D01*
X401105Y261044D01*
X401126Y260954D01*
X401144Y260863D01*
X401149Y260856D01*
X401151Y260848D01*
X401253Y260700D01*
X406526Y255427D01*
X406533Y255423D01*
X406537Y255417D01*
X406616Y255368D01*
X406693Y255316D01*
X406701Y255315D01*
X406708Y255311D01*
X406885Y255279D01*
X414212Y255279D01*
X414217Y255280D01*
X414222Y255279D01*
X414315Y255300D01*
X414409Y255318D01*
X414413Y255321D01*
X414418Y255322D01*
X414496Y255378D01*
X414574Y255431D01*
X414577Y255435D01*
X414581Y255438D01*
X414632Y255520D01*
X414684Y255599D01*
X414684Y255604D01*
X414687Y255609D01*
X414719Y255786D01*
X414719Y263742D01*
X416208Y265231D01*
X442312Y265231D01*
X443801Y263742D01*
X443801Y239021D01*
X443812Y238964D01*
X443814Y238906D01*
X443832Y238867D01*
X443840Y238824D01*
X443873Y238776D01*
X443897Y238724D01*
X443929Y238694D01*
X443953Y238658D01*
X444001Y238627D01*
X444044Y238588D01*
X444085Y238573D01*
X444121Y238549D01*
X444178Y238539D01*
X444232Y238519D01*
X444276Y238521D01*
X444318Y238514D01*
X444375Y238526D01*
G37*
G36*
X249173Y237702D02*
X249173Y237702D01*
X249225Y237704D01*
X249270Y237724D01*
X249318Y237735D01*
X249360Y237765D01*
X249408Y237786D01*
X249441Y237822D01*
X249481Y237851D01*
X249509Y237895D01*
X249544Y237933D01*
X249561Y237979D01*
X249587Y238021D01*
X249598Y238078D01*
X249613Y238121D01*
X249612Y238156D01*
X249619Y238198D01*
X249619Y265262D01*
X251108Y266751D01*
X277212Y266751D01*
X278701Y265262D01*
X278701Y256468D01*
X278702Y256463D01*
X278701Y256457D01*
X278722Y256364D01*
X278740Y256271D01*
X278743Y256267D01*
X278744Y256262D01*
X278800Y256184D01*
X278853Y256105D01*
X278857Y256103D01*
X278860Y256098D01*
X278942Y256048D01*
X279021Y255996D01*
X279026Y255995D01*
X279031Y255993D01*
X279208Y255961D01*
X304404Y255961D01*
X304411Y255962D01*
X304419Y255961D01*
X304509Y255982D01*
X304600Y256000D01*
X304607Y256005D01*
X304614Y256006D01*
X304762Y256109D01*
X305023Y256370D01*
X305027Y256376D01*
X305033Y256381D01*
X305082Y256459D01*
X305134Y256536D01*
X305135Y256544D01*
X305139Y256551D01*
X305171Y256728D01*
X305171Y271352D01*
X305170Y271357D01*
X305171Y271362D01*
X305150Y271455D01*
X305132Y271549D01*
X305129Y271553D01*
X305128Y271558D01*
X305072Y271636D01*
X305019Y271714D01*
X305015Y271717D01*
X305012Y271721D01*
X304930Y271772D01*
X304851Y271824D01*
X304846Y271824D01*
X304841Y271827D01*
X304664Y271859D01*
X304208Y271859D01*
X302719Y273348D01*
X302719Y285452D01*
X304208Y286941D01*
X304664Y286941D01*
X304669Y286942D01*
X304674Y286941D01*
X304767Y286962D01*
X304861Y286980D01*
X304865Y286983D01*
X304870Y286984D01*
X304948Y287040D01*
X305026Y287093D01*
X305029Y287097D01*
X305033Y287100D01*
X305084Y287182D01*
X305136Y287261D01*
X305136Y287266D01*
X305139Y287271D01*
X305171Y287448D01*
X305171Y291672D01*
X305170Y291677D01*
X305171Y291682D01*
X305150Y291775D01*
X305132Y291869D01*
X305129Y291873D01*
X305128Y291878D01*
X305073Y291955D01*
X305019Y292034D01*
X305015Y292037D01*
X305012Y292041D01*
X304930Y292092D01*
X304851Y292144D01*
X304846Y292144D01*
X304841Y292147D01*
X304664Y292179D01*
X304208Y292179D01*
X302719Y293668D01*
X302719Y305772D01*
X304208Y307261D01*
X317312Y307261D01*
X317776Y306797D01*
X317781Y306794D01*
X317784Y306790D01*
X317864Y306738D01*
X317943Y306686D01*
X317948Y306685D01*
X317953Y306682D01*
X318047Y306666D01*
X318140Y306648D01*
X318145Y306649D01*
X318150Y306648D01*
X318243Y306670D01*
X318336Y306690D01*
X318340Y306693D01*
X318346Y306694D01*
X318494Y306797D01*
X318958Y307261D01*
X321938Y307261D01*
X321943Y307262D01*
X321948Y307261D01*
X322041Y307282D01*
X322135Y307300D01*
X322139Y307303D01*
X322144Y307304D01*
X322222Y307360D01*
X322300Y307413D01*
X322303Y307417D01*
X322307Y307420D01*
X322358Y307502D01*
X322410Y307581D01*
X322410Y307586D01*
X322413Y307591D01*
X322445Y307768D01*
X322445Y318122D01*
X322444Y318127D01*
X322445Y318132D01*
X322424Y318225D01*
X322406Y318319D01*
X322403Y318323D01*
X322402Y318328D01*
X322346Y318406D01*
X322293Y318484D01*
X322289Y318487D01*
X322286Y318492D01*
X322204Y318542D01*
X322125Y318594D01*
X322120Y318595D01*
X322115Y318597D01*
X321938Y318629D01*
X315808Y318629D01*
X315803Y318628D01*
X315798Y318629D01*
X315705Y318608D01*
X315612Y318590D01*
X315607Y318587D01*
X315602Y318586D01*
X315524Y318530D01*
X315446Y318477D01*
X315443Y318473D01*
X315439Y318470D01*
X315388Y318388D01*
X315336Y318309D01*
X315336Y318304D01*
X315333Y318299D01*
X315301Y318122D01*
X315301Y311118D01*
X313812Y309629D01*
X309208Y309629D01*
X307719Y311118D01*
X307719Y317372D01*
X307718Y317377D01*
X307719Y317382D01*
X307698Y317475D01*
X307680Y317569D01*
X307677Y317573D01*
X307676Y317578D01*
X307620Y317656D01*
X307567Y317734D01*
X307563Y317737D01*
X307560Y317742D01*
X307478Y317792D01*
X307399Y317844D01*
X307394Y317845D01*
X307389Y317847D01*
X307212Y317879D01*
X302105Y317879D01*
X302100Y317878D01*
X302095Y317879D01*
X302002Y317858D01*
X301908Y317840D01*
X301904Y317837D01*
X301899Y317836D01*
X301821Y317780D01*
X301743Y317727D01*
X301740Y317723D01*
X301736Y317720D01*
X301685Y317638D01*
X301633Y317559D01*
X301633Y317554D01*
X301630Y317549D01*
X301598Y317372D01*
X301598Y317354D01*
X300635Y315030D01*
X298857Y313251D01*
X297833Y312827D01*
X297017Y312489D01*
X297012Y312486D01*
X297007Y312485D01*
X296929Y312430D01*
X296850Y312377D01*
X296847Y312373D01*
X296843Y312370D01*
X296792Y312289D01*
X296740Y312210D01*
X296739Y312204D01*
X296736Y312200D01*
X296721Y312106D01*
X296703Y312013D01*
X296705Y312007D01*
X296704Y312002D01*
X296742Y311826D01*
X296835Y311601D01*
X296835Y309086D01*
X295873Y306762D01*
X294094Y304983D01*
X293437Y304711D01*
X292212Y304204D01*
X291770Y304021D01*
X289255Y304021D01*
X286931Y304983D01*
X285152Y306762D01*
X284190Y309086D01*
X284190Y311601D01*
X285038Y313650D01*
X285040Y313656D01*
X285043Y313662D01*
X285059Y313754D01*
X285077Y313846D01*
X285076Y313853D01*
X285077Y313859D01*
X285055Y313950D01*
X285036Y314043D01*
X285033Y314048D01*
X285031Y314054D01*
X284928Y314202D01*
X282507Y316624D01*
X282507Y326331D01*
X282506Y326335D01*
X282507Y326339D01*
X282487Y326433D01*
X282467Y326528D01*
X282465Y326531D01*
X282464Y326535D01*
X282409Y326614D01*
X282355Y326693D01*
X282351Y326696D01*
X282349Y326699D01*
X282267Y326750D01*
X282187Y326803D01*
X282183Y326803D01*
X282179Y326806D01*
X282084Y326821D01*
X281989Y326838D01*
X281986Y326837D01*
X281982Y326838D01*
X281806Y326800D01*
X281137Y326523D01*
X280499Y326259D01*
X277984Y326259D01*
X275660Y327221D01*
X273881Y329000D01*
X272919Y331324D01*
X272919Y333839D01*
X273460Y335147D01*
X273461Y335152D01*
X273464Y335156D01*
X273481Y335251D01*
X273499Y335343D01*
X273498Y335349D01*
X273499Y335354D01*
X273477Y335447D01*
X273458Y335540D01*
X273455Y335544D01*
X273454Y335549D01*
X273398Y335627D01*
X273345Y335705D01*
X273340Y335708D01*
X273337Y335712D01*
X273186Y335809D01*
X271691Y336429D01*
X270290Y337829D01*
X270284Y337834D01*
X270279Y337840D01*
X270200Y337889D01*
X270123Y337940D01*
X270115Y337942D01*
X270109Y337946D01*
X269931Y337978D01*
X251393Y337978D01*
X236855Y352516D01*
X236854Y352517D01*
X236853Y352518D01*
X236771Y352572D01*
X236688Y352627D01*
X236686Y352628D01*
X236685Y352628D01*
X236588Y352646D01*
X236491Y352665D01*
X236490Y352665D01*
X236488Y352665D01*
X236391Y352644D01*
X236295Y352623D01*
X236294Y352623D01*
X236292Y352622D01*
X236212Y352566D01*
X236130Y352509D01*
X236129Y352508D01*
X236128Y352507D01*
X236077Y352425D01*
X236023Y352340D01*
X236022Y352338D01*
X236022Y352337D01*
X236005Y352239D01*
X235989Y352142D01*
X235989Y352141D01*
X235989Y352140D01*
X236027Y351964D01*
X236828Y350031D01*
X236828Y347516D01*
X235865Y345192D01*
X234087Y343414D01*
X233721Y343262D01*
X232496Y342755D01*
X231763Y342451D01*
X229247Y342451D01*
X226923Y343414D01*
X226052Y344285D01*
X226046Y344289D01*
X226041Y344296D01*
X225962Y344345D01*
X225885Y344396D01*
X225877Y344397D01*
X225871Y344402D01*
X225693Y344434D01*
X223191Y344434D01*
X223186Y344433D01*
X223180Y344433D01*
X223087Y344413D01*
X222994Y344394D01*
X222990Y344391D01*
X222985Y344390D01*
X222907Y344335D01*
X222828Y344281D01*
X222826Y344277D01*
X222821Y344274D01*
X222771Y344192D01*
X222719Y344113D01*
X222718Y344108D01*
X222716Y344104D01*
X222684Y343926D01*
X222684Y342254D01*
X222685Y342249D01*
X222684Y342243D01*
X222704Y342150D01*
X222723Y342057D01*
X222726Y342053D01*
X222727Y342048D01*
X222782Y341970D01*
X222836Y341891D01*
X222840Y341889D01*
X222843Y341884D01*
X222925Y341834D01*
X223004Y341782D01*
X223009Y341781D01*
X223013Y341778D01*
X223191Y341746D01*
X223842Y341746D01*
X225330Y340258D01*
X225330Y330153D01*
X223842Y328665D01*
X213737Y328665D01*
X212249Y330153D01*
X212249Y340258D01*
X213390Y341399D01*
X213394Y341406D01*
X213400Y341410D01*
X213449Y341489D01*
X213500Y341566D01*
X213502Y341574D01*
X213506Y341580D01*
X213538Y341758D01*
X213538Y343926D01*
X213537Y343931D01*
X213538Y343937D01*
X213517Y344030D01*
X213498Y344123D01*
X213496Y344127D01*
X213494Y344132D01*
X213439Y344210D01*
X213386Y344289D01*
X213381Y344291D01*
X213378Y344296D01*
X213297Y344346D01*
X213218Y344398D01*
X213213Y344399D01*
X213208Y344402D01*
X213171Y344408D01*
X211658Y345922D01*
X211658Y358027D01*
X213146Y359515D01*
X226251Y359515D01*
X227739Y358027D01*
X227739Y355231D01*
X227740Y355227D01*
X227739Y355223D01*
X227760Y355128D01*
X227779Y355034D01*
X227781Y355031D01*
X227782Y355027D01*
X227837Y354948D01*
X227891Y354869D01*
X227895Y354866D01*
X227897Y354863D01*
X227979Y354812D01*
X228059Y354759D01*
X228063Y354759D01*
X228067Y354757D01*
X228162Y354741D01*
X228257Y354724D01*
X228260Y354725D01*
X228264Y354724D01*
X228440Y354762D01*
X229034Y355008D01*
X229247Y355096D01*
X231763Y355096D01*
X233695Y354296D01*
X233696Y354296D01*
X233697Y354295D01*
X233794Y354277D01*
X233891Y354258D01*
X233893Y354258D01*
X233894Y354258D01*
X233989Y354278D01*
X234088Y354298D01*
X234089Y354299D01*
X234090Y354299D01*
X234173Y354356D01*
X234253Y354412D01*
X234254Y354413D01*
X234255Y354413D01*
X234309Y354499D01*
X234361Y354580D01*
X234362Y354582D01*
X234362Y354583D01*
X234378Y354677D01*
X234396Y354778D01*
X234396Y354779D01*
X234396Y354780D01*
X234374Y354875D01*
X234351Y354973D01*
X234351Y354974D01*
X234350Y354975D01*
X234248Y355123D01*
X227453Y361918D01*
X227448Y361921D01*
X227445Y361926D01*
X227365Y361977D01*
X227286Y362029D01*
X227281Y362030D01*
X227276Y362033D01*
X227182Y362049D01*
X227089Y362067D01*
X227084Y362066D01*
X227079Y362067D01*
X226986Y362045D01*
X226893Y362025D01*
X226889Y362022D01*
X226883Y362021D01*
X226735Y361918D01*
X226251Y361434D01*
X213146Y361434D01*
X211658Y362922D01*
X211658Y375027D01*
X213146Y376515D01*
X213239Y376535D01*
X213334Y376555D01*
X213337Y376557D01*
X213341Y376558D01*
X213420Y376613D01*
X213500Y376667D01*
X213502Y376671D01*
X213505Y376673D01*
X213556Y376755D01*
X213609Y376835D01*
X213610Y376839D01*
X213612Y376843D01*
X213627Y376938D01*
X213644Y377033D01*
X213644Y377036D01*
X213644Y377040D01*
X213606Y377216D01*
X213546Y377361D01*
X213546Y379876D01*
X214509Y382200D01*
X216287Y383979D01*
X217373Y384429D01*
X218597Y384936D01*
X218598Y384936D01*
X218611Y384941D01*
X221126Y384941D01*
X223450Y383979D01*
X225229Y382200D01*
X226191Y379876D01*
X226191Y377361D01*
X226091Y377118D01*
X226089Y377111D01*
X226086Y377106D01*
X226070Y377013D01*
X226052Y376921D01*
X226053Y376915D01*
X226052Y376908D01*
X226074Y376817D01*
X226093Y376725D01*
X226096Y376719D01*
X226098Y376713D01*
X226201Y376565D01*
X226357Y376409D01*
X226359Y376408D01*
X226360Y376405D01*
X226441Y376353D01*
X226524Y376298D01*
X226526Y376298D01*
X226528Y376296D01*
X226624Y376279D01*
X226720Y376261D01*
X226723Y376261D01*
X226726Y376261D01*
X226822Y376282D01*
X226917Y376302D01*
X226919Y376304D01*
X226921Y376304D01*
X227001Y376361D01*
X227081Y376416D01*
X227083Y376419D01*
X227085Y376420D01*
X227136Y376503D01*
X227189Y376586D01*
X227189Y376588D01*
X227191Y376590D01*
X227223Y376768D01*
X227223Y392377D01*
X227219Y392395D01*
X227221Y392414D01*
X227199Y392493D01*
X227183Y392574D01*
X227173Y392589D01*
X227168Y392607D01*
X227117Y392671D01*
X227070Y392739D01*
X227055Y392750D01*
X227043Y392764D01*
X226971Y392804D01*
X226902Y392849D01*
X226884Y392852D01*
X226868Y392861D01*
X226786Y392870D01*
X226705Y392884D01*
X226687Y392880D01*
X226669Y392882D01*
X226558Y392852D01*
X226509Y392841D01*
X226503Y392836D01*
X226495Y392834D01*
X226365Y392772D01*
X226278Y392802D01*
X226208Y392812D01*
X226140Y392830D01*
X226108Y392826D01*
X226080Y392829D01*
X226030Y392816D01*
X225961Y392808D01*
X224335Y392305D01*
X224273Y392272D01*
X224207Y392246D01*
X224183Y392223D01*
X224158Y392210D01*
X224126Y392169D01*
X224076Y392122D01*
X224021Y392048D01*
X223039Y391899D01*
X223006Y391887D01*
X222965Y391882D01*
X222016Y391589D01*
X221934Y391632D01*
X221867Y391652D01*
X221802Y391680D01*
X221769Y391681D01*
X221742Y391689D01*
X221691Y391683D01*
X221622Y391685D01*
X219938Y391431D01*
X219872Y391407D01*
X219803Y391391D01*
X219776Y391372D01*
X219750Y391362D01*
X219712Y391327D01*
X219655Y391288D01*
X219590Y391223D01*
X218596Y391223D01*
X218562Y391216D01*
X218521Y391217D01*
X217538Y391068D01*
X217464Y391123D01*
X217400Y391153D01*
X217340Y391190D01*
X217308Y391196D01*
X217283Y391208D01*
X217231Y391210D01*
X217163Y391222D01*
X215460Y391222D01*
X215391Y391208D01*
X215321Y391202D01*
X215291Y391187D01*
X215264Y391182D01*
X215221Y391153D01*
X215159Y391122D01*
X215085Y391068D01*
X214103Y391215D01*
X214068Y391214D01*
X214027Y391221D01*
X213033Y391221D01*
X212968Y391286D01*
X212909Y391325D01*
X212856Y391371D01*
X212825Y391381D01*
X212801Y391397D01*
X212751Y391406D01*
X212685Y391429D01*
X211001Y391682D01*
X210931Y391678D01*
X210860Y391683D01*
X210829Y391673D01*
X210801Y391672D01*
X210755Y391650D01*
X210689Y391629D01*
X210607Y391586D01*
X209658Y391878D01*
X209623Y391882D01*
X209584Y391895D01*
X208601Y392043D01*
X208547Y392117D01*
X208494Y392164D01*
X208448Y392217D01*
X208419Y392232D01*
X208398Y392251D01*
X208349Y392269D01*
X208288Y392300D01*
X206661Y392802D01*
X206591Y392809D01*
X206522Y392824D01*
X206489Y392819D01*
X206461Y392822D01*
X206412Y392806D01*
X206344Y392796D01*
X206257Y392765D01*
X205362Y393196D01*
X205328Y393205D01*
X205291Y393224D01*
X204293Y393531D01*
X204244Y393536D01*
X204197Y393551D01*
X204145Y393546D01*
X204094Y393551D01*
X204046Y393537D01*
X203997Y393532D01*
X203952Y393508D01*
X203902Y393492D01*
X203864Y393461D01*
X203821Y393438D01*
X203783Y393393D01*
X203748Y393364D01*
X203732Y393332D01*
X203704Y393300D01*
X190623Y370642D01*
X190611Y370607D01*
X190591Y370576D01*
X190580Y370513D01*
X190559Y370452D01*
X190562Y370415D01*
X190555Y370378D01*
X190569Y370316D01*
X190574Y370252D01*
X190591Y370219D01*
X190599Y370183D01*
X190636Y370131D01*
X190665Y370074D01*
X190693Y370050D01*
X190715Y370019D01*
X190769Y369986D01*
X190818Y369944D01*
X190854Y369933D01*
X190885Y369913D01*
X190958Y369900D01*
X191009Y369884D01*
X191034Y369887D01*
X191063Y369881D01*
X192208Y369881D01*
X194532Y368919D01*
X196311Y367140D01*
X197273Y364816D01*
X197273Y362301D01*
X196311Y359977D01*
X194532Y358199D01*
X194414Y358149D01*
X194351Y358107D01*
X194284Y358071D01*
X194267Y358051D01*
X194247Y358038D01*
X194218Y357992D01*
X194168Y357933D01*
X193092Y356056D01*
X193085Y356034D01*
X193071Y356016D01*
X193053Y355940D01*
X193028Y355866D01*
X193030Y355843D01*
X193025Y355821D01*
X193040Y355720D01*
X193044Y355666D01*
X193049Y355656D01*
X193051Y355643D01*
X193297Y354905D01*
X193316Y354872D01*
X193329Y354829D01*
X193781Y353968D01*
X193747Y353858D01*
X193740Y353791D01*
X193725Y353725D01*
X193730Y353690D01*
X193727Y353659D01*
X193741Y353611D01*
X193750Y353547D01*
X193996Y352810D01*
X194030Y352752D01*
X194056Y352689D01*
X194081Y352663D01*
X194096Y352637D01*
X194136Y352606D01*
X194181Y352559D01*
X194274Y352493D01*
X194430Y351532D01*
X194443Y351497D01*
X194450Y351453D01*
X194693Y350723D01*
X194701Y350710D01*
X194702Y350705D01*
X194705Y350700D01*
X194709Y350682D01*
X194754Y350617D01*
X194793Y350549D01*
X194811Y350536D01*
X194823Y350518D01*
X194890Y350475D01*
X194952Y350427D01*
X194974Y350422D01*
X194992Y350410D01*
X195070Y350397D01*
X195146Y350377D01*
X195168Y350380D01*
X195190Y350376D01*
X195267Y350394D01*
X195345Y350406D01*
X195364Y350417D01*
X195385Y350422D01*
X195470Y350481D01*
X195517Y350509D01*
X195523Y350518D01*
X195533Y350525D01*
X195808Y350800D01*
X196170Y350950D01*
X196171Y350950D01*
X197395Y351457D01*
X198132Y351763D01*
X200648Y351763D01*
X202972Y350800D01*
X204750Y349022D01*
X205713Y346698D01*
X205713Y344182D01*
X204750Y341858D01*
X202972Y340080D01*
X202082Y339711D01*
X200857Y339204D01*
X200648Y339117D01*
X198132Y339117D01*
X195808Y340080D01*
X195212Y340676D01*
X195160Y340710D01*
X195114Y340753D01*
X195078Y340765D01*
X195046Y340787D01*
X194984Y340799D01*
X194925Y340819D01*
X194886Y340817D01*
X194849Y340824D01*
X194787Y340811D01*
X194725Y340808D01*
X194690Y340791D01*
X194653Y340783D01*
X194601Y340747D01*
X194545Y340719D01*
X194520Y340690D01*
X194488Y340668D01*
X194454Y340616D01*
X194413Y340568D01*
X194399Y340529D01*
X194380Y340499D01*
X194373Y340454D01*
X194353Y340399D01*
X194274Y339911D01*
X194181Y339845D01*
X194135Y339795D01*
X194083Y339752D01*
X194066Y339720D01*
X194045Y339698D01*
X194028Y339651D01*
X193996Y339594D01*
X193750Y338857D01*
X193742Y338790D01*
X193725Y338724D01*
X193730Y338689D01*
X193726Y338658D01*
X193739Y338610D01*
X193747Y338546D01*
X193781Y338436D01*
X193329Y337575D01*
X193319Y337539D01*
X193297Y337499D01*
X192989Y336576D01*
X192887Y336525D01*
X192833Y336484D01*
X192775Y336449D01*
X192753Y336421D01*
X192728Y336402D01*
X192704Y336359D01*
X192664Y336307D01*
X192627Y336237D01*
X192613Y336188D01*
X192589Y336142D01*
X192585Y336093D01*
X192571Y336045D01*
X192577Y335994D01*
X192573Y335942D01*
X192589Y335890D01*
X192594Y335845D01*
X192612Y335813D01*
X192625Y335770D01*
X193947Y333189D01*
X193981Y333147D01*
X194040Y333062D01*
X195860Y331242D01*
X196823Y328918D01*
X196823Y326402D01*
X195860Y324078D01*
X194082Y322300D01*
X193255Y321958D01*
X192031Y321450D01*
X191758Y321337D01*
X191747Y321337D01*
X191710Y321330D01*
X191673Y321332D01*
X191613Y321310D01*
X191550Y321298D01*
X191519Y321277D01*
X191484Y321264D01*
X191437Y321221D01*
X191385Y321185D01*
X191364Y321154D01*
X191337Y321128D01*
X191310Y321070D01*
X191275Y321017D01*
X191269Y320980D01*
X191253Y320946D01*
X191251Y320882D01*
X191240Y320820D01*
X191248Y320783D01*
X191247Y320746D01*
X191272Y320676D01*
X191283Y320624D01*
X191298Y320604D01*
X191308Y320576D01*
X203704Y299104D01*
X203737Y299067D01*
X203761Y299024D01*
X203803Y298993D01*
X203837Y298954D01*
X203881Y298932D01*
X203920Y298902D01*
X203971Y298889D01*
X204017Y298866D01*
X204066Y298864D01*
X204114Y298851D01*
X204172Y298858D01*
X204218Y298856D01*
X204251Y298868D01*
X204293Y298873D01*
X205291Y299180D01*
X205322Y299197D01*
X205362Y299208D01*
X206257Y299639D01*
X206344Y299608D01*
X206414Y299599D01*
X206482Y299581D01*
X206514Y299585D01*
X206542Y299581D01*
X206592Y299594D01*
X206661Y299602D01*
X208288Y300104D01*
X208350Y300137D01*
X208416Y300164D01*
X208439Y300186D01*
X208464Y300199D01*
X208496Y300240D01*
X208547Y300287D01*
X208601Y300361D01*
X209584Y300509D01*
X209617Y300521D01*
X209658Y300526D01*
X210607Y300818D01*
X210689Y300775D01*
X210756Y300755D01*
X210821Y300727D01*
X210854Y300726D01*
X210881Y300718D01*
X210932Y300724D01*
X211001Y300722D01*
X212685Y300975D01*
X212751Y300999D01*
X212820Y301015D01*
X212847Y301034D01*
X212873Y301044D01*
X212911Y301079D01*
X212968Y301118D01*
X213033Y301183D01*
X214027Y301183D01*
X214061Y301190D01*
X214103Y301189D01*
X215085Y301336D01*
X215159Y301282D01*
X215223Y301252D01*
X215283Y301215D01*
X215315Y301209D01*
X215341Y301197D01*
X215392Y301195D01*
X215460Y301182D01*
X217163Y301182D01*
X217232Y301196D01*
X217302Y301201D01*
X217332Y301216D01*
X217359Y301221D01*
X217402Y301250D01*
X217464Y301281D01*
X217538Y301336D01*
X218521Y301187D01*
X218556Y301189D01*
X218596Y301181D01*
X219590Y301181D01*
X219655Y301116D01*
X219714Y301077D01*
X219767Y301031D01*
X219799Y301021D01*
X219822Y301005D01*
X219873Y300995D01*
X219938Y300973D01*
X221622Y300719D01*
X221692Y300722D01*
X221763Y300717D01*
X221794Y300727D01*
X221822Y300729D01*
X221868Y300751D01*
X221934Y300772D01*
X222016Y300815D01*
X222965Y300522D01*
X223000Y300518D01*
X223039Y300505D01*
X224021Y300356D01*
X224076Y300282D01*
X224128Y300235D01*
X224175Y300181D01*
X224204Y300166D01*
X224224Y300148D01*
X224273Y300130D01*
X224335Y300099D01*
X225961Y299596D01*
X226032Y299589D01*
X226101Y299574D01*
X226133Y299579D01*
X226161Y299576D01*
X226210Y299591D01*
X226278Y299602D01*
X226365Y299632D01*
X227260Y299201D01*
X227294Y299192D01*
X227331Y299173D01*
X228280Y298880D01*
X228323Y298799D01*
X228368Y298744D01*
X228406Y298684D01*
X228432Y298665D01*
X228450Y298643D01*
X228496Y298619D01*
X228552Y298579D01*
X230085Y297839D01*
X230154Y297822D01*
X230220Y297796D01*
X230252Y297797D01*
X230280Y297790D01*
X230331Y297797D01*
X230400Y297798D01*
X230490Y297815D01*
X231311Y297255D01*
X231343Y297242D01*
X231377Y297217D01*
X232272Y296786D01*
X232302Y296699D01*
X232338Y296638D01*
X232367Y296574D01*
X232390Y296550D01*
X232404Y296526D01*
X232446Y296496D01*
X232495Y296447D01*
X233902Y295488D01*
X233967Y295460D01*
X234028Y295425D01*
X234060Y295420D01*
X234086Y295410D01*
X234138Y295409D01*
X234206Y295400D01*
X234298Y295403D01*
X235026Y294727D01*
X235056Y294709D01*
X235086Y294680D01*
X235906Y294120D01*
X235924Y294029D01*
X235950Y293964D01*
X235969Y293896D01*
X235988Y293870D01*
X235999Y293844D01*
X236035Y293807D01*
X236077Y293752D01*
X237325Y292593D01*
X237385Y292556D01*
X237440Y292513D01*
X237472Y292503D01*
X237496Y292489D01*
X237547Y292481D01*
X237613Y292461D01*
X237704Y292451D01*
X238323Y291674D01*
X238350Y291651D01*
X238375Y291618D01*
X239103Y290942D01*
X239107Y290850D01*
X239123Y290781D01*
X239131Y290711D01*
X239147Y290682D01*
X239153Y290655D01*
X239184Y290613D01*
X239217Y290553D01*
X239450Y290261D01*
X239475Y290239D01*
X239495Y290211D01*
X239552Y290175D01*
X239603Y290132D01*
X239635Y290122D01*
X239664Y290103D01*
X239730Y290092D01*
X239794Y290072D01*
X239828Y290075D01*
X239862Y290070D01*
X239927Y290085D01*
X239994Y290092D01*
X240024Y290108D01*
X240057Y290115D01*
X240122Y290161D01*
X240170Y290187D01*
X240184Y290204D01*
X240205Y290218D01*
X244189Y294202D01*
X244193Y294208D01*
X244199Y294213D01*
X244248Y294292D01*
X244300Y294369D01*
X244301Y294377D01*
X244305Y294383D01*
X244337Y294561D01*
X244337Y296542D01*
X245300Y298865D01*
X247078Y300644D01*
X247291Y300732D01*
X247292Y300732D01*
X248516Y301240D01*
X249402Y301607D01*
X251918Y301607D01*
X254241Y300644D01*
X256020Y298865D01*
X256983Y296542D01*
X256983Y294026D01*
X256020Y291702D01*
X254241Y289924D01*
X253203Y289494D01*
X251978Y288986D01*
X251918Y288961D01*
X249936Y288961D01*
X249929Y288960D01*
X249921Y288961D01*
X249831Y288940D01*
X249740Y288922D01*
X249733Y288917D01*
X249726Y288915D01*
X249578Y288813D01*
X244081Y283316D01*
X244080Y283315D01*
X244079Y283314D01*
X244025Y283232D01*
X243970Y283149D01*
X243970Y283148D01*
X243969Y283146D01*
X243951Y283048D01*
X243933Y282952D01*
X243933Y282951D01*
X243933Y282949D01*
X243968Y282772D01*
X244524Y281353D01*
X244562Y281294D01*
X244593Y281231D01*
X244617Y281209D01*
X244633Y281185D01*
X244675Y281156D01*
X244726Y281109D01*
X244804Y281060D01*
X245025Y280091D01*
X245039Y280060D01*
X245047Y280019D01*
X245410Y279094D01*
X245373Y279010D01*
X245358Y278941D01*
X245335Y278874D01*
X245337Y278841D01*
X245331Y278814D01*
X245340Y278763D01*
X245343Y278694D01*
X245722Y277034D01*
X245751Y276969D01*
X245772Y276902D01*
X245793Y276877D01*
X245804Y276851D01*
X245842Y276816D01*
X245885Y276762D01*
X245955Y276702D01*
X246029Y275711D01*
X246038Y275678D01*
X246040Y275636D01*
X246261Y274667D01*
X246212Y274590D01*
X246192Y274535D01*
X246170Y274503D01*
X246167Y274486D01*
X246154Y274461D01*
X246151Y274428D01*
X246141Y274402D01*
X246143Y274351D01*
X246135Y274305D01*
X246137Y274295D01*
X246136Y274282D01*
X246262Y272584D01*
X246281Y272516D01*
X246292Y272446D01*
X246309Y272418D01*
X246317Y272391D01*
X246349Y272351D01*
X246384Y272291D01*
X246444Y272221D01*
X246369Y271230D01*
X246373Y271196D01*
X246369Y271155D01*
X246443Y270164D01*
X246383Y270094D01*
X246348Y270032D01*
X246307Y269975D01*
X246299Y269944D01*
X246296Y269939D01*
X246295Y269937D01*
X246285Y269919D01*
X246279Y269868D01*
X246262Y269801D01*
X246134Y268103D01*
X246142Y268033D01*
X246143Y267962D01*
X246155Y267932D01*
X246158Y267904D01*
X246184Y267860D01*
X246210Y267795D01*
X246259Y267717D01*
X246037Y266749D01*
X246037Y266714D01*
X246026Y266674D01*
X245952Y265683D01*
X245882Y265623D01*
X245838Y265567D01*
X245789Y265517D01*
X245776Y265487D01*
X245759Y265465D01*
X245745Y265415D01*
X245718Y265351D01*
X245339Y263691D01*
X245337Y263621D01*
X245327Y263551D01*
X245334Y263519D01*
X245333Y263491D01*
X245352Y263443D01*
X245368Y263376D01*
X245405Y263291D01*
X245042Y262366D01*
X245036Y262332D01*
X245033Y262329D01*
X245033Y262325D01*
X245019Y262294D01*
X244798Y261325D01*
X244720Y261277D01*
X244669Y261228D01*
X244612Y261186D01*
X244595Y261158D01*
X244575Y261139D01*
X244554Y261091D01*
X244518Y261032D01*
X243895Y259448D01*
X243883Y259378D01*
X243862Y259311D01*
X243865Y259278D01*
X243860Y259250D01*
X243871Y259200D01*
X243877Y259131D01*
X243901Y259042D01*
X243404Y258182D01*
X243393Y258149D01*
X243371Y258114D01*
X243008Y257189D01*
X242923Y257152D01*
X242865Y257112D01*
X242803Y257078D01*
X242782Y257053D01*
X242759Y257037D01*
X242731Y256994D01*
X242687Y256941D01*
X241835Y255466D01*
X241812Y255400D01*
X241782Y255336D01*
X241780Y255303D01*
X241771Y255277D01*
X241775Y255225D01*
X241770Y255156D01*
X241780Y255065D01*
X241161Y254288D01*
X241145Y254257D01*
X241118Y254225D01*
X240621Y253365D01*
X240532Y253341D01*
X240469Y253310D01*
X240402Y253286D01*
X240377Y253265D01*
X240352Y253252D01*
X240319Y253213D01*
X240267Y253168D01*
X239204Y251837D01*
X239172Y251774D01*
X239133Y251715D01*
X239126Y251683D01*
X239113Y251658D01*
X239109Y251607D01*
X239094Y251539D01*
X239091Y251448D01*
X238362Y250772D01*
X238342Y250744D01*
X238310Y250716D01*
X237691Y249940D01*
X237599Y249929D01*
X237532Y249908D01*
X237463Y249894D01*
X237435Y249877D01*
X237408Y249868D01*
X237369Y249835D01*
X237311Y249797D01*
X236062Y248640D01*
X236021Y248582D01*
X235973Y248530D01*
X235962Y248500D01*
X235945Y248477D01*
X235934Y248427D01*
X235909Y248362D01*
X235892Y248272D01*
X235071Y247712D01*
X235047Y247688D01*
X235011Y247665D01*
X234260Y246968D01*
X234231Y246928D01*
X234194Y246895D01*
X234173Y246847D01*
X234143Y246805D01*
X234131Y246757D01*
X234111Y246712D01*
X234109Y246661D01*
X234098Y246610D01*
X234106Y246561D01*
X234104Y246512D01*
X234124Y246458D01*
X234132Y246413D01*
X234151Y246383D01*
X234165Y246342D01*
X236261Y242712D01*
X236309Y242658D01*
X236349Y242600D01*
X236374Y242584D01*
X236394Y242561D01*
X236458Y242530D01*
X236519Y242492D01*
X236548Y242487D01*
X236574Y242474D01*
X236646Y242470D01*
X236716Y242458D01*
X236745Y242465D01*
X236775Y242464D01*
X236842Y242488D01*
X236911Y242504D01*
X236938Y242522D01*
X236963Y242531D01*
X237001Y242567D01*
X237059Y242607D01*
X238084Y243632D01*
X238781Y243920D01*
X240005Y244428D01*
X240006Y244428D01*
X240408Y244594D01*
X242924Y244594D01*
X245248Y243632D01*
X247026Y241853D01*
X247989Y239529D01*
X247989Y239095D01*
X248001Y239034D01*
X248004Y238972D01*
X248021Y238933D01*
X248028Y238899D01*
X248054Y238861D01*
X248078Y238808D01*
X248694Y237911D01*
X248729Y237877D01*
X248757Y237836D01*
X248801Y237808D01*
X248838Y237771D01*
X248884Y237753D01*
X248925Y237727D01*
X248976Y237717D01*
X249025Y237698D01*
X249074Y237700D01*
X249122Y237691D01*
X249173Y237702D01*
G37*
G36*
X342217Y369712D02*
X342217Y369712D01*
X342222Y369711D01*
X342315Y369732D01*
X342409Y369750D01*
X342413Y369753D01*
X342418Y369754D01*
X342496Y369810D01*
X342574Y369863D01*
X342577Y369867D01*
X342581Y369870D01*
X342632Y369952D01*
X342684Y370031D01*
X342684Y370036D01*
X342687Y370041D01*
X342719Y370218D01*
X342719Y371002D01*
X342718Y371010D01*
X342719Y371018D01*
X342698Y371107D01*
X342680Y371199D01*
X342675Y371205D01*
X342673Y371213D01*
X342571Y371361D01*
X342445Y371486D01*
X342445Y381214D01*
X349994Y388762D01*
X349995Y388763D01*
X349996Y388764D01*
X350050Y388846D01*
X350090Y388906D01*
X350265Y388875D01*
X360215Y388875D01*
X360223Y388876D01*
X360230Y388875D01*
X360320Y388896D01*
X360411Y388914D01*
X360418Y388919D01*
X360426Y388921D01*
X360574Y389023D01*
X362658Y391108D01*
X362662Y391114D01*
X362669Y391119D01*
X362718Y391197D01*
X362769Y391275D01*
X362770Y391282D01*
X362775Y391289D01*
X362807Y391466D01*
X362807Y413456D01*
X364245Y414895D01*
X365091Y415741D01*
X365093Y415743D01*
X365095Y415745D01*
X365147Y415825D01*
X365202Y415908D01*
X365203Y415911D01*
X365204Y415913D01*
X365222Y416009D01*
X365240Y416105D01*
X365239Y416107D01*
X365240Y416110D01*
X365218Y416206D01*
X365198Y416301D01*
X365197Y416303D01*
X365196Y416306D01*
X365140Y416385D01*
X365084Y416466D01*
X365082Y416467D01*
X365080Y416469D01*
X364997Y416521D01*
X364915Y416573D01*
X364912Y416574D01*
X364910Y416575D01*
X364733Y416607D01*
X363713Y416607D01*
X361390Y417570D01*
X359611Y419348D01*
X358648Y421672D01*
X358648Y424187D01*
X359611Y426511D01*
X361390Y428290D01*
X362040Y428559D01*
X363265Y429067D01*
X363713Y429252D01*
X366229Y429252D01*
X366937Y428959D01*
X366938Y428959D01*
X366940Y428958D01*
X367037Y428939D01*
X367134Y428920D01*
X367135Y428921D01*
X367136Y428920D01*
X367231Y428941D01*
X367330Y428961D01*
X367331Y428962D01*
X367333Y428962D01*
X367415Y429019D01*
X367495Y429075D01*
X367496Y429076D01*
X367497Y429076D01*
X367551Y429161D01*
X367604Y429243D01*
X367604Y429244D01*
X367605Y429246D01*
X367621Y429341D01*
X367638Y429441D01*
X367638Y429442D01*
X367638Y429443D01*
X367616Y429539D01*
X367594Y429636D01*
X367593Y429637D01*
X367593Y429638D01*
X367490Y429786D01*
X366159Y431117D01*
X366152Y431122D01*
X366148Y431128D01*
X366069Y431177D01*
X365992Y431228D01*
X365984Y431230D01*
X365978Y431234D01*
X365800Y431266D01*
X312931Y431266D01*
X312923Y431264D01*
X312916Y431266D01*
X312826Y431245D01*
X312735Y431226D01*
X312728Y431222D01*
X312721Y431220D01*
X312573Y431117D01*
X310309Y428853D01*
X307184Y425729D01*
X303304Y425729D01*
X303299Y425728D01*
X303294Y425729D01*
X303201Y425708D01*
X303107Y425689D01*
X303103Y425686D01*
X303098Y425685D01*
X303020Y425630D01*
X302942Y425576D01*
X302939Y425572D01*
X302934Y425569D01*
X302884Y425488D01*
X302832Y425408D01*
X302831Y425403D01*
X302829Y425399D01*
X302797Y425221D01*
X302797Y424667D01*
X301308Y423179D01*
X292229Y423179D01*
X292222Y423177D01*
X292214Y423179D01*
X292124Y423158D01*
X292033Y423139D01*
X292026Y423135D01*
X292019Y423133D01*
X291871Y423030D01*
X291062Y422221D01*
X291058Y422215D01*
X291051Y422210D01*
X291002Y422131D01*
X290951Y422054D01*
X290949Y422047D01*
X290945Y422040D01*
X290913Y421863D01*
X290913Y403447D01*
X290915Y403439D01*
X290914Y403431D01*
X290935Y403341D01*
X290953Y403250D01*
X290957Y403244D01*
X290959Y403236D01*
X291062Y403088D01*
X299117Y395033D01*
X299123Y395029D01*
X299128Y395022D01*
X299207Y394973D01*
X299284Y394922D01*
X299292Y394921D01*
X299298Y394916D01*
X299476Y394884D01*
X306595Y394884D01*
X306600Y394886D01*
X306605Y394885D01*
X306698Y394905D01*
X306791Y394924D01*
X306795Y394927D01*
X306800Y394928D01*
X306878Y394983D01*
X306957Y395037D01*
X306960Y395041D01*
X306964Y395044D01*
X307015Y395126D01*
X307066Y395205D01*
X307067Y395210D01*
X307070Y395214D01*
X307102Y395392D01*
X307102Y396356D01*
X308590Y397844D01*
X320695Y397844D01*
X322183Y396356D01*
X322183Y390826D01*
X322185Y390818D01*
X322183Y390810D01*
X322204Y390720D01*
X322223Y390629D01*
X322227Y390623D01*
X322229Y390615D01*
X322332Y390467D01*
X328045Y384754D01*
X328912Y383887D01*
X328916Y383884D01*
X328919Y383880D01*
X328999Y383829D01*
X329079Y383776D01*
X329084Y383775D01*
X329088Y383773D01*
X329182Y383757D01*
X329275Y383739D01*
X329281Y383740D01*
X329286Y383739D01*
X329378Y383761D01*
X329472Y383780D01*
X329476Y383783D01*
X329481Y383785D01*
X329629Y383887D01*
X329975Y384233D01*
X336481Y390740D01*
X336483Y390742D01*
X336485Y390743D01*
X336537Y390824D01*
X336592Y390907D01*
X336593Y390909D01*
X336594Y390911D01*
X336611Y391007D01*
X336630Y391103D01*
X336629Y391106D01*
X336630Y391109D01*
X336609Y391203D01*
X336588Y391300D01*
X336587Y391302D01*
X336586Y391304D01*
X336530Y391384D01*
X336474Y391464D01*
X336472Y391466D01*
X336470Y391468D01*
X336387Y391519D01*
X336305Y391572D01*
X336302Y391572D01*
X336300Y391574D01*
X336123Y391606D01*
X328751Y391606D01*
X327263Y393094D01*
X327263Y406199D01*
X328751Y407687D01*
X340856Y407687D01*
X342344Y406199D01*
X342344Y405742D01*
X342346Y405737D01*
X342345Y405732D01*
X342365Y405639D01*
X342384Y405546D01*
X342387Y405541D01*
X342388Y405536D01*
X342443Y405458D01*
X342497Y405380D01*
X342501Y405377D01*
X342504Y405373D01*
X342586Y405322D01*
X342665Y405271D01*
X342670Y405270D01*
X342674Y405267D01*
X342852Y405235D01*
X343676Y405235D01*
X345294Y404565D01*
X345298Y404564D01*
X345301Y404562D01*
X345396Y404544D01*
X345491Y404526D01*
X345495Y404527D01*
X345499Y404526D01*
X345594Y404547D01*
X345687Y404567D01*
X345690Y404569D01*
X345694Y404570D01*
X345773Y404626D01*
X345852Y404680D01*
X345855Y404683D01*
X345858Y404686D01*
X345909Y404767D01*
X345961Y404849D01*
X345961Y404853D01*
X345964Y404856D01*
X345996Y405033D01*
X345996Y405405D01*
X347484Y406893D01*
X359589Y406893D01*
X361077Y405405D01*
X361077Y392300D01*
X359589Y390812D01*
X351454Y390812D01*
X351446Y390810D01*
X351438Y390812D01*
X351348Y390791D01*
X351257Y390772D01*
X351251Y390768D01*
X351243Y390766D01*
X351095Y390663D01*
X350432Y390000D01*
X350071Y389851D01*
X350070Y389850D01*
X350069Y389850D01*
X349989Y389795D01*
X349905Y389739D01*
X349904Y389738D01*
X349903Y389737D01*
X349851Y389657D01*
X349811Y389596D01*
X349716Y389611D01*
X349620Y389628D01*
X349618Y389628D01*
X349617Y389628D01*
X349441Y389589D01*
X349036Y389422D01*
X348108Y389037D01*
X346486Y389037D01*
X346478Y389036D01*
X346470Y389037D01*
X346381Y389016D01*
X346289Y388998D01*
X346283Y388993D01*
X346275Y388991D01*
X346127Y388889D01*
X336815Y379577D01*
X336814Y379574D01*
X336812Y379573D01*
X336759Y379492D01*
X336704Y379410D01*
X336704Y379407D01*
X336702Y379405D01*
X336685Y379309D01*
X336667Y379213D01*
X336667Y379210D01*
X336667Y379208D01*
X336688Y379111D01*
X336708Y379017D01*
X336710Y379015D01*
X336710Y379012D01*
X336767Y378932D01*
X336823Y378852D01*
X336825Y378851D01*
X336826Y378849D01*
X336909Y378797D01*
X336992Y378745D01*
X336994Y378744D01*
X336997Y378743D01*
X337174Y378711D01*
X338812Y378711D01*
X340301Y377222D01*
X340301Y370218D01*
X340302Y370213D01*
X340301Y370208D01*
X340322Y370115D01*
X340340Y370022D01*
X340343Y370017D01*
X340344Y370012D01*
X340400Y369934D01*
X340453Y369856D01*
X340457Y369853D01*
X340460Y369849D01*
X340542Y369798D01*
X340621Y369746D01*
X340626Y369746D01*
X340631Y369743D01*
X340808Y369711D01*
X342212Y369711D01*
X342217Y369712D01*
G37*
G36*
X478143Y393769D02*
X478143Y393769D01*
X478186Y393768D01*
X482179Y394369D01*
X482209Y394380D01*
X482252Y394385D01*
X486111Y395574D01*
X486139Y395589D01*
X486180Y395601D01*
X489818Y397352D01*
X489840Y397369D01*
X489866Y397378D01*
X489919Y397428D01*
X489977Y397472D01*
X489990Y397496D01*
X490010Y397515D01*
X490040Y397581D01*
X490076Y397645D01*
X490079Y397672D01*
X490090Y397697D01*
X490091Y397770D01*
X490100Y397842D01*
X490092Y397868D01*
X490092Y397896D01*
X490056Y397994D01*
X490044Y398033D01*
X490038Y398041D01*
X490034Y398052D01*
X463034Y444852D01*
X463016Y444872D01*
X463005Y444897D01*
X462951Y444946D01*
X462903Y445001D01*
X462878Y445012D01*
X462858Y445031D01*
X462789Y445055D01*
X462723Y445086D01*
X462696Y445088D01*
X462671Y445097D01*
X462598Y445092D01*
X462525Y445095D01*
X462499Y445086D01*
X462472Y445084D01*
X462376Y445040D01*
X462338Y445026D01*
X462331Y445019D01*
X462321Y445015D01*
X458984Y442741D01*
X458962Y442718D01*
X458926Y442695D01*
X455965Y439949D01*
X455946Y439923D01*
X455914Y439895D01*
X453396Y436739D01*
X453381Y436710D01*
X453354Y436677D01*
X451334Y433181D01*
X451324Y433151D01*
X451301Y433114D01*
X449825Y429356D01*
X449820Y429324D01*
X449803Y429284D01*
X448903Y425348D01*
X448903Y425316D01*
X448892Y425274D01*
X448589Y421248D01*
X448592Y421225D01*
X448589Y421205D01*
X448591Y421195D01*
X448589Y421174D01*
X448890Y417147D01*
X448898Y417116D01*
X448901Y417073D01*
X449798Y413137D01*
X449811Y413108D01*
X449820Y413065D01*
X451294Y409306D01*
X451311Y409279D01*
X451326Y409239D01*
X453344Y405742D01*
X453365Y405718D01*
X453386Y405680D01*
X455902Y402522D01*
X455927Y402502D01*
X455953Y402468D01*
X458912Y399720D01*
X458939Y399704D01*
X458970Y399674D01*
X462306Y397398D01*
X462335Y397386D01*
X462370Y397361D01*
X466008Y395608D01*
X466038Y395600D01*
X466077Y395581D01*
X469935Y394389D01*
X469967Y394386D01*
X470008Y394373D01*
X474000Y393770D01*
X474032Y393771D01*
X474074Y393764D01*
X478112Y393763D01*
X478143Y393769D01*
G37*
G36*
X218330Y393764D02*
X218330Y393764D01*
X218361Y393770D01*
X218404Y393770D01*
X222396Y394373D01*
X222426Y394384D01*
X222469Y394389D01*
X226327Y395581D01*
X226355Y395596D01*
X226397Y395608D01*
X230034Y397361D01*
X230059Y397380D01*
X230098Y397398D01*
X233434Y399674D01*
X233456Y399697D01*
X233492Y399720D01*
X236451Y402468D01*
X236470Y402493D01*
X236502Y402522D01*
X239018Y405680D01*
X239033Y405708D01*
X239060Y405742D01*
X241078Y409239D01*
X241088Y409269D01*
X241110Y409306D01*
X242584Y413065D01*
X242590Y413097D01*
X242606Y413137D01*
X243503Y417073D01*
X243504Y417105D01*
X243514Y417147D01*
X243815Y421174D01*
X243811Y421205D01*
X243812Y421221D01*
X243815Y421238D01*
X243814Y421242D01*
X243815Y421248D01*
X243512Y425274D01*
X243503Y425305D01*
X243501Y425348D01*
X242601Y429284D01*
X242588Y429313D01*
X242579Y429356D01*
X241103Y433114D01*
X241085Y433141D01*
X241070Y433181D01*
X239050Y436677D01*
X239029Y436701D01*
X239008Y436739D01*
X236490Y439895D01*
X236465Y439915D01*
X236439Y439949D01*
X233478Y442695D01*
X233451Y442711D01*
X233420Y442741D01*
X230083Y445015D01*
X230058Y445025D01*
X230037Y445042D01*
X229967Y445063D01*
X229900Y445092D01*
X229872Y445092D01*
X229846Y445099D01*
X229774Y445091D01*
X229701Y445091D01*
X229676Y445080D01*
X229649Y445077D01*
X229585Y445041D01*
X229518Y445013D01*
X229499Y444993D01*
X229476Y444980D01*
X229409Y444899D01*
X229380Y444869D01*
X229377Y444860D01*
X229370Y444852D01*
X202370Y398052D01*
X202361Y398026D01*
X202345Y398003D01*
X202330Y397932D01*
X202306Y397863D01*
X202309Y397836D01*
X202303Y397809D01*
X202316Y397738D01*
X202322Y397665D01*
X202335Y397640D01*
X202340Y397614D01*
X202380Y397553D01*
X202414Y397488D01*
X202435Y397471D01*
X202450Y397448D01*
X202536Y397387D01*
X202567Y397362D01*
X202576Y397359D01*
X202586Y397352D01*
X206224Y395601D01*
X206255Y395594D01*
X206293Y395574D01*
X210152Y394385D01*
X210184Y394382D01*
X210225Y394369D01*
X214218Y393768D01*
X214249Y393770D01*
X214292Y393763D01*
X218330Y393764D01*
G37*
G36*
X462630Y247313D02*
X462630Y247313D01*
X462703Y247313D01*
X462728Y247324D01*
X462755Y247327D01*
X462819Y247363D01*
X462886Y247391D01*
X462905Y247411D01*
X462928Y247424D01*
X462996Y247505D01*
X463024Y247535D01*
X463027Y247544D01*
X463034Y247553D01*
X490034Y294353D01*
X490043Y294378D01*
X490059Y294401D01*
X490074Y294472D01*
X490098Y294541D01*
X490095Y294568D01*
X490101Y294595D01*
X490088Y294666D01*
X490082Y294739D01*
X490069Y294764D01*
X490064Y294790D01*
X490024Y294851D01*
X489990Y294916D01*
X489969Y294933D01*
X489954Y294956D01*
X489868Y295017D01*
X489837Y295042D01*
X489828Y295045D01*
X489818Y295052D01*
X486180Y296803D01*
X486149Y296810D01*
X486111Y296830D01*
X482252Y298019D01*
X482220Y298022D01*
X482179Y298035D01*
X478186Y298636D01*
X478155Y298634D01*
X478112Y298641D01*
X474074Y298640D01*
X474043Y298634D01*
X474000Y298634D01*
X470008Y298031D01*
X469978Y298020D01*
X469935Y298015D01*
X466077Y296823D01*
X466049Y296808D01*
X466008Y296796D01*
X462370Y295043D01*
X462345Y295024D01*
X462306Y295006D01*
X458970Y292730D01*
X458948Y292707D01*
X458912Y292684D01*
X455953Y289936D01*
X455934Y289911D01*
X455902Y289882D01*
X453386Y286724D01*
X453371Y286696D01*
X453344Y286662D01*
X451326Y283165D01*
X451316Y283135D01*
X451294Y283098D01*
X449820Y279339D01*
X449814Y279307D01*
X449798Y279267D01*
X448901Y275331D01*
X448900Y275299D01*
X448890Y275257D01*
X448589Y271231D01*
X448593Y271199D01*
X448589Y271156D01*
X448892Y267130D01*
X448901Y267099D01*
X448903Y267056D01*
X449803Y263120D01*
X449816Y263091D01*
X449825Y263048D01*
X451301Y259290D01*
X451319Y259263D01*
X451334Y259223D01*
X453354Y255727D01*
X453375Y255703D01*
X453396Y255665D01*
X455914Y252509D01*
X455939Y252489D01*
X455965Y252455D01*
X458926Y249709D01*
X458953Y249693D01*
X458984Y249663D01*
X462321Y247389D01*
X462346Y247379D01*
X462367Y247362D01*
X462437Y247341D01*
X462504Y247312D01*
X462532Y247313D01*
X462558Y247305D01*
X462630Y247313D01*
G37*
G36*
X229806Y247312D02*
X229806Y247312D01*
X229879Y247309D01*
X229905Y247318D01*
X229932Y247320D01*
X230028Y247364D01*
X230066Y247378D01*
X230073Y247385D01*
X230083Y247389D01*
X233420Y249663D01*
X233442Y249686D01*
X233478Y249709D01*
X236439Y252455D01*
X236458Y252481D01*
X236490Y252509D01*
X239008Y255665D01*
X239023Y255694D01*
X239050Y255727D01*
X241070Y259223D01*
X241080Y259253D01*
X241103Y259290D01*
X242579Y263048D01*
X242584Y263080D01*
X242601Y263120D01*
X243501Y267056D01*
X243501Y267088D01*
X243512Y267130D01*
X243815Y271156D01*
X243811Y271187D01*
X243815Y271231D01*
X243514Y275257D01*
X243506Y275288D01*
X243503Y275331D01*
X242606Y279267D01*
X242593Y279296D01*
X242584Y279339D01*
X241110Y283098D01*
X241093Y283125D01*
X241078Y283165D01*
X239060Y286662D01*
X239039Y286686D01*
X239018Y286724D01*
X236502Y289882D01*
X236477Y289902D01*
X236451Y289936D01*
X233492Y292684D01*
X233465Y292700D01*
X233434Y292730D01*
X230098Y295006D01*
X230069Y295018D01*
X230034Y295043D01*
X226397Y296796D01*
X226366Y296804D01*
X226327Y296823D01*
X222469Y298015D01*
X222437Y298018D01*
X222396Y298031D01*
X218404Y298634D01*
X218372Y298633D01*
X218330Y298640D01*
X214292Y298641D01*
X214261Y298635D01*
X214218Y298636D01*
X210225Y298035D01*
X210195Y298024D01*
X210152Y298019D01*
X206293Y296830D01*
X206265Y296815D01*
X206224Y296803D01*
X202586Y295052D01*
X202564Y295035D01*
X202538Y295026D01*
X202485Y294976D01*
X202427Y294932D01*
X202414Y294908D01*
X202394Y294889D01*
X202364Y294823D01*
X202328Y294759D01*
X202325Y294732D01*
X202314Y294707D01*
X202313Y294634D01*
X202304Y294562D01*
X202312Y294536D01*
X202312Y294508D01*
X202348Y294410D01*
X202360Y294371D01*
X202366Y294363D01*
X202370Y294353D01*
X229370Y247553D01*
X229388Y247532D01*
X229399Y247507D01*
X229453Y247458D01*
X229501Y247404D01*
X229526Y247392D01*
X229546Y247373D01*
X229615Y247349D01*
X229681Y247318D01*
X229708Y247317D01*
X229733Y247307D01*
X229806Y247312D01*
G37*
G36*
X398164Y319026D02*
X398164Y319026D01*
X398172Y319025D01*
X398262Y319046D01*
X398353Y319064D01*
X398359Y319069D01*
X398367Y319071D01*
X398515Y319173D01*
X410921Y331579D01*
X410923Y331583D01*
X410928Y331586D01*
X410979Y331667D01*
X411032Y331746D01*
X411032Y331751D01*
X411035Y331756D01*
X411051Y331849D01*
X411069Y331943D01*
X411068Y331948D01*
X411069Y331953D01*
X411047Y332046D01*
X411028Y332139D01*
X411025Y332143D01*
X411023Y332148D01*
X410921Y332296D01*
X410289Y332928D01*
X410289Y346032D01*
X411878Y347621D01*
X411881Y347626D01*
X411885Y347629D01*
X411936Y347709D01*
X411989Y347788D01*
X411990Y347793D01*
X411993Y347798D01*
X412009Y347891D01*
X412027Y347985D01*
X412026Y347990D01*
X412027Y347995D01*
X412005Y348088D01*
X411985Y348181D01*
X411982Y348186D01*
X411981Y348191D01*
X411878Y348339D01*
X411043Y349174D01*
X411039Y349177D01*
X411036Y349181D01*
X410956Y349232D01*
X410876Y349285D01*
X410871Y349286D01*
X410867Y349288D01*
X410773Y349304D01*
X410679Y349322D01*
X410674Y349321D01*
X410669Y349322D01*
X410577Y349300D01*
X410483Y349281D01*
X410479Y349278D01*
X410474Y349276D01*
X410326Y349174D01*
X403797Y342645D01*
X392478Y342645D01*
X392473Y342644D01*
X392468Y342645D01*
X392375Y342624D01*
X392281Y342606D01*
X392277Y342603D01*
X392272Y342602D01*
X392194Y342546D01*
X392116Y342493D01*
X392113Y342489D01*
X392109Y342486D01*
X392058Y342404D01*
X392006Y342325D01*
X392006Y342320D01*
X392003Y342315D01*
X391971Y342138D01*
X391971Y330180D01*
X390482Y328692D01*
X382972Y328692D01*
X382970Y328691D01*
X382967Y328692D01*
X382872Y328672D01*
X382776Y328652D01*
X382774Y328651D01*
X382771Y328650D01*
X382691Y328594D01*
X382610Y328540D01*
X382609Y328537D01*
X382607Y328536D01*
X382553Y328452D01*
X382501Y328371D01*
X382500Y328369D01*
X382499Y328367D01*
X382483Y328270D01*
X382465Y328174D01*
X382466Y328172D01*
X382465Y328169D01*
X382488Y328074D01*
X382509Y327979D01*
X382510Y327976D01*
X382511Y327974D01*
X382614Y327826D01*
X391266Y319173D01*
X391273Y319169D01*
X391277Y319163D01*
X391356Y319114D01*
X391433Y319062D01*
X391441Y319061D01*
X391448Y319057D01*
X391625Y319025D01*
X398156Y319025D01*
X398164Y319026D01*
G37*
G36*
X509929Y329213D02*
X509929Y329213D01*
X510000Y329213D01*
X510027Y329224D01*
X510056Y329227D01*
X510118Y329262D01*
X510183Y329290D01*
X510204Y329310D01*
X510229Y329325D01*
X510292Y329402D01*
X510322Y329432D01*
X510326Y329442D01*
X510335Y329453D01*
X519835Y345953D01*
X519845Y345985D01*
X519854Y345998D01*
X519858Y346022D01*
X519859Y346026D01*
X519890Y346096D01*
X519890Y346120D01*
X519898Y346142D01*
X519892Y346218D01*
X519893Y346295D01*
X519883Y346319D01*
X519882Y346340D01*
X519861Y346379D01*
X519835Y346451D01*
X510335Y362951D01*
X510316Y362973D01*
X510303Y362999D01*
X510250Y363047D01*
X510203Y363100D01*
X510177Y363113D01*
X510156Y363132D01*
X510088Y363155D01*
X510024Y363186D01*
X509995Y363188D01*
X509968Y363197D01*
X509896Y363192D01*
X509825Y363195D01*
X509798Y363185D01*
X509769Y363183D01*
X509679Y363141D01*
X509639Y363126D01*
X509631Y363119D01*
X509618Y363113D01*
X507095Y361371D01*
X507071Y361347D01*
X507033Y361320D01*
X504821Y359196D01*
X504802Y359168D01*
X504768Y359136D01*
X502926Y356685D01*
X502912Y356654D01*
X502883Y356617D01*
X501458Y353902D01*
X501449Y353871D01*
X501433Y353846D01*
X501432Y353838D01*
X501427Y353828D01*
X500456Y350920D01*
X500452Y350886D01*
X500437Y350842D01*
X499945Y347815D01*
X499946Y347781D01*
X499938Y347735D01*
X499938Y344669D01*
X499939Y344665D01*
X499939Y344663D01*
X499945Y344636D01*
X499945Y344589D01*
X500437Y341562D01*
X500449Y341531D01*
X500456Y341484D01*
X501427Y338576D01*
X501444Y338547D01*
X501458Y338502D01*
X502883Y335787D01*
X502905Y335761D01*
X502926Y335719D01*
X504768Y333268D01*
X504793Y333245D01*
X504821Y333208D01*
X507033Y331084D01*
X507061Y331066D01*
X507095Y331033D01*
X509618Y329291D01*
X509645Y329280D01*
X509667Y329261D01*
X509736Y329241D01*
X509801Y329213D01*
X509830Y329213D01*
X509858Y329205D01*
X509929Y329213D01*
G37*
G36*
X182508Y329212D02*
X182508Y329212D01*
X182579Y329209D01*
X182606Y329219D01*
X182635Y329221D01*
X182725Y329263D01*
X182765Y329278D01*
X182773Y329285D01*
X182786Y329291D01*
X185309Y331033D01*
X185333Y331057D01*
X185371Y331084D01*
X187583Y333208D01*
X187602Y333236D01*
X187636Y333268D01*
X189478Y335719D01*
X189492Y335750D01*
X189521Y335787D01*
X190946Y338502D01*
X190955Y338535D01*
X190977Y338576D01*
X191948Y341484D01*
X191952Y341518D01*
X191967Y341562D01*
X192459Y344589D01*
X192458Y344623D01*
X192466Y344669D01*
X192466Y347735D01*
X192459Y347768D01*
X192459Y347815D01*
X191967Y350842D01*
X191955Y350873D01*
X191948Y350920D01*
X190977Y353828D01*
X190964Y353851D01*
X190958Y353876D01*
X190951Y353885D01*
X190946Y353902D01*
X189521Y356617D01*
X189499Y356643D01*
X189478Y356685D01*
X187636Y359136D01*
X187611Y359159D01*
X187583Y359196D01*
X185371Y361320D01*
X185343Y361338D01*
X185309Y361371D01*
X182786Y363113D01*
X182759Y363124D01*
X182737Y363143D01*
X182668Y363163D01*
X182603Y363191D01*
X182574Y363191D01*
X182546Y363199D01*
X182475Y363191D01*
X182404Y363192D01*
X182377Y363180D01*
X182348Y363177D01*
X182286Y363142D01*
X182221Y363114D01*
X182200Y363094D01*
X182175Y363079D01*
X182112Y363002D01*
X182082Y362972D01*
X182078Y362962D01*
X182069Y362951D01*
X172569Y346451D01*
X172545Y346378D01*
X172514Y346308D01*
X172514Y346284D01*
X172506Y346262D01*
X172513Y346186D01*
X172512Y346109D01*
X172521Y346085D01*
X172522Y346064D01*
X172543Y346025D01*
X172562Y345973D01*
X172563Y345967D01*
X172565Y345965D01*
X172569Y345953D01*
X182069Y329453D01*
X182088Y329431D01*
X182101Y329405D01*
X182154Y329357D01*
X182201Y329304D01*
X182227Y329291D01*
X182249Y329272D01*
X182316Y329249D01*
X182380Y329218D01*
X182409Y329217D01*
X182436Y329207D01*
X182508Y329212D01*
G37*
G36*
X432878Y195718D02*
X432878Y195718D01*
X432956Y195727D01*
X432975Y195738D01*
X432997Y195742D01*
X433061Y195786D01*
X433129Y195825D01*
X433145Y195844D01*
X433161Y195855D01*
X433185Y195893D01*
X433235Y195953D01*
X442735Y212453D01*
X442744Y212480D01*
X442760Y212504D01*
X442775Y212574D01*
X442798Y212642D01*
X442795Y212670D01*
X442801Y212698D01*
X442788Y212769D01*
X442782Y212840D01*
X442769Y212865D01*
X442763Y212893D01*
X442723Y212953D01*
X442690Y213016D01*
X442668Y213034D01*
X442652Y213058D01*
X442569Y213116D01*
X442537Y213143D01*
X442526Y213146D01*
X442516Y213153D01*
X439750Y214462D01*
X439717Y214470D01*
X439674Y214490D01*
X436734Y215338D01*
X436700Y215341D01*
X436656Y215354D01*
X433618Y215719D01*
X433584Y215716D01*
X433537Y215722D01*
X430480Y215595D01*
X430447Y215587D01*
X430400Y215586D01*
X427403Y214970D01*
X427372Y214957D01*
X427326Y214948D01*
X424466Y213859D01*
X424438Y213841D01*
X424394Y213825D01*
X421746Y212291D01*
X421720Y212269D01*
X421680Y212246D01*
X419312Y210308D01*
X419290Y210281D01*
X419254Y210252D01*
X417227Y207959D01*
X417211Y207930D01*
X417179Y207895D01*
X415547Y205307D01*
X415535Y205275D01*
X415510Y205236D01*
X414314Y202419D01*
X414307Y202386D01*
X414304Y202379D01*
X414300Y202373D01*
X414299Y202367D01*
X414288Y202343D01*
X413560Y199371D01*
X413558Y199337D01*
X413547Y199292D01*
X413304Y196242D01*
X413308Y196213D01*
X413303Y196185D01*
X413320Y196116D01*
X413328Y196044D01*
X413343Y196020D01*
X413349Y195992D01*
X413392Y195934D01*
X413428Y195872D01*
X413450Y195855D01*
X413467Y195832D01*
X413529Y195795D01*
X413586Y195752D01*
X413614Y195745D01*
X413638Y195730D01*
X413738Y195714D01*
X413779Y195703D01*
X413789Y195705D01*
X413802Y195703D01*
X432802Y195703D01*
X432878Y195718D01*
G37*
G36*
X433571Y476687D02*
X433571Y476687D01*
X433618Y476685D01*
X436656Y477050D01*
X436688Y477061D01*
X436734Y477066D01*
X439674Y477914D01*
X439704Y477930D01*
X439750Y477942D01*
X442516Y479251D01*
X442538Y479268D01*
X442565Y479278D01*
X442617Y479327D01*
X442675Y479370D01*
X442689Y479395D01*
X442710Y479414D01*
X442739Y479480D01*
X442775Y479542D01*
X442778Y479570D01*
X442790Y479596D01*
X442791Y479668D01*
X442800Y479739D01*
X442792Y479766D01*
X442793Y479795D01*
X442757Y479890D01*
X442746Y479930D01*
X442739Y479939D01*
X442735Y479951D01*
X433235Y496451D01*
X433183Y496510D01*
X433137Y496572D01*
X433118Y496583D01*
X433103Y496600D01*
X433033Y496634D01*
X432966Y496674D01*
X432942Y496678D01*
X432924Y496686D01*
X432879Y496688D01*
X432802Y496701D01*
X413802Y496701D01*
X413774Y496696D01*
X413746Y496698D01*
X413678Y496676D01*
X413607Y496662D01*
X413584Y496646D01*
X413557Y496637D01*
X413502Y496590D01*
X413443Y496549D01*
X413428Y496525D01*
X413407Y496507D01*
X413375Y496442D01*
X413336Y496382D01*
X413331Y496354D01*
X413319Y496328D01*
X413310Y496227D01*
X413303Y496185D01*
X413305Y496175D01*
X413304Y496162D01*
X413547Y493112D01*
X413556Y493080D01*
X413560Y493033D01*
X414288Y490061D01*
X414303Y490030D01*
X414314Y489985D01*
X415510Y487168D01*
X415529Y487140D01*
X415547Y487097D01*
X417179Y484509D01*
X417203Y484485D01*
X417227Y484445D01*
X419254Y482152D01*
X419281Y482132D01*
X419312Y482096D01*
X421680Y480158D01*
X421710Y480142D01*
X421746Y480113D01*
X424394Y478580D01*
X424426Y478569D01*
X424466Y478545D01*
X427326Y477457D01*
X427359Y477451D01*
X427403Y477434D01*
X430400Y476818D01*
X430434Y476818D01*
X430480Y476809D01*
X433537Y476682D01*
X433571Y476687D01*
G37*
G36*
X278630Y195708D02*
X278630Y195708D01*
X278658Y195706D01*
X278726Y195728D01*
X278797Y195742D01*
X278820Y195758D01*
X278847Y195767D01*
X278902Y195814D01*
X278961Y195855D01*
X278976Y195879D01*
X278998Y195897D01*
X279029Y195962D01*
X279068Y196022D01*
X279073Y196050D01*
X279085Y196076D01*
X279094Y196177D01*
X279101Y196219D01*
X279099Y196229D01*
X279100Y196242D01*
X278857Y199292D01*
X278848Y199324D01*
X278844Y199371D01*
X278116Y202343D01*
X278101Y202374D01*
X278090Y202419D01*
X276894Y205236D01*
X276875Y205264D01*
X276857Y205307D01*
X275225Y207895D01*
X275201Y207919D01*
X275177Y207959D01*
X273150Y210252D01*
X273123Y210272D01*
X273092Y210308D01*
X270725Y212246D01*
X270694Y212262D01*
X270658Y212291D01*
X268010Y213825D01*
X267978Y213835D01*
X267938Y213859D01*
X265078Y214948D01*
X265045Y214953D01*
X265001Y214970D01*
X262004Y215586D01*
X261970Y215586D01*
X261924Y215595D01*
X258867Y215722D01*
X258833Y215717D01*
X258786Y215719D01*
X255748Y215354D01*
X255716Y215343D01*
X255670Y215338D01*
X252730Y214490D01*
X252700Y214474D01*
X252655Y214462D01*
X249889Y213153D01*
X249866Y213136D01*
X249839Y213126D01*
X249787Y213077D01*
X249729Y213034D01*
X249715Y213009D01*
X249694Y212990D01*
X249665Y212924D01*
X249629Y212862D01*
X249626Y212834D01*
X249614Y212808D01*
X249613Y212736D01*
X249604Y212665D01*
X249612Y212638D01*
X249612Y212609D01*
X249647Y212514D01*
X249658Y212474D01*
X249665Y212465D01*
X249669Y212453D01*
X259169Y195953D01*
X259221Y195895D01*
X259267Y195832D01*
X259286Y195821D01*
X259301Y195804D01*
X259371Y195770D01*
X259438Y195730D01*
X259463Y195726D01*
X259480Y195718D01*
X259525Y195716D01*
X259602Y195703D01*
X278602Y195703D01*
X278630Y195708D01*
G37*
G36*
X261924Y476809D02*
X261924Y476809D01*
X261957Y476817D01*
X262004Y476818D01*
X265001Y477434D01*
X265032Y477447D01*
X265078Y477457D01*
X267938Y478545D01*
X267967Y478563D01*
X268010Y478580D01*
X270658Y480113D01*
X270684Y480135D01*
X270725Y480158D01*
X273092Y482096D01*
X273114Y482123D01*
X273150Y482152D01*
X275177Y484445D01*
X275194Y484474D01*
X275225Y484509D01*
X276857Y487097D01*
X276869Y487129D01*
X276894Y487168D01*
X278090Y489985D01*
X278097Y490018D01*
X278116Y490061D01*
X278844Y493033D01*
X278846Y493067D01*
X278857Y493112D01*
X279100Y496162D01*
X279096Y496191D01*
X279101Y496219D01*
X279084Y496288D01*
X279076Y496360D01*
X279062Y496384D01*
X279055Y496412D01*
X279012Y496470D01*
X278977Y496532D01*
X278954Y496549D01*
X278937Y496572D01*
X278875Y496609D01*
X278818Y496652D01*
X278790Y496659D01*
X278766Y496674D01*
X278666Y496690D01*
X278625Y496701D01*
X278615Y496699D01*
X278602Y496701D01*
X259602Y496701D01*
X259526Y496686D01*
X259448Y496677D01*
X259429Y496666D01*
X259407Y496662D01*
X259343Y496618D01*
X259275Y496579D01*
X259259Y496560D01*
X259243Y496549D01*
X259219Y496511D01*
X259169Y496451D01*
X249669Y479951D01*
X249660Y479924D01*
X249644Y479900D01*
X249629Y479830D01*
X249606Y479762D01*
X249609Y479734D01*
X249603Y479706D01*
X249617Y479636D01*
X249622Y479564D01*
X249635Y479539D01*
X249641Y479511D01*
X249681Y479451D01*
X249714Y479388D01*
X249736Y479370D01*
X249752Y479346D01*
X249835Y479288D01*
X249867Y479261D01*
X249878Y479258D01*
X249889Y479251D01*
X252655Y477942D01*
X252688Y477934D01*
X252730Y477914D01*
X255670Y477066D01*
X255704Y477063D01*
X255748Y477050D01*
X258786Y476685D01*
X258820Y476688D01*
X258867Y476682D01*
X261924Y476809D01*
G37*
%LPC*%
G36*
X309514Y220369D02*
X309514Y220369D01*
X305456Y222050D01*
X302350Y225156D01*
X300669Y229214D01*
X300669Y233606D01*
X302350Y237664D01*
X305456Y240770D01*
X305714Y240877D01*
X306939Y241384D01*
X308163Y241891D01*
X309388Y242399D01*
X309514Y242451D01*
X313906Y242451D01*
X317964Y240770D01*
X321070Y237664D01*
X322751Y233606D01*
X322751Y229214D01*
X321070Y225156D01*
X317964Y222050D01*
X317914Y222029D01*
X316690Y221522D01*
X316689Y221522D01*
X315465Y221015D01*
X314240Y220508D01*
X313906Y220369D01*
X309514Y220369D01*
G37*
%LPD*%
%LPC*%
G36*
X252569Y437336D02*
X252569Y437336D01*
X248835Y438883D01*
X245977Y441742D01*
X244430Y445476D01*
X244430Y449518D01*
X245977Y453253D01*
X248835Y456111D01*
X249673Y456458D01*
X250898Y456965D01*
X252122Y457473D01*
X252569Y457658D01*
X256612Y457658D01*
X260346Y456111D01*
X263205Y453253D01*
X264751Y449518D01*
X264751Y445476D01*
X263205Y441742D01*
X260346Y438883D01*
X259723Y438625D01*
X258499Y438118D01*
X258498Y438118D01*
X257274Y437611D01*
X256612Y437336D01*
X252569Y437336D01*
G37*
%LPD*%
%LPC*%
G36*
X252658Y386536D02*
X252658Y386536D01*
X248924Y388083D01*
X246065Y390942D01*
X244519Y394676D01*
X244519Y398718D01*
X246065Y402453D01*
X248924Y405311D01*
X249942Y405733D01*
X249943Y405733D01*
X251167Y406240D01*
X252392Y406748D01*
X252658Y406858D01*
X256700Y406858D01*
X260435Y405311D01*
X263293Y402453D01*
X264840Y398718D01*
X264840Y394676D01*
X263293Y390942D01*
X260435Y388083D01*
X259993Y387900D01*
X258768Y387393D01*
X257543Y386886D01*
X256700Y386536D01*
X252658Y386536D01*
G37*
%LPD*%
%LPC*%
G36*
X219722Y305780D02*
X219722Y305780D01*
X217398Y306742D01*
X215620Y308521D01*
X214657Y310845D01*
X214657Y313158D01*
X214656Y313163D01*
X214657Y313168D01*
X214636Y313261D01*
X214618Y313354D01*
X214615Y313359D01*
X214614Y313364D01*
X214558Y313441D01*
X214505Y313520D01*
X214501Y313523D01*
X214498Y313527D01*
X214416Y313578D01*
X214337Y313629D01*
X214332Y313630D01*
X214327Y313633D01*
X214150Y313665D01*
X213737Y313665D01*
X212249Y315153D01*
X212249Y325258D01*
X213737Y326746D01*
X223842Y326746D01*
X225330Y325258D01*
X225330Y320629D01*
X225332Y320621D01*
X225330Y320613D01*
X225351Y320523D01*
X225370Y320432D01*
X225374Y320426D01*
X225376Y320418D01*
X225479Y320270D01*
X225718Y320031D01*
X226569Y317977D01*
X226569Y315233D01*
X226571Y315224D01*
X226569Y315215D01*
X226607Y315039D01*
X227303Y313360D01*
X227303Y310845D01*
X226340Y308521D01*
X224562Y306742D01*
X224556Y306740D01*
X223332Y306233D01*
X223331Y306233D01*
X222238Y305780D01*
X219722Y305780D01*
G37*
%LPD*%
%LPC*%
G36*
X469119Y376900D02*
X469119Y376900D01*
X466795Y377862D01*
X465016Y379641D01*
X464054Y381965D01*
X464054Y384480D01*
X465016Y386804D01*
X466795Y388583D01*
X467787Y388994D01*
X469012Y389501D01*
X469119Y389545D01*
X471634Y389545D01*
X473958Y388583D01*
X475736Y386804D01*
X476699Y384480D01*
X476699Y381965D01*
X475736Y379641D01*
X473958Y377862D01*
X473699Y377755D01*
X472474Y377248D01*
X471634Y376900D01*
X469119Y376900D01*
G37*
%LPD*%
%LPC*%
G36*
X355295Y263552D02*
X355295Y263552D01*
X352971Y264515D01*
X351192Y266293D01*
X350230Y268617D01*
X350230Y271133D01*
X351192Y273457D01*
X352971Y275235D01*
X353296Y275370D01*
X354521Y275877D01*
X355295Y276198D01*
X357810Y276198D01*
X360134Y275235D01*
X361913Y273457D01*
X362875Y271133D01*
X362875Y268617D01*
X361913Y266293D01*
X360134Y264515D01*
X359208Y264131D01*
X357983Y263624D01*
X357810Y263552D01*
X355295Y263552D01*
G37*
%LPD*%
D10*
X218789Y335206D03*
X218789Y320206D03*
D11*
X468139Y344111D03*
X468139Y361111D03*
X219698Y351974D03*
X219698Y368974D03*
D12*
X428802Y489302D03*
X511402Y346202D03*
X428802Y203102D03*
X263602Y203102D03*
X181002Y346202D03*
X263602Y489302D03*
X470102Y417702D03*
X470102Y274702D03*
X222302Y274702D03*
X222302Y417702D03*
D13*
X365480Y460740D03*
X330480Y460740D03*
X311710Y231410D03*
X346710Y231410D03*
X381710Y231410D03*
D14*
X305010Y366670D03*
X305010Y361670D03*
X305010Y356670D03*
X305010Y351670D03*
X305010Y346670D03*
X305010Y341670D03*
X305010Y336670D03*
X305010Y331670D03*
X305010Y326670D03*
X305010Y321670D03*
D15*
X311510Y315170D03*
X316510Y315170D03*
X321510Y315170D03*
X326510Y315170D03*
X331510Y315170D03*
X336510Y315170D03*
X341510Y315170D03*
X346510Y315170D03*
X351510Y315170D03*
X356510Y315170D03*
D14*
X363010Y321670D03*
X363010Y326670D03*
X363010Y331670D03*
X363010Y336670D03*
X363010Y341670D03*
X363010Y346670D03*
X363010Y351670D03*
X363010Y356670D03*
X363010Y361670D03*
X363010Y366670D03*
D15*
X356510Y373170D03*
X351510Y373170D03*
X346510Y373170D03*
X341510Y373170D03*
X336510Y373170D03*
X331510Y373170D03*
X326510Y373170D03*
X321510Y373170D03*
X316510Y373170D03*
X311510Y373170D03*
D16*
X334010Y344170D03*
D17*
X429260Y249690D03*
X429260Y313690D03*
D11*
X394580Y278130D03*
X377580Y278130D03*
X394580Y297180D03*
X377580Y297180D03*
D17*
X264160Y315210D03*
X264160Y251210D03*
D11*
X310760Y299720D03*
X293760Y299720D03*
X310760Y279400D03*
X293760Y279400D03*
D18*
X283864Y367617D03*
X283864Y384617D03*
D11*
X263944Y359669D03*
X263944Y376669D03*
D18*
X359410Y298060D03*
X359410Y281060D03*
X353536Y398853D03*
X353536Y415853D03*
X334804Y399646D03*
X334804Y416646D03*
D11*
X325510Y279400D03*
X342510Y279400D03*
X325510Y299720D03*
X342510Y299720D03*
D18*
X314643Y389804D03*
X314643Y406804D03*
X295256Y431220D03*
X295256Y414220D03*
D11*
X380120Y375920D03*
X397120Y375920D03*
X378533Y355600D03*
X395533Y355600D03*
D18*
X417830Y339480D03*
X417830Y356480D03*
X396240Y461890D03*
X396240Y444890D03*
D11*
X383930Y336233D03*
X400930Y336233D03*
D19*
X375664Y413360D03*
X375664Y403860D03*
X375664Y394360D03*
X403164Y394360D03*
X403164Y413360D03*
D18*
X440690Y413630D03*
X440690Y396630D03*
X421640Y413630D03*
X421640Y396630D03*
X300025Y463693D03*
X300025Y446693D03*
D11*
X303153Y479895D03*
X286153Y479895D03*
D20*
X471532Y322783D03*
D21*
X254591Y447497D03*
X254635Y422097D03*
X254679Y396697D03*
D22*
X220980Y312103D03*
D23*
X218770Y319075D02*
X218789Y320206D01*
X218770Y319075D02*
X220980Y316865D01*
X220980Y312103D01*
D22*
X419100Y473710D03*
X271145Y472916D03*
X199390Y345440D03*
X425628Y219989D03*
X268713Y219532D03*
X277800Y213182D03*
X356553Y269875D03*
X386398Y268288D03*
X470376Y383223D03*
X455930Y393541D03*
X447040Y324803D03*
X495300Y336868D03*
D23*
X483048Y346202D02*
X468139Y361111D01*
X483048Y346202D02*
X511402Y346202D01*
X428802Y203384D02*
X428802Y203102D01*
X428802Y203384D02*
X453237Y241682D01*
D22*
X453237Y241682D03*
X501484Y328805D03*
D23*
X511402Y346202D01*
X501650Y364490D01*
D22*
X501650Y364490D03*
X439420Y471170D03*
D23*
X428802Y489302D01*
X408530Y490224D01*
D22*
X408530Y490224D03*
X283875Y490224D03*
D23*
X263602Y489302D01*
X253938Y471923D01*
D22*
X253938Y471923D03*
X190951Y363559D03*
D23*
X181002Y346202D01*
X190500Y327660D01*
D22*
X190500Y327660D03*
X241666Y238272D03*
D23*
X263602Y206335D01*
X263602Y203102D01*
D22*
X230505Y348774D03*
X250660Y295284D03*
D24*
X227924Y272548D01*
X225770Y274702D01*
X222302Y274702D01*
D22*
X275273Y341789D03*
D24*
X231033Y363727D02*
X231033Y408971D01*
X222302Y417702D01*
X252972Y341789D02*
X275273Y341789D01*
X252972Y341789D02*
X231033Y363727D01*
D25*
X218111Y350387D02*
X218111Y335884D01*
X218789Y335206D01*
X218111Y350387D02*
X219698Y351974D01*
D26*
X316510Y373170D02*
X316510Y376731D01*
X313511Y379730D01*
D22*
X302102Y378057D03*
X388461Y366233D03*
X457302Y320351D03*
D23*
X457820Y320869D01*
X457820Y333792D01*
X468139Y344111D01*
X302102Y378057D02*
X299721Y378057D01*
X295117Y373453D01*
X285433Y373453D01*
X283864Y371884D01*
X283864Y367617D01*
D26*
X302102Y378057D02*
X303776Y379730D01*
X313511Y379730D01*
D23*
X283864Y367617D02*
X274812Y376669D01*
X263944Y376669D01*
D22*
X442913Y428057D03*
D24*
X453268Y417702D01*
X470102Y417702D01*
D22*
X229076Y339090D03*
X266084Y335121D03*
X260985Y272733D03*
X437807Y272999D03*
X330518Y245428D03*
X361315Y246221D03*
X422593Y457200D03*
X280035Y460375D03*
X284480Y434340D03*
X430193Y272669D03*
X270034Y272942D03*
X342900Y289560D03*
X311944Y416560D03*
X430530Y400050D03*
X404971Y467360D03*
X434816Y365919D03*
D24*
X423987Y347774D02*
X411673Y347774D01*
X400930Y337031D02*
X400930Y336233D01*
X423987Y347774D02*
X424893Y346869D01*
X431006Y346869D01*
X411673Y347774D02*
X400930Y337031D01*
X431006Y346869D02*
X431006Y315436D01*
X429260Y313690D01*
X360487Y390559D02*
X362124Y392195D01*
X362124Y405510D01*
X353536Y414098D02*
X353536Y415853D01*
X353536Y414098D02*
X362124Y405510D01*
X360487Y390559D02*
X351432Y390559D01*
X341510Y380637D01*
X341510Y373170D01*
D22*
X456717Y298120D03*
D24*
X468452Y286385D01*
X468452Y276352D01*
X470102Y274702D01*
D26*
X351510Y373170D02*
X351510Y376910D01*
X354330Y379730D01*
X363050Y346710D02*
X402114Y346710D01*
X363050Y346710D02*
X363010Y346670D01*
X411884Y356480D02*
X417830Y356480D01*
X411884Y356480D02*
X402114Y346710D01*
X422910Y361560D02*
X422910Y378460D01*
X422910Y361560D02*
X417830Y356480D01*
X422910Y378460D02*
X415290Y386080D01*
X397510Y386080D01*
X374870Y385896D02*
X368704Y379730D01*
X354330Y379730D01*
X392430Y391160D02*
X392430Y393700D01*
X392430Y441080D01*
D23*
X381085Y445135D02*
X365480Y460740D01*
D26*
X392430Y441080D02*
X396240Y444890D01*
D23*
X395995Y445135D02*
X381085Y445135D01*
X395995Y445135D02*
X396240Y444890D01*
D26*
X392430Y391160D02*
X397510Y386080D01*
X375664Y394360D02*
X374870Y393566D01*
X374870Y385896D01*
X375664Y394360D02*
X391770Y394360D01*
X392430Y393700D01*
D23*
X403164Y413360D02*
X411480Y413360D01*
X421370Y413360D01*
X421640Y413630D01*
X440690Y413630D01*
X395516Y258534D02*
X395516Y227660D01*
X395516Y258534D02*
X395516Y277194D01*
X394580Y278130D01*
X394580Y297180D01*
X429260Y249690D02*
X424383Y244813D01*
X402676Y370364D02*
X397120Y375920D01*
X402676Y370364D02*
X402676Y362744D01*
X395533Y355600D01*
X394580Y306485D02*
X394580Y297180D01*
X394580Y306485D02*
X392643Y308423D01*
X392271Y308051D01*
D22*
X392271Y308051D03*
X411480Y413360D03*
D23*
X415604Y371158D02*
X401883Y371158D01*
X397120Y375920D01*
D22*
X415604Y371158D03*
X346850Y395360D03*
D26*
X331510Y380020D01*
X331510Y373170D01*
D23*
X334804Y399646D02*
X342564Y399646D01*
X343358Y398853D02*
X353536Y398853D01*
X346850Y395360D02*
X343358Y398853D01*
X342564Y399646D01*
D22*
X395516Y227660D03*
D23*
X404360Y249690D02*
X429260Y249690D01*
X404360Y249690D02*
X395516Y258534D01*
X382270Y403860D02*
X375664Y403860D01*
X382270Y403860D02*
X386080Y407670D01*
X386080Y419100D01*
X369570Y435610D01*
D26*
X317247Y389804D02*
X326510Y380541D01*
X317247Y389804D02*
X314643Y389804D01*
X326510Y380541D02*
X326510Y373170D01*
X326510Y351670D01*
X334010Y344170D01*
X326510Y336670D02*
X326510Y315170D01*
X326510Y336670D02*
X334010Y344170D01*
X326510Y315170D02*
X326510Y300720D01*
X325510Y299720D01*
D23*
X310760Y279400D02*
X310760Y254203D01*
X310760Y279400D02*
X318160Y279400D01*
X325510Y279400D01*
X310760Y279400D02*
X310760Y299720D01*
X325510Y299720D01*
X264998Y250372D02*
X264160Y251210D01*
X264998Y250372D02*
X306929Y250372D01*
X310760Y254203D01*
D22*
X317500Y349250D03*
X317500Y336550D03*
X336550Y327660D03*
X336550Y358140D03*
X350520Y344170D03*
D24*
X334010Y344170D02*
X322580Y344170D01*
X317500Y349250D01*
D27*
X369570Y435610D02*
X368833Y436347D01*
X300228Y463693D02*
X300025Y463693D01*
X300025Y476767D01*
X303153Y479895D01*
X297161Y389804D02*
X314643Y389804D01*
X297161Y389804D02*
X285833Y401132D01*
X285833Y424177D01*
X292875Y431220D01*
X295256Y431220D01*
D22*
X323367Y271501D03*
D23*
X318160Y276708D01*
X318160Y279400D01*
D27*
X305079Y430809D02*
X310617Y436347D01*
X305079Y430809D02*
X295666Y430809D01*
X295256Y431220D01*
X313969Y436347D02*
X368833Y436347D01*
X313969Y436347D02*
X310617Y436347D01*
X300025Y463144D02*
X300025Y463693D01*
X310617Y452552D02*
X310617Y439699D01*
X310617Y436347D01*
X310617Y452552D02*
X300025Y463144D01*
X310617Y439699D02*
X313969Y436347D01*
D24*
X305010Y361670D02*
X298425Y361670D01*
X297148Y360393D02*
X297059Y360482D01*
X294183Y357606D01*
X266008Y357606D01*
X263944Y359669D01*
X297148Y360393D02*
X298425Y361670D01*
D22*
X297148Y360393D03*
D26*
X341510Y315170D02*
X346510Y315170D01*
X346510Y311350D01*
X359410Y298450D02*
X359410Y298060D01*
X359410Y298450D02*
X346510Y311350D01*
X363010Y361670D02*
X369290Y361670D01*
X380120Y372500D02*
X380120Y375920D01*
X380120Y372500D02*
X369290Y361670D01*
X377462Y356670D02*
X378533Y355600D01*
X377462Y356670D02*
X363010Y356670D01*
X363010Y336670D02*
X372308Y336670D01*
X374650Y334328D01*
X374650Y330041D01*
X389731Y314960D01*
X400050Y314960D01*
X417830Y332740D01*
X417830Y339480D01*
X346510Y373170D02*
X346510Y379530D01*
X351790Y384810D02*
X362109Y384810D01*
X351790Y384810D02*
X346510Y379530D01*
X362109Y384810D02*
X366871Y389573D01*
D22*
X364971Y422930D03*
X402590Y403860D03*
D26*
X402590Y394934D01*
X403164Y394360D01*
X366871Y389573D02*
X366871Y411773D01*
X366688Y421213D02*
X364971Y422930D01*
X368459Y413360D02*
X366871Y411773D01*
X368459Y413360D02*
X375664Y413360D01*
X374541Y413360D02*
X364971Y422930D01*
X374541Y413360D02*
X375664Y413360D01*
X378492Y341670D02*
X363010Y341670D01*
X378492Y341670D02*
X383930Y336233D01*
D22*
X279241Y332581D03*
D24*
X280829Y332581D02*
X289918Y341670D01*
X280829Y332581D02*
X279241Y332581D01*
X289918Y341670D02*
X305010Y341670D01*
D22*
X290513Y310344D03*
D24*
X286318Y330701D02*
X292286Y336670D01*
X286318Y330701D02*
X286318Y318202D01*
X290513Y314008D02*
X290513Y310344D01*
X290513Y314008D02*
X286318Y318202D01*
X292286Y336670D02*
X305010Y336670D01*
D22*
X292894Y327978D03*
D24*
X296586Y331670D01*
X305010Y331670D01*
D22*
X295275Y318611D03*
D24*
X301746Y326670D02*
X305010Y326670D01*
X301746Y326670D02*
X295275Y320199D01*
X295275Y318611D01*
D22*
X382240Y386226D03*
X219869Y378619D03*
D24*
X219869Y369145D01*
X219698Y368974D01*
M02*
