G04 EAGLE Gerber RS-274X export*
G75*
%MOMM*%
%FSLAX34Y34*%
%LPD*%
%INSilkscreen Bottom*%
%IPPOS*%
%AMOC8*
5,1,8,0,0,1.08239X$1,22.5*%
G01*
%ADD10C,0.152400*%
%ADD11C,0.101600*%
%ADD12C,0.127000*%
%ADD13C,0.076200*%
%ADD14C,0.254000*%
%ADD15C,0.203200*%

G36*
X333574Y385986D02*
X333574Y385986D01*
X333576Y385986D01*
X333619Y386005D01*
X333663Y386024D01*
X333663Y386026D01*
X333665Y386027D01*
X333698Y386112D01*
X333698Y388652D01*
X333697Y388654D01*
X333698Y388656D01*
X333678Y388699D01*
X333660Y388742D01*
X333658Y388743D01*
X333657Y388745D01*
X333572Y388778D01*
X329762Y388778D01*
X329760Y388777D01*
X329758Y388778D01*
X329715Y388758D01*
X329671Y388740D01*
X329671Y388738D01*
X329669Y388737D01*
X329636Y388652D01*
X329636Y386112D01*
X329637Y386110D01*
X329636Y386108D01*
X329656Y386065D01*
X329674Y386021D01*
X329676Y386020D01*
X329677Y386018D01*
X329762Y385986D01*
X333572Y385986D01*
X333574Y385986D01*
G37*
G36*
X303024Y340432D02*
X303024Y340432D01*
X303026Y340432D01*
X303069Y340451D01*
X303113Y340470D01*
X303113Y340472D01*
X303115Y340473D01*
X303148Y340558D01*
X303148Y344368D01*
X303147Y344370D01*
X303148Y344372D01*
X303128Y344415D01*
X303110Y344458D01*
X303108Y344459D01*
X303107Y344461D01*
X303022Y344494D01*
X300482Y344494D01*
X300480Y344493D01*
X300478Y344494D01*
X300435Y344474D01*
X300391Y344456D01*
X300391Y344454D01*
X300389Y344453D01*
X300356Y344368D01*
X300356Y340558D01*
X300357Y340556D01*
X300356Y340554D01*
X300376Y340511D01*
X300394Y340467D01*
X300396Y340466D01*
X300397Y340464D01*
X300482Y340432D01*
X303022Y340432D01*
X303024Y340432D01*
G37*
G36*
X387860Y325429D02*
X387860Y325429D01*
X387862Y325429D01*
X387905Y325448D01*
X387949Y325467D01*
X387949Y325469D01*
X387951Y325470D01*
X387984Y325555D01*
X387984Y329365D01*
X387983Y329367D01*
X387984Y329369D01*
X387964Y329412D01*
X387946Y329455D01*
X387944Y329456D01*
X387943Y329458D01*
X387858Y329491D01*
X385318Y329491D01*
X385316Y329490D01*
X385314Y329491D01*
X385271Y329471D01*
X385227Y329453D01*
X385227Y329451D01*
X385225Y329450D01*
X385192Y329365D01*
X385192Y325555D01*
X385193Y325553D01*
X385192Y325551D01*
X385212Y325508D01*
X385230Y325464D01*
X385232Y325463D01*
X385233Y325461D01*
X385318Y325429D01*
X387858Y325429D01*
X387860Y325429D01*
G37*
G36*
X338575Y301150D02*
X338575Y301150D01*
X338577Y301150D01*
X338620Y301169D01*
X338664Y301188D01*
X338664Y301190D01*
X338666Y301191D01*
X338699Y301276D01*
X338699Y303816D01*
X338698Y303818D01*
X338699Y303820D01*
X338679Y303863D01*
X338661Y303906D01*
X338659Y303907D01*
X338658Y303909D01*
X338573Y303942D01*
X334763Y303942D01*
X334761Y303941D01*
X334759Y303942D01*
X334716Y303922D01*
X334672Y303904D01*
X334672Y303902D01*
X334670Y303901D01*
X334637Y303816D01*
X334637Y301276D01*
X334638Y301274D01*
X334637Y301272D01*
X334657Y301229D01*
X334675Y301185D01*
X334677Y301184D01*
X334678Y301182D01*
X334763Y301150D01*
X338573Y301150D01*
X338575Y301150D01*
G37*
D10*
X493843Y310264D02*
X493843Y328044D01*
X488904Y328044D01*
X488764Y328042D01*
X488625Y328036D01*
X488485Y328026D01*
X488346Y328012D01*
X488207Y327995D01*
X488069Y327973D01*
X487932Y327947D01*
X487795Y327918D01*
X487659Y327885D01*
X487525Y327848D01*
X487391Y327807D01*
X487259Y327762D01*
X487127Y327713D01*
X486998Y327661D01*
X486870Y327606D01*
X486743Y327546D01*
X486618Y327483D01*
X486495Y327417D01*
X486374Y327347D01*
X486255Y327274D01*
X486138Y327197D01*
X486024Y327117D01*
X485911Y327034D01*
X485801Y326948D01*
X485694Y326858D01*
X485589Y326766D01*
X485487Y326671D01*
X485387Y326573D01*
X485290Y326472D01*
X485196Y326368D01*
X485106Y326262D01*
X485018Y326153D01*
X484933Y326042D01*
X484852Y325928D01*
X484773Y325813D01*
X484698Y325695D01*
X484627Y325575D01*
X484559Y325452D01*
X484494Y325329D01*
X484433Y325203D01*
X484375Y325075D01*
X484321Y324947D01*
X484271Y324816D01*
X484224Y324684D01*
X484181Y324551D01*
X484142Y324417D01*
X484107Y324282D01*
X484076Y324146D01*
X484048Y324008D01*
X484025Y323871D01*
X484005Y323732D01*
X483989Y323593D01*
X483977Y323454D01*
X483969Y323315D01*
X483965Y323175D01*
X483965Y323035D01*
X483969Y322895D01*
X483977Y322756D01*
X483989Y322617D01*
X484005Y322478D01*
X484025Y322339D01*
X484048Y322202D01*
X484076Y322064D01*
X484107Y321928D01*
X484142Y321793D01*
X484181Y321659D01*
X484224Y321526D01*
X484271Y321394D01*
X484321Y321263D01*
X484375Y321135D01*
X484433Y321007D01*
X484494Y320881D01*
X484559Y320758D01*
X484627Y320636D01*
X484698Y320515D01*
X484773Y320397D01*
X484852Y320282D01*
X484933Y320168D01*
X485018Y320057D01*
X485106Y319948D01*
X485196Y319842D01*
X485290Y319738D01*
X485387Y319637D01*
X485487Y319539D01*
X485589Y319444D01*
X485694Y319352D01*
X485801Y319262D01*
X485911Y319176D01*
X486024Y319093D01*
X486138Y319013D01*
X486255Y318936D01*
X486374Y318863D01*
X486495Y318793D01*
X486618Y318727D01*
X486743Y318664D01*
X486870Y318604D01*
X486998Y318549D01*
X487127Y318497D01*
X487259Y318448D01*
X487391Y318403D01*
X487525Y318362D01*
X487659Y318325D01*
X487795Y318292D01*
X487932Y318263D01*
X488069Y318237D01*
X488207Y318215D01*
X488346Y318198D01*
X488485Y318184D01*
X488625Y318174D01*
X488764Y318168D01*
X488904Y318166D01*
X493843Y318166D01*
X487916Y318166D02*
X483965Y310264D01*
D11*
X428096Y466183D02*
X426501Y467300D01*
X422778Y461983D01*
X425968Y459749D01*
X426051Y459694D01*
X426135Y459642D01*
X426222Y459593D01*
X426310Y459547D01*
X426400Y459505D01*
X426492Y459466D01*
X426585Y459431D01*
X426679Y459399D01*
X426774Y459371D01*
X426871Y459347D01*
X426968Y459326D01*
X427066Y459310D01*
X427165Y459296D01*
X427264Y459287D01*
X427363Y459282D01*
X427463Y459280D01*
X427562Y459282D01*
X427661Y459288D01*
X427760Y459298D01*
X427859Y459311D01*
X427957Y459329D01*
X428054Y459350D01*
X428150Y459374D01*
X428246Y459403D01*
X428340Y459435D01*
X428433Y459470D01*
X428524Y459509D01*
X428614Y459552D01*
X428702Y459598D01*
X428788Y459647D01*
X428873Y459700D01*
X428955Y459756D01*
X429035Y459815D01*
X429113Y459877D01*
X429188Y459942D01*
X429261Y460009D01*
X429331Y460080D01*
X429399Y460153D01*
X429463Y460229D01*
X429525Y460307D01*
X429584Y460387D01*
X433307Y465704D01*
X433362Y465787D01*
X433414Y465871D01*
X433463Y465958D01*
X433509Y466046D01*
X433551Y466136D01*
X433590Y466228D01*
X433625Y466321D01*
X433657Y466415D01*
X433685Y466510D01*
X433709Y466607D01*
X433730Y466704D01*
X433746Y466802D01*
X433760Y466901D01*
X433769Y467000D01*
X433774Y467099D01*
X433776Y467199D01*
X433774Y467298D01*
X433768Y467397D01*
X433758Y467496D01*
X433745Y467595D01*
X433727Y467693D01*
X433706Y467790D01*
X433682Y467886D01*
X433653Y467982D01*
X433621Y468076D01*
X433586Y468169D01*
X433547Y468260D01*
X433504Y468350D01*
X433458Y468438D01*
X433409Y468524D01*
X433356Y468609D01*
X433300Y468691D01*
X433241Y468771D01*
X433179Y468849D01*
X433114Y468924D01*
X433047Y468997D01*
X432976Y469067D01*
X432903Y469135D01*
X432827Y469199D01*
X432749Y469261D01*
X432669Y469320D01*
X432670Y469320D02*
X429479Y471554D01*
X424810Y474824D02*
X418108Y465253D01*
X412791Y468976D02*
X424810Y474824D01*
X419492Y478547D02*
X412791Y468976D01*
X408121Y472246D02*
X414822Y481817D01*
X412164Y483678D01*
X412164Y483679D02*
X412070Y483742D01*
X411974Y483802D01*
X411876Y483859D01*
X411776Y483912D01*
X411674Y483962D01*
X411570Y484008D01*
X411465Y484050D01*
X411359Y484089D01*
X411251Y484124D01*
X411142Y484155D01*
X411032Y484183D01*
X410921Y484206D01*
X410810Y484226D01*
X410698Y484242D01*
X410585Y484254D01*
X410472Y484262D01*
X410359Y484266D01*
X410245Y484266D01*
X410132Y484262D01*
X410019Y484254D01*
X409906Y484242D01*
X409794Y484226D01*
X409683Y484206D01*
X409572Y484183D01*
X409462Y484155D01*
X409353Y484124D01*
X409245Y484089D01*
X409139Y484050D01*
X409034Y484008D01*
X408930Y483962D01*
X408828Y483912D01*
X408728Y483859D01*
X408630Y483802D01*
X408534Y483742D01*
X408440Y483679D01*
X408349Y483612D01*
X408259Y483543D01*
X408172Y483470D01*
X408088Y483394D01*
X408007Y483315D01*
X407928Y483234D01*
X407852Y483150D01*
X407779Y483063D01*
X407710Y482974D01*
X407643Y482882D01*
X407644Y482881D02*
X404665Y478628D01*
X404602Y478534D01*
X404542Y478438D01*
X404485Y478340D01*
X404432Y478240D01*
X404382Y478138D01*
X404336Y478034D01*
X404294Y477929D01*
X404255Y477823D01*
X404220Y477715D01*
X404189Y477606D01*
X404161Y477496D01*
X404138Y477385D01*
X404118Y477274D01*
X404102Y477162D01*
X404090Y477049D01*
X404082Y476936D01*
X404078Y476823D01*
X404078Y476709D01*
X404082Y476596D01*
X404090Y476483D01*
X404102Y476370D01*
X404118Y476258D01*
X404138Y476147D01*
X404161Y476036D01*
X404189Y475926D01*
X404220Y475817D01*
X404255Y475709D01*
X404294Y475603D01*
X404336Y475498D01*
X404382Y475394D01*
X404432Y475292D01*
X404485Y475192D01*
X404542Y475094D01*
X404602Y474998D01*
X404665Y474904D01*
X404732Y474812D01*
X404801Y474723D01*
X404874Y474636D01*
X404950Y474552D01*
X405029Y474471D01*
X405110Y474392D01*
X405194Y474316D01*
X405281Y474243D01*
X405371Y474174D01*
X405462Y474107D01*
X408121Y472246D01*
X492049Y338841D02*
X492049Y336894D01*
X492049Y338841D02*
X485558Y338841D01*
X485558Y334946D01*
X485560Y334847D01*
X485566Y334747D01*
X485575Y334648D01*
X485588Y334550D01*
X485605Y334452D01*
X485626Y334354D01*
X485651Y334258D01*
X485679Y334163D01*
X485711Y334069D01*
X485746Y333976D01*
X485785Y333884D01*
X485828Y333794D01*
X485873Y333706D01*
X485923Y333619D01*
X485975Y333535D01*
X486031Y333452D01*
X486089Y333372D01*
X486151Y333294D01*
X486216Y333219D01*
X486284Y333146D01*
X486354Y333076D01*
X486427Y333008D01*
X486502Y332943D01*
X486580Y332881D01*
X486660Y332823D01*
X486743Y332767D01*
X486827Y332715D01*
X486914Y332665D01*
X487002Y332620D01*
X487092Y332577D01*
X487184Y332538D01*
X487277Y332503D01*
X487371Y332471D01*
X487466Y332443D01*
X487562Y332418D01*
X487660Y332397D01*
X487758Y332380D01*
X487856Y332367D01*
X487955Y332358D01*
X488055Y332352D01*
X488154Y332350D01*
X494646Y332350D01*
X494745Y332352D01*
X494845Y332358D01*
X494944Y332367D01*
X495042Y332380D01*
X495140Y332397D01*
X495238Y332418D01*
X495334Y332443D01*
X495429Y332471D01*
X495523Y332503D01*
X495616Y332538D01*
X495708Y332577D01*
X495798Y332620D01*
X495886Y332665D01*
X495973Y332715D01*
X496057Y332767D01*
X496140Y332823D01*
X496220Y332881D01*
X496298Y332943D01*
X496373Y333008D01*
X496446Y333076D01*
X496516Y333146D01*
X496584Y333219D01*
X496649Y333294D01*
X496711Y333372D01*
X496769Y333452D01*
X496825Y333535D01*
X496877Y333619D01*
X496927Y333706D01*
X496972Y333794D01*
X497015Y333884D01*
X497054Y333976D01*
X497089Y334068D01*
X497121Y334163D01*
X497149Y334258D01*
X497174Y334354D01*
X497195Y334452D01*
X497212Y334550D01*
X497225Y334648D01*
X497234Y334747D01*
X497240Y334847D01*
X497242Y334946D01*
X497242Y338841D01*
X497242Y344542D02*
X485558Y344542D01*
X485558Y351033D02*
X497242Y344542D01*
X497242Y351033D02*
X485558Y351033D01*
X485558Y356734D02*
X497242Y356734D01*
X497242Y359979D01*
X497240Y360092D01*
X497234Y360205D01*
X497224Y360318D01*
X497210Y360431D01*
X497193Y360543D01*
X497171Y360654D01*
X497146Y360764D01*
X497116Y360874D01*
X497083Y360982D01*
X497046Y361089D01*
X497006Y361195D01*
X496961Y361299D01*
X496913Y361402D01*
X496862Y361503D01*
X496807Y361602D01*
X496749Y361699D01*
X496687Y361794D01*
X496622Y361887D01*
X496554Y361977D01*
X496483Y362065D01*
X496408Y362151D01*
X496331Y362234D01*
X496251Y362314D01*
X496168Y362391D01*
X496082Y362466D01*
X495994Y362537D01*
X495904Y362605D01*
X495811Y362670D01*
X495716Y362732D01*
X495619Y362790D01*
X495520Y362845D01*
X495419Y362896D01*
X495316Y362944D01*
X495212Y362989D01*
X495106Y363029D01*
X494999Y363066D01*
X494891Y363099D01*
X494781Y363129D01*
X494671Y363154D01*
X494560Y363176D01*
X494448Y363193D01*
X494335Y363207D01*
X494222Y363217D01*
X494109Y363223D01*
X493996Y363225D01*
X488804Y363225D01*
X488691Y363223D01*
X488578Y363217D01*
X488465Y363207D01*
X488352Y363193D01*
X488240Y363176D01*
X488129Y363154D01*
X488019Y363129D01*
X487909Y363099D01*
X487801Y363066D01*
X487694Y363029D01*
X487588Y362989D01*
X487484Y362944D01*
X487381Y362896D01*
X487280Y362845D01*
X487181Y362790D01*
X487084Y362732D01*
X486989Y362670D01*
X486896Y362605D01*
X486806Y362537D01*
X486718Y362466D01*
X486632Y362391D01*
X486549Y362314D01*
X486469Y362234D01*
X486392Y362151D01*
X486317Y362065D01*
X486246Y361977D01*
X486178Y361887D01*
X486113Y361794D01*
X486051Y361699D01*
X485993Y361602D01*
X485938Y361503D01*
X485887Y361402D01*
X485839Y361299D01*
X485794Y361195D01*
X485754Y361089D01*
X485717Y360982D01*
X485684Y360874D01*
X485654Y360764D01*
X485629Y360654D01*
X485607Y360543D01*
X485590Y360431D01*
X485576Y360318D01*
X485566Y360205D01*
X485560Y360092D01*
X485558Y359979D01*
X485558Y356734D01*
X450501Y241332D02*
X449542Y239637D01*
X455192Y236441D01*
X457110Y239831D01*
X457109Y239831D02*
X457157Y239918D01*
X457201Y240007D01*
X457241Y240098D01*
X457278Y240191D01*
X457311Y240284D01*
X457341Y240379D01*
X457367Y240475D01*
X457390Y240572D01*
X457409Y240670D01*
X457424Y240768D01*
X457435Y240867D01*
X457442Y240966D01*
X457446Y241065D01*
X457445Y241165D01*
X457441Y241264D01*
X457434Y241363D01*
X457422Y241462D01*
X457406Y241560D01*
X457387Y241658D01*
X457364Y241755D01*
X457338Y241851D01*
X457308Y241945D01*
X457274Y242039D01*
X457236Y242131D01*
X457195Y242222D01*
X457151Y242311D01*
X457103Y242398D01*
X457052Y242483D01*
X456998Y242567D01*
X456941Y242648D01*
X456880Y242727D01*
X456817Y242803D01*
X456750Y242877D01*
X456681Y242949D01*
X456610Y243018D01*
X456535Y243084D01*
X456458Y243147D01*
X456379Y243207D01*
X456298Y243264D01*
X456214Y243318D01*
X456128Y243368D01*
X456128Y243369D02*
X450479Y246565D01*
X450391Y246613D01*
X450302Y246657D01*
X450211Y246697D01*
X450119Y246734D01*
X450025Y246767D01*
X449930Y246797D01*
X449834Y246823D01*
X449737Y246846D01*
X449640Y246865D01*
X449541Y246879D01*
X449442Y246891D01*
X449343Y246898D01*
X449244Y246902D01*
X449144Y246901D01*
X449045Y246897D01*
X448946Y246890D01*
X448847Y246878D01*
X448748Y246862D01*
X448651Y246843D01*
X448554Y246820D01*
X448458Y246794D01*
X448363Y246764D01*
X448270Y246730D01*
X448178Y246692D01*
X448087Y246651D01*
X447998Y246607D01*
X447911Y246559D01*
X447825Y246508D01*
X447742Y246454D01*
X447661Y246397D01*
X447582Y246336D01*
X447505Y246273D01*
X447431Y246206D01*
X447359Y246137D01*
X447291Y246065D01*
X447225Y245991D01*
X447161Y245914D01*
X447101Y245835D01*
X447044Y245753D01*
X446990Y245669D01*
X446940Y245584D01*
X445023Y242194D01*
X442215Y237233D02*
X452385Y231479D01*
X449188Y225829D02*
X442215Y237233D01*
X439019Y231583D02*
X449188Y225829D01*
X446381Y220868D02*
X436212Y226621D01*
X434614Y223796D01*
X434560Y223697D01*
X434509Y223595D01*
X434462Y223492D01*
X434419Y223388D01*
X434379Y223282D01*
X434343Y223174D01*
X434311Y223065D01*
X434283Y222956D01*
X434258Y222845D01*
X434238Y222734D01*
X434221Y222622D01*
X434208Y222509D01*
X434199Y222396D01*
X434194Y222283D01*
X434193Y222170D01*
X434196Y222056D01*
X434203Y221943D01*
X434214Y221831D01*
X434229Y221718D01*
X434247Y221606D01*
X434270Y221495D01*
X434296Y221385D01*
X434327Y221276D01*
X434361Y221168D01*
X434399Y221061D01*
X434440Y220956D01*
X434485Y220852D01*
X434534Y220750D01*
X434586Y220649D01*
X434642Y220551D01*
X434701Y220454D01*
X434764Y220359D01*
X434830Y220267D01*
X434899Y220177D01*
X434971Y220090D01*
X435046Y220005D01*
X435124Y219923D01*
X435205Y219843D01*
X435288Y219767D01*
X435374Y219693D01*
X435463Y219623D01*
X435554Y219555D01*
X435647Y219491D01*
X435743Y219430D01*
X435841Y219373D01*
X435840Y219373D02*
X440360Y216816D01*
X440459Y216762D01*
X440561Y216711D01*
X440664Y216664D01*
X440768Y216621D01*
X440874Y216581D01*
X440982Y216545D01*
X441091Y216513D01*
X441200Y216485D01*
X441311Y216460D01*
X441422Y216440D01*
X441534Y216423D01*
X441647Y216410D01*
X441760Y216401D01*
X441873Y216396D01*
X441986Y216395D01*
X442100Y216398D01*
X442213Y216405D01*
X442325Y216416D01*
X442438Y216431D01*
X442550Y216449D01*
X442661Y216472D01*
X442771Y216498D01*
X442880Y216529D01*
X442988Y216563D01*
X443095Y216601D01*
X443200Y216642D01*
X443304Y216687D01*
X443406Y216736D01*
X443507Y216788D01*
X443606Y216844D01*
X443702Y216903D01*
X443797Y216966D01*
X443889Y217032D01*
X443979Y217101D01*
X444066Y217173D01*
X444151Y217248D01*
X444233Y217326D01*
X444313Y217407D01*
X444389Y217490D01*
X444463Y217576D01*
X444533Y217665D01*
X444601Y217756D01*
X444665Y217849D01*
X444726Y217945D01*
X444783Y218043D01*
X446381Y220868D01*
X254087Y222332D02*
X253047Y223978D01*
X247560Y220510D01*
X249641Y217218D01*
X249642Y217218D02*
X249696Y217135D01*
X249754Y217054D01*
X249815Y216975D01*
X249879Y216899D01*
X249946Y216825D01*
X250015Y216754D01*
X250088Y216686D01*
X250162Y216620D01*
X250240Y216558D01*
X250319Y216498D01*
X250401Y216442D01*
X250485Y216388D01*
X250571Y216338D01*
X250659Y216291D01*
X250748Y216248D01*
X250839Y216208D01*
X250932Y216172D01*
X251026Y216139D01*
X251121Y216109D01*
X251217Y216084D01*
X251314Y216062D01*
X251412Y216044D01*
X251510Y216030D01*
X251609Y216019D01*
X251708Y216012D01*
X251808Y216009D01*
X251907Y216010D01*
X252006Y216015D01*
X252106Y216023D01*
X252204Y216035D01*
X252302Y216051D01*
X252400Y216071D01*
X252496Y216094D01*
X252592Y216122D01*
X252687Y216152D01*
X252780Y216187D01*
X252872Y216225D01*
X252962Y216266D01*
X253051Y216311D01*
X253138Y216359D01*
X253223Y216411D01*
X253223Y216410D02*
X258710Y219879D01*
X258709Y219880D02*
X258792Y219934D01*
X258873Y219992D01*
X258952Y220053D01*
X259028Y220117D01*
X259102Y220184D01*
X259173Y220253D01*
X259241Y220326D01*
X259307Y220401D01*
X259369Y220478D01*
X259429Y220557D01*
X259485Y220639D01*
X259539Y220723D01*
X259589Y220809D01*
X259636Y220897D01*
X259679Y220986D01*
X259719Y221077D01*
X259755Y221170D01*
X259788Y221264D01*
X259818Y221359D01*
X259843Y221455D01*
X259865Y221552D01*
X259883Y221650D01*
X259897Y221748D01*
X259908Y221847D01*
X259915Y221946D01*
X259918Y222046D01*
X259917Y222145D01*
X259912Y222244D01*
X259904Y222343D01*
X259892Y222442D01*
X259876Y222540D01*
X259856Y222638D01*
X259833Y222734D01*
X259805Y222830D01*
X259775Y222925D01*
X259740Y223018D01*
X259702Y223110D01*
X259661Y223200D01*
X259616Y223289D01*
X259568Y223376D01*
X259516Y223461D01*
X259517Y223461D02*
X257436Y226753D01*
X254390Y231572D02*
X244514Y225328D01*
X241045Y230815D02*
X254390Y231572D01*
X250921Y237058D02*
X241045Y230815D01*
X237999Y235634D02*
X247875Y241877D01*
X246141Y244620D01*
X246079Y244715D01*
X246013Y244808D01*
X245944Y244898D01*
X245873Y244985D01*
X245798Y245071D01*
X245720Y245153D01*
X245640Y245233D01*
X245556Y245310D01*
X245470Y245383D01*
X245382Y245454D01*
X245291Y245522D01*
X245198Y245587D01*
X245103Y245648D01*
X245005Y245706D01*
X244906Y245760D01*
X244805Y245811D01*
X244702Y245858D01*
X244597Y245902D01*
X244491Y245942D01*
X244384Y245978D01*
X244275Y246011D01*
X244166Y246040D01*
X244055Y246065D01*
X243944Y246086D01*
X243832Y246103D01*
X243719Y246116D01*
X243606Y246125D01*
X243493Y246131D01*
X243380Y246132D01*
X243267Y246129D01*
X243154Y246123D01*
X243041Y246112D01*
X242928Y246098D01*
X242817Y246080D01*
X242705Y246057D01*
X242595Y246031D01*
X242486Y246002D01*
X242378Y245968D01*
X242271Y245930D01*
X242165Y245889D01*
X242061Y245844D01*
X241959Y245796D01*
X241858Y245744D01*
X241759Y245689D01*
X241662Y245630D01*
X241663Y245629D02*
X237274Y242855D01*
X237273Y242855D02*
X237179Y242793D01*
X237086Y242727D01*
X236996Y242658D01*
X236909Y242587D01*
X236823Y242512D01*
X236741Y242434D01*
X236661Y242354D01*
X236584Y242270D01*
X236511Y242184D01*
X236440Y242096D01*
X236372Y242005D01*
X236307Y241912D01*
X236246Y241817D01*
X236188Y241719D01*
X236134Y241620D01*
X236083Y241519D01*
X236036Y241416D01*
X235992Y241311D01*
X235952Y241205D01*
X235916Y241098D01*
X235883Y240989D01*
X235854Y240880D01*
X235829Y240769D01*
X235808Y240658D01*
X235791Y240546D01*
X235778Y240433D01*
X235769Y240320D01*
X235763Y240207D01*
X235762Y240094D01*
X235765Y239981D01*
X235771Y239868D01*
X235782Y239755D01*
X235796Y239642D01*
X235814Y239531D01*
X235837Y239420D01*
X235863Y239309D01*
X235892Y239200D01*
X235926Y239092D01*
X235964Y238985D01*
X236005Y238879D01*
X236050Y238775D01*
X236098Y238673D01*
X236150Y238572D01*
X236205Y238473D01*
X236264Y238377D01*
X236265Y238377D02*
X237999Y235634D01*
X201649Y335306D02*
X201649Y337254D01*
X195158Y337254D01*
X195158Y333359D01*
X195160Y333260D01*
X195166Y333160D01*
X195175Y333061D01*
X195188Y332963D01*
X195205Y332865D01*
X195226Y332767D01*
X195251Y332671D01*
X195279Y332576D01*
X195311Y332482D01*
X195346Y332389D01*
X195385Y332297D01*
X195428Y332207D01*
X195473Y332119D01*
X195523Y332032D01*
X195575Y331948D01*
X195631Y331865D01*
X195689Y331785D01*
X195751Y331707D01*
X195816Y331632D01*
X195884Y331559D01*
X195954Y331489D01*
X196027Y331421D01*
X196102Y331356D01*
X196180Y331294D01*
X196260Y331236D01*
X196343Y331180D01*
X196427Y331128D01*
X196514Y331078D01*
X196602Y331033D01*
X196692Y330990D01*
X196784Y330951D01*
X196877Y330916D01*
X196971Y330884D01*
X197066Y330856D01*
X197162Y330831D01*
X197260Y330810D01*
X197358Y330793D01*
X197456Y330780D01*
X197555Y330771D01*
X197655Y330765D01*
X197754Y330763D01*
X204246Y330763D01*
X204345Y330765D01*
X204445Y330771D01*
X204544Y330780D01*
X204642Y330793D01*
X204740Y330810D01*
X204838Y330831D01*
X204934Y330856D01*
X205029Y330884D01*
X205123Y330916D01*
X205216Y330951D01*
X205308Y330990D01*
X205398Y331033D01*
X205486Y331078D01*
X205573Y331128D01*
X205657Y331180D01*
X205740Y331236D01*
X205820Y331294D01*
X205898Y331356D01*
X205973Y331421D01*
X206046Y331489D01*
X206116Y331559D01*
X206184Y331632D01*
X206249Y331707D01*
X206311Y331785D01*
X206369Y331865D01*
X206425Y331948D01*
X206477Y332032D01*
X206527Y332119D01*
X206572Y332207D01*
X206615Y332297D01*
X206654Y332389D01*
X206689Y332481D01*
X206721Y332576D01*
X206749Y332671D01*
X206774Y332767D01*
X206795Y332865D01*
X206812Y332963D01*
X206825Y333061D01*
X206834Y333160D01*
X206840Y333260D01*
X206842Y333359D01*
X206842Y337254D01*
X206842Y342954D02*
X195158Y342954D01*
X195158Y349446D02*
X206842Y342954D01*
X206842Y349446D02*
X195158Y349446D01*
X195158Y355146D02*
X206842Y355146D01*
X206842Y358392D01*
X206840Y358505D01*
X206834Y358618D01*
X206824Y358731D01*
X206810Y358844D01*
X206793Y358956D01*
X206771Y359067D01*
X206746Y359177D01*
X206716Y359287D01*
X206683Y359395D01*
X206646Y359502D01*
X206606Y359608D01*
X206561Y359712D01*
X206513Y359815D01*
X206462Y359916D01*
X206407Y360015D01*
X206349Y360112D01*
X206287Y360207D01*
X206222Y360300D01*
X206154Y360390D01*
X206083Y360478D01*
X206008Y360564D01*
X205931Y360647D01*
X205851Y360727D01*
X205768Y360804D01*
X205682Y360879D01*
X205594Y360950D01*
X205504Y361018D01*
X205411Y361083D01*
X205316Y361145D01*
X205219Y361203D01*
X205120Y361258D01*
X205019Y361309D01*
X204916Y361357D01*
X204812Y361402D01*
X204706Y361442D01*
X204599Y361479D01*
X204491Y361512D01*
X204381Y361542D01*
X204271Y361567D01*
X204160Y361589D01*
X204048Y361606D01*
X203935Y361620D01*
X203822Y361630D01*
X203709Y361636D01*
X203596Y361638D01*
X198404Y361638D01*
X198291Y361636D01*
X198178Y361630D01*
X198065Y361620D01*
X197952Y361606D01*
X197840Y361589D01*
X197729Y361567D01*
X197619Y361542D01*
X197509Y361512D01*
X197401Y361479D01*
X197294Y361442D01*
X197188Y361402D01*
X197084Y361357D01*
X196981Y361309D01*
X196880Y361258D01*
X196781Y361203D01*
X196684Y361145D01*
X196589Y361083D01*
X196496Y361018D01*
X196406Y360950D01*
X196318Y360879D01*
X196232Y360804D01*
X196149Y360727D01*
X196069Y360647D01*
X195992Y360564D01*
X195917Y360478D01*
X195846Y360390D01*
X195778Y360300D01*
X195713Y360207D01*
X195651Y360112D01*
X195593Y360015D01*
X195538Y359916D01*
X195487Y359815D01*
X195439Y359712D01*
X195394Y359608D01*
X195354Y359502D01*
X195317Y359395D01*
X195284Y359287D01*
X195254Y359177D01*
X195229Y359067D01*
X195207Y358956D01*
X195190Y358844D01*
X195176Y358731D01*
X195166Y358618D01*
X195160Y358505D01*
X195158Y358392D01*
X195158Y355146D01*
X280556Y477563D02*
X282151Y478680D01*
X280556Y477563D02*
X284279Y472246D01*
X287470Y474480D01*
X287469Y474480D02*
X287549Y474539D01*
X287627Y474601D01*
X287703Y474665D01*
X287776Y474733D01*
X287847Y474803D01*
X287914Y474876D01*
X287979Y474951D01*
X288041Y475029D01*
X288100Y475109D01*
X288156Y475191D01*
X288209Y475276D01*
X288258Y475362D01*
X288304Y475450D01*
X288347Y475540D01*
X288386Y475631D01*
X288421Y475724D01*
X288453Y475818D01*
X288482Y475914D01*
X288506Y476010D01*
X288527Y476107D01*
X288545Y476205D01*
X288558Y476304D01*
X288568Y476403D01*
X288574Y476502D01*
X288576Y476601D01*
X288574Y476701D01*
X288569Y476800D01*
X288559Y476899D01*
X288546Y476998D01*
X288530Y477096D01*
X288509Y477193D01*
X288485Y477290D01*
X288457Y477385D01*
X288425Y477479D01*
X288390Y477572D01*
X288351Y477664D01*
X288309Y477754D01*
X288263Y477842D01*
X288214Y477929D01*
X288162Y478013D01*
X288107Y478096D01*
X284384Y483413D01*
X284325Y483493D01*
X284263Y483571D01*
X284199Y483647D01*
X284131Y483720D01*
X284061Y483791D01*
X283988Y483858D01*
X283913Y483923D01*
X283835Y483985D01*
X283755Y484044D01*
X283673Y484100D01*
X283588Y484153D01*
X283502Y484202D01*
X283414Y484248D01*
X283324Y484291D01*
X283233Y484330D01*
X283140Y484365D01*
X283046Y484397D01*
X282950Y484426D01*
X282854Y484450D01*
X282757Y484471D01*
X282659Y484489D01*
X282560Y484502D01*
X282461Y484512D01*
X282362Y484518D01*
X282263Y484520D01*
X282163Y484518D01*
X282064Y484513D01*
X281965Y484504D01*
X281866Y484490D01*
X281768Y484474D01*
X281671Y484453D01*
X281574Y484429D01*
X281479Y484401D01*
X281385Y484369D01*
X281292Y484334D01*
X281200Y484295D01*
X281110Y484253D01*
X281022Y484207D01*
X280935Y484158D01*
X280851Y484106D01*
X280768Y484051D01*
X277578Y481817D01*
X272908Y478547D02*
X279609Y468976D01*
X274292Y465253D02*
X272908Y478547D01*
X267591Y474824D02*
X274292Y465253D01*
X269622Y461983D02*
X262921Y471554D01*
X260262Y469692D01*
X260262Y469693D02*
X260171Y469626D01*
X260081Y469557D01*
X259994Y469484D01*
X259910Y469408D01*
X259829Y469329D01*
X259750Y469248D01*
X259674Y469164D01*
X259601Y469077D01*
X259532Y468988D01*
X259465Y468896D01*
X259402Y468802D01*
X259342Y468706D01*
X259285Y468608D01*
X259232Y468508D01*
X259182Y468406D01*
X259136Y468302D01*
X259094Y468197D01*
X259055Y468091D01*
X259020Y467983D01*
X258989Y467874D01*
X258961Y467764D01*
X258938Y467653D01*
X258918Y467542D01*
X258902Y467430D01*
X258890Y467317D01*
X258882Y467204D01*
X258878Y467091D01*
X258878Y466977D01*
X258882Y466864D01*
X258890Y466751D01*
X258902Y466638D01*
X258918Y466526D01*
X258938Y466415D01*
X258961Y466304D01*
X258989Y466194D01*
X259020Y466085D01*
X259055Y465977D01*
X259094Y465871D01*
X259136Y465766D01*
X259182Y465662D01*
X259232Y465560D01*
X259285Y465460D01*
X259342Y465362D01*
X259402Y465266D01*
X259465Y465172D01*
X262444Y460918D01*
X262443Y460918D02*
X262510Y460827D01*
X262579Y460737D01*
X262652Y460650D01*
X262728Y460566D01*
X262807Y460485D01*
X262888Y460406D01*
X262972Y460330D01*
X263059Y460257D01*
X263149Y460188D01*
X263240Y460121D01*
X263334Y460058D01*
X263430Y459998D01*
X263528Y459941D01*
X263628Y459888D01*
X263730Y459838D01*
X263834Y459792D01*
X263939Y459750D01*
X264045Y459711D01*
X264153Y459676D01*
X264262Y459645D01*
X264372Y459617D01*
X264483Y459594D01*
X264594Y459574D01*
X264706Y459558D01*
X264819Y459546D01*
X264932Y459538D01*
X265045Y459534D01*
X265159Y459534D01*
X265272Y459538D01*
X265385Y459546D01*
X265498Y459558D01*
X265610Y459574D01*
X265721Y459594D01*
X265832Y459617D01*
X265942Y459645D01*
X266051Y459676D01*
X266159Y459711D01*
X266265Y459750D01*
X266370Y459792D01*
X266474Y459838D01*
X266576Y459888D01*
X266676Y459941D01*
X266774Y459998D01*
X266870Y460058D01*
X266964Y460121D01*
X269622Y461983D01*
D10*
X452456Y424273D02*
X452456Y406493D01*
X452456Y424273D02*
X447518Y424273D01*
X447378Y424271D01*
X447239Y424265D01*
X447099Y424255D01*
X446960Y424241D01*
X446821Y424224D01*
X446683Y424202D01*
X446546Y424176D01*
X446409Y424147D01*
X446273Y424114D01*
X446139Y424077D01*
X446005Y424036D01*
X445873Y423991D01*
X445741Y423942D01*
X445612Y423890D01*
X445484Y423835D01*
X445357Y423775D01*
X445232Y423712D01*
X445109Y423646D01*
X444988Y423576D01*
X444869Y423503D01*
X444752Y423426D01*
X444638Y423346D01*
X444525Y423263D01*
X444415Y423177D01*
X444308Y423087D01*
X444203Y422995D01*
X444101Y422900D01*
X444001Y422802D01*
X443904Y422701D01*
X443810Y422597D01*
X443720Y422491D01*
X443632Y422382D01*
X443547Y422271D01*
X443466Y422157D01*
X443387Y422042D01*
X443312Y421924D01*
X443241Y421804D01*
X443173Y421681D01*
X443108Y421558D01*
X443047Y421432D01*
X442989Y421304D01*
X442935Y421176D01*
X442885Y421045D01*
X442838Y420913D01*
X442795Y420780D01*
X442756Y420646D01*
X442721Y420511D01*
X442690Y420375D01*
X442662Y420237D01*
X442639Y420100D01*
X442619Y419961D01*
X442603Y419822D01*
X442591Y419683D01*
X442583Y419544D01*
X442579Y419404D01*
X442579Y419264D01*
X442583Y419124D01*
X442591Y418985D01*
X442603Y418846D01*
X442619Y418707D01*
X442639Y418568D01*
X442662Y418431D01*
X442690Y418293D01*
X442721Y418157D01*
X442756Y418022D01*
X442795Y417888D01*
X442838Y417755D01*
X442885Y417623D01*
X442935Y417492D01*
X442989Y417364D01*
X443047Y417236D01*
X443108Y417110D01*
X443173Y416987D01*
X443241Y416865D01*
X443312Y416744D01*
X443387Y416626D01*
X443466Y416511D01*
X443547Y416397D01*
X443632Y416286D01*
X443720Y416177D01*
X443810Y416071D01*
X443904Y415967D01*
X444001Y415866D01*
X444101Y415768D01*
X444203Y415673D01*
X444308Y415581D01*
X444415Y415491D01*
X444525Y415405D01*
X444638Y415322D01*
X444752Y415242D01*
X444869Y415165D01*
X444988Y415092D01*
X445109Y415022D01*
X445232Y414956D01*
X445357Y414893D01*
X445484Y414833D01*
X445612Y414778D01*
X445741Y414726D01*
X445873Y414677D01*
X446005Y414632D01*
X446139Y414591D01*
X446273Y414554D01*
X446409Y414521D01*
X446546Y414492D01*
X446683Y414466D01*
X446821Y414444D01*
X446960Y414427D01*
X447099Y414413D01*
X447239Y414403D01*
X447378Y414397D01*
X447518Y414395D01*
X452456Y414395D01*
X436461Y420321D02*
X431522Y424273D01*
X431522Y406493D01*
X426584Y406493D02*
X436461Y406493D01*
X480255Y310774D02*
X480255Y292994D01*
X480255Y310774D02*
X475316Y310774D01*
X475176Y310772D01*
X475037Y310766D01*
X474897Y310756D01*
X474758Y310742D01*
X474619Y310725D01*
X474481Y310703D01*
X474344Y310677D01*
X474207Y310648D01*
X474071Y310615D01*
X473937Y310578D01*
X473803Y310537D01*
X473671Y310492D01*
X473539Y310443D01*
X473410Y310391D01*
X473282Y310336D01*
X473155Y310276D01*
X473030Y310213D01*
X472907Y310147D01*
X472786Y310077D01*
X472667Y310004D01*
X472550Y309927D01*
X472436Y309847D01*
X472323Y309764D01*
X472213Y309678D01*
X472106Y309588D01*
X472001Y309496D01*
X471899Y309401D01*
X471799Y309303D01*
X471702Y309202D01*
X471608Y309098D01*
X471518Y308992D01*
X471430Y308883D01*
X471345Y308772D01*
X471264Y308658D01*
X471185Y308543D01*
X471110Y308425D01*
X471039Y308305D01*
X470971Y308182D01*
X470906Y308059D01*
X470845Y307933D01*
X470787Y307805D01*
X470733Y307677D01*
X470683Y307546D01*
X470636Y307414D01*
X470593Y307281D01*
X470554Y307147D01*
X470519Y307012D01*
X470488Y306876D01*
X470460Y306738D01*
X470437Y306601D01*
X470417Y306462D01*
X470401Y306323D01*
X470389Y306184D01*
X470381Y306045D01*
X470377Y305905D01*
X470377Y305765D01*
X470381Y305625D01*
X470389Y305486D01*
X470401Y305347D01*
X470417Y305208D01*
X470437Y305069D01*
X470460Y304932D01*
X470488Y304794D01*
X470519Y304658D01*
X470554Y304523D01*
X470593Y304389D01*
X470636Y304256D01*
X470683Y304124D01*
X470733Y303993D01*
X470787Y303865D01*
X470845Y303737D01*
X470906Y303611D01*
X470971Y303488D01*
X471039Y303366D01*
X471110Y303245D01*
X471185Y303127D01*
X471264Y303012D01*
X471345Y302898D01*
X471430Y302787D01*
X471518Y302678D01*
X471608Y302572D01*
X471702Y302468D01*
X471799Y302367D01*
X471899Y302269D01*
X472001Y302174D01*
X472106Y302082D01*
X472213Y301992D01*
X472323Y301906D01*
X472436Y301823D01*
X472550Y301743D01*
X472667Y301666D01*
X472786Y301593D01*
X472907Y301523D01*
X473030Y301457D01*
X473155Y301394D01*
X473282Y301334D01*
X473410Y301279D01*
X473539Y301227D01*
X473671Y301178D01*
X473803Y301133D01*
X473937Y301092D01*
X474071Y301055D01*
X474207Y301022D01*
X474344Y300993D01*
X474481Y300967D01*
X474619Y300945D01*
X474758Y300928D01*
X474897Y300914D01*
X475037Y300904D01*
X475176Y300898D01*
X475316Y300896D01*
X480255Y300896D01*
X458828Y310774D02*
X458696Y310772D01*
X458565Y310766D01*
X458433Y310756D01*
X458302Y310743D01*
X458172Y310725D01*
X458042Y310704D01*
X457912Y310679D01*
X457784Y310650D01*
X457656Y310617D01*
X457530Y310580D01*
X457404Y310540D01*
X457280Y310496D01*
X457157Y310448D01*
X457036Y310397D01*
X456916Y310342D01*
X456798Y310284D01*
X456682Y310222D01*
X456568Y310156D01*
X456455Y310088D01*
X456345Y310016D01*
X456237Y309941D01*
X456131Y309862D01*
X456027Y309781D01*
X455926Y309696D01*
X455828Y309609D01*
X455732Y309518D01*
X455639Y309425D01*
X455548Y309329D01*
X455461Y309231D01*
X455376Y309130D01*
X455295Y309026D01*
X455216Y308920D01*
X455141Y308812D01*
X455069Y308702D01*
X455001Y308589D01*
X454935Y308475D01*
X454873Y308359D01*
X454815Y308241D01*
X454760Y308121D01*
X454709Y308000D01*
X454661Y307877D01*
X454617Y307753D01*
X454577Y307627D01*
X454540Y307501D01*
X454507Y307373D01*
X454478Y307245D01*
X454453Y307115D01*
X454432Y306985D01*
X454414Y306855D01*
X454401Y306724D01*
X454391Y306592D01*
X454385Y306461D01*
X454383Y306329D01*
X458828Y310775D02*
X458978Y310773D01*
X459127Y310767D01*
X459276Y310757D01*
X459425Y310744D01*
X459574Y310726D01*
X459722Y310705D01*
X459870Y310679D01*
X460016Y310650D01*
X460162Y310617D01*
X460307Y310580D01*
X460451Y310539D01*
X460594Y310495D01*
X460736Y310447D01*
X460876Y310395D01*
X461015Y310340D01*
X461153Y310281D01*
X461288Y310218D01*
X461423Y310152D01*
X461555Y310082D01*
X461685Y310009D01*
X461814Y309932D01*
X461941Y309852D01*
X462065Y309769D01*
X462187Y309683D01*
X462307Y309593D01*
X462424Y309500D01*
X462539Y309405D01*
X462652Y309306D01*
X462762Y309204D01*
X462869Y309100D01*
X462973Y308993D01*
X463075Y308883D01*
X463173Y308770D01*
X463269Y308655D01*
X463361Y308537D01*
X463451Y308417D01*
X463537Y308295D01*
X463620Y308171D01*
X463700Y308044D01*
X463776Y307916D01*
X463849Y307785D01*
X463919Y307652D01*
X463985Y307518D01*
X464047Y307382D01*
X464106Y307245D01*
X464162Y307106D01*
X464213Y306965D01*
X464261Y306824D01*
X455865Y302872D02*
X455769Y302965D01*
X455677Y303061D01*
X455587Y303160D01*
X455500Y303261D01*
X455416Y303364D01*
X455334Y303469D01*
X455256Y303577D01*
X455181Y303687D01*
X455108Y303799D01*
X455039Y303913D01*
X454973Y304029D01*
X454911Y304147D01*
X454852Y304266D01*
X454796Y304387D01*
X454743Y304510D01*
X454694Y304634D01*
X454649Y304759D01*
X454606Y304886D01*
X454568Y305013D01*
X454533Y305142D01*
X454502Y305271D01*
X454474Y305402D01*
X454450Y305533D01*
X454429Y305665D01*
X454413Y305797D01*
X454400Y305930D01*
X454390Y306063D01*
X454385Y306196D01*
X454383Y306329D01*
X455864Y302872D02*
X464260Y292994D01*
X454383Y292994D01*
X442013Y299909D02*
X442013Y305835D01*
X442013Y299909D02*
X438555Y295464D01*
X442013Y299909D02*
X445470Y295464D01*
X442013Y299909D02*
X436580Y301884D01*
X442013Y299909D02*
X447445Y301884D01*
X224700Y297814D02*
X224700Y315594D01*
X219761Y315594D01*
X219621Y315592D01*
X219482Y315586D01*
X219342Y315576D01*
X219203Y315562D01*
X219064Y315545D01*
X218926Y315523D01*
X218789Y315497D01*
X218652Y315468D01*
X218516Y315435D01*
X218382Y315398D01*
X218248Y315357D01*
X218116Y315312D01*
X217984Y315263D01*
X217855Y315211D01*
X217727Y315156D01*
X217600Y315096D01*
X217475Y315033D01*
X217352Y314967D01*
X217231Y314897D01*
X217112Y314824D01*
X216995Y314747D01*
X216881Y314667D01*
X216768Y314584D01*
X216658Y314498D01*
X216551Y314408D01*
X216446Y314316D01*
X216344Y314221D01*
X216244Y314123D01*
X216147Y314022D01*
X216053Y313918D01*
X215963Y313812D01*
X215875Y313703D01*
X215790Y313592D01*
X215709Y313478D01*
X215630Y313363D01*
X215555Y313245D01*
X215484Y313125D01*
X215416Y313002D01*
X215351Y312879D01*
X215290Y312753D01*
X215232Y312625D01*
X215178Y312497D01*
X215128Y312366D01*
X215081Y312234D01*
X215038Y312101D01*
X214999Y311967D01*
X214964Y311832D01*
X214933Y311696D01*
X214905Y311558D01*
X214882Y311421D01*
X214862Y311282D01*
X214846Y311143D01*
X214834Y311004D01*
X214826Y310865D01*
X214822Y310725D01*
X214822Y310585D01*
X214826Y310445D01*
X214834Y310306D01*
X214846Y310167D01*
X214862Y310028D01*
X214882Y309889D01*
X214905Y309752D01*
X214933Y309614D01*
X214964Y309478D01*
X214999Y309343D01*
X215038Y309209D01*
X215081Y309076D01*
X215128Y308944D01*
X215178Y308813D01*
X215232Y308685D01*
X215290Y308557D01*
X215351Y308431D01*
X215416Y308308D01*
X215484Y308186D01*
X215555Y308065D01*
X215630Y307947D01*
X215709Y307832D01*
X215790Y307718D01*
X215875Y307607D01*
X215963Y307498D01*
X216053Y307392D01*
X216147Y307288D01*
X216244Y307187D01*
X216344Y307089D01*
X216446Y306994D01*
X216551Y306902D01*
X216658Y306812D01*
X216768Y306726D01*
X216881Y306643D01*
X216995Y306563D01*
X217112Y306486D01*
X217231Y306413D01*
X217352Y306343D01*
X217475Y306277D01*
X217600Y306214D01*
X217727Y306154D01*
X217855Y306099D01*
X217984Y306047D01*
X218116Y305998D01*
X218248Y305953D01*
X218382Y305912D01*
X218516Y305875D01*
X218652Y305842D01*
X218789Y305813D01*
X218926Y305787D01*
X219064Y305765D01*
X219203Y305748D01*
X219342Y305734D01*
X219482Y305724D01*
X219621Y305718D01*
X219761Y305716D01*
X224700Y305716D01*
X208705Y297814D02*
X203766Y297814D01*
X203626Y297816D01*
X203487Y297822D01*
X203347Y297832D01*
X203208Y297846D01*
X203069Y297863D01*
X202931Y297885D01*
X202794Y297911D01*
X202657Y297940D01*
X202521Y297973D01*
X202387Y298010D01*
X202253Y298051D01*
X202121Y298096D01*
X201989Y298145D01*
X201860Y298197D01*
X201732Y298252D01*
X201605Y298312D01*
X201480Y298375D01*
X201357Y298441D01*
X201236Y298511D01*
X201117Y298584D01*
X201000Y298661D01*
X200886Y298741D01*
X200773Y298824D01*
X200663Y298910D01*
X200556Y299000D01*
X200451Y299092D01*
X200349Y299187D01*
X200249Y299285D01*
X200152Y299386D01*
X200058Y299490D01*
X199968Y299596D01*
X199880Y299705D01*
X199795Y299816D01*
X199714Y299930D01*
X199635Y300045D01*
X199560Y300163D01*
X199489Y300284D01*
X199421Y300406D01*
X199356Y300529D01*
X199295Y300655D01*
X199237Y300783D01*
X199183Y300911D01*
X199133Y301042D01*
X199086Y301174D01*
X199043Y301307D01*
X199004Y301441D01*
X198969Y301576D01*
X198938Y301712D01*
X198910Y301850D01*
X198887Y301987D01*
X198867Y302126D01*
X198851Y302265D01*
X198839Y302404D01*
X198831Y302543D01*
X198827Y302683D01*
X198827Y302823D01*
X198831Y302963D01*
X198839Y303102D01*
X198851Y303241D01*
X198867Y303380D01*
X198887Y303519D01*
X198910Y303656D01*
X198938Y303794D01*
X198969Y303930D01*
X199004Y304065D01*
X199043Y304199D01*
X199086Y304332D01*
X199133Y304464D01*
X199183Y304595D01*
X199237Y304723D01*
X199295Y304851D01*
X199356Y304977D01*
X199421Y305100D01*
X199489Y305223D01*
X199560Y305343D01*
X199635Y305461D01*
X199714Y305576D01*
X199795Y305690D01*
X199880Y305801D01*
X199968Y305910D01*
X200058Y306016D01*
X200152Y306120D01*
X200249Y306221D01*
X200349Y306319D01*
X200451Y306414D01*
X200556Y306506D01*
X200663Y306596D01*
X200773Y306682D01*
X200886Y306765D01*
X201000Y306845D01*
X201117Y306922D01*
X201236Y306995D01*
X201357Y307065D01*
X201480Y307131D01*
X201605Y307194D01*
X201732Y307254D01*
X201860Y307309D01*
X201989Y307361D01*
X202121Y307410D01*
X202253Y307455D01*
X202387Y307496D01*
X202521Y307533D01*
X202657Y307566D01*
X202794Y307595D01*
X202931Y307621D01*
X203069Y307643D01*
X203208Y307660D01*
X203347Y307674D01*
X203487Y307684D01*
X203626Y307690D01*
X203766Y307692D01*
X202778Y315594D02*
X208705Y315594D01*
X202778Y315594D02*
X202654Y315592D01*
X202530Y315586D01*
X202406Y315576D01*
X202283Y315563D01*
X202160Y315545D01*
X202038Y315524D01*
X201916Y315499D01*
X201795Y315470D01*
X201676Y315437D01*
X201557Y315401D01*
X201440Y315360D01*
X201324Y315317D01*
X201209Y315269D01*
X201096Y315218D01*
X200984Y315163D01*
X200875Y315105D01*
X200767Y315044D01*
X200661Y314979D01*
X200557Y314911D01*
X200456Y314839D01*
X200356Y314765D01*
X200260Y314687D01*
X200165Y314607D01*
X200073Y314523D01*
X199984Y314437D01*
X199898Y314348D01*
X199814Y314256D01*
X199734Y314161D01*
X199656Y314065D01*
X199582Y313965D01*
X199510Y313864D01*
X199442Y313760D01*
X199377Y313654D01*
X199316Y313546D01*
X199258Y313437D01*
X199203Y313325D01*
X199152Y313212D01*
X199104Y313097D01*
X199061Y312981D01*
X199020Y312864D01*
X198984Y312745D01*
X198951Y312626D01*
X198922Y312505D01*
X198897Y312383D01*
X198876Y312261D01*
X198858Y312138D01*
X198845Y312015D01*
X198835Y311891D01*
X198829Y311767D01*
X198827Y311643D01*
X198829Y311519D01*
X198835Y311395D01*
X198845Y311271D01*
X198858Y311148D01*
X198876Y311025D01*
X198897Y310903D01*
X198922Y310781D01*
X198951Y310660D01*
X198984Y310541D01*
X199020Y310422D01*
X199061Y310305D01*
X199104Y310189D01*
X199152Y310074D01*
X199203Y309961D01*
X199258Y309849D01*
X199316Y309740D01*
X199377Y309632D01*
X199442Y309526D01*
X199510Y309422D01*
X199582Y309321D01*
X199656Y309221D01*
X199734Y309125D01*
X199814Y309030D01*
X199898Y308938D01*
X199984Y308849D01*
X200073Y308763D01*
X200165Y308679D01*
X200260Y308599D01*
X200356Y308521D01*
X200456Y308447D01*
X200557Y308375D01*
X200661Y308307D01*
X200767Y308242D01*
X200875Y308181D01*
X200984Y308123D01*
X201096Y308068D01*
X201209Y308017D01*
X201324Y307969D01*
X201440Y307926D01*
X201557Y307885D01*
X201676Y307849D01*
X201795Y307816D01*
X201916Y307787D01*
X202038Y307762D01*
X202160Y307741D01*
X202283Y307723D01*
X202406Y307710D01*
X202530Y307700D01*
X202654Y307694D01*
X202778Y307692D01*
X206730Y307692D01*
X235813Y379664D02*
X235813Y397444D01*
X230874Y397444D01*
X230734Y397442D01*
X230595Y397436D01*
X230455Y397426D01*
X230316Y397412D01*
X230177Y397395D01*
X230039Y397373D01*
X229902Y397347D01*
X229765Y397318D01*
X229629Y397285D01*
X229495Y397248D01*
X229361Y397207D01*
X229229Y397162D01*
X229097Y397113D01*
X228968Y397061D01*
X228840Y397006D01*
X228713Y396946D01*
X228588Y396883D01*
X228465Y396817D01*
X228344Y396747D01*
X228225Y396674D01*
X228108Y396597D01*
X227994Y396517D01*
X227881Y396434D01*
X227771Y396348D01*
X227664Y396258D01*
X227559Y396166D01*
X227457Y396071D01*
X227357Y395973D01*
X227260Y395872D01*
X227166Y395768D01*
X227076Y395662D01*
X226988Y395553D01*
X226903Y395442D01*
X226822Y395328D01*
X226743Y395213D01*
X226668Y395095D01*
X226597Y394975D01*
X226529Y394852D01*
X226464Y394729D01*
X226403Y394603D01*
X226345Y394475D01*
X226291Y394347D01*
X226241Y394216D01*
X226194Y394084D01*
X226151Y393951D01*
X226112Y393817D01*
X226077Y393682D01*
X226046Y393546D01*
X226018Y393408D01*
X225995Y393271D01*
X225975Y393132D01*
X225959Y392993D01*
X225947Y392854D01*
X225939Y392715D01*
X225935Y392575D01*
X225935Y392435D01*
X225939Y392295D01*
X225947Y392156D01*
X225959Y392017D01*
X225975Y391878D01*
X225995Y391739D01*
X226018Y391602D01*
X226046Y391464D01*
X226077Y391328D01*
X226112Y391193D01*
X226151Y391059D01*
X226194Y390926D01*
X226241Y390794D01*
X226291Y390663D01*
X226345Y390535D01*
X226403Y390407D01*
X226464Y390281D01*
X226529Y390158D01*
X226597Y390036D01*
X226668Y389915D01*
X226743Y389797D01*
X226822Y389682D01*
X226903Y389568D01*
X226988Y389457D01*
X227076Y389348D01*
X227166Y389242D01*
X227260Y389138D01*
X227357Y389037D01*
X227457Y388939D01*
X227559Y388844D01*
X227664Y388752D01*
X227771Y388662D01*
X227881Y388576D01*
X227994Y388493D01*
X228108Y388413D01*
X228225Y388336D01*
X228344Y388263D01*
X228465Y388193D01*
X228588Y388127D01*
X228713Y388064D01*
X228840Y388004D01*
X228968Y387949D01*
X229097Y387897D01*
X229229Y387848D01*
X229361Y387803D01*
X229495Y387762D01*
X229629Y387725D01*
X229765Y387692D01*
X229902Y387663D01*
X230039Y387637D01*
X230177Y387615D01*
X230316Y387598D01*
X230455Y387584D01*
X230595Y387574D01*
X230734Y387568D01*
X230874Y387566D01*
X235813Y387566D01*
X219818Y383615D02*
X215867Y397444D01*
X219818Y383615D02*
X209940Y383615D01*
X212903Y387566D02*
X212903Y379664D01*
X393575Y427243D02*
X393575Y445023D01*
X393575Y437121D02*
X383698Y437121D01*
X383698Y445023D02*
X383698Y427243D01*
X376267Y441072D02*
X371328Y445023D01*
X371328Y427243D01*
X376267Y427243D02*
X366389Y427243D01*
X359516Y427243D02*
X353589Y427243D01*
X353465Y427245D01*
X353341Y427251D01*
X353217Y427261D01*
X353094Y427274D01*
X352971Y427292D01*
X352849Y427313D01*
X352727Y427338D01*
X352606Y427367D01*
X352487Y427400D01*
X352368Y427436D01*
X352251Y427477D01*
X352135Y427520D01*
X352020Y427568D01*
X351907Y427619D01*
X351795Y427674D01*
X351686Y427732D01*
X351578Y427793D01*
X351472Y427858D01*
X351368Y427926D01*
X351267Y427998D01*
X351167Y428072D01*
X351071Y428150D01*
X350976Y428230D01*
X350884Y428314D01*
X350795Y428400D01*
X350709Y428489D01*
X350625Y428581D01*
X350545Y428676D01*
X350467Y428772D01*
X350393Y428872D01*
X350321Y428973D01*
X350253Y429077D01*
X350188Y429183D01*
X350127Y429291D01*
X350069Y429400D01*
X350014Y429512D01*
X349963Y429625D01*
X349915Y429740D01*
X349872Y429856D01*
X349831Y429973D01*
X349795Y430092D01*
X349762Y430211D01*
X349733Y430332D01*
X349708Y430454D01*
X349687Y430576D01*
X349669Y430699D01*
X349656Y430822D01*
X349646Y430946D01*
X349640Y431070D01*
X349638Y431194D01*
X349638Y433170D01*
X349640Y433294D01*
X349646Y433418D01*
X349656Y433542D01*
X349669Y433665D01*
X349687Y433788D01*
X349708Y433910D01*
X349733Y434032D01*
X349762Y434153D01*
X349795Y434272D01*
X349831Y434391D01*
X349872Y434508D01*
X349915Y434624D01*
X349963Y434739D01*
X350014Y434852D01*
X350069Y434964D01*
X350127Y435073D01*
X350188Y435181D01*
X350253Y435287D01*
X350321Y435391D01*
X350393Y435492D01*
X350467Y435592D01*
X350545Y435688D01*
X350625Y435783D01*
X350709Y435875D01*
X350795Y435964D01*
X350884Y436050D01*
X350976Y436134D01*
X351071Y436214D01*
X351167Y436292D01*
X351267Y436366D01*
X351368Y436438D01*
X351472Y436506D01*
X351578Y436571D01*
X351686Y436632D01*
X351795Y436690D01*
X351907Y436745D01*
X352020Y436796D01*
X352135Y436844D01*
X352251Y436887D01*
X352368Y436928D01*
X352487Y436964D01*
X352606Y436997D01*
X352727Y437026D01*
X352849Y437051D01*
X352971Y437072D01*
X353094Y437090D01*
X353217Y437103D01*
X353341Y437113D01*
X353465Y437119D01*
X353589Y437121D01*
X359516Y437121D01*
X359516Y445023D01*
X349638Y445023D01*
X342122Y445023D02*
X342122Y427243D01*
X342122Y445023D02*
X337183Y445023D01*
X337043Y445021D01*
X336904Y445015D01*
X336764Y445005D01*
X336625Y444991D01*
X336486Y444974D01*
X336348Y444952D01*
X336211Y444926D01*
X336074Y444897D01*
X335938Y444864D01*
X335804Y444827D01*
X335670Y444786D01*
X335538Y444741D01*
X335406Y444692D01*
X335277Y444640D01*
X335149Y444585D01*
X335022Y444525D01*
X334897Y444462D01*
X334774Y444396D01*
X334653Y444326D01*
X334534Y444253D01*
X334417Y444176D01*
X334303Y444096D01*
X334190Y444013D01*
X334080Y443927D01*
X333973Y443837D01*
X333868Y443745D01*
X333766Y443650D01*
X333666Y443552D01*
X333569Y443451D01*
X333475Y443347D01*
X333385Y443241D01*
X333297Y443132D01*
X333212Y443021D01*
X333131Y442907D01*
X333052Y442792D01*
X332977Y442674D01*
X332906Y442554D01*
X332838Y442431D01*
X332773Y442308D01*
X332712Y442182D01*
X332654Y442054D01*
X332600Y441926D01*
X332550Y441795D01*
X332503Y441663D01*
X332460Y441530D01*
X332421Y441396D01*
X332386Y441261D01*
X332355Y441125D01*
X332327Y440987D01*
X332304Y440850D01*
X332284Y440711D01*
X332268Y440572D01*
X332256Y440433D01*
X332248Y440294D01*
X332244Y440154D01*
X332244Y440014D01*
X332248Y439874D01*
X332256Y439735D01*
X332268Y439596D01*
X332284Y439457D01*
X332304Y439318D01*
X332327Y439181D01*
X332355Y439043D01*
X332386Y438907D01*
X332421Y438772D01*
X332460Y438638D01*
X332503Y438505D01*
X332550Y438373D01*
X332600Y438242D01*
X332654Y438114D01*
X332712Y437986D01*
X332773Y437860D01*
X332838Y437737D01*
X332906Y437615D01*
X332977Y437494D01*
X333052Y437376D01*
X333131Y437261D01*
X333212Y437147D01*
X333297Y437036D01*
X333385Y436927D01*
X333475Y436821D01*
X333569Y436717D01*
X333666Y436616D01*
X333766Y436518D01*
X333868Y436423D01*
X333973Y436331D01*
X334080Y436241D01*
X334190Y436155D01*
X334303Y436072D01*
X334417Y435992D01*
X334534Y435915D01*
X334653Y435842D01*
X334774Y435772D01*
X334897Y435706D01*
X335022Y435643D01*
X335149Y435583D01*
X335277Y435528D01*
X335406Y435476D01*
X335538Y435427D01*
X335670Y435382D01*
X335804Y435341D01*
X335938Y435304D01*
X336074Y435271D01*
X336211Y435242D01*
X336348Y435216D01*
X336486Y435194D01*
X336625Y435177D01*
X336764Y435163D01*
X336904Y435153D01*
X337043Y435147D01*
X337183Y435145D01*
X342122Y435145D01*
X336195Y435145D02*
X332244Y427243D01*
X325457Y432182D02*
X325455Y432322D01*
X325449Y432461D01*
X325439Y432601D01*
X325425Y432740D01*
X325408Y432879D01*
X325386Y433017D01*
X325360Y433154D01*
X325331Y433291D01*
X325298Y433427D01*
X325261Y433561D01*
X325220Y433695D01*
X325175Y433827D01*
X325126Y433959D01*
X325074Y434088D01*
X325019Y434216D01*
X324959Y434343D01*
X324896Y434468D01*
X324830Y434591D01*
X324760Y434712D01*
X324687Y434831D01*
X324610Y434948D01*
X324530Y435062D01*
X324447Y435175D01*
X324361Y435285D01*
X324271Y435392D01*
X324179Y435497D01*
X324084Y435599D01*
X323986Y435699D01*
X323885Y435796D01*
X323781Y435890D01*
X323675Y435980D01*
X323566Y436068D01*
X323455Y436153D01*
X323341Y436234D01*
X323226Y436313D01*
X323108Y436388D01*
X322988Y436459D01*
X322865Y436527D01*
X322742Y436592D01*
X322616Y436653D01*
X322488Y436711D01*
X322360Y436765D01*
X322229Y436815D01*
X322097Y436862D01*
X321964Y436905D01*
X321830Y436944D01*
X321695Y436979D01*
X321559Y437010D01*
X321421Y437038D01*
X321284Y437061D01*
X321145Y437081D01*
X321006Y437097D01*
X320867Y437109D01*
X320728Y437117D01*
X320588Y437121D01*
X320448Y437121D01*
X320308Y437117D01*
X320169Y437109D01*
X320030Y437097D01*
X319891Y437081D01*
X319752Y437061D01*
X319615Y437038D01*
X319477Y437010D01*
X319341Y436979D01*
X319206Y436944D01*
X319072Y436905D01*
X318939Y436862D01*
X318807Y436815D01*
X318676Y436765D01*
X318548Y436711D01*
X318420Y436653D01*
X318294Y436592D01*
X318171Y436527D01*
X318049Y436459D01*
X317928Y436388D01*
X317810Y436313D01*
X317695Y436234D01*
X317581Y436153D01*
X317470Y436068D01*
X317361Y435980D01*
X317255Y435890D01*
X317151Y435796D01*
X317050Y435699D01*
X316952Y435599D01*
X316857Y435497D01*
X316765Y435392D01*
X316675Y435285D01*
X316589Y435175D01*
X316506Y435062D01*
X316426Y434948D01*
X316349Y434831D01*
X316276Y434712D01*
X316206Y434591D01*
X316140Y434468D01*
X316077Y434343D01*
X316017Y434216D01*
X315962Y434088D01*
X315910Y433959D01*
X315861Y433827D01*
X315816Y433695D01*
X315775Y433561D01*
X315738Y433427D01*
X315705Y433291D01*
X315676Y433154D01*
X315650Y433017D01*
X315628Y432879D01*
X315611Y432740D01*
X315597Y432601D01*
X315587Y432461D01*
X315581Y432322D01*
X315579Y432182D01*
X315581Y432042D01*
X315587Y431903D01*
X315597Y431763D01*
X315611Y431624D01*
X315628Y431485D01*
X315650Y431347D01*
X315676Y431210D01*
X315705Y431073D01*
X315738Y430937D01*
X315775Y430803D01*
X315816Y430669D01*
X315861Y430537D01*
X315910Y430405D01*
X315962Y430276D01*
X316017Y430148D01*
X316077Y430021D01*
X316140Y429896D01*
X316206Y429773D01*
X316276Y429652D01*
X316349Y429533D01*
X316426Y429416D01*
X316506Y429302D01*
X316589Y429189D01*
X316675Y429079D01*
X316765Y428972D01*
X316857Y428867D01*
X316952Y428765D01*
X317050Y428665D01*
X317151Y428568D01*
X317255Y428474D01*
X317361Y428384D01*
X317470Y428296D01*
X317581Y428211D01*
X317695Y428130D01*
X317810Y428051D01*
X317928Y427976D01*
X318049Y427905D01*
X318171Y427837D01*
X318294Y427772D01*
X318420Y427711D01*
X318548Y427653D01*
X318676Y427599D01*
X318807Y427549D01*
X318939Y427502D01*
X319072Y427459D01*
X319206Y427420D01*
X319341Y427385D01*
X319477Y427354D01*
X319615Y427326D01*
X319752Y427303D01*
X319891Y427283D01*
X320030Y427267D01*
X320169Y427255D01*
X320308Y427247D01*
X320448Y427243D01*
X320588Y427243D01*
X320728Y427247D01*
X320867Y427255D01*
X321006Y427267D01*
X321145Y427283D01*
X321284Y427303D01*
X321421Y427326D01*
X321559Y427354D01*
X321695Y427385D01*
X321830Y427420D01*
X321964Y427459D01*
X322097Y427502D01*
X322229Y427549D01*
X322360Y427599D01*
X322488Y427653D01*
X322616Y427711D01*
X322742Y427772D01*
X322865Y427837D01*
X322988Y427905D01*
X323108Y427976D01*
X323226Y428051D01*
X323341Y428130D01*
X323455Y428211D01*
X323566Y428296D01*
X323675Y428384D01*
X323781Y428474D01*
X323885Y428568D01*
X323986Y428665D01*
X324084Y428765D01*
X324179Y428867D01*
X324271Y428972D01*
X324361Y429079D01*
X324447Y429189D01*
X324530Y429302D01*
X324610Y429416D01*
X324687Y429533D01*
X324760Y429652D01*
X324830Y429773D01*
X324896Y429896D01*
X324959Y430021D01*
X325019Y430148D01*
X325074Y430276D01*
X325126Y430405D01*
X325175Y430537D01*
X325220Y430669D01*
X325261Y430803D01*
X325298Y430937D01*
X325331Y431073D01*
X325360Y431210D01*
X325386Y431347D01*
X325408Y431485D01*
X325425Y431624D01*
X325439Y431763D01*
X325449Y431903D01*
X325455Y432042D01*
X325457Y432182D01*
X324469Y441072D02*
X324467Y441196D01*
X324461Y441320D01*
X324451Y441444D01*
X324438Y441567D01*
X324420Y441690D01*
X324399Y441812D01*
X324374Y441934D01*
X324345Y442055D01*
X324312Y442174D01*
X324276Y442293D01*
X324235Y442410D01*
X324192Y442526D01*
X324144Y442641D01*
X324093Y442754D01*
X324038Y442866D01*
X323980Y442975D01*
X323919Y443083D01*
X323854Y443189D01*
X323786Y443293D01*
X323714Y443394D01*
X323640Y443494D01*
X323562Y443590D01*
X323482Y443685D01*
X323398Y443777D01*
X323312Y443866D01*
X323223Y443952D01*
X323131Y444036D01*
X323036Y444116D01*
X322940Y444194D01*
X322840Y444268D01*
X322739Y444340D01*
X322635Y444408D01*
X322529Y444473D01*
X322421Y444534D01*
X322312Y444592D01*
X322200Y444647D01*
X322087Y444698D01*
X321972Y444746D01*
X321856Y444789D01*
X321739Y444830D01*
X321620Y444866D01*
X321501Y444899D01*
X321380Y444928D01*
X321258Y444953D01*
X321136Y444974D01*
X321013Y444992D01*
X320890Y445005D01*
X320766Y445015D01*
X320642Y445021D01*
X320518Y445023D01*
X320394Y445021D01*
X320270Y445015D01*
X320146Y445005D01*
X320023Y444992D01*
X319900Y444974D01*
X319778Y444953D01*
X319656Y444928D01*
X319535Y444899D01*
X319416Y444866D01*
X319297Y444830D01*
X319180Y444789D01*
X319064Y444746D01*
X318949Y444698D01*
X318836Y444647D01*
X318724Y444592D01*
X318615Y444534D01*
X318507Y444473D01*
X318401Y444408D01*
X318297Y444340D01*
X318196Y444268D01*
X318096Y444194D01*
X318000Y444116D01*
X317905Y444036D01*
X317813Y443952D01*
X317724Y443866D01*
X317638Y443777D01*
X317554Y443685D01*
X317474Y443590D01*
X317396Y443494D01*
X317322Y443394D01*
X317250Y443293D01*
X317182Y443189D01*
X317117Y443083D01*
X317056Y442975D01*
X316998Y442866D01*
X316943Y442754D01*
X316892Y442641D01*
X316844Y442526D01*
X316801Y442410D01*
X316760Y442293D01*
X316724Y442174D01*
X316691Y442055D01*
X316662Y441934D01*
X316637Y441812D01*
X316616Y441690D01*
X316598Y441567D01*
X316585Y441444D01*
X316575Y441320D01*
X316569Y441196D01*
X316567Y441072D01*
X316569Y440948D01*
X316575Y440824D01*
X316585Y440700D01*
X316598Y440577D01*
X316616Y440454D01*
X316637Y440332D01*
X316662Y440210D01*
X316691Y440089D01*
X316724Y439970D01*
X316760Y439851D01*
X316801Y439734D01*
X316844Y439618D01*
X316892Y439503D01*
X316943Y439390D01*
X316998Y439278D01*
X317056Y439169D01*
X317117Y439061D01*
X317182Y438955D01*
X317250Y438851D01*
X317322Y438750D01*
X317396Y438650D01*
X317474Y438554D01*
X317554Y438459D01*
X317638Y438367D01*
X317724Y438278D01*
X317813Y438192D01*
X317905Y438108D01*
X318000Y438028D01*
X318096Y437950D01*
X318196Y437876D01*
X318297Y437804D01*
X318401Y437736D01*
X318507Y437671D01*
X318615Y437610D01*
X318724Y437552D01*
X318836Y437497D01*
X318949Y437446D01*
X319064Y437398D01*
X319180Y437355D01*
X319297Y437314D01*
X319416Y437278D01*
X319535Y437245D01*
X319656Y437216D01*
X319778Y437191D01*
X319900Y437170D01*
X320023Y437152D01*
X320146Y437139D01*
X320270Y437129D01*
X320394Y437123D01*
X320518Y437121D01*
X320642Y437123D01*
X320766Y437129D01*
X320890Y437139D01*
X321013Y437152D01*
X321136Y437170D01*
X321258Y437191D01*
X321380Y437216D01*
X321501Y437245D01*
X321620Y437278D01*
X321739Y437314D01*
X321856Y437355D01*
X321972Y437398D01*
X322087Y437446D01*
X322200Y437497D01*
X322312Y437552D01*
X322421Y437610D01*
X322529Y437671D01*
X322635Y437736D01*
X322739Y437804D01*
X322840Y437876D01*
X322940Y437950D01*
X323036Y438028D01*
X323131Y438108D01*
X323223Y438192D01*
X323312Y438278D01*
X323398Y438367D01*
X323482Y438459D01*
X323562Y438554D01*
X323640Y438650D01*
X323714Y438750D01*
X323786Y438851D01*
X323854Y438955D01*
X323919Y439061D01*
X323980Y439169D01*
X324038Y439278D01*
X324093Y439390D01*
X324144Y439503D01*
X324192Y439618D01*
X324235Y439734D01*
X324276Y439851D01*
X324312Y439970D01*
X324345Y440089D01*
X324374Y440210D01*
X324399Y440332D01*
X324420Y440454D01*
X324438Y440577D01*
X324451Y440700D01*
X324461Y440824D01*
X324467Y440948D01*
X324469Y441072D01*
X308706Y436133D02*
X308702Y436483D01*
X308689Y436832D01*
X308668Y437181D01*
X308639Y437530D01*
X308602Y437878D01*
X308556Y438225D01*
X308502Y438570D01*
X308440Y438914D01*
X308369Y439257D01*
X308290Y439598D01*
X308204Y439937D01*
X308109Y440273D01*
X308006Y440608D01*
X307895Y440939D01*
X307777Y441269D01*
X307650Y441595D01*
X307516Y441918D01*
X307374Y442237D01*
X307224Y442554D01*
X307225Y442554D02*
X307185Y442667D01*
X307141Y442777D01*
X307093Y442887D01*
X307042Y442994D01*
X306987Y443100D01*
X306929Y443205D01*
X306867Y443307D01*
X306802Y443407D01*
X306734Y443505D01*
X306663Y443601D01*
X306588Y443694D01*
X306511Y443785D01*
X306431Y443873D01*
X306348Y443958D01*
X306262Y444041D01*
X306173Y444121D01*
X306082Y444198D01*
X305988Y444272D01*
X305892Y444343D01*
X305794Y444411D01*
X305694Y444475D01*
X305591Y444537D01*
X305487Y444594D01*
X305381Y444649D01*
X305273Y444700D01*
X305163Y444747D01*
X305052Y444791D01*
X304940Y444831D01*
X304826Y444867D01*
X304712Y444900D01*
X304596Y444929D01*
X304479Y444954D01*
X304362Y444975D01*
X304244Y444993D01*
X304125Y445006D01*
X304006Y445016D01*
X303887Y445022D01*
X303768Y445024D01*
X303768Y445023D02*
X303649Y445021D01*
X303530Y445015D01*
X303411Y445005D01*
X303292Y444992D01*
X303174Y444974D01*
X303057Y444953D01*
X302940Y444928D01*
X302824Y444899D01*
X302710Y444866D01*
X302596Y444830D01*
X302484Y444790D01*
X302373Y444746D01*
X302263Y444699D01*
X302155Y444648D01*
X302049Y444593D01*
X301945Y444536D01*
X301842Y444474D01*
X301742Y444410D01*
X301644Y444342D01*
X301548Y444271D01*
X301454Y444197D01*
X301363Y444120D01*
X301274Y444040D01*
X301189Y443957D01*
X301105Y443872D01*
X301025Y443784D01*
X300948Y443693D01*
X300873Y443600D01*
X300802Y443504D01*
X300734Y443406D01*
X300669Y443306D01*
X300607Y443204D01*
X300549Y443099D01*
X300494Y442994D01*
X300443Y442886D01*
X300395Y442776D01*
X300351Y442666D01*
X300311Y442553D01*
X300311Y442554D02*
X300161Y442237D01*
X300019Y441918D01*
X299885Y441595D01*
X299758Y441269D01*
X299640Y440939D01*
X299529Y440608D01*
X299426Y440273D01*
X299331Y439937D01*
X299245Y439598D01*
X299166Y439257D01*
X299095Y438914D01*
X299033Y438570D01*
X298979Y438225D01*
X298933Y437878D01*
X298896Y437530D01*
X298867Y437181D01*
X298846Y436832D01*
X298833Y436483D01*
X298829Y436133D01*
X308706Y436133D02*
X308702Y435783D01*
X308689Y435434D01*
X308668Y435085D01*
X308639Y434736D01*
X308602Y434388D01*
X308556Y434041D01*
X308502Y433696D01*
X308440Y433352D01*
X308369Y433009D01*
X308290Y432668D01*
X308204Y432329D01*
X308109Y431993D01*
X308006Y431658D01*
X307895Y431327D01*
X307777Y430998D01*
X307650Y430671D01*
X307516Y430348D01*
X307374Y430029D01*
X307224Y429713D01*
X307225Y429713D02*
X307185Y429600D01*
X307141Y429490D01*
X307093Y429380D01*
X307042Y429273D01*
X306987Y429167D01*
X306929Y429062D01*
X306867Y428960D01*
X306802Y428860D01*
X306734Y428762D01*
X306663Y428666D01*
X306588Y428573D01*
X306511Y428482D01*
X306431Y428394D01*
X306348Y428309D01*
X306262Y428226D01*
X306173Y428146D01*
X306082Y428069D01*
X305988Y427995D01*
X305892Y427924D01*
X305794Y427856D01*
X305694Y427792D01*
X305591Y427730D01*
X305487Y427673D01*
X305381Y427618D01*
X305273Y427567D01*
X305163Y427520D01*
X305052Y427476D01*
X304940Y427436D01*
X304826Y427400D01*
X304712Y427367D01*
X304596Y427338D01*
X304479Y427313D01*
X304362Y427292D01*
X304244Y427274D01*
X304125Y427261D01*
X304006Y427251D01*
X303887Y427245D01*
X303768Y427243D01*
X300311Y429713D02*
X300161Y430029D01*
X300019Y430348D01*
X299885Y430671D01*
X299758Y430998D01*
X299640Y431327D01*
X299529Y431658D01*
X299426Y431993D01*
X299331Y432329D01*
X299245Y432668D01*
X299166Y433009D01*
X299095Y433352D01*
X299033Y433696D01*
X298979Y434041D01*
X298933Y434388D01*
X298896Y434736D01*
X298867Y435085D01*
X298846Y435434D01*
X298833Y435783D01*
X298829Y436133D01*
X300311Y429713D02*
X300351Y429600D01*
X300395Y429490D01*
X300443Y429380D01*
X300494Y429272D01*
X300549Y429166D01*
X300607Y429062D01*
X300669Y428960D01*
X300734Y428860D01*
X300802Y428762D01*
X300873Y428666D01*
X300948Y428573D01*
X301025Y428482D01*
X301105Y428394D01*
X301189Y428309D01*
X301274Y428226D01*
X301363Y428146D01*
X301454Y428069D01*
X301548Y427995D01*
X301644Y427924D01*
X301742Y427856D01*
X301842Y427792D01*
X301945Y427730D01*
X302049Y427672D01*
X302155Y427618D01*
X302263Y427567D01*
X302373Y427520D01*
X302484Y427476D01*
X302596Y427436D01*
X302710Y427400D01*
X302824Y427367D01*
X302940Y427338D01*
X303057Y427313D01*
X303174Y427292D01*
X303292Y427274D01*
X303411Y427261D01*
X303530Y427251D01*
X303649Y427245D01*
X303768Y427243D01*
X307719Y431194D02*
X299816Y441072D01*
D11*
X387391Y475249D02*
X391793Y488457D01*
X382988Y488457D02*
X387391Y475249D01*
X378804Y473782D02*
X372934Y489925D01*
X366908Y488457D02*
X366908Y475249D01*
X365441Y475249D02*
X368376Y475249D01*
X368376Y488457D02*
X365441Y488457D01*
X360216Y480386D02*
X351411Y480386D01*
X355813Y484788D02*
X355813Y475983D01*
X336591Y475249D02*
X340993Y488457D01*
X332188Y488457D02*
X336591Y475249D01*
X328004Y473782D02*
X322134Y489925D01*
X316108Y488457D02*
X316108Y475249D01*
X314641Y475249D02*
X317576Y475249D01*
X317576Y488457D02*
X314641Y488457D01*
X309416Y480386D02*
X300611Y480386D01*
D12*
X318382Y265902D02*
X322686Y262459D01*
X318382Y265902D02*
X318382Y250408D01*
X322686Y250408D02*
X314078Y250408D01*
X307820Y250408D02*
X302655Y250408D01*
X302655Y250409D02*
X302540Y250411D01*
X302425Y250417D01*
X302310Y250426D01*
X302196Y250440D01*
X302082Y250457D01*
X301969Y250478D01*
X301857Y250503D01*
X301745Y250531D01*
X301635Y250564D01*
X301526Y250600D01*
X301418Y250639D01*
X301311Y250682D01*
X301206Y250729D01*
X301102Y250779D01*
X301000Y250833D01*
X300900Y250890D01*
X300802Y250950D01*
X300706Y251013D01*
X300613Y251080D01*
X300521Y251150D01*
X300432Y251223D01*
X300345Y251298D01*
X300261Y251377D01*
X300180Y251458D01*
X300101Y251542D01*
X300026Y251629D01*
X299953Y251718D01*
X299883Y251810D01*
X299816Y251903D01*
X299753Y251999D01*
X299693Y252097D01*
X299636Y252197D01*
X299582Y252299D01*
X299532Y252403D01*
X299485Y252508D01*
X299442Y252615D01*
X299403Y252723D01*
X299367Y252832D01*
X299334Y252942D01*
X299306Y253054D01*
X299281Y253166D01*
X299260Y253279D01*
X299243Y253393D01*
X299229Y253507D01*
X299220Y253622D01*
X299214Y253737D01*
X299212Y253852D01*
X299212Y255573D01*
X299214Y255688D01*
X299220Y255803D01*
X299229Y255918D01*
X299243Y256032D01*
X299260Y256146D01*
X299281Y256259D01*
X299306Y256371D01*
X299334Y256483D01*
X299367Y256593D01*
X299403Y256702D01*
X299442Y256810D01*
X299485Y256917D01*
X299532Y257022D01*
X299582Y257126D01*
X299636Y257228D01*
X299693Y257328D01*
X299753Y257426D01*
X299816Y257522D01*
X299883Y257615D01*
X299953Y257707D01*
X300026Y257796D01*
X300102Y257883D01*
X300180Y257967D01*
X300261Y258048D01*
X300346Y258127D01*
X300432Y258202D01*
X300521Y258275D01*
X300613Y258345D01*
X300706Y258412D01*
X300802Y258475D01*
X300900Y258535D01*
X301000Y258592D01*
X301102Y258646D01*
X301206Y258696D01*
X301311Y258743D01*
X301418Y258786D01*
X301526Y258826D01*
X301635Y258861D01*
X301745Y258894D01*
X301857Y258922D01*
X301969Y258947D01*
X302082Y258968D01*
X302196Y258985D01*
X302310Y258999D01*
X302425Y259008D01*
X302540Y259014D01*
X302655Y259016D01*
X307820Y259016D01*
X307820Y265902D01*
X299212Y265902D01*
X293815Y265902D02*
X288650Y250408D01*
X283486Y265902D01*
D11*
X347637Y254587D02*
X347637Y252385D01*
X347637Y254587D02*
X340299Y254587D01*
X340299Y250184D01*
X340301Y250077D01*
X340307Y249970D01*
X340317Y249863D01*
X340330Y249757D01*
X340348Y249651D01*
X340369Y249546D01*
X340394Y249442D01*
X340423Y249338D01*
X340456Y249236D01*
X340493Y249136D01*
X340533Y249036D01*
X340577Y248938D01*
X340624Y248842D01*
X340675Y248748D01*
X340729Y248655D01*
X340786Y248565D01*
X340847Y248476D01*
X340911Y248390D01*
X340978Y248307D01*
X341048Y248225D01*
X341121Y248147D01*
X341197Y248071D01*
X341275Y247998D01*
X341357Y247928D01*
X341440Y247861D01*
X341526Y247797D01*
X341615Y247736D01*
X341705Y247679D01*
X341798Y247625D01*
X341892Y247574D01*
X341988Y247527D01*
X342086Y247483D01*
X342186Y247443D01*
X342286Y247406D01*
X342388Y247373D01*
X342492Y247344D01*
X342596Y247319D01*
X342701Y247298D01*
X342807Y247280D01*
X342913Y247267D01*
X343020Y247257D01*
X343127Y247251D01*
X343234Y247249D01*
X350572Y247249D01*
X350679Y247251D01*
X350786Y247257D01*
X350893Y247267D01*
X350999Y247280D01*
X351105Y247298D01*
X351210Y247319D01*
X351314Y247344D01*
X351418Y247373D01*
X351520Y247406D01*
X351620Y247443D01*
X351720Y247483D01*
X351818Y247527D01*
X351914Y247574D01*
X352008Y247625D01*
X352101Y247679D01*
X352191Y247736D01*
X352280Y247797D01*
X352366Y247861D01*
X352449Y247928D01*
X352531Y247998D01*
X352609Y248071D01*
X352685Y248147D01*
X352758Y248225D01*
X352828Y248307D01*
X352895Y248390D01*
X352959Y248476D01*
X353020Y248565D01*
X353077Y248655D01*
X353131Y248748D01*
X353182Y248842D01*
X353229Y248938D01*
X353273Y249036D01*
X353313Y249136D01*
X353350Y249236D01*
X353383Y249338D01*
X353412Y249442D01*
X353437Y249546D01*
X353458Y249651D01*
X353476Y249757D01*
X353489Y249863D01*
X353499Y249970D01*
X353505Y250077D01*
X353507Y250184D01*
X353507Y254587D01*
X353507Y260904D02*
X340299Y260904D01*
X340299Y268242D02*
X353507Y260904D01*
X353507Y268242D02*
X340299Y268242D01*
X340299Y274559D02*
X353507Y274559D01*
X353507Y278228D01*
X353505Y278348D01*
X353499Y278468D01*
X353489Y278588D01*
X353476Y278707D01*
X353458Y278826D01*
X353437Y278944D01*
X353411Y279061D01*
X353382Y279178D01*
X353349Y279293D01*
X353312Y279407D01*
X353272Y279520D01*
X353228Y279632D01*
X353180Y279742D01*
X353129Y279851D01*
X353074Y279958D01*
X353015Y280063D01*
X352954Y280165D01*
X352889Y280266D01*
X352820Y280365D01*
X352749Y280462D01*
X352674Y280556D01*
X352597Y280647D01*
X352516Y280736D01*
X352432Y280822D01*
X352346Y280906D01*
X352257Y280987D01*
X352166Y281064D01*
X352072Y281139D01*
X351975Y281210D01*
X351876Y281279D01*
X351775Y281344D01*
X351673Y281405D01*
X351568Y281464D01*
X351461Y281519D01*
X351352Y281570D01*
X351242Y281618D01*
X351130Y281662D01*
X351017Y281702D01*
X350903Y281739D01*
X350788Y281772D01*
X350671Y281801D01*
X350554Y281827D01*
X350436Y281848D01*
X350317Y281866D01*
X350198Y281879D01*
X350078Y281889D01*
X349958Y281895D01*
X349838Y281897D01*
X343968Y281897D01*
X343848Y281895D01*
X343728Y281889D01*
X343608Y281879D01*
X343489Y281866D01*
X343370Y281848D01*
X343252Y281827D01*
X343135Y281801D01*
X343018Y281772D01*
X342903Y281739D01*
X342789Y281702D01*
X342676Y281662D01*
X342564Y281618D01*
X342454Y281570D01*
X342345Y281519D01*
X342238Y281464D01*
X342134Y281405D01*
X342031Y281344D01*
X341930Y281279D01*
X341831Y281210D01*
X341734Y281139D01*
X341640Y281064D01*
X341549Y280987D01*
X341460Y280906D01*
X341374Y280822D01*
X341290Y280736D01*
X341209Y280647D01*
X341132Y280556D01*
X341057Y280462D01*
X340986Y280365D01*
X340917Y280266D01*
X340852Y280165D01*
X340791Y280063D01*
X340732Y279958D01*
X340677Y279851D01*
X340626Y279742D01*
X340578Y279632D01*
X340534Y279520D01*
X340494Y279407D01*
X340457Y279293D01*
X340424Y279178D01*
X340395Y279061D01*
X340369Y278944D01*
X340348Y278826D01*
X340330Y278707D01*
X340317Y278588D01*
X340307Y278468D01*
X340301Y278348D01*
X340299Y278228D01*
X340299Y274559D01*
D12*
X397033Y266024D02*
X401337Y262581D01*
X397033Y266024D02*
X397033Y250530D01*
X401337Y250530D02*
X392729Y250530D01*
X386471Y250530D02*
X381306Y250530D01*
X381191Y250532D01*
X381076Y250538D01*
X380961Y250547D01*
X380847Y250561D01*
X380733Y250578D01*
X380620Y250599D01*
X380508Y250624D01*
X380396Y250652D01*
X380286Y250685D01*
X380177Y250721D01*
X380069Y250760D01*
X379962Y250803D01*
X379857Y250850D01*
X379753Y250900D01*
X379651Y250954D01*
X379551Y251011D01*
X379453Y251071D01*
X379357Y251134D01*
X379264Y251201D01*
X379172Y251271D01*
X379083Y251344D01*
X378996Y251419D01*
X378912Y251498D01*
X378831Y251579D01*
X378752Y251663D01*
X378677Y251750D01*
X378604Y251839D01*
X378534Y251931D01*
X378467Y252024D01*
X378404Y252120D01*
X378344Y252218D01*
X378287Y252318D01*
X378233Y252420D01*
X378183Y252524D01*
X378136Y252629D01*
X378093Y252736D01*
X378054Y252844D01*
X378018Y252953D01*
X377985Y253063D01*
X377957Y253175D01*
X377932Y253287D01*
X377911Y253400D01*
X377894Y253514D01*
X377880Y253628D01*
X377871Y253743D01*
X377865Y253858D01*
X377863Y253973D01*
X377863Y255695D01*
X377865Y255810D01*
X377871Y255925D01*
X377880Y256040D01*
X377894Y256154D01*
X377911Y256268D01*
X377932Y256381D01*
X377957Y256493D01*
X377985Y256605D01*
X378018Y256715D01*
X378054Y256824D01*
X378093Y256932D01*
X378136Y257039D01*
X378183Y257144D01*
X378233Y257248D01*
X378287Y257350D01*
X378344Y257450D01*
X378404Y257548D01*
X378467Y257644D01*
X378534Y257737D01*
X378604Y257829D01*
X378677Y257918D01*
X378753Y258005D01*
X378831Y258089D01*
X378912Y258170D01*
X378997Y258249D01*
X379083Y258324D01*
X379172Y258397D01*
X379264Y258467D01*
X379357Y258534D01*
X379453Y258597D01*
X379551Y258657D01*
X379651Y258714D01*
X379753Y258768D01*
X379857Y258818D01*
X379962Y258865D01*
X380069Y258908D01*
X380177Y258948D01*
X380286Y258983D01*
X380396Y259016D01*
X380508Y259044D01*
X380620Y259069D01*
X380733Y259090D01*
X380847Y259107D01*
X380961Y259121D01*
X381076Y259130D01*
X381191Y259136D01*
X381306Y259138D01*
X386471Y259138D01*
X386471Y266024D01*
X377863Y266024D01*
X372466Y266024D02*
X367301Y250530D01*
X362137Y266024D01*
D10*
X273669Y447901D02*
X268730Y447901D01*
X268590Y447899D01*
X268451Y447893D01*
X268311Y447883D01*
X268172Y447869D01*
X268033Y447852D01*
X267895Y447830D01*
X267758Y447804D01*
X267621Y447775D01*
X267485Y447742D01*
X267351Y447705D01*
X267217Y447664D01*
X267085Y447619D01*
X266953Y447570D01*
X266824Y447518D01*
X266696Y447463D01*
X266569Y447403D01*
X266444Y447340D01*
X266321Y447274D01*
X266200Y447204D01*
X266081Y447131D01*
X265964Y447054D01*
X265850Y446974D01*
X265737Y446891D01*
X265627Y446805D01*
X265520Y446715D01*
X265415Y446623D01*
X265313Y446528D01*
X265213Y446430D01*
X265116Y446329D01*
X265022Y446225D01*
X264932Y446119D01*
X264844Y446010D01*
X264759Y445899D01*
X264678Y445785D01*
X264599Y445670D01*
X264524Y445552D01*
X264453Y445432D01*
X264385Y445309D01*
X264320Y445186D01*
X264259Y445060D01*
X264201Y444932D01*
X264147Y444804D01*
X264097Y444673D01*
X264050Y444541D01*
X264007Y444408D01*
X263968Y444274D01*
X263933Y444139D01*
X263902Y444003D01*
X263874Y443865D01*
X263851Y443728D01*
X263831Y443589D01*
X263815Y443450D01*
X263803Y443311D01*
X263795Y443172D01*
X263791Y443032D01*
X263791Y442892D01*
X263795Y442752D01*
X263803Y442613D01*
X263815Y442474D01*
X263831Y442335D01*
X263851Y442196D01*
X263874Y442059D01*
X263902Y441921D01*
X263933Y441785D01*
X263968Y441650D01*
X264007Y441516D01*
X264050Y441383D01*
X264097Y441251D01*
X264147Y441120D01*
X264201Y440992D01*
X264259Y440864D01*
X264320Y440738D01*
X264385Y440615D01*
X264453Y440493D01*
X264524Y440372D01*
X264599Y440254D01*
X264678Y440139D01*
X264759Y440025D01*
X264844Y439914D01*
X264932Y439805D01*
X265022Y439699D01*
X265116Y439595D01*
X265213Y439494D01*
X265313Y439396D01*
X265415Y439301D01*
X265520Y439209D01*
X265627Y439119D01*
X265737Y439033D01*
X265850Y438950D01*
X265964Y438870D01*
X266081Y438793D01*
X266200Y438720D01*
X266321Y438650D01*
X266444Y438584D01*
X266569Y438521D01*
X266696Y438461D01*
X266824Y438406D01*
X266953Y438354D01*
X267085Y438305D01*
X267217Y438260D01*
X267351Y438219D01*
X267485Y438182D01*
X267621Y438149D01*
X267758Y438120D01*
X267895Y438094D01*
X268033Y438072D01*
X268172Y438055D01*
X268311Y438041D01*
X268451Y438031D01*
X268590Y438025D01*
X268730Y438023D01*
X273669Y438023D01*
X273669Y455803D01*
X268730Y455803D01*
X268606Y455801D01*
X268482Y455795D01*
X268358Y455785D01*
X268235Y455772D01*
X268112Y455754D01*
X267990Y455733D01*
X267868Y455708D01*
X267747Y455679D01*
X267628Y455646D01*
X267509Y455610D01*
X267392Y455569D01*
X267276Y455526D01*
X267161Y455478D01*
X267048Y455427D01*
X266936Y455372D01*
X266827Y455314D01*
X266719Y455253D01*
X266613Y455188D01*
X266509Y455120D01*
X266408Y455048D01*
X266308Y454974D01*
X266212Y454896D01*
X266117Y454816D01*
X266025Y454732D01*
X265936Y454646D01*
X265850Y454557D01*
X265766Y454465D01*
X265686Y454370D01*
X265608Y454274D01*
X265534Y454174D01*
X265462Y454073D01*
X265394Y453969D01*
X265329Y453863D01*
X265268Y453755D01*
X265210Y453646D01*
X265155Y453534D01*
X265104Y453421D01*
X265056Y453306D01*
X265013Y453190D01*
X264972Y453073D01*
X264936Y452954D01*
X264903Y452835D01*
X264874Y452714D01*
X264849Y452592D01*
X264828Y452470D01*
X264810Y452347D01*
X264797Y452224D01*
X264787Y452100D01*
X264781Y451976D01*
X264779Y451852D01*
X264781Y451728D01*
X264787Y451604D01*
X264797Y451480D01*
X264810Y451357D01*
X264828Y451234D01*
X264849Y451112D01*
X264874Y450990D01*
X264903Y450869D01*
X264936Y450750D01*
X264972Y450631D01*
X265013Y450514D01*
X265056Y450398D01*
X265104Y450283D01*
X265155Y450170D01*
X265210Y450058D01*
X265268Y449949D01*
X265329Y449841D01*
X265394Y449735D01*
X265462Y449631D01*
X265534Y449530D01*
X265608Y449430D01*
X265686Y449334D01*
X265766Y449239D01*
X265850Y449147D01*
X265936Y449058D01*
X266025Y448972D01*
X266117Y448888D01*
X266212Y448808D01*
X266308Y448730D01*
X266408Y448656D01*
X266509Y448584D01*
X266613Y448516D01*
X266719Y448451D01*
X266827Y448390D01*
X266936Y448332D01*
X267048Y448277D01*
X267161Y448226D01*
X267276Y448178D01*
X267392Y448135D01*
X267509Y448094D01*
X267628Y448058D01*
X267747Y448025D01*
X267868Y447996D01*
X267990Y447971D01*
X268112Y447950D01*
X268235Y447932D01*
X268358Y447919D01*
X268482Y447909D01*
X268606Y447903D01*
X268730Y447901D01*
X268924Y415354D02*
X264973Y415354D01*
X268924Y415354D02*
X269048Y415356D01*
X269172Y415362D01*
X269296Y415372D01*
X269419Y415385D01*
X269542Y415403D01*
X269664Y415424D01*
X269786Y415449D01*
X269907Y415478D01*
X270026Y415511D01*
X270145Y415547D01*
X270262Y415588D01*
X270378Y415631D01*
X270493Y415679D01*
X270606Y415730D01*
X270718Y415785D01*
X270827Y415843D01*
X270935Y415904D01*
X271041Y415969D01*
X271145Y416037D01*
X271246Y416109D01*
X271346Y416183D01*
X271442Y416261D01*
X271537Y416341D01*
X271629Y416425D01*
X271718Y416511D01*
X271804Y416600D01*
X271888Y416692D01*
X271968Y416787D01*
X272046Y416883D01*
X272120Y416983D01*
X272192Y417084D01*
X272260Y417188D01*
X272325Y417294D01*
X272386Y417402D01*
X272444Y417511D01*
X272499Y417623D01*
X272550Y417736D01*
X272598Y417851D01*
X272641Y417967D01*
X272682Y418084D01*
X272718Y418203D01*
X272751Y418322D01*
X272780Y418443D01*
X272805Y418565D01*
X272826Y418687D01*
X272844Y418810D01*
X272857Y418933D01*
X272867Y419057D01*
X272873Y419181D01*
X272875Y419305D01*
X272875Y429182D01*
X272873Y429306D01*
X272867Y429430D01*
X272857Y429554D01*
X272844Y429677D01*
X272826Y429800D01*
X272805Y429922D01*
X272780Y430044D01*
X272751Y430165D01*
X272718Y430284D01*
X272682Y430403D01*
X272641Y430520D01*
X272598Y430636D01*
X272550Y430751D01*
X272499Y430864D01*
X272444Y430976D01*
X272386Y431085D01*
X272325Y431193D01*
X272260Y431299D01*
X272192Y431403D01*
X272120Y431504D01*
X272046Y431604D01*
X271968Y431700D01*
X271888Y431795D01*
X271804Y431887D01*
X271718Y431976D01*
X271629Y432062D01*
X271537Y432146D01*
X271442Y432226D01*
X271346Y432304D01*
X271246Y432378D01*
X271145Y432450D01*
X271041Y432518D01*
X270935Y432583D01*
X270827Y432644D01*
X270718Y432702D01*
X270606Y432757D01*
X270493Y432808D01*
X270379Y432856D01*
X270262Y432899D01*
X270145Y432940D01*
X270026Y432976D01*
X269907Y433009D01*
X269786Y433038D01*
X269664Y433063D01*
X269542Y433084D01*
X269419Y433102D01*
X269296Y433115D01*
X269172Y433125D01*
X269048Y433131D01*
X268924Y433133D01*
X268924Y433134D02*
X264973Y433134D01*
X273859Y408343D02*
X273859Y390563D01*
X273859Y408343D02*
X268920Y408343D01*
X268781Y408341D01*
X268643Y408335D01*
X268505Y408326D01*
X268367Y408312D01*
X268230Y408295D01*
X268093Y408273D01*
X267956Y408248D01*
X267821Y408219D01*
X267686Y408186D01*
X267553Y408150D01*
X267420Y408110D01*
X267289Y408066D01*
X267159Y408018D01*
X267030Y407967D01*
X266903Y407912D01*
X266777Y407854D01*
X266653Y407792D01*
X266531Y407727D01*
X266411Y407658D01*
X266292Y407586D01*
X266176Y407511D01*
X266062Y407432D01*
X265950Y407350D01*
X265841Y407265D01*
X265733Y407178D01*
X265629Y407087D01*
X265527Y406993D01*
X265428Y406896D01*
X265331Y406797D01*
X265237Y406695D01*
X265146Y406591D01*
X265059Y406483D01*
X264974Y406374D01*
X264892Y406262D01*
X264813Y406148D01*
X264738Y406032D01*
X264666Y405913D01*
X264597Y405793D01*
X264532Y405671D01*
X264470Y405547D01*
X264412Y405421D01*
X264357Y405294D01*
X264306Y405165D01*
X264258Y405035D01*
X264214Y404904D01*
X264174Y404771D01*
X264138Y404638D01*
X264105Y404503D01*
X264076Y404368D01*
X264051Y404231D01*
X264029Y404094D01*
X264012Y403957D01*
X263998Y403819D01*
X263989Y403681D01*
X263983Y403543D01*
X263981Y403404D01*
X263981Y395502D01*
X263983Y395363D01*
X263989Y395225D01*
X263998Y395087D01*
X264012Y394949D01*
X264029Y394812D01*
X264051Y394675D01*
X264076Y394538D01*
X264105Y394403D01*
X264138Y394268D01*
X264174Y394135D01*
X264214Y394002D01*
X264258Y393871D01*
X264306Y393741D01*
X264357Y393612D01*
X264412Y393485D01*
X264470Y393359D01*
X264532Y393235D01*
X264597Y393113D01*
X264666Y392993D01*
X264738Y392874D01*
X264813Y392758D01*
X264892Y392644D01*
X264974Y392532D01*
X265059Y392423D01*
X265146Y392315D01*
X265237Y392211D01*
X265331Y392109D01*
X265428Y392010D01*
X265527Y391913D01*
X265629Y391819D01*
X265733Y391728D01*
X265841Y391641D01*
X265950Y391556D01*
X266062Y391474D01*
X266176Y391395D01*
X266292Y391320D01*
X266411Y391248D01*
X266531Y391179D01*
X266653Y391114D01*
X266777Y391052D01*
X266903Y390994D01*
X267030Y390939D01*
X267159Y390888D01*
X267289Y390840D01*
X267420Y390796D01*
X267553Y390756D01*
X267686Y390720D01*
X267821Y390687D01*
X267956Y390658D01*
X268093Y390633D01*
X268230Y390611D01*
X268367Y390594D01*
X268505Y390580D01*
X268643Y390571D01*
X268781Y390565D01*
X268920Y390563D01*
X273859Y390563D01*
D12*
X401178Y256556D02*
X411508Y256556D01*
X406343Y261720D02*
X406343Y251391D01*
X334514Y257350D02*
X324184Y257350D01*
D13*
X471002Y374418D02*
X473090Y374418D01*
X473090Y374419D02*
X473179Y374421D01*
X473267Y374427D01*
X473355Y374436D01*
X473443Y374449D01*
X473530Y374466D01*
X473616Y374486D01*
X473701Y374511D01*
X473786Y374538D01*
X473869Y374570D01*
X473950Y374604D01*
X474030Y374643D01*
X474108Y374684D01*
X474185Y374729D01*
X474259Y374777D01*
X474332Y374828D01*
X474402Y374882D01*
X474469Y374940D01*
X474535Y375000D01*
X474597Y375062D01*
X474657Y375128D01*
X474715Y375195D01*
X474769Y375265D01*
X474820Y375338D01*
X474868Y375412D01*
X474913Y375489D01*
X474954Y375567D01*
X474993Y375647D01*
X475027Y375728D01*
X475059Y375811D01*
X475086Y375896D01*
X475111Y375981D01*
X475131Y376067D01*
X475148Y376154D01*
X475161Y376242D01*
X475170Y376330D01*
X475176Y376418D01*
X475178Y376507D01*
X475179Y376507D02*
X475179Y381728D01*
X475178Y381728D02*
X475176Y381817D01*
X475170Y381905D01*
X475161Y381993D01*
X475148Y382081D01*
X475131Y382168D01*
X475111Y382254D01*
X475086Y382339D01*
X475059Y382424D01*
X475027Y382507D01*
X474993Y382588D01*
X474954Y382668D01*
X474913Y382746D01*
X474868Y382823D01*
X474820Y382897D01*
X474769Y382970D01*
X474715Y383040D01*
X474657Y383107D01*
X474597Y383173D01*
X474535Y383235D01*
X474469Y383295D01*
X474402Y383353D01*
X474332Y383407D01*
X474259Y383458D01*
X474185Y383506D01*
X474108Y383551D01*
X474030Y383592D01*
X473950Y383631D01*
X473869Y383665D01*
X473786Y383697D01*
X473701Y383724D01*
X473616Y383749D01*
X473530Y383769D01*
X473443Y383786D01*
X473355Y383799D01*
X473267Y383808D01*
X473179Y383814D01*
X473090Y383816D01*
X471002Y383816D01*
X467533Y377029D02*
X467531Y377130D01*
X467525Y377231D01*
X467515Y377332D01*
X467502Y377432D01*
X467484Y377532D01*
X467463Y377631D01*
X467437Y377729D01*
X467408Y377826D01*
X467376Y377922D01*
X467339Y378016D01*
X467299Y378109D01*
X467255Y378201D01*
X467208Y378290D01*
X467157Y378378D01*
X467103Y378464D01*
X467046Y378547D01*
X466986Y378629D01*
X466922Y378707D01*
X466856Y378784D01*
X466786Y378857D01*
X466714Y378928D01*
X466639Y378996D01*
X466561Y379061D01*
X466481Y379123D01*
X466399Y379182D01*
X466314Y379238D01*
X466228Y379290D01*
X466139Y379339D01*
X466048Y379385D01*
X465956Y379426D01*
X465862Y379465D01*
X465767Y379499D01*
X465671Y379530D01*
X465573Y379557D01*
X465475Y379581D01*
X465375Y379600D01*
X465275Y379616D01*
X465175Y379628D01*
X465074Y379636D01*
X464973Y379640D01*
X464871Y379640D01*
X464770Y379636D01*
X464669Y379628D01*
X464569Y379616D01*
X464469Y379600D01*
X464369Y379581D01*
X464271Y379557D01*
X464173Y379530D01*
X464077Y379499D01*
X463982Y379465D01*
X463888Y379426D01*
X463796Y379385D01*
X463705Y379339D01*
X463617Y379290D01*
X463530Y379238D01*
X463445Y379182D01*
X463363Y379123D01*
X463283Y379061D01*
X463205Y378996D01*
X463130Y378928D01*
X463058Y378857D01*
X462988Y378784D01*
X462922Y378707D01*
X462858Y378629D01*
X462798Y378547D01*
X462741Y378464D01*
X462687Y378378D01*
X462636Y378290D01*
X462589Y378201D01*
X462545Y378109D01*
X462505Y378016D01*
X462468Y377922D01*
X462436Y377826D01*
X462407Y377729D01*
X462381Y377631D01*
X462360Y377532D01*
X462342Y377432D01*
X462329Y377332D01*
X462319Y377231D01*
X462313Y377130D01*
X462311Y377029D01*
X462313Y376928D01*
X462319Y376827D01*
X462329Y376726D01*
X462342Y376626D01*
X462360Y376526D01*
X462381Y376427D01*
X462407Y376329D01*
X462436Y376232D01*
X462468Y376136D01*
X462505Y376042D01*
X462545Y375949D01*
X462589Y375857D01*
X462636Y375768D01*
X462687Y375680D01*
X462741Y375594D01*
X462798Y375511D01*
X462858Y375429D01*
X462922Y375351D01*
X462988Y375274D01*
X463058Y375201D01*
X463130Y375130D01*
X463205Y375062D01*
X463283Y374997D01*
X463363Y374935D01*
X463445Y374876D01*
X463530Y374820D01*
X463617Y374768D01*
X463705Y374719D01*
X463796Y374673D01*
X463888Y374632D01*
X463982Y374593D01*
X464077Y374559D01*
X464173Y374528D01*
X464271Y374501D01*
X464369Y374477D01*
X464469Y374458D01*
X464569Y374442D01*
X464669Y374430D01*
X464770Y374422D01*
X464871Y374418D01*
X464973Y374418D01*
X465074Y374422D01*
X465175Y374430D01*
X465275Y374442D01*
X465375Y374458D01*
X465475Y374477D01*
X465573Y374501D01*
X465671Y374528D01*
X465767Y374559D01*
X465862Y374593D01*
X465956Y374632D01*
X466048Y374673D01*
X466139Y374719D01*
X466227Y374768D01*
X466314Y374820D01*
X466399Y374876D01*
X466481Y374935D01*
X466561Y374997D01*
X466639Y375062D01*
X466714Y375130D01*
X466786Y375201D01*
X466856Y375274D01*
X466922Y375351D01*
X466986Y375429D01*
X467046Y375511D01*
X467103Y375594D01*
X467157Y375680D01*
X467208Y375768D01*
X467255Y375857D01*
X467299Y375949D01*
X467339Y376042D01*
X467376Y376136D01*
X467408Y376232D01*
X467437Y376329D01*
X467463Y376427D01*
X467484Y376526D01*
X467502Y376626D01*
X467515Y376726D01*
X467525Y376827D01*
X467531Y376928D01*
X467533Y377029D01*
X467010Y381728D02*
X467008Y381818D01*
X467002Y381907D01*
X466993Y381997D01*
X466979Y382086D01*
X466962Y382174D01*
X466941Y382261D01*
X466916Y382348D01*
X466887Y382433D01*
X466855Y382517D01*
X466820Y382599D01*
X466780Y382680D01*
X466738Y382759D01*
X466692Y382836D01*
X466642Y382911D01*
X466590Y382984D01*
X466534Y383055D01*
X466476Y383123D01*
X466414Y383188D01*
X466350Y383251D01*
X466283Y383311D01*
X466214Y383368D01*
X466142Y383422D01*
X466068Y383473D01*
X465992Y383521D01*
X465914Y383565D01*
X465834Y383606D01*
X465752Y383644D01*
X465669Y383678D01*
X465584Y383708D01*
X465498Y383735D01*
X465412Y383758D01*
X465324Y383777D01*
X465235Y383792D01*
X465146Y383804D01*
X465057Y383812D01*
X464967Y383816D01*
X464877Y383816D01*
X464787Y383812D01*
X464698Y383804D01*
X464609Y383792D01*
X464520Y383777D01*
X464432Y383758D01*
X464346Y383735D01*
X464260Y383708D01*
X464175Y383678D01*
X464092Y383644D01*
X464010Y383606D01*
X463930Y383565D01*
X463852Y383521D01*
X463776Y383473D01*
X463702Y383422D01*
X463630Y383368D01*
X463561Y383311D01*
X463494Y383251D01*
X463430Y383188D01*
X463368Y383123D01*
X463310Y383055D01*
X463254Y382984D01*
X463202Y382911D01*
X463152Y382836D01*
X463106Y382759D01*
X463064Y382680D01*
X463024Y382599D01*
X462989Y382517D01*
X462957Y382433D01*
X462928Y382348D01*
X462903Y382261D01*
X462882Y382174D01*
X462865Y382086D01*
X462851Y381997D01*
X462842Y381907D01*
X462836Y381818D01*
X462834Y381728D01*
X462836Y381638D01*
X462842Y381549D01*
X462851Y381459D01*
X462865Y381370D01*
X462882Y381282D01*
X462903Y381195D01*
X462928Y381108D01*
X462957Y381023D01*
X462989Y380939D01*
X463024Y380857D01*
X463064Y380776D01*
X463106Y380697D01*
X463152Y380620D01*
X463202Y380545D01*
X463254Y380472D01*
X463310Y380401D01*
X463368Y380333D01*
X463430Y380268D01*
X463494Y380205D01*
X463561Y380145D01*
X463630Y380088D01*
X463702Y380034D01*
X463776Y379983D01*
X463852Y379935D01*
X463930Y379891D01*
X464010Y379850D01*
X464092Y379812D01*
X464175Y379778D01*
X464260Y379748D01*
X464346Y379721D01*
X464432Y379698D01*
X464520Y379679D01*
X464609Y379664D01*
X464698Y379652D01*
X464787Y379644D01*
X464877Y379640D01*
X464967Y379640D01*
X465057Y379644D01*
X465146Y379652D01*
X465235Y379664D01*
X465324Y379679D01*
X465412Y379698D01*
X465498Y379721D01*
X465584Y379748D01*
X465669Y379778D01*
X465752Y379812D01*
X465834Y379850D01*
X465914Y379891D01*
X465992Y379935D01*
X466068Y379983D01*
X466142Y380034D01*
X466214Y380088D01*
X466283Y380145D01*
X466350Y380205D01*
X466414Y380268D01*
X466476Y380333D01*
X466534Y380401D01*
X466590Y380472D01*
X466642Y380545D01*
X466692Y380620D01*
X466738Y380697D01*
X466780Y380776D01*
X466820Y380857D01*
X466855Y380939D01*
X466887Y381023D01*
X466916Y381108D01*
X466941Y381195D01*
X466962Y381282D01*
X466979Y381370D01*
X466993Y381459D01*
X467002Y381549D01*
X467008Y381638D01*
X467010Y381728D01*
D10*
X456695Y388809D02*
X436566Y388809D01*
D13*
X447979Y391623D02*
X450067Y391623D01*
X450156Y391625D01*
X450244Y391631D01*
X450332Y391640D01*
X450420Y391653D01*
X450507Y391670D01*
X450593Y391690D01*
X450678Y391715D01*
X450763Y391742D01*
X450846Y391774D01*
X450927Y391808D01*
X451007Y391847D01*
X451085Y391888D01*
X451162Y391933D01*
X451236Y391981D01*
X451309Y392032D01*
X451379Y392086D01*
X451446Y392144D01*
X451512Y392204D01*
X451574Y392266D01*
X451634Y392332D01*
X451692Y392399D01*
X451746Y392469D01*
X451797Y392542D01*
X451845Y392616D01*
X451890Y392693D01*
X451931Y392771D01*
X451970Y392851D01*
X452004Y392932D01*
X452036Y393015D01*
X452063Y393100D01*
X452088Y393185D01*
X452108Y393271D01*
X452125Y393358D01*
X452138Y393446D01*
X452147Y393534D01*
X452153Y393622D01*
X452155Y393711D01*
X452156Y393711D02*
X452156Y398933D01*
X452155Y398933D02*
X452153Y399022D01*
X452147Y399110D01*
X452138Y399198D01*
X452125Y399286D01*
X452108Y399373D01*
X452088Y399459D01*
X452063Y399544D01*
X452036Y399629D01*
X452004Y399712D01*
X451970Y399793D01*
X451931Y399873D01*
X451890Y399951D01*
X451845Y400028D01*
X451797Y400102D01*
X451746Y400175D01*
X451692Y400245D01*
X451634Y400312D01*
X451574Y400378D01*
X451512Y400440D01*
X451446Y400500D01*
X451379Y400558D01*
X451309Y400612D01*
X451236Y400663D01*
X451162Y400711D01*
X451085Y400756D01*
X451007Y400797D01*
X450927Y400836D01*
X450846Y400870D01*
X450763Y400902D01*
X450678Y400929D01*
X450593Y400954D01*
X450507Y400974D01*
X450420Y400991D01*
X450332Y401004D01*
X450244Y401013D01*
X450156Y401019D01*
X450067Y401021D01*
X447979Y401021D01*
X442422Y401021D02*
X444510Y393711D01*
X439289Y393711D01*
X440855Y395800D02*
X440855Y391623D01*
X318704Y413447D02*
X318704Y422845D01*
X316093Y422845D01*
X316093Y422846D02*
X315992Y422844D01*
X315891Y422838D01*
X315790Y422828D01*
X315690Y422815D01*
X315590Y422797D01*
X315491Y422776D01*
X315393Y422750D01*
X315296Y422721D01*
X315200Y422689D01*
X315106Y422652D01*
X315013Y422612D01*
X314921Y422568D01*
X314832Y422521D01*
X314744Y422470D01*
X314658Y422416D01*
X314575Y422359D01*
X314493Y422299D01*
X314415Y422235D01*
X314338Y422169D01*
X314265Y422099D01*
X314194Y422027D01*
X314126Y421952D01*
X314061Y421874D01*
X313999Y421794D01*
X313940Y421712D01*
X313884Y421627D01*
X313832Y421541D01*
X313783Y421452D01*
X313737Y421361D01*
X313696Y421269D01*
X313657Y421175D01*
X313623Y421080D01*
X313592Y420984D01*
X313565Y420886D01*
X313541Y420788D01*
X313522Y420688D01*
X313506Y420588D01*
X313494Y420488D01*
X313486Y420387D01*
X313482Y420286D01*
X313482Y420184D01*
X313486Y420083D01*
X313494Y419982D01*
X313506Y419882D01*
X313522Y419782D01*
X313541Y419682D01*
X313565Y419584D01*
X313592Y419486D01*
X313623Y419390D01*
X313657Y419295D01*
X313696Y419201D01*
X313737Y419109D01*
X313783Y419018D01*
X313832Y418930D01*
X313884Y418843D01*
X313940Y418758D01*
X313999Y418676D01*
X314061Y418596D01*
X314126Y418518D01*
X314194Y418443D01*
X314265Y418371D01*
X314338Y418301D01*
X314415Y418235D01*
X314493Y418171D01*
X314575Y418111D01*
X314658Y418054D01*
X314744Y418000D01*
X314832Y417949D01*
X314921Y417902D01*
X315013Y417858D01*
X315106Y417818D01*
X315200Y417781D01*
X315296Y417749D01*
X315393Y417720D01*
X315491Y417694D01*
X315590Y417673D01*
X315690Y417655D01*
X315790Y417642D01*
X315891Y417632D01*
X315992Y417626D01*
X316093Y417624D01*
X318704Y417624D01*
X315571Y417624D02*
X313483Y413447D01*
X309617Y413447D02*
X307007Y413447D01*
X306906Y413449D01*
X306805Y413455D01*
X306704Y413465D01*
X306604Y413478D01*
X306504Y413496D01*
X306405Y413517D01*
X306307Y413543D01*
X306210Y413572D01*
X306114Y413604D01*
X306020Y413641D01*
X305927Y413681D01*
X305835Y413725D01*
X305746Y413772D01*
X305658Y413823D01*
X305572Y413877D01*
X305489Y413934D01*
X305407Y413994D01*
X305329Y414058D01*
X305252Y414124D01*
X305179Y414194D01*
X305108Y414266D01*
X305040Y414341D01*
X304975Y414419D01*
X304913Y414499D01*
X304854Y414581D01*
X304798Y414666D01*
X304746Y414753D01*
X304697Y414841D01*
X304651Y414932D01*
X304610Y415024D01*
X304571Y415118D01*
X304537Y415213D01*
X304506Y415309D01*
X304479Y415407D01*
X304455Y415505D01*
X304436Y415605D01*
X304420Y415705D01*
X304408Y415805D01*
X304400Y415906D01*
X304396Y416007D01*
X304396Y416109D01*
X304400Y416210D01*
X304408Y416311D01*
X304420Y416411D01*
X304436Y416511D01*
X304455Y416611D01*
X304479Y416709D01*
X304506Y416807D01*
X304537Y416903D01*
X304571Y416998D01*
X304610Y417092D01*
X304651Y417184D01*
X304697Y417275D01*
X304746Y417364D01*
X304798Y417450D01*
X304854Y417535D01*
X304913Y417617D01*
X304975Y417697D01*
X305040Y417775D01*
X305108Y417850D01*
X305179Y417922D01*
X305252Y417992D01*
X305329Y418058D01*
X305407Y418122D01*
X305489Y418182D01*
X305572Y418239D01*
X305658Y418293D01*
X305746Y418344D01*
X305835Y418391D01*
X305927Y418435D01*
X306020Y418475D01*
X306114Y418512D01*
X306210Y418544D01*
X306307Y418573D01*
X306405Y418599D01*
X306504Y418620D01*
X306604Y418638D01*
X306704Y418651D01*
X306805Y418661D01*
X306906Y418667D01*
X307007Y418669D01*
X306484Y422845D02*
X309617Y422845D01*
X306484Y422845D02*
X306394Y422843D01*
X306305Y422837D01*
X306215Y422828D01*
X306126Y422814D01*
X306038Y422797D01*
X305951Y422776D01*
X305864Y422751D01*
X305779Y422722D01*
X305695Y422690D01*
X305613Y422655D01*
X305532Y422615D01*
X305453Y422573D01*
X305376Y422527D01*
X305301Y422477D01*
X305228Y422425D01*
X305157Y422369D01*
X305089Y422311D01*
X305024Y422249D01*
X304961Y422185D01*
X304901Y422118D01*
X304844Y422049D01*
X304790Y421977D01*
X304739Y421903D01*
X304691Y421827D01*
X304647Y421749D01*
X304606Y421669D01*
X304568Y421587D01*
X304534Y421504D01*
X304504Y421419D01*
X304477Y421333D01*
X304454Y421247D01*
X304435Y421159D01*
X304420Y421070D01*
X304408Y420981D01*
X304400Y420892D01*
X304396Y420802D01*
X304396Y420712D01*
X304400Y420622D01*
X304408Y420533D01*
X304420Y420444D01*
X304435Y420355D01*
X304454Y420267D01*
X304477Y420181D01*
X304504Y420095D01*
X304534Y420010D01*
X304568Y419927D01*
X304606Y419845D01*
X304647Y419765D01*
X304691Y419687D01*
X304739Y419611D01*
X304790Y419537D01*
X304844Y419465D01*
X304901Y419396D01*
X304961Y419329D01*
X305024Y419265D01*
X305089Y419203D01*
X305157Y419145D01*
X305228Y419089D01*
X305301Y419037D01*
X305376Y418987D01*
X305453Y418941D01*
X305532Y418899D01*
X305613Y418859D01*
X305695Y418824D01*
X305779Y418792D01*
X305864Y418763D01*
X305951Y418738D01*
X306038Y418717D01*
X306126Y418700D01*
X306215Y418686D01*
X306305Y418677D01*
X306394Y418671D01*
X306484Y418669D01*
X306484Y418668D02*
X308573Y418668D01*
D10*
X457056Y348282D02*
X457056Y328153D01*
D13*
X438811Y319854D02*
X436723Y319854D01*
X438811Y319855D02*
X438900Y319857D01*
X438988Y319863D01*
X439076Y319872D01*
X439164Y319885D01*
X439251Y319902D01*
X439337Y319922D01*
X439422Y319947D01*
X439507Y319974D01*
X439590Y320006D01*
X439671Y320040D01*
X439751Y320079D01*
X439829Y320120D01*
X439906Y320165D01*
X439980Y320213D01*
X440053Y320264D01*
X440123Y320318D01*
X440190Y320376D01*
X440256Y320436D01*
X440318Y320498D01*
X440378Y320564D01*
X440436Y320631D01*
X440490Y320701D01*
X440541Y320774D01*
X440589Y320848D01*
X440634Y320925D01*
X440675Y321003D01*
X440714Y321083D01*
X440748Y321164D01*
X440780Y321247D01*
X440807Y321332D01*
X440832Y321417D01*
X440852Y321503D01*
X440869Y321590D01*
X440882Y321678D01*
X440891Y321766D01*
X440897Y321854D01*
X440899Y321943D01*
X440900Y321943D02*
X440900Y327164D01*
X440899Y327164D02*
X440897Y327253D01*
X440891Y327341D01*
X440882Y327429D01*
X440869Y327517D01*
X440852Y327604D01*
X440832Y327690D01*
X440807Y327775D01*
X440780Y327860D01*
X440748Y327943D01*
X440714Y328024D01*
X440675Y328104D01*
X440634Y328182D01*
X440589Y328259D01*
X440541Y328333D01*
X440490Y328406D01*
X440436Y328476D01*
X440378Y328543D01*
X440318Y328609D01*
X440256Y328671D01*
X440190Y328731D01*
X440123Y328789D01*
X440053Y328843D01*
X439980Y328894D01*
X439906Y328942D01*
X439829Y328987D01*
X439751Y329028D01*
X439671Y329067D01*
X439590Y329101D01*
X439507Y329133D01*
X439422Y329160D01*
X439337Y329185D01*
X439251Y329205D01*
X439164Y329222D01*
X439076Y329235D01*
X438988Y329244D01*
X438900Y329250D01*
X438811Y329252D01*
X436723Y329252D01*
X430382Y329253D02*
X430287Y329251D01*
X430193Y329245D01*
X430099Y329236D01*
X430005Y329223D01*
X429912Y329206D01*
X429820Y329185D01*
X429728Y329160D01*
X429638Y329132D01*
X429549Y329100D01*
X429461Y329065D01*
X429375Y329026D01*
X429290Y328984D01*
X429207Y328938D01*
X429126Y328889D01*
X429047Y328837D01*
X428970Y328782D01*
X428896Y328723D01*
X428824Y328662D01*
X428754Y328598D01*
X428687Y328531D01*
X428623Y328461D01*
X428562Y328389D01*
X428503Y328315D01*
X428448Y328238D01*
X428396Y328159D01*
X428347Y328078D01*
X428301Y327995D01*
X428259Y327910D01*
X428220Y327824D01*
X428185Y327736D01*
X428153Y327647D01*
X428125Y327557D01*
X428100Y327465D01*
X428079Y327373D01*
X428062Y327280D01*
X428049Y327186D01*
X428040Y327092D01*
X428034Y326998D01*
X428032Y326903D01*
X430382Y329252D02*
X430490Y329250D01*
X430599Y329244D01*
X430707Y329234D01*
X430814Y329221D01*
X430921Y329203D01*
X431028Y329182D01*
X431133Y329157D01*
X431238Y329128D01*
X431341Y329096D01*
X431443Y329059D01*
X431544Y329019D01*
X431643Y328976D01*
X431741Y328929D01*
X431837Y328878D01*
X431931Y328824D01*
X432023Y328767D01*
X432113Y328706D01*
X432201Y328642D01*
X432286Y328576D01*
X432369Y328506D01*
X432449Y328433D01*
X432527Y328357D01*
X432602Y328279D01*
X432674Y328198D01*
X432743Y328114D01*
X432809Y328028D01*
X432872Y327940D01*
X432931Y327849D01*
X432988Y327757D01*
X433041Y327662D01*
X433090Y327565D01*
X433136Y327467D01*
X433179Y327368D01*
X433218Y327266D01*
X433253Y327164D01*
X428816Y325075D02*
X428747Y325144D01*
X428681Y325215D01*
X428617Y325288D01*
X428556Y325364D01*
X428498Y325443D01*
X428444Y325523D01*
X428392Y325606D01*
X428344Y325690D01*
X428298Y325776D01*
X428257Y325864D01*
X428218Y325954D01*
X428183Y326045D01*
X428152Y326137D01*
X428124Y326230D01*
X428100Y326324D01*
X428080Y326419D01*
X428063Y326515D01*
X428050Y326612D01*
X428041Y326709D01*
X428035Y326806D01*
X428033Y326903D01*
X428816Y325075D02*
X433254Y319854D01*
X428033Y319854D01*
D10*
X272400Y336800D02*
X252270Y336800D01*
D13*
X241681Y353617D02*
X241681Y355705D01*
X241682Y353617D02*
X241684Y353528D01*
X241690Y353440D01*
X241699Y353352D01*
X241712Y353264D01*
X241729Y353177D01*
X241749Y353091D01*
X241774Y353006D01*
X241801Y352921D01*
X241833Y352838D01*
X241867Y352757D01*
X241906Y352677D01*
X241947Y352599D01*
X241992Y352522D01*
X242040Y352448D01*
X242091Y352375D01*
X242145Y352305D01*
X242203Y352238D01*
X242263Y352172D01*
X242325Y352110D01*
X242391Y352050D01*
X242458Y351992D01*
X242528Y351938D01*
X242601Y351887D01*
X242675Y351839D01*
X242752Y351794D01*
X242830Y351753D01*
X242910Y351714D01*
X242991Y351680D01*
X243074Y351648D01*
X243159Y351621D01*
X243244Y351596D01*
X243330Y351576D01*
X243417Y351559D01*
X243505Y351546D01*
X243593Y351537D01*
X243681Y351531D01*
X243770Y351529D01*
X243770Y351528D02*
X248991Y351528D01*
X248991Y351529D02*
X249082Y351531D01*
X249173Y351537D01*
X249264Y351547D01*
X249354Y351561D01*
X249443Y351578D01*
X249531Y351600D01*
X249619Y351626D01*
X249705Y351655D01*
X249790Y351688D01*
X249873Y351725D01*
X249955Y351765D01*
X250035Y351809D01*
X250113Y351856D01*
X250189Y351907D01*
X250262Y351960D01*
X250333Y352017D01*
X250402Y352078D01*
X250467Y352141D01*
X250530Y352206D01*
X250590Y352275D01*
X250648Y352346D01*
X250701Y352419D01*
X250752Y352495D01*
X250799Y352573D01*
X250843Y352653D01*
X250883Y352735D01*
X250920Y352818D01*
X250953Y352903D01*
X250982Y352989D01*
X251008Y353077D01*
X251030Y353165D01*
X251047Y353254D01*
X251061Y353344D01*
X251071Y353435D01*
X251077Y353526D01*
X251079Y353617D01*
X251079Y355705D01*
X251079Y359174D02*
X250035Y359174D01*
X251079Y359174D02*
X251079Y364395D01*
X241681Y361785D01*
X404484Y386150D02*
X406572Y386150D01*
X406661Y386152D01*
X406749Y386158D01*
X406837Y386167D01*
X406925Y386180D01*
X407012Y386197D01*
X407098Y386217D01*
X407183Y386242D01*
X407268Y386269D01*
X407351Y386301D01*
X407432Y386335D01*
X407512Y386374D01*
X407590Y386415D01*
X407667Y386460D01*
X407741Y386508D01*
X407814Y386559D01*
X407884Y386613D01*
X407951Y386671D01*
X408017Y386731D01*
X408079Y386793D01*
X408139Y386859D01*
X408197Y386926D01*
X408251Y386996D01*
X408302Y387069D01*
X408350Y387143D01*
X408395Y387220D01*
X408436Y387298D01*
X408475Y387378D01*
X408509Y387459D01*
X408541Y387542D01*
X408568Y387627D01*
X408593Y387712D01*
X408613Y387798D01*
X408630Y387885D01*
X408643Y387973D01*
X408652Y388061D01*
X408658Y388149D01*
X408660Y388238D01*
X408661Y388238D02*
X408661Y393459D01*
X408660Y393459D02*
X408658Y393548D01*
X408652Y393636D01*
X408643Y393724D01*
X408630Y393812D01*
X408613Y393899D01*
X408593Y393985D01*
X408568Y394070D01*
X408541Y394155D01*
X408509Y394238D01*
X408475Y394319D01*
X408436Y394399D01*
X408395Y394477D01*
X408350Y394554D01*
X408302Y394628D01*
X408251Y394701D01*
X408197Y394771D01*
X408139Y394838D01*
X408079Y394904D01*
X408017Y394966D01*
X407951Y395026D01*
X407884Y395084D01*
X407814Y395138D01*
X407741Y395189D01*
X407667Y395237D01*
X407590Y395282D01*
X407512Y395323D01*
X407432Y395362D01*
X407351Y395396D01*
X407268Y395428D01*
X407183Y395455D01*
X407098Y395480D01*
X407012Y395500D01*
X406925Y395517D01*
X406837Y395530D01*
X406749Y395539D01*
X406661Y395545D01*
X406572Y395547D01*
X406572Y395548D02*
X404484Y395548D01*
X401015Y393459D02*
X398404Y395548D01*
X398404Y386150D01*
X395794Y386150D02*
X401015Y386150D01*
X429069Y385043D02*
X431158Y385058D01*
X431249Y385061D01*
X431340Y385067D01*
X431430Y385078D01*
X431520Y385092D01*
X431609Y385111D01*
X431697Y385133D01*
X431785Y385159D01*
X431871Y385189D01*
X431956Y385223D01*
X432039Y385260D01*
X432120Y385301D01*
X432200Y385345D01*
X432277Y385393D01*
X432353Y385444D01*
X432426Y385498D01*
X432496Y385556D01*
X432564Y385616D01*
X432630Y385680D01*
X432692Y385746D01*
X432752Y385815D01*
X432808Y385887D01*
X432862Y385960D01*
X432912Y386036D01*
X432959Y386115D01*
X433002Y386195D01*
X433041Y386277D01*
X433078Y386360D01*
X433110Y386446D01*
X433139Y386532D01*
X433164Y386620D01*
X433185Y386708D01*
X433202Y386798D01*
X433215Y386888D01*
X433224Y386979D01*
X433230Y387070D01*
X433231Y387161D01*
X433232Y387161D02*
X433195Y392381D01*
X433195Y392382D02*
X433192Y392470D01*
X433186Y392559D01*
X433176Y392647D01*
X433162Y392734D01*
X433145Y392821D01*
X433124Y392907D01*
X433099Y392992D01*
X433071Y393076D01*
X433039Y393159D01*
X433004Y393240D01*
X432965Y393320D01*
X432923Y393398D01*
X432877Y393474D01*
X432829Y393548D01*
X432777Y393620D01*
X432722Y393690D01*
X432665Y393757D01*
X432604Y393822D01*
X432541Y393884D01*
X432476Y393944D01*
X432407Y394001D01*
X432337Y394054D01*
X432264Y394105D01*
X432189Y394153D01*
X432113Y394197D01*
X432034Y394238D01*
X431954Y394276D01*
X431872Y394310D01*
X431789Y394341D01*
X431704Y394368D01*
X431619Y394391D01*
X431533Y394411D01*
X431446Y394427D01*
X431358Y394440D01*
X431270Y394449D01*
X431181Y394454D01*
X431092Y394455D01*
X429004Y394441D01*
X425601Y385019D02*
X422990Y385000D01*
X422889Y385001D01*
X422788Y385007D01*
X422687Y385016D01*
X422587Y385029D01*
X422487Y385045D01*
X422388Y385066D01*
X422289Y385091D01*
X422192Y385119D01*
X422096Y385151D01*
X422001Y385187D01*
X421908Y385227D01*
X421817Y385270D01*
X421727Y385316D01*
X421639Y385366D01*
X421553Y385420D01*
X421469Y385476D01*
X421387Y385536D01*
X421308Y385599D01*
X421231Y385665D01*
X421157Y385734D01*
X421085Y385806D01*
X421017Y385881D01*
X420951Y385958D01*
X420889Y386037D01*
X420829Y386119D01*
X420773Y386203D01*
X420720Y386290D01*
X420670Y386378D01*
X420624Y386468D01*
X420582Y386560D01*
X420543Y386654D01*
X420508Y386748D01*
X420476Y386845D01*
X420448Y386942D01*
X420424Y387040D01*
X420404Y387140D01*
X420388Y387240D01*
X420375Y387340D01*
X420367Y387441D01*
X420362Y387542D01*
X420361Y387643D01*
X420364Y387745D01*
X420372Y387846D01*
X420383Y387946D01*
X420398Y388046D01*
X420416Y388146D01*
X420439Y388245D01*
X420466Y388342D01*
X420496Y388439D01*
X420530Y388534D01*
X420567Y388628D01*
X420609Y388721D01*
X420653Y388812D01*
X420702Y388901D01*
X420753Y388988D01*
X420809Y389073D01*
X420867Y389156D01*
X420928Y389236D01*
X420993Y389314D01*
X421060Y389389D01*
X421131Y389462D01*
X421204Y389532D01*
X421280Y389599D01*
X421358Y389663D01*
X421439Y389725D01*
X421522Y389782D01*
X421607Y389837D01*
X421695Y389888D01*
X421784Y389936D01*
X421875Y389980D01*
X421968Y390021D01*
X422062Y390058D01*
X422157Y390092D01*
X422254Y390121D01*
X422352Y390147D01*
X422451Y390169D01*
X422551Y390188D01*
X422651Y390202D01*
X422752Y390213D01*
X422853Y390219D01*
X422954Y390222D01*
X422402Y394395D02*
X425535Y394416D01*
X422402Y394394D02*
X422313Y394391D01*
X422223Y394385D01*
X422134Y394375D01*
X422045Y394361D01*
X421957Y394343D01*
X421870Y394321D01*
X421784Y394296D01*
X421699Y394266D01*
X421615Y394234D01*
X421533Y394197D01*
X421452Y394158D01*
X421373Y394114D01*
X421296Y394068D01*
X421222Y394018D01*
X421149Y393965D01*
X421079Y393909D01*
X421011Y393850D01*
X420946Y393788D01*
X420884Y393723D01*
X420824Y393656D01*
X420768Y393586D01*
X420714Y393514D01*
X420664Y393440D01*
X420616Y393363D01*
X420573Y393285D01*
X420532Y393205D01*
X420495Y393123D01*
X420462Y393039D01*
X420432Y392954D01*
X420406Y392868D01*
X420384Y392781D01*
X420365Y392694D01*
X420351Y392605D01*
X420340Y392516D01*
X420332Y392426D01*
X420329Y392336D01*
X420330Y392246D01*
X420334Y392157D01*
X420343Y392067D01*
X420355Y391978D01*
X420371Y391890D01*
X420391Y391802D01*
X420414Y391716D01*
X420441Y391630D01*
X420472Y391546D01*
X420507Y391463D01*
X420545Y391381D01*
X420587Y391301D01*
X420631Y391224D01*
X420680Y391148D01*
X420731Y391074D01*
X420786Y391003D01*
X420843Y390934D01*
X420904Y390867D01*
X420967Y390804D01*
X421033Y390743D01*
X421102Y390685D01*
X421172Y390629D01*
X421246Y390577D01*
X421321Y390529D01*
X421399Y390483D01*
X421478Y390441D01*
X421559Y390402D01*
X421642Y390367D01*
X421726Y390336D01*
X421811Y390308D01*
X421898Y390284D01*
X421985Y390263D01*
X422074Y390246D01*
X422163Y390234D01*
X422252Y390225D01*
X422342Y390219D01*
X422432Y390218D01*
X424520Y390232D01*
X289713Y373600D02*
X287625Y373600D01*
X289713Y373600D02*
X289802Y373602D01*
X289890Y373608D01*
X289978Y373617D01*
X290066Y373630D01*
X290153Y373647D01*
X290239Y373667D01*
X290324Y373692D01*
X290409Y373719D01*
X290492Y373751D01*
X290573Y373785D01*
X290653Y373824D01*
X290731Y373865D01*
X290808Y373910D01*
X290882Y373958D01*
X290955Y374009D01*
X291025Y374063D01*
X291092Y374121D01*
X291158Y374181D01*
X291220Y374243D01*
X291280Y374309D01*
X291338Y374376D01*
X291392Y374446D01*
X291443Y374519D01*
X291491Y374593D01*
X291536Y374670D01*
X291577Y374748D01*
X291616Y374828D01*
X291650Y374909D01*
X291682Y374992D01*
X291709Y375077D01*
X291734Y375162D01*
X291754Y375248D01*
X291771Y375335D01*
X291784Y375423D01*
X291793Y375511D01*
X291799Y375599D01*
X291801Y375688D01*
X291801Y380909D01*
X291799Y380998D01*
X291793Y381086D01*
X291784Y381174D01*
X291771Y381262D01*
X291754Y381349D01*
X291734Y381435D01*
X291709Y381520D01*
X291682Y381605D01*
X291650Y381688D01*
X291616Y381769D01*
X291577Y381849D01*
X291536Y381927D01*
X291491Y382004D01*
X291443Y382078D01*
X291392Y382151D01*
X291338Y382221D01*
X291280Y382288D01*
X291220Y382354D01*
X291158Y382416D01*
X291092Y382476D01*
X291025Y382534D01*
X290955Y382588D01*
X290882Y382639D01*
X290808Y382687D01*
X290731Y382732D01*
X290653Y382773D01*
X290573Y382812D01*
X290492Y382846D01*
X290409Y382878D01*
X290324Y382905D01*
X290239Y382930D01*
X290153Y382950D01*
X290066Y382967D01*
X289978Y382980D01*
X289890Y382989D01*
X289802Y382995D01*
X289713Y382997D01*
X289713Y382998D02*
X287625Y382998D01*
X284156Y373600D02*
X281023Y373600D01*
X280934Y373602D01*
X280846Y373608D01*
X280758Y373617D01*
X280670Y373630D01*
X280583Y373647D01*
X280497Y373667D01*
X280412Y373692D01*
X280327Y373719D01*
X280244Y373751D01*
X280163Y373785D01*
X280083Y373824D01*
X280005Y373865D01*
X279928Y373910D01*
X279854Y373958D01*
X279781Y374009D01*
X279711Y374063D01*
X279644Y374121D01*
X279578Y374181D01*
X279516Y374243D01*
X279456Y374309D01*
X279398Y374376D01*
X279344Y374446D01*
X279293Y374519D01*
X279245Y374593D01*
X279200Y374670D01*
X279159Y374748D01*
X279120Y374828D01*
X279086Y374909D01*
X279054Y374992D01*
X279027Y375077D01*
X279002Y375162D01*
X278982Y375248D01*
X278965Y375335D01*
X278952Y375423D01*
X278943Y375511D01*
X278937Y375599D01*
X278935Y375688D01*
X278935Y376733D01*
X278937Y376822D01*
X278943Y376910D01*
X278952Y376998D01*
X278965Y377086D01*
X278982Y377173D01*
X279002Y377259D01*
X279027Y377344D01*
X279054Y377429D01*
X279086Y377512D01*
X279120Y377593D01*
X279159Y377673D01*
X279200Y377751D01*
X279245Y377828D01*
X279293Y377902D01*
X279344Y377975D01*
X279398Y378045D01*
X279456Y378112D01*
X279516Y378178D01*
X279578Y378240D01*
X279644Y378300D01*
X279711Y378358D01*
X279781Y378412D01*
X279854Y378463D01*
X279928Y378511D01*
X280005Y378556D01*
X280083Y378597D01*
X280163Y378636D01*
X280244Y378670D01*
X280327Y378702D01*
X280412Y378729D01*
X280497Y378754D01*
X280583Y378774D01*
X280670Y378791D01*
X280758Y378804D01*
X280846Y378813D01*
X280934Y378819D01*
X281023Y378821D01*
X284156Y378821D01*
X284156Y382998D01*
X278935Y382998D01*
X353228Y223365D02*
X353228Y213967D01*
X353228Y223365D02*
X350617Y223365D01*
X350617Y223366D02*
X350516Y223364D01*
X350415Y223358D01*
X350314Y223348D01*
X350214Y223335D01*
X350114Y223317D01*
X350015Y223296D01*
X349917Y223270D01*
X349820Y223241D01*
X349724Y223209D01*
X349630Y223172D01*
X349537Y223132D01*
X349445Y223088D01*
X349356Y223041D01*
X349268Y222990D01*
X349182Y222936D01*
X349099Y222879D01*
X349017Y222819D01*
X348939Y222755D01*
X348862Y222689D01*
X348789Y222619D01*
X348718Y222547D01*
X348650Y222472D01*
X348585Y222394D01*
X348523Y222314D01*
X348464Y222232D01*
X348408Y222147D01*
X348356Y222061D01*
X348307Y221972D01*
X348261Y221881D01*
X348220Y221789D01*
X348181Y221695D01*
X348147Y221600D01*
X348116Y221504D01*
X348089Y221406D01*
X348065Y221308D01*
X348046Y221208D01*
X348030Y221108D01*
X348018Y221008D01*
X348010Y220907D01*
X348006Y220806D01*
X348006Y220704D01*
X348010Y220603D01*
X348018Y220502D01*
X348030Y220402D01*
X348046Y220302D01*
X348065Y220202D01*
X348089Y220104D01*
X348116Y220006D01*
X348147Y219910D01*
X348181Y219815D01*
X348220Y219721D01*
X348261Y219629D01*
X348307Y219538D01*
X348356Y219450D01*
X348408Y219363D01*
X348464Y219278D01*
X348523Y219196D01*
X348585Y219116D01*
X348650Y219038D01*
X348718Y218963D01*
X348789Y218891D01*
X348862Y218821D01*
X348939Y218755D01*
X349017Y218691D01*
X349099Y218631D01*
X349182Y218574D01*
X349268Y218520D01*
X349356Y218469D01*
X349445Y218422D01*
X349537Y218378D01*
X349630Y218338D01*
X349724Y218301D01*
X349820Y218269D01*
X349917Y218240D01*
X350015Y218214D01*
X350114Y218193D01*
X350214Y218175D01*
X350314Y218162D01*
X350415Y218152D01*
X350516Y218146D01*
X350617Y218144D01*
X353228Y218144D01*
X350095Y218144D02*
X348007Y213967D01*
X338919Y221016D02*
X338921Y221111D01*
X338927Y221205D01*
X338936Y221299D01*
X338949Y221393D01*
X338966Y221486D01*
X338987Y221578D01*
X339012Y221670D01*
X339040Y221760D01*
X339072Y221849D01*
X339107Y221937D01*
X339146Y222023D01*
X339188Y222108D01*
X339234Y222191D01*
X339283Y222272D01*
X339335Y222351D01*
X339390Y222428D01*
X339449Y222502D01*
X339510Y222574D01*
X339574Y222644D01*
X339641Y222711D01*
X339711Y222775D01*
X339783Y222836D01*
X339857Y222895D01*
X339934Y222950D01*
X340013Y223002D01*
X340094Y223051D01*
X340177Y223097D01*
X340262Y223139D01*
X340348Y223178D01*
X340436Y223213D01*
X340525Y223245D01*
X340615Y223273D01*
X340707Y223298D01*
X340799Y223319D01*
X340892Y223336D01*
X340986Y223349D01*
X341080Y223358D01*
X341174Y223364D01*
X341269Y223366D01*
X341269Y223365D02*
X341377Y223363D01*
X341486Y223357D01*
X341594Y223347D01*
X341701Y223334D01*
X341808Y223316D01*
X341915Y223295D01*
X342020Y223270D01*
X342125Y223241D01*
X342228Y223209D01*
X342330Y223172D01*
X342431Y223132D01*
X342530Y223089D01*
X342628Y223042D01*
X342724Y222991D01*
X342818Y222937D01*
X342910Y222880D01*
X343000Y222819D01*
X343088Y222755D01*
X343173Y222689D01*
X343256Y222619D01*
X343336Y222546D01*
X343414Y222470D01*
X343489Y222392D01*
X343561Y222311D01*
X343630Y222227D01*
X343696Y222141D01*
X343759Y222053D01*
X343818Y221962D01*
X343875Y221870D01*
X343928Y221775D01*
X343977Y221678D01*
X344023Y221580D01*
X344066Y221481D01*
X344105Y221379D01*
X344140Y221277D01*
X339702Y219188D02*
X339633Y219257D01*
X339567Y219328D01*
X339503Y219401D01*
X339442Y219477D01*
X339384Y219556D01*
X339330Y219636D01*
X339278Y219719D01*
X339230Y219803D01*
X339184Y219889D01*
X339143Y219977D01*
X339104Y220067D01*
X339069Y220158D01*
X339038Y220250D01*
X339010Y220343D01*
X338986Y220437D01*
X338966Y220532D01*
X338949Y220628D01*
X338936Y220725D01*
X338927Y220822D01*
X338921Y220919D01*
X338919Y221016D01*
X339703Y219188D02*
X344141Y213967D01*
X338920Y213967D01*
D14*
X411956Y316706D02*
X411956Y352266D01*
X391636Y352266D01*
X391636Y316706D01*
X411956Y316706D01*
D13*
X402703Y314262D02*
X408968Y304864D01*
X402703Y304864D02*
X408968Y314262D01*
X399302Y312173D02*
X396692Y314262D01*
X396692Y304864D01*
X399302Y304864D02*
X394081Y304864D01*
D10*
X381000Y308134D02*
X376274Y308134D01*
X307340Y308134D02*
X307340Y312860D01*
X307340Y381794D02*
X312066Y381794D01*
X381000Y381794D02*
X381000Y377068D01*
X381000Y312860D02*
X381000Y308134D01*
X312066Y308134D02*
X307340Y308134D01*
X307340Y377068D02*
X307340Y381794D01*
X376274Y381794D02*
X381000Y381794D01*
D14*
X384322Y379889D02*
X384324Y379956D01*
X384330Y380022D01*
X384340Y380088D01*
X384353Y380153D01*
X384371Y380217D01*
X384392Y380280D01*
X384417Y380342D01*
X384446Y380402D01*
X384478Y380460D01*
X384514Y380516D01*
X384552Y380570D01*
X384594Y380622D01*
X384639Y380671D01*
X384687Y380718D01*
X384737Y380761D01*
X384790Y380801D01*
X384846Y380839D01*
X384903Y380872D01*
X384962Y380903D01*
X385023Y380930D01*
X385085Y380953D01*
X385149Y380972D01*
X385214Y380988D01*
X385279Y381000D01*
X385345Y381008D01*
X385412Y381012D01*
X385478Y381012D01*
X385545Y381008D01*
X385611Y381000D01*
X385676Y380988D01*
X385741Y380972D01*
X385805Y380953D01*
X385867Y380930D01*
X385928Y380903D01*
X385987Y380872D01*
X386044Y380839D01*
X386100Y380801D01*
X386153Y380761D01*
X386203Y380718D01*
X386251Y380671D01*
X386296Y380622D01*
X386338Y380570D01*
X386376Y380516D01*
X386412Y380460D01*
X386444Y380402D01*
X386473Y380342D01*
X386498Y380280D01*
X386519Y380217D01*
X386537Y380153D01*
X386550Y380088D01*
X386560Y380022D01*
X386566Y379956D01*
X386568Y379889D01*
X386566Y379822D01*
X386560Y379756D01*
X386550Y379690D01*
X386537Y379625D01*
X386519Y379561D01*
X386498Y379498D01*
X386473Y379436D01*
X386444Y379376D01*
X386412Y379318D01*
X386376Y379262D01*
X386338Y379208D01*
X386296Y379156D01*
X386251Y379107D01*
X386203Y379060D01*
X386153Y379017D01*
X386100Y378977D01*
X386044Y378939D01*
X385987Y378906D01*
X385928Y378875D01*
X385867Y378848D01*
X385805Y378825D01*
X385741Y378806D01*
X385676Y378790D01*
X385611Y378778D01*
X385545Y378770D01*
X385478Y378766D01*
X385412Y378766D01*
X385345Y378770D01*
X385279Y378778D01*
X385214Y378790D01*
X385149Y378806D01*
X385085Y378825D01*
X385023Y378848D01*
X384962Y378875D01*
X384903Y378906D01*
X384846Y378939D01*
X384790Y378977D01*
X384737Y379017D01*
X384687Y379060D01*
X384639Y379107D01*
X384594Y379156D01*
X384552Y379208D01*
X384514Y379262D01*
X384478Y379318D01*
X384446Y379376D01*
X384417Y379436D01*
X384392Y379498D01*
X384371Y379561D01*
X384353Y379625D01*
X384340Y379690D01*
X384330Y379756D01*
X384324Y379822D01*
X384322Y379889D01*
D13*
X424957Y249236D02*
X432323Y249236D01*
X432323Y247190D02*
X432323Y251282D01*
X432323Y253608D02*
X424957Y256063D01*
X432323Y258519D01*
X426594Y265181D02*
X426516Y265179D01*
X426438Y265174D01*
X426361Y265164D01*
X426284Y265151D01*
X426208Y265135D01*
X426133Y265115D01*
X426059Y265091D01*
X425986Y265064D01*
X425914Y265033D01*
X425844Y264999D01*
X425776Y264962D01*
X425709Y264921D01*
X425644Y264877D01*
X425582Y264831D01*
X425522Y264781D01*
X425464Y264729D01*
X425409Y264674D01*
X425357Y264616D01*
X425307Y264556D01*
X425261Y264494D01*
X425217Y264429D01*
X425176Y264363D01*
X425139Y264294D01*
X425105Y264224D01*
X425074Y264152D01*
X425047Y264079D01*
X425023Y264005D01*
X425003Y263930D01*
X424987Y263854D01*
X424974Y263777D01*
X424964Y263700D01*
X424959Y263622D01*
X424957Y263544D01*
X424959Y263430D01*
X424964Y263317D01*
X424974Y263203D01*
X424987Y263090D01*
X425004Y262978D01*
X425024Y262866D01*
X425048Y262755D01*
X425076Y262644D01*
X425107Y262535D01*
X425142Y262427D01*
X425181Y262320D01*
X425223Y262214D01*
X425268Y262110D01*
X425317Y262007D01*
X425370Y261906D01*
X425425Y261807D01*
X425484Y261709D01*
X425546Y261614D01*
X425611Y261521D01*
X425679Y261429D01*
X425750Y261341D01*
X425824Y261254D01*
X425901Y261170D01*
X425980Y261089D01*
X430686Y261293D02*
X430764Y261295D01*
X430842Y261300D01*
X430919Y261310D01*
X430996Y261323D01*
X431072Y261339D01*
X431147Y261359D01*
X431221Y261383D01*
X431294Y261410D01*
X431366Y261441D01*
X431436Y261475D01*
X431505Y261512D01*
X431571Y261553D01*
X431636Y261597D01*
X431698Y261643D01*
X431758Y261693D01*
X431816Y261745D01*
X431871Y261800D01*
X431923Y261858D01*
X431973Y261918D01*
X432019Y261980D01*
X432063Y262045D01*
X432104Y262112D01*
X432141Y262180D01*
X432175Y262250D01*
X432206Y262322D01*
X432233Y262395D01*
X432257Y262469D01*
X432277Y262544D01*
X432293Y262620D01*
X432306Y262697D01*
X432316Y262774D01*
X432321Y262852D01*
X432323Y262930D01*
X432321Y263040D01*
X432315Y263149D01*
X432305Y263259D01*
X432292Y263367D01*
X432274Y263476D01*
X432253Y263583D01*
X432227Y263690D01*
X432198Y263796D01*
X432166Y263901D01*
X432129Y264004D01*
X432089Y264106D01*
X432045Y264207D01*
X431997Y264306D01*
X431947Y264403D01*
X431892Y264498D01*
X431834Y264591D01*
X431773Y264682D01*
X431709Y264771D01*
X429253Y262112D02*
X429295Y262045D01*
X429339Y261980D01*
X429387Y261918D01*
X429437Y261858D01*
X429490Y261800D01*
X429546Y261745D01*
X429605Y261693D01*
X429665Y261643D01*
X429729Y261596D01*
X429794Y261553D01*
X429861Y261512D01*
X429930Y261475D01*
X430001Y261441D01*
X430073Y261410D01*
X430147Y261383D01*
X430221Y261359D01*
X430297Y261339D01*
X430374Y261323D01*
X430451Y261310D01*
X430529Y261300D01*
X430608Y261295D01*
X430686Y261293D01*
X428026Y264362D02*
X427984Y264428D01*
X427940Y264493D01*
X427893Y264555D01*
X427842Y264615D01*
X427789Y264673D01*
X427733Y264728D01*
X427675Y264781D01*
X427614Y264830D01*
X427551Y264877D01*
X427486Y264920D01*
X427419Y264961D01*
X427350Y264998D01*
X427279Y265032D01*
X427207Y265063D01*
X427133Y265090D01*
X427058Y265114D01*
X426983Y265134D01*
X426906Y265150D01*
X426829Y265163D01*
X426751Y265173D01*
X426672Y265178D01*
X426594Y265180D01*
X428027Y264362D02*
X429254Y262112D01*
X430686Y268160D02*
X432323Y270206D01*
X424957Y270206D01*
X424957Y268160D02*
X424957Y272252D01*
X392894Y200374D02*
X383496Y200374D01*
X392894Y200374D02*
X392894Y204551D01*
X388717Y204551D02*
X388717Y200374D01*
X390805Y207977D02*
X392894Y210587D01*
X383496Y210587D01*
X383496Y207977D02*
X383496Y213198D01*
X310617Y203102D02*
X301219Y203102D01*
X310617Y203102D02*
X310617Y207279D01*
X306440Y207279D02*
X306440Y203102D01*
X310617Y213576D02*
X310615Y213671D01*
X310609Y213765D01*
X310600Y213859D01*
X310587Y213953D01*
X310570Y214046D01*
X310549Y214138D01*
X310524Y214230D01*
X310496Y214320D01*
X310464Y214409D01*
X310429Y214497D01*
X310390Y214583D01*
X310348Y214668D01*
X310302Y214751D01*
X310253Y214832D01*
X310201Y214911D01*
X310146Y214988D01*
X310087Y215062D01*
X310026Y215134D01*
X309962Y215204D01*
X309895Y215271D01*
X309825Y215335D01*
X309753Y215396D01*
X309679Y215455D01*
X309602Y215510D01*
X309523Y215562D01*
X309442Y215611D01*
X309359Y215657D01*
X309274Y215699D01*
X309188Y215738D01*
X309100Y215773D01*
X309011Y215805D01*
X308921Y215833D01*
X308829Y215858D01*
X308737Y215879D01*
X308644Y215896D01*
X308550Y215909D01*
X308456Y215918D01*
X308362Y215924D01*
X308267Y215926D01*
X310616Y213576D02*
X310614Y213468D01*
X310608Y213359D01*
X310598Y213251D01*
X310585Y213144D01*
X310567Y213037D01*
X310546Y212930D01*
X310521Y212825D01*
X310492Y212720D01*
X310460Y212617D01*
X310423Y212515D01*
X310383Y212414D01*
X310340Y212315D01*
X310293Y212217D01*
X310242Y212121D01*
X310188Y212027D01*
X310131Y211935D01*
X310070Y211845D01*
X310006Y211757D01*
X309940Y211672D01*
X309870Y211589D01*
X309797Y211509D01*
X309721Y211431D01*
X309643Y211356D01*
X309562Y211284D01*
X309478Y211215D01*
X309392Y211149D01*
X309304Y211086D01*
X309213Y211027D01*
X309121Y210970D01*
X309026Y210917D01*
X308930Y210868D01*
X308831Y210822D01*
X308732Y210779D01*
X308630Y210740D01*
X308528Y210705D01*
X306439Y215143D02*
X306508Y215212D01*
X306579Y215278D01*
X306652Y215342D01*
X306728Y215403D01*
X306807Y215461D01*
X306887Y215515D01*
X306970Y215567D01*
X307054Y215615D01*
X307140Y215661D01*
X307228Y215702D01*
X307318Y215741D01*
X307409Y215776D01*
X307501Y215807D01*
X307594Y215835D01*
X307688Y215859D01*
X307783Y215879D01*
X307879Y215896D01*
X307976Y215909D01*
X308073Y215918D01*
X308170Y215924D01*
X308267Y215926D01*
X306440Y215142D02*
X301219Y210704D01*
X301219Y215925D01*
X390241Y231850D02*
X397607Y231850D01*
X397607Y233896D01*
X397606Y233896D02*
X397604Y233985D01*
X397598Y234074D01*
X397588Y234163D01*
X397575Y234251D01*
X397558Y234339D01*
X397536Y234426D01*
X397511Y234511D01*
X397483Y234596D01*
X397450Y234679D01*
X397414Y234761D01*
X397375Y234841D01*
X397332Y234919D01*
X397286Y234995D01*
X397236Y235070D01*
X397183Y235142D01*
X397127Y235211D01*
X397068Y235278D01*
X397007Y235343D01*
X396942Y235404D01*
X396875Y235463D01*
X396806Y235519D01*
X396734Y235572D01*
X396659Y235622D01*
X396583Y235668D01*
X396505Y235711D01*
X396425Y235750D01*
X396343Y235786D01*
X396260Y235819D01*
X396175Y235847D01*
X396090Y235872D01*
X396003Y235894D01*
X395915Y235911D01*
X395827Y235924D01*
X395738Y235934D01*
X395649Y235940D01*
X395560Y235942D01*
X395471Y235940D01*
X395382Y235934D01*
X395293Y235924D01*
X395205Y235911D01*
X395117Y235894D01*
X395030Y235872D01*
X394945Y235847D01*
X394860Y235819D01*
X394777Y235786D01*
X394695Y235750D01*
X394615Y235711D01*
X394537Y235668D01*
X394461Y235622D01*
X394386Y235572D01*
X394314Y235519D01*
X394245Y235463D01*
X394178Y235404D01*
X394113Y235343D01*
X394052Y235278D01*
X393993Y235211D01*
X393937Y235142D01*
X393884Y235070D01*
X393834Y234995D01*
X393788Y234919D01*
X393745Y234841D01*
X393706Y234761D01*
X393670Y234679D01*
X393637Y234596D01*
X393609Y234511D01*
X393584Y234426D01*
X393562Y234339D01*
X393545Y234251D01*
X393532Y234163D01*
X393522Y234074D01*
X393516Y233985D01*
X393514Y233896D01*
X393514Y231850D01*
X393514Y234305D02*
X390241Y235942D01*
X391877Y239114D02*
X397607Y240751D01*
X391877Y239114D02*
X391877Y243206D01*
X390241Y241978D02*
X393514Y241978D01*
X271358Y246468D02*
X263992Y246468D01*
X271358Y244422D02*
X271358Y248514D01*
X271358Y250840D02*
X263992Y253295D01*
X271358Y255751D01*
X265629Y262413D02*
X265551Y262411D01*
X265473Y262406D01*
X265396Y262396D01*
X265319Y262383D01*
X265243Y262367D01*
X265168Y262347D01*
X265094Y262323D01*
X265021Y262296D01*
X264949Y262265D01*
X264879Y262231D01*
X264811Y262194D01*
X264744Y262153D01*
X264679Y262109D01*
X264617Y262063D01*
X264557Y262013D01*
X264499Y261961D01*
X264444Y261906D01*
X264392Y261848D01*
X264342Y261788D01*
X264296Y261726D01*
X264252Y261661D01*
X264211Y261595D01*
X264174Y261526D01*
X264140Y261456D01*
X264109Y261384D01*
X264082Y261311D01*
X264058Y261237D01*
X264038Y261162D01*
X264022Y261086D01*
X264009Y261009D01*
X263999Y260932D01*
X263994Y260854D01*
X263992Y260776D01*
X263994Y260662D01*
X263999Y260549D01*
X264009Y260435D01*
X264022Y260322D01*
X264039Y260210D01*
X264059Y260098D01*
X264083Y259987D01*
X264111Y259876D01*
X264142Y259767D01*
X264177Y259659D01*
X264216Y259552D01*
X264258Y259446D01*
X264303Y259342D01*
X264352Y259239D01*
X264405Y259138D01*
X264460Y259039D01*
X264519Y258941D01*
X264581Y258846D01*
X264646Y258753D01*
X264714Y258661D01*
X264785Y258573D01*
X264859Y258486D01*
X264936Y258402D01*
X265015Y258321D01*
X269721Y258525D02*
X269799Y258527D01*
X269877Y258532D01*
X269954Y258542D01*
X270031Y258555D01*
X270107Y258571D01*
X270182Y258591D01*
X270256Y258615D01*
X270329Y258642D01*
X270401Y258673D01*
X270471Y258707D01*
X270540Y258744D01*
X270606Y258785D01*
X270671Y258829D01*
X270733Y258875D01*
X270793Y258925D01*
X270851Y258977D01*
X270906Y259032D01*
X270958Y259090D01*
X271008Y259150D01*
X271054Y259212D01*
X271098Y259277D01*
X271139Y259344D01*
X271176Y259412D01*
X271210Y259482D01*
X271241Y259554D01*
X271268Y259627D01*
X271292Y259701D01*
X271312Y259776D01*
X271328Y259852D01*
X271341Y259929D01*
X271351Y260006D01*
X271356Y260084D01*
X271358Y260162D01*
X271356Y260272D01*
X271350Y260381D01*
X271340Y260491D01*
X271327Y260599D01*
X271309Y260708D01*
X271288Y260815D01*
X271262Y260922D01*
X271233Y261028D01*
X271201Y261133D01*
X271164Y261236D01*
X271124Y261338D01*
X271080Y261439D01*
X271032Y261538D01*
X270982Y261635D01*
X270927Y261730D01*
X270869Y261823D01*
X270808Y261914D01*
X270744Y262003D01*
X268288Y259344D02*
X268330Y259277D01*
X268374Y259212D01*
X268422Y259150D01*
X268472Y259090D01*
X268525Y259032D01*
X268581Y258977D01*
X268640Y258925D01*
X268700Y258875D01*
X268764Y258828D01*
X268829Y258785D01*
X268896Y258744D01*
X268965Y258707D01*
X269036Y258673D01*
X269108Y258642D01*
X269182Y258615D01*
X269256Y258591D01*
X269332Y258571D01*
X269409Y258555D01*
X269486Y258542D01*
X269564Y258532D01*
X269643Y258527D01*
X269721Y258525D01*
X267061Y261594D02*
X267019Y261660D01*
X266975Y261725D01*
X266928Y261787D01*
X266877Y261847D01*
X266824Y261905D01*
X266768Y261960D01*
X266710Y262013D01*
X266649Y262062D01*
X266586Y262109D01*
X266521Y262152D01*
X266454Y262193D01*
X266385Y262230D01*
X266314Y262264D01*
X266242Y262295D01*
X266168Y262322D01*
X266093Y262346D01*
X266018Y262366D01*
X265941Y262382D01*
X265864Y262395D01*
X265786Y262405D01*
X265707Y262410D01*
X265629Y262412D01*
X267061Y261594D02*
X268289Y259344D01*
X271359Y267643D02*
X271357Y267728D01*
X271351Y267813D01*
X271341Y267897D01*
X271328Y267981D01*
X271310Y268065D01*
X271289Y268147D01*
X271264Y268228D01*
X271235Y268308D01*
X271202Y268387D01*
X271166Y268464D01*
X271126Y268539D01*
X271083Y268613D01*
X271037Y268684D01*
X270987Y268753D01*
X270934Y268820D01*
X270878Y268884D01*
X270819Y268945D01*
X270758Y269004D01*
X270694Y269060D01*
X270627Y269113D01*
X270558Y269163D01*
X270487Y269209D01*
X270413Y269252D01*
X270338Y269292D01*
X270261Y269328D01*
X270182Y269361D01*
X270102Y269390D01*
X270021Y269415D01*
X269939Y269436D01*
X269855Y269454D01*
X269771Y269467D01*
X269687Y269477D01*
X269602Y269483D01*
X269517Y269485D01*
X271358Y267643D02*
X271356Y267547D01*
X271350Y267451D01*
X271340Y267356D01*
X271327Y267261D01*
X271309Y267166D01*
X271288Y267073D01*
X271263Y266980D01*
X271234Y266889D01*
X271202Y266798D01*
X271166Y266709D01*
X271126Y266622D01*
X271083Y266536D01*
X271037Y266452D01*
X270987Y266370D01*
X270933Y266290D01*
X270877Y266213D01*
X270817Y266138D01*
X270755Y266065D01*
X270689Y265995D01*
X270621Y265927D01*
X270550Y265862D01*
X270477Y265801D01*
X270401Y265742D01*
X270322Y265686D01*
X270242Y265634D01*
X270159Y265585D01*
X270075Y265539D01*
X269989Y265497D01*
X269901Y265459D01*
X269812Y265424D01*
X269721Y265392D01*
X268085Y268870D02*
X268144Y268930D01*
X268206Y268987D01*
X268270Y269042D01*
X268337Y269093D01*
X268406Y269142D01*
X268476Y269188D01*
X268549Y269231D01*
X268623Y269271D01*
X268699Y269307D01*
X268777Y269340D01*
X268856Y269370D01*
X268936Y269397D01*
X269017Y269420D01*
X269099Y269439D01*
X269181Y269455D01*
X269265Y269468D01*
X269349Y269477D01*
X269433Y269482D01*
X269517Y269484D01*
X268085Y268870D02*
X263992Y265392D01*
X263992Y269484D01*
X241417Y333680D02*
X239328Y333680D01*
X241417Y333680D02*
X241506Y333682D01*
X241594Y333688D01*
X241682Y333697D01*
X241770Y333710D01*
X241857Y333727D01*
X241943Y333747D01*
X242028Y333772D01*
X242113Y333799D01*
X242196Y333831D01*
X242277Y333865D01*
X242357Y333904D01*
X242435Y333945D01*
X242512Y333990D01*
X242586Y334038D01*
X242659Y334089D01*
X242729Y334143D01*
X242796Y334201D01*
X242862Y334261D01*
X242924Y334323D01*
X242984Y334389D01*
X243042Y334456D01*
X243096Y334526D01*
X243147Y334599D01*
X243195Y334673D01*
X243240Y334750D01*
X243281Y334828D01*
X243320Y334908D01*
X243354Y334989D01*
X243386Y335072D01*
X243413Y335157D01*
X243438Y335242D01*
X243458Y335328D01*
X243475Y335415D01*
X243488Y335503D01*
X243497Y335591D01*
X243503Y335679D01*
X243505Y335768D01*
X243505Y340989D01*
X243503Y341078D01*
X243497Y341166D01*
X243488Y341254D01*
X243475Y341342D01*
X243458Y341429D01*
X243438Y341515D01*
X243413Y341600D01*
X243386Y341685D01*
X243354Y341768D01*
X243320Y341849D01*
X243281Y341929D01*
X243240Y342007D01*
X243195Y342084D01*
X243147Y342158D01*
X243096Y342231D01*
X243042Y342301D01*
X242984Y342368D01*
X242924Y342434D01*
X242862Y342496D01*
X242796Y342556D01*
X242729Y342614D01*
X242659Y342668D01*
X242586Y342719D01*
X242512Y342767D01*
X242435Y342812D01*
X242357Y342853D01*
X242277Y342892D01*
X242196Y342926D01*
X242113Y342958D01*
X242028Y342985D01*
X241943Y343010D01*
X241857Y343030D01*
X241770Y343047D01*
X241682Y343060D01*
X241594Y343069D01*
X241506Y343075D01*
X241417Y343077D01*
X241417Y343078D02*
X239328Y343078D01*
X230944Y335768D02*
X230946Y335679D01*
X230952Y335591D01*
X230961Y335503D01*
X230974Y335415D01*
X230991Y335328D01*
X231011Y335242D01*
X231036Y335157D01*
X231063Y335072D01*
X231095Y334989D01*
X231129Y334908D01*
X231168Y334828D01*
X231209Y334750D01*
X231254Y334673D01*
X231302Y334599D01*
X231353Y334526D01*
X231407Y334456D01*
X231465Y334389D01*
X231525Y334323D01*
X231587Y334261D01*
X231653Y334201D01*
X231720Y334143D01*
X231790Y334089D01*
X231863Y334038D01*
X231937Y333990D01*
X232014Y333945D01*
X232092Y333904D01*
X232172Y333865D01*
X232253Y333831D01*
X232336Y333799D01*
X232421Y333772D01*
X232506Y333747D01*
X232592Y333727D01*
X232679Y333710D01*
X232767Y333697D01*
X232855Y333688D01*
X232943Y333682D01*
X233032Y333680D01*
X233161Y333682D01*
X233290Y333688D01*
X233419Y333697D01*
X233547Y333710D01*
X233675Y333727D01*
X233802Y333748D01*
X233929Y333772D01*
X234055Y333800D01*
X234180Y333832D01*
X234304Y333867D01*
X234427Y333906D01*
X234549Y333949D01*
X234669Y333995D01*
X234788Y334045D01*
X234906Y334098D01*
X235022Y334154D01*
X235136Y334214D01*
X235249Y334277D01*
X235359Y334344D01*
X235468Y334413D01*
X235574Y334486D01*
X235679Y334562D01*
X235781Y334641D01*
X235881Y334723D01*
X235978Y334807D01*
X236073Y334895D01*
X236165Y334985D01*
X235903Y340989D02*
X235901Y341078D01*
X235895Y341166D01*
X235886Y341254D01*
X235873Y341342D01*
X235856Y341429D01*
X235836Y341515D01*
X235811Y341600D01*
X235784Y341685D01*
X235752Y341768D01*
X235718Y341849D01*
X235679Y341929D01*
X235638Y342007D01*
X235593Y342084D01*
X235545Y342158D01*
X235494Y342231D01*
X235440Y342301D01*
X235382Y342368D01*
X235322Y342434D01*
X235260Y342496D01*
X235194Y342556D01*
X235127Y342614D01*
X235057Y342668D01*
X234984Y342719D01*
X234910Y342767D01*
X234833Y342812D01*
X234755Y342853D01*
X234675Y342892D01*
X234594Y342926D01*
X234511Y342958D01*
X234426Y342985D01*
X234341Y343010D01*
X234255Y343030D01*
X234168Y343047D01*
X234080Y343060D01*
X233992Y343069D01*
X233904Y343075D01*
X233815Y343077D01*
X233815Y343078D02*
X233695Y343076D01*
X233575Y343071D01*
X233456Y343061D01*
X233336Y343049D01*
X233217Y343032D01*
X233099Y343012D01*
X232981Y342988D01*
X232865Y342961D01*
X232749Y342930D01*
X232634Y342896D01*
X232520Y342858D01*
X232407Y342816D01*
X232296Y342771D01*
X232186Y342723D01*
X232078Y342672D01*
X231971Y342617D01*
X231866Y342559D01*
X231763Y342497D01*
X231662Y342433D01*
X231562Y342365D01*
X231465Y342295D01*
X234859Y339162D02*
X234937Y339210D01*
X235013Y339262D01*
X235086Y339316D01*
X235157Y339374D01*
X235226Y339435D01*
X235292Y339499D01*
X235355Y339566D01*
X235415Y339635D01*
X235472Y339707D01*
X235526Y339781D01*
X235576Y339858D01*
X235624Y339937D01*
X235667Y340017D01*
X235708Y340100D01*
X235744Y340184D01*
X235777Y340269D01*
X235806Y340356D01*
X235832Y340445D01*
X235854Y340534D01*
X235871Y340624D01*
X235885Y340714D01*
X235895Y340806D01*
X235901Y340897D01*
X235903Y340989D01*
X231987Y337595D02*
X231909Y337547D01*
X231833Y337495D01*
X231760Y337441D01*
X231689Y337383D01*
X231620Y337322D01*
X231554Y337258D01*
X231491Y337191D01*
X231431Y337122D01*
X231374Y337050D01*
X231320Y336976D01*
X231270Y336899D01*
X231222Y336820D01*
X231179Y336740D01*
X231138Y336657D01*
X231102Y336573D01*
X231069Y336488D01*
X231040Y336401D01*
X231014Y336312D01*
X230992Y336223D01*
X230975Y336133D01*
X230961Y336043D01*
X230951Y335951D01*
X230945Y335860D01*
X230943Y335768D01*
X231987Y337596D02*
X234859Y339162D01*
X291940Y298475D02*
X291942Y298386D01*
X291948Y298298D01*
X291957Y298210D01*
X291970Y298122D01*
X291987Y298035D01*
X292007Y297949D01*
X292032Y297864D01*
X292059Y297779D01*
X292091Y297696D01*
X292125Y297615D01*
X292164Y297535D01*
X292205Y297457D01*
X292250Y297380D01*
X292298Y297306D01*
X292349Y297233D01*
X292403Y297163D01*
X292461Y297096D01*
X292521Y297030D01*
X292583Y296968D01*
X292649Y296908D01*
X292716Y296850D01*
X292786Y296796D01*
X292859Y296745D01*
X292933Y296697D01*
X293010Y296652D01*
X293088Y296611D01*
X293168Y296572D01*
X293249Y296538D01*
X293332Y296506D01*
X293417Y296479D01*
X293502Y296454D01*
X293588Y296434D01*
X293675Y296417D01*
X293763Y296404D01*
X293851Y296395D01*
X293939Y296389D01*
X294028Y296387D01*
X294028Y296386D02*
X294157Y296388D01*
X294286Y296394D01*
X294415Y296403D01*
X294543Y296416D01*
X294671Y296433D01*
X294798Y296454D01*
X294925Y296478D01*
X295051Y296506D01*
X295176Y296538D01*
X295300Y296573D01*
X295423Y296612D01*
X295545Y296655D01*
X295665Y296701D01*
X295784Y296751D01*
X295902Y296804D01*
X296018Y296860D01*
X296132Y296920D01*
X296245Y296983D01*
X296355Y297050D01*
X296464Y297119D01*
X296570Y297192D01*
X296675Y297268D01*
X296777Y297347D01*
X296877Y297429D01*
X296974Y297513D01*
X297069Y297601D01*
X297161Y297691D01*
X296900Y303696D02*
X296898Y303785D01*
X296892Y303873D01*
X296883Y303961D01*
X296870Y304049D01*
X296853Y304136D01*
X296833Y304222D01*
X296808Y304307D01*
X296781Y304392D01*
X296749Y304475D01*
X296715Y304556D01*
X296676Y304636D01*
X296635Y304714D01*
X296590Y304791D01*
X296542Y304865D01*
X296491Y304938D01*
X296437Y305008D01*
X296379Y305075D01*
X296319Y305141D01*
X296257Y305203D01*
X296191Y305263D01*
X296124Y305321D01*
X296054Y305375D01*
X295981Y305426D01*
X295907Y305474D01*
X295830Y305519D01*
X295752Y305560D01*
X295672Y305599D01*
X295591Y305633D01*
X295508Y305665D01*
X295423Y305692D01*
X295338Y305717D01*
X295252Y305737D01*
X295165Y305754D01*
X295077Y305767D01*
X294989Y305776D01*
X294901Y305782D01*
X294812Y305784D01*
X294812Y305785D02*
X294692Y305783D01*
X294572Y305778D01*
X294453Y305768D01*
X294333Y305756D01*
X294214Y305739D01*
X294096Y305719D01*
X293978Y305695D01*
X293862Y305668D01*
X293746Y305637D01*
X293631Y305603D01*
X293517Y305565D01*
X293404Y305523D01*
X293293Y305478D01*
X293183Y305430D01*
X293075Y305379D01*
X292968Y305324D01*
X292863Y305266D01*
X292760Y305204D01*
X292659Y305140D01*
X292559Y305072D01*
X292462Y305002D01*
X295856Y301869D02*
X295934Y301917D01*
X296010Y301969D01*
X296083Y302023D01*
X296154Y302081D01*
X296223Y302142D01*
X296289Y302206D01*
X296352Y302273D01*
X296412Y302342D01*
X296469Y302414D01*
X296523Y302488D01*
X296573Y302565D01*
X296621Y302644D01*
X296664Y302724D01*
X296705Y302807D01*
X296741Y302891D01*
X296774Y302976D01*
X296803Y303063D01*
X296829Y303152D01*
X296851Y303241D01*
X296868Y303331D01*
X296882Y303421D01*
X296892Y303513D01*
X296898Y303604D01*
X296900Y303696D01*
X292984Y300302D02*
X292906Y300254D01*
X292830Y300202D01*
X292757Y300148D01*
X292686Y300090D01*
X292617Y300029D01*
X292551Y299965D01*
X292488Y299898D01*
X292428Y299829D01*
X292371Y299757D01*
X292317Y299683D01*
X292267Y299606D01*
X292219Y299527D01*
X292176Y299447D01*
X292135Y299364D01*
X292099Y299280D01*
X292066Y299195D01*
X292037Y299108D01*
X292011Y299019D01*
X291989Y298930D01*
X291972Y298840D01*
X291958Y298750D01*
X291948Y298658D01*
X291942Y298567D01*
X291940Y298475D01*
X292984Y300302D02*
X295856Y301868D01*
X286259Y296386D02*
X284171Y296386D01*
X286259Y296387D02*
X286348Y296389D01*
X286436Y296395D01*
X286524Y296404D01*
X286612Y296417D01*
X286699Y296434D01*
X286785Y296454D01*
X286870Y296479D01*
X286955Y296506D01*
X287038Y296538D01*
X287119Y296572D01*
X287199Y296611D01*
X287277Y296652D01*
X287354Y296697D01*
X287428Y296745D01*
X287501Y296796D01*
X287571Y296850D01*
X287638Y296908D01*
X287704Y296968D01*
X287766Y297030D01*
X287826Y297096D01*
X287884Y297163D01*
X287938Y297233D01*
X287989Y297306D01*
X288037Y297380D01*
X288082Y297457D01*
X288123Y297535D01*
X288162Y297615D01*
X288196Y297696D01*
X288228Y297779D01*
X288255Y297864D01*
X288280Y297949D01*
X288300Y298035D01*
X288317Y298122D01*
X288330Y298210D01*
X288339Y298298D01*
X288345Y298386D01*
X288347Y298475D01*
X288348Y298475D02*
X288348Y303696D01*
X288347Y303696D02*
X288345Y303785D01*
X288339Y303873D01*
X288330Y303961D01*
X288317Y304049D01*
X288300Y304136D01*
X288280Y304222D01*
X288255Y304307D01*
X288228Y304392D01*
X288196Y304475D01*
X288162Y304556D01*
X288123Y304636D01*
X288082Y304714D01*
X288037Y304791D01*
X287989Y304865D01*
X287938Y304938D01*
X287884Y305008D01*
X287826Y305075D01*
X287766Y305141D01*
X287704Y305203D01*
X287638Y305263D01*
X287571Y305321D01*
X287501Y305375D01*
X287428Y305426D01*
X287354Y305474D01*
X287277Y305519D01*
X287199Y305560D01*
X287119Y305599D01*
X287038Y305633D01*
X286955Y305665D01*
X286870Y305692D01*
X286785Y305717D01*
X286699Y305737D01*
X286612Y305754D01*
X286524Y305767D01*
X286436Y305776D01*
X286348Y305782D01*
X286259Y305784D01*
X284171Y305784D01*
X280266Y305784D02*
X280266Y296386D01*
X280266Y300041D02*
X275045Y305784D01*
X278177Y302130D02*
X275045Y296386D01*
X253771Y297352D02*
X253771Y305480D01*
X251061Y300964D01*
X248352Y305480D01*
X248352Y297352D01*
X244518Y299609D02*
X244518Y303222D01*
X244516Y303315D01*
X244510Y303408D01*
X244501Y303501D01*
X244487Y303594D01*
X244470Y303685D01*
X244449Y303776D01*
X244424Y303866D01*
X244396Y303955D01*
X244364Y304043D01*
X244328Y304129D01*
X244289Y304214D01*
X244246Y304297D01*
X244200Y304378D01*
X244150Y304457D01*
X244098Y304534D01*
X244042Y304609D01*
X243983Y304681D01*
X243921Y304751D01*
X243857Y304819D01*
X243789Y304883D01*
X243719Y304945D01*
X243647Y305004D01*
X243572Y305060D01*
X243495Y305112D01*
X243416Y305162D01*
X243335Y305208D01*
X243252Y305251D01*
X243167Y305290D01*
X243081Y305326D01*
X242993Y305358D01*
X242904Y305386D01*
X242814Y305411D01*
X242723Y305432D01*
X242632Y305449D01*
X242539Y305463D01*
X242446Y305472D01*
X242353Y305478D01*
X242260Y305480D01*
X242167Y305478D01*
X242074Y305472D01*
X241981Y305463D01*
X241888Y305449D01*
X241797Y305432D01*
X241706Y305411D01*
X241616Y305386D01*
X241527Y305358D01*
X241439Y305326D01*
X241353Y305290D01*
X241268Y305251D01*
X241185Y305208D01*
X241104Y305162D01*
X241025Y305112D01*
X240948Y305060D01*
X240873Y305004D01*
X240801Y304945D01*
X240731Y304883D01*
X240663Y304819D01*
X240599Y304751D01*
X240537Y304681D01*
X240478Y304609D01*
X240422Y304534D01*
X240370Y304457D01*
X240320Y304378D01*
X240274Y304297D01*
X240231Y304214D01*
X240192Y304129D01*
X240156Y304043D01*
X240124Y303955D01*
X240096Y303866D01*
X240071Y303776D01*
X240050Y303685D01*
X240033Y303594D01*
X240019Y303501D01*
X240010Y303408D01*
X240004Y303315D01*
X240002Y303222D01*
X240003Y303222D02*
X240003Y299609D01*
X240002Y299609D02*
X240004Y299516D01*
X240010Y299423D01*
X240019Y299330D01*
X240033Y299237D01*
X240050Y299146D01*
X240071Y299055D01*
X240096Y298965D01*
X240124Y298876D01*
X240156Y298788D01*
X240192Y298702D01*
X240231Y298617D01*
X240274Y298534D01*
X240320Y298453D01*
X240370Y298374D01*
X240422Y298297D01*
X240478Y298222D01*
X240537Y298150D01*
X240599Y298080D01*
X240663Y298012D01*
X240731Y297948D01*
X240801Y297886D01*
X240873Y297827D01*
X240948Y297771D01*
X241025Y297719D01*
X241104Y297669D01*
X241185Y297623D01*
X241268Y297580D01*
X241353Y297541D01*
X241439Y297505D01*
X241527Y297473D01*
X241616Y297445D01*
X241706Y297420D01*
X241797Y297399D01*
X241888Y297382D01*
X241981Y297368D01*
X242074Y297359D01*
X242167Y297353D01*
X242260Y297351D01*
X242353Y297353D01*
X242446Y297359D01*
X242539Y297368D01*
X242632Y297382D01*
X242723Y297399D01*
X242814Y297420D01*
X242904Y297445D01*
X242993Y297473D01*
X243081Y297505D01*
X243167Y297541D01*
X243252Y297580D01*
X243335Y297623D01*
X243416Y297669D01*
X243495Y297719D01*
X243572Y297771D01*
X243647Y297827D01*
X243719Y297886D01*
X243789Y297948D01*
X243857Y298012D01*
X243921Y298080D01*
X243983Y298150D01*
X244042Y298222D01*
X244098Y298297D01*
X244150Y298374D01*
X244200Y298453D01*
X244246Y298534D01*
X244289Y298617D01*
X244328Y298702D01*
X244364Y298788D01*
X244396Y298876D01*
X244424Y298965D01*
X244449Y299055D01*
X244470Y299146D01*
X244487Y299237D01*
X244501Y299330D01*
X244510Y299423D01*
X244516Y299516D01*
X244518Y299609D01*
X234074Y297352D02*
X233991Y297354D01*
X233907Y297360D01*
X233824Y297369D01*
X233742Y297383D01*
X233661Y297400D01*
X233580Y297421D01*
X233500Y297446D01*
X233422Y297474D01*
X233345Y297506D01*
X233269Y297541D01*
X233195Y297580D01*
X233123Y297623D01*
X233053Y297668D01*
X232986Y297717D01*
X232920Y297769D01*
X232857Y297823D01*
X232797Y297881D01*
X232739Y297941D01*
X232685Y298004D01*
X232633Y298070D01*
X232584Y298137D01*
X232539Y298207D01*
X232496Y298279D01*
X232457Y298353D01*
X232422Y298429D01*
X232390Y298506D01*
X232362Y298584D01*
X232337Y298664D01*
X232316Y298745D01*
X232299Y298826D01*
X232285Y298908D01*
X232276Y298991D01*
X232270Y299075D01*
X232268Y299158D01*
X234074Y297351D02*
X234195Y297353D01*
X234315Y297359D01*
X234435Y297368D01*
X234555Y297381D01*
X234674Y297398D01*
X234793Y297419D01*
X234911Y297444D01*
X235028Y297472D01*
X235144Y297504D01*
X235259Y297540D01*
X235373Y297579D01*
X235486Y297622D01*
X235597Y297668D01*
X235707Y297718D01*
X235815Y297771D01*
X235921Y297828D01*
X236026Y297888D01*
X236128Y297951D01*
X236229Y298018D01*
X236327Y298087D01*
X236423Y298160D01*
X236517Y298236D01*
X236609Y298314D01*
X236697Y298396D01*
X236784Y298480D01*
X236558Y303673D02*
X236556Y303756D01*
X236550Y303840D01*
X236541Y303923D01*
X236527Y304005D01*
X236510Y304086D01*
X236489Y304167D01*
X236464Y304247D01*
X236436Y304325D01*
X236404Y304402D01*
X236369Y304478D01*
X236330Y304552D01*
X236287Y304624D01*
X236242Y304694D01*
X236193Y304761D01*
X236141Y304827D01*
X236087Y304890D01*
X236029Y304950D01*
X235969Y305008D01*
X235906Y305062D01*
X235840Y305114D01*
X235773Y305163D01*
X235703Y305208D01*
X235631Y305251D01*
X235557Y305290D01*
X235481Y305325D01*
X235404Y305357D01*
X235326Y305385D01*
X235246Y305410D01*
X235165Y305431D01*
X235084Y305448D01*
X235002Y305462D01*
X234919Y305471D01*
X234835Y305477D01*
X234752Y305479D01*
X234752Y305480D02*
X234637Y305478D01*
X234523Y305472D01*
X234408Y305463D01*
X234295Y305449D01*
X234181Y305432D01*
X234068Y305410D01*
X233957Y305385D01*
X233845Y305356D01*
X233735Y305324D01*
X233627Y305288D01*
X233519Y305248D01*
X233413Y305204D01*
X233308Y305157D01*
X233206Y305106D01*
X233104Y305052D01*
X233005Y304995D01*
X232908Y304934D01*
X232813Y304870D01*
X232720Y304803D01*
X235655Y302093D02*
X235725Y302137D01*
X235794Y302183D01*
X235860Y302233D01*
X235924Y302286D01*
X235985Y302341D01*
X236044Y302400D01*
X236100Y302461D01*
X236153Y302524D01*
X236204Y302590D01*
X236251Y302657D01*
X236295Y302727D01*
X236336Y302799D01*
X236374Y302873D01*
X236409Y302948D01*
X236440Y303025D01*
X236467Y303103D01*
X236491Y303182D01*
X236511Y303263D01*
X236528Y303344D01*
X236541Y303425D01*
X236551Y303508D01*
X236556Y303590D01*
X236558Y303673D01*
X233172Y300738D02*
X233102Y300694D01*
X233033Y300648D01*
X232967Y300598D01*
X232903Y300545D01*
X232842Y300490D01*
X232783Y300431D01*
X232727Y300370D01*
X232674Y300307D01*
X232623Y300241D01*
X232576Y300174D01*
X232532Y300104D01*
X232491Y300032D01*
X232453Y299958D01*
X232418Y299883D01*
X232387Y299806D01*
X232360Y299728D01*
X232336Y299649D01*
X232316Y299568D01*
X232299Y299487D01*
X232286Y299406D01*
X232276Y299323D01*
X232271Y299241D01*
X232269Y299158D01*
X233171Y300738D02*
X235655Y302093D01*
X228392Y305480D02*
X228392Y297352D01*
X229295Y297352D02*
X227489Y297352D01*
X227489Y305480D02*
X229295Y305480D01*
X273794Y318999D02*
X273794Y327127D01*
X271085Y322611D01*
X268376Y327127D01*
X268376Y318999D01*
X263884Y318999D02*
X263884Y327127D01*
X264787Y318999D02*
X262981Y318999D01*
X262981Y327127D02*
X264787Y327127D01*
X257298Y318999D02*
X257215Y319001D01*
X257131Y319007D01*
X257048Y319016D01*
X256966Y319030D01*
X256885Y319047D01*
X256804Y319068D01*
X256724Y319093D01*
X256646Y319121D01*
X256569Y319153D01*
X256493Y319188D01*
X256419Y319227D01*
X256347Y319270D01*
X256277Y319315D01*
X256210Y319364D01*
X256144Y319416D01*
X256081Y319470D01*
X256021Y319528D01*
X255963Y319588D01*
X255909Y319651D01*
X255857Y319717D01*
X255808Y319784D01*
X255763Y319854D01*
X255720Y319926D01*
X255681Y320000D01*
X255646Y320076D01*
X255614Y320153D01*
X255586Y320231D01*
X255561Y320311D01*
X255540Y320392D01*
X255523Y320473D01*
X255509Y320555D01*
X255500Y320638D01*
X255494Y320722D01*
X255492Y320805D01*
X257298Y318998D02*
X257419Y319000D01*
X257539Y319006D01*
X257659Y319015D01*
X257779Y319028D01*
X257898Y319045D01*
X258017Y319066D01*
X258135Y319091D01*
X258252Y319119D01*
X258368Y319151D01*
X258483Y319187D01*
X258597Y319226D01*
X258710Y319269D01*
X258821Y319315D01*
X258931Y319365D01*
X259039Y319418D01*
X259145Y319475D01*
X259250Y319535D01*
X259352Y319598D01*
X259453Y319665D01*
X259551Y319734D01*
X259647Y319807D01*
X259741Y319883D01*
X259833Y319961D01*
X259921Y320043D01*
X260008Y320127D01*
X259782Y325320D02*
X259780Y325403D01*
X259774Y325487D01*
X259765Y325570D01*
X259751Y325652D01*
X259734Y325733D01*
X259713Y325814D01*
X259688Y325894D01*
X259660Y325972D01*
X259628Y326049D01*
X259593Y326125D01*
X259554Y326199D01*
X259511Y326271D01*
X259466Y326341D01*
X259417Y326408D01*
X259365Y326474D01*
X259311Y326537D01*
X259253Y326597D01*
X259193Y326655D01*
X259130Y326709D01*
X259064Y326761D01*
X258997Y326810D01*
X258927Y326855D01*
X258855Y326898D01*
X258781Y326937D01*
X258705Y326972D01*
X258628Y327004D01*
X258550Y327032D01*
X258470Y327057D01*
X258389Y327078D01*
X258308Y327095D01*
X258226Y327109D01*
X258143Y327118D01*
X258059Y327124D01*
X257976Y327126D01*
X257976Y327127D02*
X257861Y327125D01*
X257747Y327119D01*
X257632Y327110D01*
X257519Y327096D01*
X257405Y327079D01*
X257292Y327057D01*
X257181Y327032D01*
X257069Y327003D01*
X256959Y326971D01*
X256851Y326935D01*
X256743Y326895D01*
X256637Y326851D01*
X256532Y326804D01*
X256430Y326753D01*
X256328Y326699D01*
X256229Y326642D01*
X256132Y326581D01*
X256037Y326517D01*
X255944Y326450D01*
X258879Y323740D02*
X258949Y323784D01*
X259018Y323830D01*
X259084Y323880D01*
X259148Y323933D01*
X259209Y323988D01*
X259268Y324047D01*
X259324Y324108D01*
X259377Y324171D01*
X259428Y324237D01*
X259475Y324304D01*
X259519Y324374D01*
X259560Y324446D01*
X259598Y324520D01*
X259633Y324595D01*
X259664Y324672D01*
X259691Y324750D01*
X259715Y324829D01*
X259735Y324910D01*
X259752Y324991D01*
X259765Y325072D01*
X259775Y325155D01*
X259780Y325237D01*
X259782Y325320D01*
X256396Y322385D02*
X256326Y322341D01*
X256257Y322295D01*
X256191Y322245D01*
X256127Y322192D01*
X256066Y322137D01*
X256007Y322078D01*
X255951Y322017D01*
X255898Y321954D01*
X255847Y321888D01*
X255800Y321821D01*
X255756Y321751D01*
X255715Y321679D01*
X255677Y321605D01*
X255642Y321530D01*
X255611Y321453D01*
X255584Y321375D01*
X255560Y321296D01*
X255540Y321215D01*
X255523Y321134D01*
X255510Y321053D01*
X255500Y320970D01*
X255495Y320888D01*
X255493Y320805D01*
X256395Y322385D02*
X258879Y323740D01*
X252273Y324869D02*
X252273Y321256D01*
X252274Y324869D02*
X252272Y324962D01*
X252266Y325055D01*
X252257Y325148D01*
X252243Y325241D01*
X252226Y325332D01*
X252205Y325423D01*
X252180Y325513D01*
X252152Y325602D01*
X252120Y325690D01*
X252084Y325776D01*
X252045Y325861D01*
X252002Y325944D01*
X251956Y326025D01*
X251906Y326104D01*
X251854Y326181D01*
X251798Y326256D01*
X251739Y326328D01*
X251677Y326398D01*
X251613Y326466D01*
X251545Y326530D01*
X251475Y326592D01*
X251403Y326651D01*
X251328Y326707D01*
X251251Y326759D01*
X251172Y326809D01*
X251091Y326855D01*
X251008Y326898D01*
X250923Y326937D01*
X250837Y326973D01*
X250749Y327005D01*
X250660Y327033D01*
X250570Y327058D01*
X250479Y327079D01*
X250388Y327096D01*
X250295Y327110D01*
X250202Y327119D01*
X250109Y327125D01*
X250016Y327127D01*
X249923Y327125D01*
X249830Y327119D01*
X249737Y327110D01*
X249644Y327096D01*
X249553Y327079D01*
X249462Y327058D01*
X249372Y327033D01*
X249283Y327005D01*
X249195Y326973D01*
X249109Y326937D01*
X249024Y326898D01*
X248941Y326855D01*
X248860Y326809D01*
X248781Y326759D01*
X248704Y326707D01*
X248629Y326651D01*
X248557Y326592D01*
X248487Y326530D01*
X248419Y326466D01*
X248355Y326398D01*
X248293Y326328D01*
X248234Y326256D01*
X248178Y326181D01*
X248126Y326104D01*
X248076Y326025D01*
X248030Y325944D01*
X247987Y325861D01*
X247948Y325776D01*
X247912Y325690D01*
X247880Y325602D01*
X247852Y325513D01*
X247827Y325423D01*
X247806Y325332D01*
X247789Y325241D01*
X247775Y325148D01*
X247766Y325055D01*
X247760Y324962D01*
X247758Y324869D01*
X247758Y321256D01*
X247760Y321163D01*
X247766Y321070D01*
X247775Y320977D01*
X247789Y320884D01*
X247806Y320793D01*
X247827Y320702D01*
X247852Y320612D01*
X247880Y320523D01*
X247912Y320435D01*
X247948Y320349D01*
X247987Y320264D01*
X248030Y320181D01*
X248076Y320100D01*
X248126Y320021D01*
X248178Y319944D01*
X248234Y319869D01*
X248293Y319797D01*
X248355Y319727D01*
X248419Y319659D01*
X248487Y319595D01*
X248557Y319533D01*
X248629Y319474D01*
X248704Y319418D01*
X248781Y319366D01*
X248860Y319316D01*
X248941Y319270D01*
X249024Y319227D01*
X249109Y319188D01*
X249195Y319152D01*
X249283Y319120D01*
X249372Y319092D01*
X249462Y319067D01*
X249553Y319046D01*
X249644Y319029D01*
X249737Y319015D01*
X249830Y319006D01*
X249923Y319000D01*
X250016Y318998D01*
X250109Y319000D01*
X250202Y319006D01*
X250295Y319015D01*
X250388Y319029D01*
X250479Y319046D01*
X250570Y319067D01*
X250660Y319092D01*
X250749Y319120D01*
X250837Y319152D01*
X250923Y319188D01*
X251008Y319227D01*
X251091Y319270D01*
X251172Y319316D01*
X251251Y319366D01*
X251328Y319418D01*
X251403Y319474D01*
X251475Y319533D01*
X251545Y319595D01*
X251613Y319659D01*
X251677Y319727D01*
X251739Y319797D01*
X251798Y319869D01*
X251854Y319944D01*
X251906Y320021D01*
X251956Y320100D01*
X252002Y320181D01*
X252045Y320264D01*
X252084Y320349D01*
X252120Y320435D01*
X252152Y320523D01*
X252180Y320612D01*
X252205Y320702D01*
X252226Y320793D01*
X252243Y320884D01*
X252257Y320977D01*
X252266Y321070D01*
X252272Y321163D01*
X252274Y321256D01*
D11*
X373270Y288178D02*
X399690Y288178D01*
X399690Y272438D02*
X373270Y272438D01*
X399690Y272438D02*
X399690Y288178D01*
X373270Y288178D02*
X373270Y272438D01*
D15*
X380980Y280208D02*
X390980Y275208D01*
X390980Y285208D01*
X380980Y280208D01*
X380980Y275208D01*
X380980Y280208D02*
X380980Y285208D01*
D13*
X390068Y291802D02*
X390068Y301200D01*
X387457Y301200D01*
X387357Y301198D01*
X387257Y301192D01*
X387158Y301183D01*
X387058Y301169D01*
X386960Y301152D01*
X386862Y301131D01*
X386765Y301107D01*
X386669Y301078D01*
X386574Y301046D01*
X386481Y301011D01*
X386389Y300972D01*
X386298Y300929D01*
X386210Y300883D01*
X386123Y300833D01*
X386038Y300781D01*
X385955Y300725D01*
X385874Y300666D01*
X385796Y300603D01*
X385720Y300538D01*
X385646Y300470D01*
X385576Y300400D01*
X385508Y300326D01*
X385443Y300250D01*
X385380Y300172D01*
X385321Y300091D01*
X385265Y300008D01*
X385213Y299923D01*
X385163Y299836D01*
X385117Y299748D01*
X385074Y299657D01*
X385035Y299565D01*
X385000Y299472D01*
X384968Y299377D01*
X384939Y299281D01*
X384915Y299184D01*
X384894Y299086D01*
X384877Y298988D01*
X384863Y298888D01*
X384854Y298789D01*
X384848Y298689D01*
X384846Y298589D01*
X384847Y298589D02*
X384847Y294412D01*
X384846Y294412D02*
X384848Y294312D01*
X384854Y294212D01*
X384863Y294113D01*
X384877Y294013D01*
X384894Y293915D01*
X384915Y293817D01*
X384939Y293720D01*
X384968Y293624D01*
X385000Y293529D01*
X385035Y293436D01*
X385074Y293344D01*
X385117Y293253D01*
X385163Y293165D01*
X385213Y293078D01*
X385265Y292993D01*
X385321Y292910D01*
X385380Y292829D01*
X385443Y292751D01*
X385508Y292675D01*
X385576Y292601D01*
X385646Y292531D01*
X385720Y292463D01*
X385796Y292398D01*
X385874Y292335D01*
X385955Y292276D01*
X386038Y292220D01*
X386123Y292168D01*
X386210Y292118D01*
X386298Y292072D01*
X386389Y292029D01*
X386481Y291990D01*
X386574Y291955D01*
X386669Y291923D01*
X386765Y291894D01*
X386862Y291870D01*
X386960Y291849D01*
X387058Y291832D01*
X387158Y291818D01*
X387257Y291809D01*
X387357Y291803D01*
X387457Y291801D01*
X387457Y291802D02*
X390068Y291802D01*
X377747Y301200D02*
X377652Y301198D01*
X377558Y301192D01*
X377464Y301183D01*
X377370Y301170D01*
X377277Y301153D01*
X377185Y301132D01*
X377093Y301107D01*
X377003Y301079D01*
X376914Y301047D01*
X376826Y301012D01*
X376740Y300973D01*
X376655Y300931D01*
X376572Y300885D01*
X376491Y300836D01*
X376412Y300784D01*
X376335Y300729D01*
X376261Y300670D01*
X376189Y300609D01*
X376119Y300545D01*
X376052Y300478D01*
X375988Y300408D01*
X375927Y300336D01*
X375868Y300262D01*
X375813Y300185D01*
X375761Y300106D01*
X375712Y300025D01*
X375666Y299942D01*
X375624Y299857D01*
X375585Y299771D01*
X375550Y299683D01*
X375518Y299594D01*
X375490Y299504D01*
X375465Y299412D01*
X375444Y299320D01*
X375427Y299227D01*
X375414Y299133D01*
X375405Y299039D01*
X375399Y298945D01*
X375397Y298850D01*
X377747Y301199D02*
X377855Y301197D01*
X377964Y301191D01*
X378072Y301181D01*
X378179Y301168D01*
X378286Y301150D01*
X378393Y301129D01*
X378498Y301104D01*
X378603Y301075D01*
X378706Y301043D01*
X378808Y301006D01*
X378909Y300966D01*
X379008Y300923D01*
X379106Y300876D01*
X379202Y300825D01*
X379296Y300771D01*
X379388Y300714D01*
X379478Y300653D01*
X379566Y300589D01*
X379651Y300523D01*
X379734Y300453D01*
X379814Y300380D01*
X379892Y300304D01*
X379967Y300226D01*
X380039Y300145D01*
X380108Y300061D01*
X380174Y299975D01*
X380237Y299887D01*
X380296Y299796D01*
X380353Y299704D01*
X380406Y299609D01*
X380455Y299512D01*
X380501Y299414D01*
X380544Y299315D01*
X380583Y299213D01*
X380618Y299111D01*
X376181Y297022D02*
X376112Y297091D01*
X376046Y297162D01*
X375982Y297235D01*
X375921Y297311D01*
X375863Y297390D01*
X375809Y297470D01*
X375757Y297553D01*
X375709Y297637D01*
X375663Y297723D01*
X375622Y297811D01*
X375583Y297901D01*
X375548Y297992D01*
X375517Y298084D01*
X375489Y298177D01*
X375465Y298271D01*
X375445Y298366D01*
X375428Y298462D01*
X375415Y298559D01*
X375406Y298656D01*
X375400Y298753D01*
X375398Y298850D01*
X376181Y297023D02*
X380619Y291802D01*
X375398Y291802D01*
D11*
X323554Y288127D02*
X297134Y288127D01*
X297134Y272387D02*
X323554Y272387D01*
X323554Y288127D01*
X297134Y288127D02*
X297134Y272387D01*
D15*
X304844Y280157D02*
X314844Y275157D01*
X314844Y285157D01*
X304844Y280157D01*
X304844Y275157D01*
X304844Y280157D02*
X304844Y285157D01*
D13*
X317900Y290163D02*
X317900Y299561D01*
X315290Y299561D01*
X315290Y299562D02*
X315190Y299560D01*
X315090Y299554D01*
X314991Y299545D01*
X314891Y299531D01*
X314793Y299514D01*
X314695Y299493D01*
X314598Y299469D01*
X314502Y299440D01*
X314407Y299408D01*
X314314Y299373D01*
X314222Y299334D01*
X314131Y299291D01*
X314043Y299245D01*
X313956Y299195D01*
X313871Y299143D01*
X313788Y299087D01*
X313707Y299028D01*
X313629Y298965D01*
X313553Y298900D01*
X313479Y298832D01*
X313409Y298762D01*
X313341Y298688D01*
X313276Y298612D01*
X313213Y298534D01*
X313154Y298453D01*
X313098Y298370D01*
X313046Y298285D01*
X312996Y298198D01*
X312950Y298110D01*
X312907Y298019D01*
X312868Y297927D01*
X312833Y297834D01*
X312801Y297739D01*
X312772Y297643D01*
X312748Y297546D01*
X312727Y297448D01*
X312710Y297350D01*
X312696Y297250D01*
X312687Y297151D01*
X312681Y297051D01*
X312679Y296951D01*
X312679Y292774D01*
X312681Y292674D01*
X312687Y292574D01*
X312696Y292475D01*
X312710Y292375D01*
X312727Y292277D01*
X312748Y292179D01*
X312772Y292082D01*
X312801Y291986D01*
X312833Y291891D01*
X312868Y291798D01*
X312907Y291706D01*
X312950Y291615D01*
X312996Y291527D01*
X313046Y291440D01*
X313098Y291355D01*
X313154Y291272D01*
X313213Y291191D01*
X313276Y291113D01*
X313341Y291037D01*
X313409Y290963D01*
X313479Y290893D01*
X313553Y290825D01*
X313629Y290760D01*
X313707Y290697D01*
X313788Y290638D01*
X313871Y290582D01*
X313956Y290530D01*
X314043Y290480D01*
X314131Y290434D01*
X314222Y290391D01*
X314314Y290352D01*
X314407Y290317D01*
X314502Y290285D01*
X314598Y290256D01*
X314695Y290232D01*
X314793Y290211D01*
X314891Y290194D01*
X314991Y290180D01*
X315090Y290171D01*
X315190Y290165D01*
X315290Y290163D01*
X317900Y290163D01*
X308451Y290163D02*
X305841Y290163D01*
X305740Y290165D01*
X305639Y290171D01*
X305538Y290181D01*
X305438Y290194D01*
X305338Y290212D01*
X305239Y290233D01*
X305141Y290259D01*
X305044Y290288D01*
X304948Y290320D01*
X304854Y290357D01*
X304761Y290397D01*
X304669Y290441D01*
X304580Y290488D01*
X304492Y290539D01*
X304406Y290593D01*
X304323Y290650D01*
X304241Y290710D01*
X304163Y290774D01*
X304086Y290840D01*
X304013Y290910D01*
X303942Y290982D01*
X303874Y291057D01*
X303809Y291135D01*
X303747Y291215D01*
X303688Y291297D01*
X303632Y291382D01*
X303580Y291469D01*
X303531Y291557D01*
X303485Y291648D01*
X303444Y291740D01*
X303405Y291834D01*
X303371Y291929D01*
X303340Y292025D01*
X303313Y292123D01*
X303289Y292221D01*
X303270Y292321D01*
X303254Y292421D01*
X303242Y292521D01*
X303234Y292622D01*
X303230Y292723D01*
X303230Y292825D01*
X303234Y292926D01*
X303242Y293027D01*
X303254Y293127D01*
X303270Y293227D01*
X303289Y293327D01*
X303313Y293425D01*
X303340Y293523D01*
X303371Y293619D01*
X303405Y293714D01*
X303444Y293808D01*
X303485Y293900D01*
X303531Y293991D01*
X303580Y294080D01*
X303632Y294166D01*
X303688Y294251D01*
X303747Y294333D01*
X303809Y294413D01*
X303874Y294491D01*
X303942Y294566D01*
X304013Y294638D01*
X304086Y294708D01*
X304163Y294774D01*
X304241Y294838D01*
X304323Y294898D01*
X304406Y294955D01*
X304492Y295009D01*
X304580Y295060D01*
X304669Y295107D01*
X304761Y295151D01*
X304854Y295191D01*
X304948Y295228D01*
X305044Y295260D01*
X305141Y295289D01*
X305239Y295315D01*
X305338Y295336D01*
X305438Y295354D01*
X305538Y295367D01*
X305639Y295377D01*
X305740Y295383D01*
X305841Y295385D01*
X305319Y299561D02*
X308451Y299561D01*
X305319Y299561D02*
X305229Y299559D01*
X305140Y299553D01*
X305050Y299544D01*
X304961Y299530D01*
X304873Y299513D01*
X304786Y299492D01*
X304699Y299467D01*
X304614Y299438D01*
X304530Y299406D01*
X304448Y299371D01*
X304367Y299331D01*
X304288Y299289D01*
X304211Y299243D01*
X304136Y299193D01*
X304063Y299141D01*
X303992Y299085D01*
X303924Y299027D01*
X303859Y298965D01*
X303796Y298901D01*
X303736Y298834D01*
X303679Y298765D01*
X303625Y298693D01*
X303574Y298619D01*
X303526Y298543D01*
X303482Y298465D01*
X303441Y298385D01*
X303403Y298303D01*
X303369Y298220D01*
X303339Y298135D01*
X303312Y298049D01*
X303289Y297963D01*
X303270Y297875D01*
X303255Y297786D01*
X303243Y297697D01*
X303235Y297608D01*
X303231Y297518D01*
X303231Y297428D01*
X303235Y297338D01*
X303243Y297249D01*
X303255Y297160D01*
X303270Y297071D01*
X303289Y296983D01*
X303312Y296897D01*
X303339Y296811D01*
X303369Y296726D01*
X303403Y296643D01*
X303441Y296561D01*
X303482Y296481D01*
X303526Y296403D01*
X303574Y296327D01*
X303625Y296253D01*
X303679Y296181D01*
X303736Y296112D01*
X303796Y296045D01*
X303859Y295981D01*
X303924Y295919D01*
X303992Y295861D01*
X304063Y295805D01*
X304136Y295753D01*
X304211Y295703D01*
X304288Y295657D01*
X304367Y295615D01*
X304448Y295575D01*
X304530Y295540D01*
X304614Y295508D01*
X304699Y295479D01*
X304786Y295454D01*
X304873Y295433D01*
X304961Y295416D01*
X305050Y295402D01*
X305140Y295393D01*
X305229Y295387D01*
X305319Y295385D01*
X305319Y295384D02*
X307407Y295384D01*
M02*
